<?xml version="1.0" encoding="utf-8"?>
<!-- Generator: Adobe Illustrator 25.0.1, SVG Export Plug-In . SVG Version: 6.00 Build 0)  -->
<svg version="1.1" id="レイヤー_1" xmlns="http://www.w3.org/2000/svg" xmlns:xlink="http://www.w3.org/1999/xlink" x="0px"
	 y="0px" viewBox="0 0 22 16" style="enable-background:new 0 0 22 16;" xml:space="preserve">
<style type="text/css">
	.st0{fill:#FFFFFF;}
</style>
<path class="st0" d="M21.9,7.6c-0.1-0.1-0.1-0.2-0.2-0.3l-7-7c-0.4-0.4-1-0.4-1.4,0c-0.4,0.4-0.4,1,0,1.4L18.6,7H1C0.4,7,0,7.4,0,8
	c0,0.6,0.4,1,1,1h17.6l-5.3,5.3c-0.4,0.4-0.4,1,0,1.4c0.4,0.4,1,0.4,1.4,0l7-7c0.1-0.1,0.2-0.2,0.2-0.3C22,8.1,22,7.9,21.9,7.6z"/>
</svg>
