<svg width="56" height="56" viewBox="0 0 56 56" fill="none" xmlns="http://www.w3.org/2000/svg">
<circle cx="28" cy="28" r="28" fill="#DF2B20"/>
<g clip-path="url(#clip0)">
<path fill-rule="evenodd" clip-rule="evenodd" d="M26.4995 12.5928C28.9974 12.5928 30.9291 13.9544 31.7746 16.2C32.389 17.8814 34.2668 19.7996 36.5028 20.4891C36.6183 20.5257 36.6646 20.6605 36.5875 20.7548C36.2832 21.14 35.9308 21.7698 35.7363 22.2474C35.692 22.3572 35.5552 22.3861 35.4647 22.311C34.0838 21.1535 32.909 20.7471 31.3008 20.6046C30.5806 20.5468 30.1126 20.5661 29.4577 20.672C29.3634 20.6874 29.2921 20.778 29.3094 20.8704C29.4674 21.7313 30.1607 22.6191 31.3875 23.0621C32.8647 23.6206 35.5995 25.3366 35.5995 28.9554C35.5995 31.9772 33.6948 33.7703 31.8401 34.6735C29.1881 35.8252 27.7013 36.4974 25.9814 38.0304C25.3786 38.6217 25.0647 39.2225 25.0647 39.8831C25.0647 40.5996 25.7715 41.786 27.058 41.786C27.7302 41.786 28.3927 41.4951 28.828 41.1138C29.1284 40.85 29.5694 40.8249 29.8891 41.0676C30.2686 41.3545 30.309 41.9034 29.9835 42.252C29.4269 42.8452 28.5737 43.2843 27.3854 43.2843C24.0363 43.2824 22.2336 40.3049 22.2008 38.1594C22.1643 35.7231 23.8591 34.0245 25.1417 32.9017C26.9714 31.047 26.5149 28.9208 25.9044 27.7806C25.5731 27.2028 24.6333 26.6713 23.5201 27.0083C22.5976 27.3184 22.0391 28.291 22.1045 29.0922C22.1084 29.1423 22.0564 29.175 22.016 29.148C20.013 27.8057 18.7496 24.6394 20.065 21.7987C20.1035 21.714 20.2075 21.6754 20.2923 21.7159C20.6755 21.9027 21.3708 22.0818 21.9254 22.0818C22.2432 22.0818 22.7883 22.0818 23.2948 21.8815C23.4103 21.8353 23.4392 21.6851 23.3506 21.5984C22.8383 21.1092 22.7363 20.8877 22.4358 20.2098C22.1161 19.4529 22.1103 18.2839 22.3357 17.6002C22.3434 17.5751 22.3241 17.5501 22.2971 17.5559C21.9043 17.6348 21.3746 17.8621 21.0472 18.099C21.0222 18.1163 20.9875 18.0951 20.9933 18.0643C21.2841 16.514 22.4936 15.1735 24.1865 14.848C24.2173 14.8423 24.2269 14.8037 24.2019 14.7864C23.8148 14.5226 23.2697 14.2529 22.6515 14.1643C22.6515 14.1682 23.9823 12.5928 26.4995 12.5928Z" fill="white"/>
</g>
<defs>
<clipPath id="clip0">
<rect width="34.6667" height="34.6667" fill="white" transform="translate(10.6667 10.6667)"/>
</clipPath>
</defs>
</svg>
