<svg width="150" height="47" viewBox="0 0 150 47" fill="none" xmlns="http://www.w3.org/2000/svg">
<g clip-path="url(#clip0)">
<path d="M86.9772 31.7985C86.9264 31.7985 86.825 31.7478 86.7236 31.7478C86.6222 31.7478 86.5207 31.7478 86.4193 31.7478C86.2164 31.7478 86.0643 31.7985 85.9629 31.8493C85.8614 31.9 85.76 32.0014 85.7093 32.1028C85.6586 32.2043 85.6078 32.3564 85.5571 32.4578C85.5571 32.61 85.5064 32.7114 85.5064 32.8636V33.4722H86.8757V34.9936H85.5064V39.558H83.5285V34.9936H82.4128V33.4722H83.5285V32.8636C83.5285 32.5086 83.5792 32.1536 83.6299 31.7985C83.7314 31.4435 83.8328 31.1392 84.0357 30.8857C84.2385 30.6321 84.4921 30.4292 84.8471 30.2771C85.2021 30.1249 85.6078 30.0742 86.115 30.0742C86.2671 30.0742 86.47 30.0742 86.6222 30.1249C86.7743 30.1249 86.9264 30.1756 87.0786 30.2264L86.9772 31.7985Z" fill="#212226"/>
<path d="M93.6715 36.5149C93.6715 37.0221 93.5701 37.4785 93.4179 37.8842C93.2151 38.2899 93.0122 38.645 92.7079 38.8985C92.4036 39.2028 92.0486 39.4057 91.6429 39.5578C91.2372 39.71 90.7807 39.8114 90.3243 39.8114C89.8678 39.8114 89.4114 39.71 89.0057 39.5578C88.5999 39.4057 88.2449 39.2028 87.9406 38.8985C87.6363 38.5942 87.3828 38.2899 87.2306 37.8842C87.0278 37.4785 86.9771 37.0221 86.9771 36.5149C86.9771 36.0078 87.0785 35.5513 87.2306 35.1963C87.4335 34.7906 87.6363 34.4356 87.9406 34.182C88.2449 33.9284 88.5999 33.6748 89.0057 33.5227C89.4114 33.3705 89.8678 33.3198 90.3243 33.3198C90.7807 33.3198 91.2372 33.3705 91.6429 33.5227C92.0486 33.6748 92.4036 33.8777 92.7079 34.182C93.0122 34.4356 93.2658 34.7906 93.4179 35.1963C93.5701 35.5513 93.6715 36.0078 93.6715 36.5149ZM91.7443 36.5149C91.7443 36.312 91.6936 36.1092 91.6429 35.957C91.5922 35.7542 91.4907 35.602 91.3386 35.4499C91.2372 35.2977 91.085 35.1963 90.8821 35.0949C90.6793 34.9934 90.4764 34.9427 90.2736 34.9427C90.0707 34.9427 89.8171 34.9934 89.665 35.0949C89.4621 35.1963 89.3607 35.2977 89.2085 35.4499C89.1071 35.602 89.0057 35.7542 88.955 35.957C88.9042 36.1599 88.8535 36.312 88.8535 36.5149C88.8535 36.7178 88.9042 36.9206 88.955 37.0728C89.0057 37.2756 89.1071 37.4278 89.2085 37.5799C89.31 37.7321 89.4621 37.8335 89.665 37.9349C89.8678 38.0364 90.0707 38.0871 90.2736 38.0871C90.5271 38.0871 90.73 38.0364 90.8821 37.9349C91.085 37.8335 91.2372 37.7321 91.3386 37.5799C91.44 37.4278 91.5415 37.2756 91.5922 37.0728C91.6936 36.8699 91.7443 36.6671 91.7443 36.5149Z" fill="#212226"/>
<path d="M98.0838 35.146C97.9823 35.146 97.9316 35.0953 97.8302 35.0953C97.7288 35.0953 97.678 35.0953 97.5766 35.0953C97.323 35.0953 97.0695 35.146 96.9173 35.2474C96.7145 35.3489 96.613 35.4503 96.4609 35.6024C96.3594 35.7546 96.258 35.9067 96.2073 36.0589C96.1566 36.211 96.1566 36.3632 96.1566 36.4646V39.5583H94.1787V33.4724H96.1059V34.3346C96.258 34.0303 96.4609 33.7767 96.7652 33.5738C97.0695 33.371 97.3737 33.2695 97.7288 33.2695C97.8302 33.2695 97.8809 33.2695 97.9823 33.2695C98.0838 33.2695 98.1345 33.2695 98.1852 33.3202L98.0838 35.146Z" fill="#212226"/>
<path d="M108.43 37.0224C108.43 37.4788 108.328 37.8846 108.126 38.1888C107.923 38.4931 107.669 38.7467 107.365 38.9496C107.06 39.1524 106.705 39.3046 106.3 39.3553C105.894 39.4567 105.488 39.5075 105.083 39.5075H101.634V30.9365H105.083C105.438 30.9365 105.742 30.9872 106.097 31.038C106.452 31.0887 106.756 31.2408 107.06 31.393C107.365 31.5451 107.568 31.7987 107.771 32.0523C107.973 32.3566 108.024 32.7116 108.024 33.1173C108.024 33.5737 107.872 33.9795 107.618 34.2837C107.365 34.588 107.01 34.8416 106.604 34.9431C106.858 34.9938 107.06 35.0445 107.314 35.1459C107.517 35.2473 107.72 35.3995 107.872 35.5516C108.024 35.7038 108.176 35.9067 108.227 36.1602C108.43 36.5152 108.43 36.7688 108.43 37.0224ZM106.097 33.4216C106.097 33.1173 105.995 32.9144 105.742 32.7623C105.539 32.6101 105.184 32.5594 104.728 32.5594H103.713V34.3345H104.829C105.235 34.3345 105.539 34.233 105.742 34.0809C105.995 33.9795 106.097 33.7259 106.097 33.4216ZM106.35 36.8702C106.35 36.5152 106.198 36.2617 105.945 36.1095C105.691 35.9574 105.336 35.9067 104.88 35.9067H103.713V37.8846H104.88C105.032 37.8846 105.235 37.8846 105.387 37.8338C105.539 37.7831 105.742 37.7324 105.843 37.6817C105.995 37.631 106.097 37.5295 106.198 37.3774C106.3 37.2253 106.35 37.0731 106.35 36.8702Z" fill="#212226"/>
<path d="M113.298 39.558V38.6959C113.248 38.848 113.146 38.9494 112.994 39.1016C112.893 39.203 112.741 39.3045 112.588 39.4059C112.436 39.5073 112.233 39.558 112.081 39.6087C111.878 39.6595 111.676 39.7102 111.473 39.7102C111.067 39.7102 110.712 39.6595 110.458 39.5073C110.154 39.3552 109.951 39.1523 109.799 38.9494C109.647 38.6959 109.495 38.4423 109.444 38.138C109.343 37.8337 109.343 37.5294 109.343 37.2251V33.4722H111.371V36.7687C111.371 36.9208 111.371 37.1237 111.422 37.2758C111.422 37.428 111.473 37.5801 111.574 37.6816C111.625 37.783 111.726 37.8844 111.828 37.9858C111.929 38.0366 112.081 38.0873 112.284 38.0873C112.639 38.0873 112.893 37.9351 113.096 37.6816C113.298 37.428 113.349 37.1237 113.349 36.7687V33.4722H115.327V39.558H113.298Z" fill="#212226"/>
<path d="M119.993 35.2979C119.841 35.1457 119.638 34.9936 119.435 34.8921C119.232 34.7907 118.979 34.74 118.725 34.74C118.522 34.74 118.37 34.7907 118.218 34.8414C118.066 34.8921 117.964 35.0443 117.964 35.1964C117.964 35.3486 118.066 35.5007 118.218 35.5514C118.37 35.6022 118.674 35.7036 119.08 35.805C119.283 35.8557 119.537 35.9064 119.79 36.0079C120.044 36.1093 120.247 36.2107 120.399 36.3629C120.602 36.515 120.754 36.6672 120.855 36.9208C120.957 37.1236 121.007 37.3772 121.007 37.6815C121.007 38.0872 120.906 38.3915 120.754 38.6451C120.602 38.8987 120.399 39.1015 120.145 39.3044C119.892 39.4565 119.638 39.6087 119.334 39.6594C119.029 39.7101 118.725 39.7608 118.421 39.7608C117.914 39.7608 117.457 39.6594 116.95 39.5073C116.494 39.3551 116.088 39.1015 115.784 38.7972L116.899 37.6308C117.102 37.8336 117.305 37.9858 117.559 38.1379C117.812 38.2901 118.117 38.3408 118.37 38.3408C118.522 38.3408 118.674 38.2901 118.877 38.2394C119.029 38.1379 119.131 38.0365 119.131 37.8336C119.131 37.6308 119.029 37.5293 118.827 37.4279C118.624 37.3265 118.319 37.2251 117.914 37.1236C117.711 37.0729 117.508 37.0222 117.254 36.9208C117.052 36.8193 116.849 36.7179 116.697 36.6165C116.544 36.4643 116.392 36.3122 116.291 36.1093C116.189 35.9064 116.139 35.6529 116.139 35.3993C116.139 35.0443 116.24 34.74 116.392 34.4864C116.544 34.2328 116.747 34.03 117.001 33.8778C117.254 33.7257 117.508 33.5735 117.812 33.5228C118.117 33.4214 118.421 33.4214 118.674 33.4214C119.131 33.4214 119.587 33.4721 119.993 33.6242C120.449 33.7764 120.804 33.9793 121.109 34.2835L119.993 35.2979Z" fill="#212226"/>
<path d="M123.949 31.5451C123.949 31.6972 123.898 31.8494 123.847 32.0015C123.797 32.1537 123.695 32.2551 123.594 32.3565C123.492 32.458 123.391 32.5087 123.239 32.6101C123.087 32.6608 122.934 32.7115 122.782 32.7115C122.478 32.7115 122.174 32.6101 121.971 32.4072C121.768 32.2044 121.666 31.9508 121.666 31.6465C121.666 31.4944 121.717 31.3422 121.768 31.2408C121.819 31.0886 121.92 30.9872 122.022 30.8858C122.123 30.7843 122.224 30.7336 122.377 30.6322C122.529 30.5815 122.681 30.5308 122.833 30.5308C122.985 30.5308 123.137 30.5815 123.289 30.6322C123.442 30.6829 123.543 30.7843 123.644 30.8858C123.746 30.9872 123.847 31.0886 123.898 31.2408C123.898 31.2408 123.949 31.3929 123.949 31.5451ZM121.768 39.5581V33.4723H123.746V39.5581H121.768Z" fill="#212226"/>
<path d="M128.97 39.5578V36.2613C128.97 36.1092 128.97 35.9063 128.919 35.7542C128.868 35.602 128.868 35.4499 128.767 35.3484C128.716 35.247 128.615 35.1456 128.513 35.0442C128.412 34.9934 128.26 34.9427 128.057 34.9427C127.854 34.9427 127.702 34.9934 127.601 35.0442C127.448 35.0949 127.347 35.1963 127.245 35.3484C127.144 35.4499 127.093 35.602 127.043 35.7542C126.992 35.9063 126.992 36.0585 126.992 36.2613V39.5578H124.963V33.472H126.89V34.3341C126.941 34.182 127.043 34.0806 127.195 33.9284C127.296 33.827 127.448 33.6748 127.601 33.6241C127.753 33.5227 127.956 33.472 128.108 33.4213C128.311 33.3705 128.513 33.3198 128.716 33.3198C129.122 33.3198 129.477 33.3705 129.731 33.5227C130.035 33.6748 130.238 33.8777 130.441 34.0806C130.593 34.3341 130.745 34.5877 130.796 34.892C130.897 35.1963 130.897 35.5006 130.897 35.8049V39.5578H128.97Z" fill="#212226"/>
<path d="M138.099 36.6164C138.099 36.7178 138.099 36.7685 138.099 36.87C138.099 36.9714 138.099 37.0221 138.099 37.1235H133.686C133.686 37.2757 133.737 37.4278 133.838 37.58C133.94 37.7321 134.041 37.8336 134.193 37.935C134.346 38.0364 134.498 38.1379 134.65 38.1886C134.802 38.2393 135.005 38.29 135.157 38.29C135.461 38.29 135.766 38.2393 135.969 38.1379C136.171 38.0364 136.374 37.8843 136.526 37.6814L137.896 38.5436C137.591 38.9493 137.236 39.2536 136.78 39.5072C136.324 39.71 135.766 39.8622 135.157 39.8622C134.701 39.8622 134.295 39.8115 133.838 39.6593C133.433 39.5072 133.078 39.3043 132.773 39.0507C132.469 38.7972 132.216 38.4422 132.063 38.0364C131.911 37.6307 131.81 37.1743 131.81 36.6671C131.81 36.16 131.911 35.7035 132.063 35.2978C132.216 34.8921 132.469 34.5371 132.773 34.2835C133.078 33.9792 133.433 33.7763 133.788 33.6242C134.193 33.472 134.599 33.3706 135.106 33.3706C135.563 33.3706 135.969 33.4213 136.324 33.5735C136.679 33.7256 137.034 33.9285 137.287 34.2328C137.541 34.5371 137.744 34.8414 137.896 35.2471C138.048 35.6528 138.099 36.0585 138.099 36.6164ZM136.273 35.8049C136.273 35.5007 136.171 35.1964 135.969 34.9935C135.766 34.7906 135.461 34.6385 135.056 34.6385C134.853 34.6385 134.701 34.6892 134.498 34.7399C134.346 34.7906 134.193 34.8921 134.092 34.9935C133.991 35.0949 133.889 35.2471 133.788 35.3485C133.737 35.5007 133.686 35.6528 133.686 35.8049H136.273Z" fill="#212226"/>
<path d="M142.511 35.2979C142.358 35.1457 142.156 34.9936 141.953 34.8921C141.75 34.7907 141.496 34.74 141.243 34.74C141.04 34.74 140.888 34.7907 140.736 34.8414C140.583 34.8921 140.482 35.0443 140.482 35.1964C140.482 35.3486 140.583 35.5007 140.736 35.5514C140.888 35.6022 141.192 35.7036 141.598 35.805C141.801 35.8557 142.054 35.9064 142.308 36.0079C142.561 36.1093 142.764 36.2107 142.916 36.3629C143.119 36.515 143.271 36.6672 143.373 36.9208C143.474 37.1236 143.525 37.3772 143.525 37.6815C143.525 38.0872 143.423 38.3915 143.271 38.6451C143.119 38.8987 142.916 39.1015 142.663 39.3044C142.409 39.4565 142.156 39.6087 141.851 39.6594C141.547 39.7101 141.243 39.7608 140.938 39.7608C140.431 39.7608 139.975 39.6594 139.468 39.5073C139.011 39.3551 138.605 39.1015 138.301 38.7972L139.417 37.6308C139.62 37.8336 139.823 37.9858 140.076 38.1379C140.33 38.2901 140.634 38.3408 140.888 38.3408C141.04 38.3408 141.192 38.2901 141.395 38.2394C141.547 38.1379 141.648 38.0365 141.648 37.8336C141.648 37.6308 141.547 37.5293 141.344 37.4279C141.141 37.3265 140.837 37.2251 140.431 37.1236C140.228 37.0729 140.026 37.0222 139.772 36.9208C139.569 36.8193 139.366 36.7179 139.214 36.6165C139.062 36.4643 138.91 36.3122 138.808 36.1093C138.707 35.9064 138.656 35.6529 138.656 35.3993C138.656 35.0443 138.758 34.74 138.91 34.4864C139.062 34.2328 139.265 34.03 139.518 33.8778C139.772 33.7257 140.026 33.5735 140.33 33.5228C140.634 33.4214 140.938 33.4214 141.192 33.4214C141.648 33.4214 142.105 33.4721 142.511 33.6242C142.967 33.7764 143.322 33.9793 143.626 34.2835L142.511 35.2979Z" fill="#212226"/>
<path d="M147.887 35.2979C147.734 35.1457 147.531 34.9936 147.329 34.8921C147.126 34.7907 146.872 34.74 146.619 34.74C146.416 34.74 146.264 34.7907 146.111 34.8414C145.959 34.8921 145.858 35.0443 145.858 35.1964C145.858 35.3486 145.959 35.5007 146.111 35.5514C146.264 35.6022 146.568 35.7036 146.974 35.805C147.176 35.8557 147.43 35.9064 147.684 36.0079C147.937 36.1093 148.14 36.2107 148.292 36.3629C148.495 36.515 148.647 36.6672 148.749 36.9208C148.85 37.1236 148.901 37.3772 148.901 37.6815C148.901 38.0872 148.799 38.3915 148.647 38.6451C148.495 38.8987 148.292 39.1015 148.039 39.3044C147.785 39.4565 147.531 39.6087 147.227 39.6594C146.923 39.7101 146.619 39.7608 146.314 39.7608C145.807 39.7608 145.351 39.6594 144.844 39.5073C144.387 39.3551 143.981 39.1015 143.677 38.7972L144.793 37.6308C144.996 37.8336 145.199 37.9858 145.452 38.1379C145.706 38.2901 146.01 38.3408 146.264 38.3408C146.416 38.3408 146.568 38.2901 146.771 38.2394C146.923 38.1379 147.024 38.0365 147.024 37.8336C147.024 37.6308 146.923 37.5293 146.72 37.4279C146.517 37.3265 146.213 37.2251 145.807 37.1236C145.604 37.0729 145.401 37.0222 145.148 36.9208C144.945 36.8193 144.742 36.7179 144.59 36.6165C144.438 36.4643 144.286 36.3122 144.184 36.1093C144.083 35.9064 144.032 35.6529 144.032 35.3993C144.032 35.0443 144.134 34.74 144.286 34.4864C144.438 34.2328 144.641 34.03 144.894 33.8778C145.148 33.7257 145.401 33.5735 145.706 33.5228C146.01 33.4214 146.314 33.4214 146.568 33.4214C147.024 33.4214 147.481 33.4721 147.887 33.6242C148.343 33.7764 148.698 33.9793 149.002 34.2835L147.887 35.2979Z" fill="#212226"/>
<path d="M44.7312 13.8454C44.4269 13.4396 44.0212 13.1353 43.514 12.8818C43.0069 12.6282 42.5504 12.5268 42.0433 12.5268C41.7897 12.5268 41.5361 12.5268 41.3333 12.5775C41.0797 12.6282 40.8768 12.6789 40.674 12.831C40.4711 12.9325 40.319 13.0846 40.1668 13.2875C40.0147 13.4903 39.9639 13.7439 39.9639 13.9975C39.9639 14.2511 40.0147 14.4539 40.1161 14.6568C40.2175 14.809 40.3697 14.9611 40.5725 15.1132C40.7754 15.2654 41.029 15.3668 41.2826 15.4683C41.5868 15.5697 41.8911 15.6711 42.2461 15.7725C42.7533 15.9247 43.3112 16.1276 43.8183 16.3304C44.3762 16.5333 44.8834 16.7869 45.3398 17.1419C45.7962 17.4969 46.1512 17.9026 46.4555 18.4098C46.7598 18.9169 46.912 19.5255 46.912 20.2862C46.912 21.1484 46.7598 21.9091 46.4555 22.5177C46.1512 23.1263 45.6948 23.6842 45.1876 24.0899C44.6298 24.4956 44.0212 24.7999 43.3619 25.0028C42.6519 25.2056 41.9419 25.3071 41.2318 25.3071C40.1668 25.3071 39.1018 25.1042 38.0875 24.7492C37.0732 24.3942 36.2617 23.8363 35.6024 23.1263L37.986 20.692C38.3411 21.1484 38.8482 21.5034 39.4568 21.8077C40.0654 22.112 40.674 22.2641 41.2318 22.2641C41.4854 22.2641 41.739 22.2134 42.0433 22.1627C42.2969 22.112 42.4997 22.0106 42.7026 21.9091C42.9054 21.757 43.0576 21.6048 43.159 21.402C43.2605 21.1991 43.3112 20.9455 43.3112 20.6412C43.3112 20.3369 43.2605 20.1341 43.1083 19.9312C42.9562 19.7284 42.7533 19.5762 42.4997 19.3734C42.2461 19.2212 41.8911 19.0691 41.5361 18.9169C41.1304 18.7648 40.7247 18.6126 40.2175 18.4605C39.7104 18.3083 39.2539 18.1055 38.7975 17.9026C38.341 17.6997 37.9353 17.3954 37.5803 17.0912C37.2253 16.7361 36.921 16.3304 36.7182 15.874C36.5153 15.4175 36.3631 14.809 36.3631 14.1497C36.3631 13.3382 36.5153 12.5775 36.8703 12.0196C37.2253 11.411 37.6817 10.9546 38.1889 10.5488C38.7468 10.1431 39.3554 9.88955 40.0654 9.68668C40.7754 9.53454 41.4854 9.43311 42.1954 9.43311C43.0576 9.43311 43.9198 9.58525 44.7819 9.88955C45.6441 10.1938 46.4555 10.6503 47.1148 11.2589L44.7312 13.8454Z" fill="#F22840"/>
<path d="M54.2657 26.5747C54.0628 27.1326 53.8093 27.6397 53.5557 28.0454C53.3021 28.5019 52.9978 28.8569 52.6428 29.1612C52.2878 29.4655 51.8314 29.7191 51.3749 29.8712C50.8678 30.0234 50.3099 30.1248 49.6506 30.1248C49.3463 30.1248 48.9913 30.1248 48.6363 30.0741C48.2813 30.0233 47.977 29.9726 47.7234 29.9219L48.1291 26.9804C48.2813 27.0311 48.4841 27.0818 48.687 27.1326C48.8898 27.1833 49.0927 27.1833 49.2449 27.1833C49.8027 27.1833 50.1577 27.0818 50.4113 26.8283C50.6649 26.5747 50.8678 26.2197 51.0199 25.7632L51.3749 24.9011L46.9627 14.5044H50.817L53.2007 21.3003H53.2514L55.3814 14.5044H59.0837L54.2657 26.5747Z" fill="#F22840"/>
<path d="M66.9953 25.0025V19.2209C66.9953 18.9166 66.9953 18.663 66.9446 18.3587C66.8938 18.1052 66.7924 17.8516 66.691 17.6487C66.5895 17.4459 66.4374 17.2937 66.2345 17.1416C66.0317 17.0401 65.7781 16.9387 65.4738 16.9387C65.1695 16.9387 64.8652 16.9894 64.6624 17.1416C64.4088 17.243 64.2566 17.4459 64.0538 17.6487C63.9016 17.8516 63.8002 18.1052 63.6988 18.3587C63.5973 18.6123 63.5973 18.9166 63.5973 19.2209V24.9518H60.098V14.4029H63.4959V15.8737H63.5466C63.6988 15.6708 63.8509 15.4172 64.0538 15.2144C64.2566 15.0115 64.5102 14.8087 64.7638 14.6565C65.0174 14.5044 65.3217 14.3522 65.6767 14.2508C65.981 14.1493 66.336 14.0986 66.7417 14.0986C67.4517 14.0986 68.0603 14.2508 68.5675 14.5044C69.0746 14.7579 69.4803 15.1129 69.7846 15.468C70.0889 15.8737 70.2918 16.3301 70.4439 16.8373C70.5961 17.3444 70.6468 17.9023 70.6468 18.4095V24.9518H66.9953V25.0025Z" fill="#F22840"/>
<path d="M79.5726 17.8516C79.3698 17.598 79.1162 17.3951 78.7612 17.243C78.4062 17.0908 78.0512 16.9894 77.6962 16.9894C77.3412 16.9894 76.9861 17.0401 76.6819 17.1923C76.3776 17.3444 76.124 17.5473 75.9211 17.8009C75.7183 18.0544 75.5661 18.3587 75.414 18.663C75.3125 18.9673 75.2111 19.3223 75.2111 19.7281C75.2111 20.0831 75.2618 20.4381 75.3633 20.7931C75.4647 21.0974 75.6676 21.4017 75.8704 21.6552C76.0733 21.9088 76.3776 22.1117 76.6819 22.2638C76.9861 22.416 77.3412 22.4667 77.6962 22.4667C78.0512 22.4667 78.4062 22.416 78.7612 22.2638C79.1162 22.1117 79.3698 21.9088 79.6234 21.6552L81.5505 24.0389C81.0941 24.4446 80.5362 24.7996 79.8262 25.0532C79.1162 25.3068 78.4062 25.4082 77.5947 25.4082C76.7326 25.4082 75.9718 25.256 75.2618 25.0025C74.5518 24.7489 73.8925 24.3939 73.3853 23.8867C72.8275 23.3796 72.4218 22.8217 72.1175 22.1117C71.8132 21.4017 71.661 20.6409 71.661 19.7281C71.661 18.8659 71.8132 18.1052 72.1175 17.3951C72.4218 16.6851 72.8275 16.1273 73.3853 15.6201C73.9432 15.1129 74.5518 14.7579 75.2618 14.5044C75.9718 14.2508 76.7833 14.0986 77.5947 14.0986C78.0005 14.0986 78.3555 14.1493 78.7105 14.2001C79.0655 14.2508 79.4712 14.3522 79.7755 14.5044C80.1305 14.6058 80.4348 14.7579 80.7391 14.9608C81.0434 15.1129 81.297 15.3158 81.4998 15.5694L79.5726 17.8516Z" fill="#F22840"/>
<path d="M89.6653 25.0026V19.2718C89.6653 18.9675 89.6653 18.7139 89.6146 18.4096C89.5638 18.156 89.5131 17.9024 89.361 17.6996C89.2595 17.4967 89.0567 17.3446 88.9045 17.1924C88.7017 17.091 88.4481 16.9896 88.1438 16.9896C87.5352 16.9896 87.0788 17.1924 86.7238 17.6489C86.4195 18.1053 86.2166 18.6125 86.2166 19.2718V25.0026H82.7173V8.92578H86.2166V15.7217H86.2673C86.5209 15.3159 86.8759 14.9102 87.4338 14.6059C87.9409 14.2509 88.6002 14.0988 89.3103 14.0988C90.0203 14.0988 90.6289 14.2509 91.136 14.5045C91.6432 14.7581 91.9982 15.1131 92.3025 15.4681C92.6068 15.8738 92.8096 16.3303 92.9618 16.8374C93.1139 17.3446 93.1646 17.9024 93.1646 18.4096V24.9519H89.6653V25.0026Z" fill="#F22840"/>
<path d="M101.786 17.2937C101.634 17.243 101.482 17.243 101.33 17.1923C101.178 17.1923 101.025 17.1923 100.873 17.1923C100.417 17.1923 100.011 17.2937 99.7068 17.4459C99.4025 17.598 99.1489 17.8009 98.9461 18.0544C98.7432 18.308 98.5911 18.5616 98.5403 18.8152C98.4389 19.1195 98.3882 19.3223 98.3882 19.5759V25.0025H94.8888V14.4029H98.236V15.9244H98.2868C98.5403 15.3665 98.9461 14.9608 99.4532 14.6058C99.9604 14.2508 100.518 14.0986 101.178 14.0986C101.33 14.0986 101.482 14.0986 101.583 14.0986C101.735 14.0986 101.837 14.1493 101.938 14.1493L101.786 17.2937Z" fill="#F22840"/>
<path d="M113.654 19.6778C113.654 20.5399 113.501 21.3007 113.197 22.0107C112.893 22.7207 112.436 23.3293 111.929 23.7857C111.371 24.2929 110.763 24.6479 110.053 24.9015C109.343 25.155 108.582 25.3072 107.771 25.3072C106.959 25.3072 106.198 25.155 105.488 24.9015C104.778 24.6479 104.17 24.2422 103.612 23.7857C103.105 23.2786 102.648 22.7207 102.344 22.0107C102.04 21.3007 101.888 20.5399 101.888 19.6778C101.888 18.8156 102.04 18.0549 102.344 17.3448C102.648 16.6348 103.054 16.077 103.612 15.5698C104.119 15.0627 104.778 14.7076 105.488 14.4541C106.198 14.2005 106.959 14.0483 107.771 14.0483C108.582 14.0483 109.343 14.2005 110.053 14.4541C110.763 14.7076 111.371 15.0627 111.929 15.5698C112.487 16.077 112.893 16.6348 113.197 17.3448C113.501 18.0042 113.654 18.8156 113.654 19.6778ZM110.306 19.6778C110.306 19.3228 110.256 19.0185 110.154 18.6635C110.053 18.3592 109.901 18.0549 109.647 17.8013C109.444 17.5477 109.191 17.3448 108.836 17.1927C108.531 17.0406 108.176 16.9391 107.771 16.9391C107.365 16.9391 107.01 17.0406 106.706 17.1927C106.401 17.3448 106.148 17.5477 105.945 17.8013C105.742 18.0549 105.59 18.3592 105.488 18.6635C105.387 18.9677 105.336 19.3228 105.336 19.6778C105.336 20.0328 105.387 20.3371 105.488 20.6921C105.59 20.9964 105.742 21.3007 105.945 21.5542C106.148 21.8078 106.401 22.0107 106.756 22.1628C107.061 22.315 107.416 22.4164 107.821 22.4164C108.227 22.4164 108.582 22.315 108.886 22.1628C109.191 22.0107 109.444 21.8078 109.698 21.5542C109.901 21.3007 110.053 20.9964 110.154 20.6921C110.256 20.3371 110.306 19.9821 110.306 19.6778Z" fill="#F22840"/>
<path d="M115.175 25.0025V8.46924H118.827V21.8074H124.659V24.9518H115.175V25.0025Z" fill="#F22840"/>
<path d="M129.68 11.0054C129.68 11.259 129.629 11.5125 129.528 11.7661C129.426 12.0197 129.274 12.2226 129.122 12.3747C128.919 12.5268 128.716 12.679 128.463 12.7804C128.209 12.8819 127.955 12.9326 127.702 12.9326C127.144 12.9326 126.637 12.7297 126.282 12.3747C125.876 12.0197 125.724 11.5633 125.724 11.0054C125.724 10.7518 125.775 10.4982 125.876 10.2954C125.978 10.0925 126.13 9.83892 126.282 9.68678C126.485 9.53463 126.688 9.38248 126.941 9.28105C127.195 9.17962 127.448 9.12891 127.753 9.12891C128.006 9.12891 128.26 9.17962 128.513 9.28105C128.767 9.38248 128.97 9.53463 129.173 9.68678C129.325 9.83892 129.477 10.0418 129.578 10.2954C129.629 10.4982 129.68 10.7518 129.68 11.0054ZM125.927 25.0029V14.4033H129.426V25.0029H125.927Z" fill="#F22840"/>
<path d="M138.454 11.5122C138.301 11.4615 138.2 11.4107 137.997 11.4107C137.845 11.36 137.642 11.36 137.49 11.36C137.186 11.36 136.881 11.4107 136.679 11.5122C136.476 11.6136 136.324 11.7657 136.222 11.9686C136.121 12.1715 136.019 12.3743 135.969 12.6279C135.918 12.8815 135.918 13.1351 135.918 13.3379V14.403H138.301V16.9894H135.918V25.0025H132.418V16.9894H130.491V14.403H132.418V13.3886C132.418 12.7293 132.469 12.1208 132.621 11.5122C132.773 10.9036 133.027 10.3964 133.331 9.93999C133.686 9.48355 134.143 9.12854 134.751 8.87496C135.36 8.62138 136.07 8.46924 136.932 8.46924C137.236 8.46924 137.541 8.46924 137.794 8.51995C138.099 8.57067 138.352 8.62138 138.606 8.6721L138.454 11.5122Z" fill="#F22840"/>
<path d="M149.56 19.8295C149.56 19.9816 149.56 20.1338 149.56 20.2352C149.56 20.3874 149.56 20.4888 149.56 20.6409H141.902C141.953 20.9452 142.004 21.1988 142.156 21.4524C142.308 21.706 142.511 21.9088 142.714 22.061C142.967 22.2638 143.221 22.3653 143.525 22.4667C143.829 22.5681 144.134 22.6188 144.438 22.6188C144.996 22.6188 145.452 22.5174 145.858 22.3146C146.264 22.1117 146.568 21.8581 146.771 21.5031L149.205 23.0246C148.698 23.7346 148.039 24.2925 147.227 24.6982C146.416 25.1039 145.452 25.3068 144.387 25.3068C143.576 25.3068 142.866 25.2053 142.156 24.9518C141.446 24.6982 140.837 24.3432 140.279 23.8867C139.772 23.4303 139.316 22.8217 139.011 22.1117C138.707 21.4017 138.555 20.6409 138.555 19.7281C138.555 18.8659 138.707 18.1052 139.011 17.3951C139.316 16.6851 139.721 16.0765 140.229 15.6201C140.736 15.1129 141.344 14.7579 142.054 14.5044C142.764 14.2508 143.525 14.0986 144.286 14.0986C145.047 14.0986 145.757 14.2508 146.416 14.5044C147.075 14.7579 147.633 15.1637 148.089 15.6201C148.546 16.1273 148.901 16.7358 149.205 17.4459C149.408 18.1052 149.56 18.9166 149.56 19.8295ZM146.314 18.5109C146.314 17.953 146.162 17.4966 145.807 17.0909C145.452 16.6851 144.945 16.4823 144.235 16.4823C143.88 16.4823 143.576 16.533 143.322 16.6344C143.018 16.7358 142.815 16.888 142.561 17.0909C142.359 17.2937 142.156 17.4966 142.054 17.7502C141.902 18.0037 141.851 18.2573 141.851 18.5109H146.314Z" fill="#F22840"/>
<path fill-rule="evenodd" clip-rule="evenodd" d="M10.549 0C14.3527 0 17.2435 2.07934 18.5114 5.47728C19.4242 8.01306 22.2643 10.9038 25.6623 11.9689C25.8144 12.0196 25.9158 12.2224 25.8144 12.3746C25.358 12.9325 24.8001 13.8961 24.5465 14.6568C24.4958 14.8089 24.2929 14.8597 24.1408 14.7582C22.0615 12.9832 20.2864 12.3746 17.8521 12.1717C16.7363 12.0703 16.077 12.121 15.0627 12.2732C14.9106 12.2732 14.8091 12.4253 14.8598 12.5775C15.1134 13.8961 16.1277 15.2147 18.0042 15.874C20.185 16.6854 24.3437 19.2719 24.3437 24.7492C24.3437 29.3136 21.4529 32.0522 18.6635 33.4215C14.657 35.1459 12.4255 36.1602 9.78829 38.4931C8.87541 39.406 8.41897 40.3189 8.41897 41.2825C8.41897 42.3475 9.484 44.1732 11.4112 44.1732C12.4255 44.1732 13.4398 43.7168 14.0991 43.1589C14.5556 42.7532 15.2149 42.7025 15.722 43.1082C16.2799 43.5647 16.3813 44.3761 15.8742 44.8833C15.012 45.7961 13.7441 46.4554 11.9183 46.4554C6.84679 46.4554 4.10815 41.9418 4.05744 38.696C4.00672 34.9937 6.5425 32.4579 8.5204 30.7336C11.3098 27.9443 10.5997 24.6985 9.68686 22.9741C9.17971 22.112 7.75967 21.3005 6.08606 21.8077C4.66603 22.2641 3.85458 23.7349 3.95601 24.952C3.95601 25.0028 3.90529 25.0535 3.80386 25.0535C0.76093 23.0249 -1.11554 18.2576 0.862361 13.9468C0.913077 13.7946 1.06522 13.7439 1.21737 13.8453C1.77524 14.1496 2.84027 14.4032 3.70243 14.4032C4.15887 14.4032 5.02103 14.4032 5.78177 14.0989C5.93391 14.0482 5.98463 13.7946 5.8832 13.6932C5.12247 12.9325 4.97032 12.6282 4.51388 11.6139C4.00672 10.4474 4.00672 8.72307 4.36173 7.65805C4.36173 7.60733 4.36173 7.60733 4.31102 7.60733C3.70243 7.70876 2.89098 8.06377 2.43454 8.41878C2.38383 8.4695 2.33311 8.41878 2.33311 8.36806C2.78955 6.03515 4.61531 4.00653 7.15109 3.49937C7.2018 3.49937 7.2018 3.44866 7.15109 3.39794C6.49179 2.9415 5.68034 2.53578 4.71674 2.38363C4.71674 2.38363 6.74536 0 10.549 0Z" fill="#F22840"/>
</g>
<defs>
<clipPath id="clip0">
<rect width="149.56" height="46.4554" fill="white"/>
</clipPath>
</defs>
</svg>
