<svg width="40" height="40" viewBox="0 0 40 40" fill="none" xmlns="http://www.w3.org/2000/svg">
<path d="M20 40C31.0457 40 40 31.0457 40 20C40 8.95431 31.0457 0 20 0C8.95431 0 0 8.95431 0 20C0 31.0457 8.95431 40 20 40Z" fill="#00B900"/>
<path d="M33.3034 18.8001C33.3034 12.8468 27.3368 8.00342 20.0001 8.00342C12.6668 8.00342 6.69678 12.8468 6.69678 18.8001C6.69678 24.1368 11.4301 28.6068 17.8234 29.4501C18.2568 29.5434 18.8468 29.7368 18.9968 30.1068C19.1301 30.4434 19.0834 30.9701 19.0401 31.3101C19.0401 31.3101 18.8834 32.2501 18.8501 32.4501C18.7934 32.7868 18.5834 33.7668 20.0034 33.1668C21.4234 32.5701 27.6634 28.6568 30.4568 25.4434C32.3801 23.3268 33.3034 21.1801 33.3034 18.8001Z" fill="white"/>
<path d="M17.2968 15.9233H16.3635C16.2201 15.9233 16.1035 16.04 16.1035 16.1833V21.98C16.1035 22.1233 16.2201 22.24 16.3635 22.24H17.2968C17.4401 22.24 17.5568 22.1233 17.5568 21.98V16.18C17.5568 16.04 17.4401 15.9233 17.2968 15.9233Z" fill="#00B900"/>
<path d="M23.72 15.9233H22.7867C22.6434 15.9233 22.5267 16.04 22.5267 16.1833V19.6267L19.87 16.04C19.8634 16.03 19.8567 16.0233 19.85 16.0133C19.85 16.0133 19.85 16.0133 19.8467 16.01C19.84 16.0033 19.8367 16 19.83 15.9933C19.8267 15.9933 19.8267 15.99 19.8267 15.99C19.8234 15.9867 19.8167 15.9833 19.8134 15.98C19.81 15.9767 19.81 15.9767 19.8067 15.9733C19.8034 15.97 19.7967 15.9667 19.7934 15.9633C19.79 15.96 19.7867 15.96 19.7867 15.96C19.7834 15.9567 19.7767 15.9533 19.7734 15.9533C19.77 15.9533 19.7667 15.95 19.7667 15.95C19.7634 15.9467 19.7567 15.9467 19.7534 15.9433C19.75 15.9433 19.7467 15.94 19.7434 15.94C19.7367 15.9367 19.7334 15.9367 19.7267 15.9333C19.7234 15.9333 19.72 15.9333 19.7167 15.93C19.71 15.93 19.7067 15.9267 19.7034 15.9267C19.7 15.9267 19.6967 15.9267 19.6934 15.9267C19.69 15.9267 19.6834 15.9267 19.68 15.9233C19.6767 15.9233 19.67 15.9233 19.6667 15.9233C19.6634 15.9233 19.66 15.9233 19.6567 15.9233H18.7234C18.58 15.9233 18.4634 16.04 18.4634 16.1833V21.98C18.4634 22.1233 18.58 22.24 18.7234 22.24H19.6567C19.8 22.24 19.9167 22.1233 19.9167 21.98V18.5367L22.5767 22.13C22.5934 22.1567 22.6167 22.1767 22.6434 22.1933C22.6434 22.1933 22.6467 22.1933 22.6467 22.1967C22.6534 22.2 22.6567 22.2033 22.6634 22.2067C22.6667 22.2067 22.6667 22.21 22.67 22.21C22.6734 22.2133 22.6767 22.2133 22.6834 22.2167C22.6867 22.22 22.69 22.22 22.6967 22.2233C22.7 22.2233 22.7034 22.2267 22.7034 22.2267C22.71 22.23 22.7167 22.23 22.72 22.2333H22.7234C22.7434 22.24 22.7667 22.2433 22.79 22.2433H23.7234C23.8667 22.2433 23.9834 22.1267 23.9834 21.9833V16.18C23.98 16.04 23.8634 15.9233 23.72 15.9233Z" fill="#00B900"/>
<path d="M15.0468 20.7833H12.5102V16.1799C12.5102 16.0366 12.3935 15.9199 12.2502 15.9199H11.3168C11.1735 15.9199 11.0568 16.0366 11.0568 16.1799V21.9766C11.0568 22.0466 11.0835 22.1099 11.1302 22.1566L11.1335 22.1599L11.1368 22.1633C11.1835 22.2066 11.2468 22.2366 11.3168 22.2366H15.0435C15.1868 22.2366 15.3035 22.1199 15.3035 21.9766V21.0433C15.3068 20.8999 15.1902 20.7833 15.0468 20.7833Z" fill="#00B900"/>
<path d="M28.8734 17.3733C29.0167 17.3733 29.1334 17.2566 29.1334 17.1133V16.1799C29.1334 16.0366 29.0167 15.9199 28.8734 15.9199H25.1467C25.0767 15.9199 25.0134 15.9466 24.9667 15.9933L24.9634 15.9966C24.9634 15.9999 24.96 15.9999 24.96 15.9999C24.9167 16.0466 24.8867 16.1099 24.8867 16.1799V21.9766C24.8867 22.0466 24.9134 22.1099 24.96 22.1566L24.9634 22.1599L24.9667 22.1633C25.0134 22.2066 25.0767 22.2366 25.1467 22.2366H28.8734C29.0167 22.2366 29.1334 22.1199 29.1334 21.9766V21.0433C29.1334 20.8999 29.0167 20.7833 28.8734 20.7833H26.3367V19.8033H28.8734C29.0167 19.8033 29.1334 19.6866 29.1334 19.5433V18.6099C29.1334 18.4666 29.0167 18.3499 28.8734 18.3499H26.3367V17.3699H28.8734V17.3733Z" fill="#00B900"/>
</svg>
