<svg width="40" height="40" viewBox="0 0 40 40" fill="none" xmlns="http://www.w3.org/2000/svg">
<circle cx="20" cy="20" r="20" fill="white"/>
<path fill-rule="evenodd" clip-rule="evenodd" d="M20 40C31.0457 40 40 31.0457 40 20C40 8.9543 31.0457 0 20 0C8.9543 0 0 8.9543 0 20C0 31.0457 8.9543 40 20 40ZM29.9561 15.5653C29.9561 22.3433 24.7961 30.1593 15.3621 30.1593C12.4651 30.1593 9.77008 29.3103 7.49908 27.8513C7.90108 27.8983 8.30908 27.9223 8.72309 27.9223C11.1261 27.9223 13.3371 27.1023 15.0931 25.7263C12.8471 25.6853 10.9541 24.2023 10.3011 22.1643C10.6131 22.2243 10.9351 22.2573 11.2651 22.2573C11.7331 22.2573 12.1861 22.1943 12.6171 22.0773C10.2701 21.6073 8.50208 19.5333 8.50208 17.0493C8.50208 17.0273 8.50208 17.0053 8.50308 16.9843C9.19408 17.3693 9.98508 17.6003 10.8261 17.6263C9.45008 16.7073 8.54408 15.1373 8.54408 13.3573C8.54408 12.4183 8.79808 11.5373 9.23908 10.7793C11.7681 13.8833 15.5481 15.9243 19.8111 16.1383C19.7231 15.7633 19.6781 15.3723 19.6781 14.9693C19.6781 12.1373 21.9751 9.84032 24.8081 9.84032C26.2831 9.84032 27.6161 10.4643 28.5521 11.4613C29.7201 11.2313 30.8181 10.8043 31.8091 10.2163C31.4261 11.4133 30.6131 12.4183 29.5541 13.0533C30.5921 12.9293 31.5811 12.6543 32.5001 12.2463C31.8131 13.2753 30.9421 14.1783 29.9411 14.9023C29.9511 15.1223 29.9561 15.3433 29.9561 15.5653Z" fill="#1DA1F2"/>
</svg>
