<svg width="88" height="88" viewBox="0 0 88 88" fill="none" xmlns="http://www.w3.org/2000/svg">
<mask id="mask0" mask-type="alpha" maskUnits="userSpaceOnUse" x="0" y="0" width="88" height="88">
<rect width="88" height="88" transform="matrix(-1 0 0 1 88 0)" fill="#C4C4C4"/>
</mask>
<g mask="url(#mask0)">
<rect width="131.106" height="32" transform="matrix(-0.707107 -0.707107 -0.707107 0.707107 113.667 67.039)" fill="#F32840"/>
</g>
<path d="M44.7302 10.9804L43.6215 8.78553C43.135 9.06837 42.377 9.35122 41.9244 9.46435C40.3858 9.87165 37.942 10.3468 34.7515 9.57749L35.0796 11.7837C36.9464 12.1344 38.9263 12.1231 40.6686 11.8968L43.8478 15.076C42.8182 15.7435 40.8044 16.4449 39.1526 16.558C37.0482 16.6938 34.8081 16.4223 31.7987 14.7931L31.9344 17.3274C34.8986 18.6171 37.3084 18.9452 39.6956 18.7077C41.981 18.4588 44.1306 17.5989 45.443 16.8975C45.8164 16.7051 46.2915 16.5467 46.6309 16.4562L46.1897 14.5895C45.8503 14.4084 45.4204 14.0917 45.0696 13.7409L42.7956 11.4669C42.8295 11.4556 42.8522 11.4556 42.8861 11.4443C43.2708 11.3311 44.074 11.1162 44.7302 10.9804ZM47.0156 20.4387L45.2394 22.2149C45.6919 22.5996 46.4725 23.335 47.1174 23.9798L53.1929 30.0553C53.6681 30.5305 54.1998 31.1527 54.46 31.4356L56.2363 29.6593C55.9195 29.3878 55.3764 28.9352 54.8447 28.4035L48.7692 22.328C48.1809 21.7397 47.389 20.8799 47.0156 20.4387ZM69.3036 36.2326C69.643 35.8932 70.1974 35.9045 70.5368 36.2439C70.8762 36.5833 70.8762 37.1264 70.5368 37.4658C70.1974 37.8052 69.6543 37.8052 69.3149 37.4658C68.9755 37.1264 68.9642 36.572 69.3036 36.2326ZM68.6135 35.5425C67.8894 36.2665 67.8894 37.4432 68.6135 38.1672C69.3376 38.8913 70.5029 38.88 71.2269 38.1559C71.951 37.4318 71.9623 36.2665 71.2383 35.5425C70.5142 34.8184 69.3376 34.8184 68.6135 35.5425ZM67.4934 33.5399L65.819 31.8655C65.6719 32.1031 65.2307 32.6575 64.9365 32.9516L64.0314 33.8567L61.1577 30.983C60.7957 30.621 60.445 30.1798 60.1508 29.7951L58.6461 31.2998C58.9968 31.5827 59.4494 32.0126 59.7888 32.352L62.6625 35.2257L62.6511 35.237C62.1194 35.7687 58.533 39.3552 58.103 39.7625C57.7976 40.0453 57.5713 40.0453 57.2771 39.7512C57.0056 39.4796 56.5531 38.9366 56.1571 38.3596L54.8899 39.8982C55.3991 40.5431 56.0213 41.2332 56.6323 41.8442C57.4355 42.6475 58.2162 42.6135 58.8724 41.9573L64.1332 36.6964L66.7807 39.3439C67.0861 39.6493 67.516 40.1019 67.8555 40.4865L69.3376 39.0044C68.9868 38.7442 68.4551 38.2804 68.1383 37.9636L65.5022 35.3275L66.4073 34.4224C66.6901 34.1396 67.3124 33.6757 67.4934 33.5399ZM59.9698 35.7461L59.291 33.868C57.8768 34.3545 55.7272 34.6939 54.2451 34.66L54.6297 36.7191C55.9195 36.6738 58.4425 36.2326 59.9698 35.7461ZM65.4683 39.9774L63.5676 39.4117C63.4205 40.6449 62.8548 42.8172 62.3683 44.2766L64.4274 44.8876C64.8008 43.6091 65.3212 41.2785 65.4683 39.9774ZM74.6889 41.3916L72.4941 41.4595C72.743 42.8624 72.924 45.5098 72.8787 46.7317L75.2094 46.7091C75.2433 45.3628 74.9492 42.7153 74.6889 41.3916ZM65.7398 47.5124L65.1967 49.9561C67.0635 51.2798 69.1565 52.1057 70.9894 52.5583C73.9083 53.2823 76.9743 53.2258 79.3615 52.5583L80.0743 50.0806C77.8341 50.8952 74.6324 51.1554 71.555 50.3634C69.8014 49.9222 67.7536 49.0284 65.7398 47.5124Z" fill="white"/>
</svg>
