<svg width="80" height="82" viewBox="0 0 80 82" fill="none" xmlns="http://www.w3.org/2000/svg">
<g filter="url(#filter0_d)">
<path d="M40 0L46.1223 7.24867L54.4497 2.70111L57.54 11.6719L66.9478 10.4396L66.5889 19.921L75.8065 22.1705L72.0467 30.8819L79.8294 36.3093L73.1765 43.0743L78.473 50.9465L69.8256 54.8514L71.9207 64.1054L62.4466 64.6228L61.0573 74.0087L52.0361 71.0687L47.35 79.3189L40 73.3186L32.65 79.3189L27.9639 71.0687L18.9427 74.0087L17.5534 64.6228L8.07931 64.1054L10.1744 54.8514L1.52697 50.9465L6.82349 43.0743L0.170631 36.3093L7.95328 30.8819L4.19347 22.1705L13.4111 19.921L13.0522 10.4396L22.46 11.6719L25.5503 2.70111L33.8777 7.24867L40 0Z" fill="#F32840"/>
</g>
<path d="M28.2 40.72C27.56 40.592 26.92 40.512 26.056 40.512C22.952 40.512 21.624 41.792 21.624 43.52C21.624 45.536 23.352 46.768 26.616 46.768C27.32 46.768 27.912 46.736 28.44 46.672C28.984 46.608 29.224 46.224 29.224 45.84C29.224 45.408 28.936 44.976 28.376 44.976H28.264C27.752 45.024 27.24 45.056 26.584 45.056C24.2 45.056 23.48 44.448 23.48 43.536C23.48 42.656 24.136 42.064 26.072 42.064C27.352 42.064 28.536 42.24 29.768 42.672C29.88 42.704 29.992 42.736 30.088 42.736C30.6 42.736 30.968 42.304 30.968 41.824C30.968 41.6 30.888 41.36 30.696 41.152C29.496 39.856 28.664 38.672 28.072 37.552C29.208 37.312 30.264 37.024 31.112 36.736C31.576 36.576 31.768 36.256 31.768 35.936C31.768 35.504 31.416 35.072 30.904 35.072C30.808 35.072 30.68 35.088 30.568 35.136C29.688 35.44 28.568 35.744 27.352 36C27.016 35.168 26.76 34.288 26.552 33.472C26.44 33.04 26.088 32.864 25.736 32.864C25.272 32.864 24.792 33.168 24.792 33.648C24.792 33.712 24.808 33.776 24.824 33.84C25.048 34.656 25.336 35.488 25.656 36.32C24.184 36.56 22.648 36.736 21.304 36.8C20.776 36.816 20.536 37.216 20.536 37.6C20.536 38.032 20.824 38.48 21.368 38.48C22.216 38.48 24.584 38.208 26.36 37.888C26.92 38.96 27.48 39.856 28.216 40.688L28.2 40.72ZM38.2 33.104C38.104 33.088 38.008 33.072 37.928 33.072C37.352 33.072 36.984 33.552 36.984 34C36.984 34.32 37.176 34.64 37.592 34.768C38.36 34.992 39.368 35.392 40.2 35.76C40.376 35.84 40.536 35.872 40.68 35.872C41.192 35.872 41.528 35.44 41.528 34.992C41.528 34.656 41.368 34.32 40.968 34.112C40.136 33.68 39.064 33.312 38.2 33.104ZM36.04 40.64C36.216 39.712 36.488 38.496 36.792 37.008C36.808 36.96 36.808 36.896 36.808 36.848C36.808 36.368 36.36 36.096 35.896 36.096C35.512 36.096 35.112 36.304 35.016 36.768C34.552 38.96 34.168 41.056 34.008 42.24C33.992 42.304 33.992 42.368 33.992 42.432C33.992 43.008 34.456 43.36 34.936 43.36C35.224 43.36 35.528 43.248 35.752 42.976C37.096 41.408 39.016 40.544 40.712 40.544C42.248 40.544 42.904 41.312 42.904 42.144C42.904 43.52 41.816 44.704 38.68 45.072C38.136 45.136 37.864 45.536 37.864 45.936C37.864 46.368 38.184 46.816 38.744 46.816C38.792 46.816 38.84 46.8 38.888 46.8C42.744 46.352 44.776 44.592 44.776 42.128C44.776 40.32 43.224 38.944 40.712 38.944C39.128 38.944 37.288 39.6 36.072 40.656L36.04 40.64ZM48.472 34.512C47.912 37.36 47.72 39.52 47.72 41.904C47.72 43.248 47.864 44.832 47.992 45.856C48.072 46.4 48.488 46.64 48.92 46.64C49.384 46.64 49.848 46.336 49.848 45.792C49.848 45.76 49.832 45.712 49.832 45.664C49.72 44.72 49.544 43.232 49.544 41.904C49.544 39.632 49.736 37.456 50.28 34.832C50.296 34.768 50.296 34.704 50.296 34.656C50.296 34.112 49.832 33.84 49.368 33.84C48.968 33.84 48.568 34.048 48.472 34.512ZM58.168 35.248C56.776 35.44 55.256 35.568 53.768 35.6C53.192 35.616 52.904 36.048 52.904 36.464C52.904 36.912 53.208 37.344 53.832 37.328C55.352 37.296 56.936 37.168 58.344 36.976C58.904 36.896 59.16 36.496 59.16 36.096C59.16 35.664 58.856 35.248 58.296 35.248H58.168ZM53.992 42.32C53.928 41.856 53.56 41.632 53.176 41.632C52.712 41.632 52.248 41.952 52.248 42.528V42.608C52.424 44.544 53.656 45.44 56.616 45.44C57.496 45.44 58.44 45.36 59.384 45.168C59.88 45.072 60.088 44.688 60.088 44.32C60.088 43.872 59.784 43.424 59.24 43.424C59.176 43.424 59.112 43.424 59.048 43.44C58.232 43.6 57.352 43.68 56.632 43.68C54.632 43.68 54.136 43.312 53.992 42.32Z" fill="white"/>
<defs>
<filter id="filter0_d" x="0.170624" y="0" width="79.6587" height="81.3189" filterUnits="userSpaceOnUse" color-interpolation-filters="sRGB">
<feFlood flood-opacity="0" result="BackgroundImageFix"/>
<feColorMatrix in="SourceAlpha" type="matrix" values="0 0 0 0 0 0 0 0 0 0 0 0 0 0 0 0 0 0 127 0"/>
<feOffset dy="2"/>
<feColorMatrix type="matrix" values="0 0 0 0 0.952941 0 0 0 0 0.156863 0 0 0 0 0.25098 0 0 0 0.16 0"/>
<feBlend mode="normal" in2="BackgroundImageFix" result="effect1_dropShadow"/>
<feBlend mode="normal" in="SourceGraphic" in2="effect1_dropShadow" result="shape"/>
</filter>
</defs>
</svg>
