<svg width="374" height="440" viewBox="0 0 374 440" fill="none" xmlns="http://www.w3.org/2000/svg">
<mask id="mask0" mask-type="alpha" maskUnits="userSpaceOnUse" x="0" y="0" width="374" height="440">
<rect width="374" height="440" fill="#C4C4C4"/>
</mask>
<g mask="url(#mask0)">
<path d="M328 402.874C328 403.936 328.792 404.732 330.113 405.793C331.961 403.936 333.017 403.14 335.394 402.078C334.602 401.282 334.074 400.486 333.81 398.894C331.433 399.69 329.849 401.017 328 402.874Z" fill="#E62A73"/>
<path d="M299.803 37.457C302.444 37.1916 304.556 37.457 307.461 38.5184C306.405 32.15 306.141 27.9045 306.669 22.8629C303.764 21.0054 301.916 20.7401 299.275 21.0054C298.747 24.7203 299.011 30.8233 299.803 37.457Z" fill="#E62A73"/>
<path d="M250 277C250.528 279.388 251.32 282.042 253.433 283.899C255.546 283.899 256.866 284.164 258.715 284.695C257.922 283.103 258.186 281.776 259.507 279.653C256.602 279.388 253.697 278.327 250 277Z" fill="#B123F4"/>
<path d="M30.1689 276.756C33.0738 274.368 35.1864 273.307 38.6194 272.246C38.0913 270.388 37.299 269.061 35.9787 268C33.602 268.531 30.6971 269.857 27 271.98C29.3767 273.572 30.1689 274.634 30.1689 276.756Z" fill="#E62A73"/>
<path d="M35.395 200.253C33.5464 199.722 31.9619 199.457 30.3775 199.988C29.8493 201.315 29.8493 202.111 30.1134 203.172C31.962 202.907 33.2823 202.907 35.1309 203.703C34.8668 202.111 34.6027 201.315 35.395 200.253Z" fill="#E62A73"/>
<path d="M123.853 75.1747C124.91 75.1747 125.702 75.4401 126.758 76.5015C128.607 73.5827 129.135 71.4599 130.191 68.2757C128.607 66.949 127.55 66.6836 126.758 66.6836C126.23 70.1331 125.438 72.2559 123.853 75.1747Z" fill="url(#paint0_linear)"/>
<path d="M128.074 381.898C126.753 381.633 125.697 380.837 124.113 377.918C123.056 378.714 122.528 380.041 122 381.633C123.584 383.491 124.641 384.552 126.753 385.348C126.753 384.021 127.282 383.225 128.074 381.898Z" fill="#EA5B5A"/>
<path d="M147.356 18.6558C148.413 17.3291 148.941 16.533 148.677 14.6756C146.036 13.3489 144.716 12.5528 142.603 10.6954C142.339 11.7568 141.811 12.2875 141.547 12.8182C144.187 14.6756 145.508 16.2677 147.356 18.6558Z" fill="#E62A73"/>
<path d="M268.584 382.918C267.264 384.245 267 385.837 267 388.491C271.225 388.756 273.602 389.287 277.299 391.144C277.299 389.287 277.827 387.96 279.676 385.572C275.715 383.714 272.546 383.184 268.584 382.918Z" fill="#54BEEE"/>
<path d="M299.891 315.495C299.099 316.557 298.835 317.353 299.099 318.945C300.419 319.475 301.476 319.741 302.532 319.741C303.06 318.414 303.852 317.618 305.173 316.291C303.324 316.291 302.004 316.291 299.891 315.495Z" fill="#54BEEE"/>
<path d="M354.148 164C349.13 164.531 345.961 165.327 342 167.184C343.584 170.103 345.169 171.695 346.753 173.022C348.866 171.43 350.979 171.164 354.148 170.899C353.355 167.98 353.355 166.388 354.148 164Z" fill="#54BEEE"/>
<path d="M314.782 92.4224C313.725 91.361 313.197 90.2996 312.669 88.9729C310.292 91.6264 308.708 93.2184 306.595 94.5452C306.859 96.4026 307.387 97.1987 308.444 98.26C310.028 97.1987 312.405 95.0759 314.782 92.4224Z" fill="#54BEEE"/>
<path d="M331.158 284.612C330.894 286.734 330.894 288.326 331.686 289.918C333.006 290.184 333.799 289.918 334.855 289.653C334.063 287.796 334.063 286.469 334.327 284.346C333.271 284.877 332.214 285.142 331.158 284.612Z" fill="#35C06D"/>
<path d="M214.282 271.553C215.866 269.695 217.186 269.164 219.563 268.634C217.186 265.45 214.282 262.796 212.697 262C211.113 263.061 210.056 264.388 209 266.511C210.584 267.307 212.169 268.899 214.282 271.553Z" fill="#F4D823"/>
<path d="M326.137 4.32713C326.929 6.44991 326.929 7.5113 326.665 9.36873C327.457 9.36873 327.985 9.36873 328.514 9.89943C329.042 8.04199 329.042 6.44991 328.514 4.06178C327.457 4.06178 326.929 4.06178 326.137 4.32713Z" fill="#54BEEE"/>
<path d="M48.5845 104.164C51.7534 101.776 53.3379 100.715 56.7709 100.45C56.2427 99.1228 55.9786 98.0614 56.5068 97C52.8097 97.2653 50.6971 98.3267 47 100.45C47.2641 101.776 47.7922 103.103 48.5845 104.164Z" fill="#54BEEE"/>
<path d="M38.028 26.0852C39.6125 24.4932 39.8766 22.6357 39.6125 19.4516C34.8591 19.4516 31.9542 18.6555 27.729 16.7981C27.729 18.9209 27.2008 20.5129 25.3523 23.4318C29.5775 25.2892 33.0106 26.0852 38.028 26.0852Z" fill="#F4D823"/>
<path d="M254.308 21.0436C251.931 18.9209 249.819 17.3288 247.178 16.7981C245.593 18.3902 245.065 19.4516 244.801 21.0436C247.97 22.105 249.554 22.9011 251.667 25.2892C251.931 23.1664 252.459 22.105 254.308 21.0436Z" fill="#F4D823"/>
<path d="M51.3919 381.123C49.0152 381.919 46.1103 381.653 40.5647 379C39.7725 381.653 39.7725 384.042 40.8288 387.226C45.3181 388.818 47.9589 389.083 52.4482 388.553C51.1278 386.164 51.1278 384.307 51.3919 381.123Z" fill="#B123F4"/>
<path d="M287.882 169C287.176 169.7 287.176 170.633 287 172.267C289.471 172.733 291.941 174.133 294.765 176C294.941 174.833 295.294 174.133 296 173.2C293.176 170.867 291.412 169.933 287.882 169Z" fill="#ED99BF"/>
<path d="M64.6408 174C62.7922 175.857 62 177.184 62 180.103C65.6971 182.226 67.8097 183.818 71.2427 186.737C71.7709 185.145 72.5631 184.349 73.3554 183.818C69.3942 180.634 67.2816 177.98 64.6408 174Z" fill="#64BB75"/>
<path d="M50 303.368C50.7922 304.96 51.8485 305.491 53.9612 305.757C55.2816 304.43 56.0738 303.368 56.3379 302.042C54.7534 300.715 54.2252 299.388 53.433 297C52.6408 299.653 51.8485 301.246 50 303.368Z" fill="#F4D823"/>
<path d="M349.113 320.802C350.433 321.068 351.489 320.802 352.546 319.741C352.546 318.149 352.282 317.353 351.489 316.291C349.905 316.557 348.849 316.291 347 315.495C348.056 317.353 348.584 318.679 349.113 320.802Z" fill="#ED99BF"/>
<path d="M158 404.675C161.169 406.267 163.017 407.329 165.658 409.982C166.979 408.656 167.771 407.329 168.035 405.737C166.451 403.879 164.074 402.022 160.641 399.899C160.377 402.553 159.849 403.879 158 404.675Z" fill="#ED99BF"/>
<path d="M89.5233 3C88.467 4.32674 87.9389 5.38813 87.9389 6.71486C88.7311 7.51091 89.5233 7.77625 90.3156 7.77625C90.5796 6.18417 91.1078 5.38813 92.1641 4.06139C90.8437 4.06139 90.3156 3.79604 89.5233 3Z" fill="#ED99BF"/>
<path d="M357.826 62.1724C357.298 61.9071 356.77 61.3764 356.506 60.315C354.393 61.6417 353.337 62.7031 351.752 64.2952C352.281 65.622 352.809 66.1526 353.337 66.6833C354.657 64.5606 355.714 63.4992 357.826 62.1724Z" fill="#ED99BF"/>
<path d="M213.377 113.022C216.017 110.103 217.602 108.511 220.771 107.45C219.979 106.123 219.715 105.061 219.715 104C216.282 105.061 213.905 106.388 211 109.307C211.528 111.164 212.32 112.226 213.377 113.022Z" fill="#ED99BF"/>
<path d="M302.282 258.896C300.697 258.1 299.377 257.834 297.264 258.1C297.792 260.488 297.528 261.814 297 263.406C298.584 264.202 299.641 264.733 301.489 264.999C301.489 262.61 301.753 261.284 302.282 258.896Z" fill="#ED99BF"/>
<path d="M169.347 124.796C168.819 126.123 168.819 127.45 169.875 128.776C171.46 129.042 172.78 129.042 173.836 128.246C173.836 126.388 173.308 125.857 174.1 124C171.724 124.796 171.724 124.796 169.347 124.796Z" fill="#64BB75"/>
<path d="M316 354.757C320.753 357.145 323.922 357.941 328.412 358.472C328.676 355.022 328.148 352.634 327.355 350.777C324.715 351.042 322.602 350.246 319.697 348.654C319.169 351.573 318.113 353.165 316 354.757Z" fill="#64BB75"/>
<path d="M38.5562 418.535C39.0844 416.942 39.3485 416.146 40.4048 414.82C39.8766 414.289 39.0844 414.024 38.5562 414.024C37.764 414.82 37.2358 415.881 36.4436 417.739C37.4999 417.473 38.0281 417.739 38.5562 418.535Z" fill="url(#paint1_linear)"/>
<path d="M123.186 282.349C125.299 280.226 126.355 278.899 127.148 275.45C123.451 274.919 121.602 273.857 119.753 272C117.641 273.857 116.584 275.184 115 277.838C117.905 278.899 120.018 279.96 123.186 282.349Z" fill="#54BEEE"/>
<path d="M19.4505 348.707C21.8272 346.849 22.8835 345.522 23.1476 342.338C19.1864 339.419 17.0738 337.297 13.6408 333.582C12.8485 335.174 11.7922 336.235 11 336.766C14.9612 340.746 16.8097 343.665 19.4505 348.707Z" fill="#64BB75"/>
</g>
<defs>
<linearGradient id="paint0_linear" x1="124.906" y1="71.0369" x2="129.796" y2="72.8089" gradientUnits="userSpaceOnUse">
<stop stop-color="#EA5B5A"/>
<stop offset="0.2423" stop-color="#E34F4A"/>
<stop offset="0.7513" stop-color="#D02D2A"/>
<stop offset="1" stop-color="#C6171E"/>
</linearGradient>
<linearGradient id="paint1_linear" x1="39.4748" y1="416.748" x2="36.7557" y2="415.477" gradientUnits="userSpaceOnUse">
<stop stop-color="#60BB87"/>
<stop offset="0.3278" stop-color="#4FAB71"/>
<stop offset="1" stop-color="#118548"/>
</linearGradient>
</defs>
</svg>
