<svg width="351" height="123" viewBox="0 0 351 123" fill="none" xmlns="http://www.w3.org/2000/svg">
<path d="M10.1145 4.72647C9.89462 4.68251 9.71875 4.57259 9.71875 4.33077C9.71875 4.19887 10.0265 3.38548 10.5981 3.0777C10.664 3.03374 10.796 2.96779 10.796 2.87985C10.796 2.72597 10.4662 2.57208 10.3343 2.50613C10.2244 2.46216 9.91661 2.30828 9.54289 2.13241C8.72949 1.71472 7.54238 1.14315 7.41048 1.14315C7.23461 1.14315 7.10271 1.51687 7.01477 1.75869C6.50915 3.14365 5.34402 5.01226 4.46467 6.19938C3.38748 7.67228 2.39822 8.70551 0.991266 9.84865C0.881348 9.93659 0.77143 10.0465 0.77143 10.2004C0.77143 10.3982 0.903332 10.5741 1.05722 10.706C1.43094 11.0358 2.99177 12.091 3.45343 12.091C3.7612 12.091 4.53063 11.2996 4.94831 10.8819C5.01426 10.7939 5.08022 10.728 5.12418 10.684C5.65179 10.1125 6.61907 9.01328 7.05874 8.39774C7.25659 8.13393 7.43246 7.87013 7.80618 7.87013H10.9498C11.2136 7.87013 11.5214 7.89211 11.5214 8.1779C11.5214 8.4417 11.2576 8.94733 11.1257 9.18915C9.1252 12.7945 5.84964 15.4984 2.1564 17.2791C1.78268 17.433 1.36499 17.5869 1.36499 17.8946C1.36499 18.2244 1.93656 18.73 2.20036 18.9718C2.5521 19.2796 3.40946 20.049 3.82715 20.049C4.35476 20.049 6.37725 18.796 6.92684 18.4442C11.0817 15.7622 13.1262 12.6626 15.3905 8.37575C15.5884 8.02401 15.7642 7.73823 15.8961 7.49641C16.094 7.18864 16.2039 6.99078 16.2039 6.88087C16.2039 6.48516 14.731 4.63854 14.0056 4.63854C13.9396 4.63854 13.8517 4.63854 13.7857 4.66052C13.4999 4.72647 13.2361 4.72647 12.9503 4.72647H10.1145ZM18.1385 0.41769C17.9186 0.41769 16.6876 1.09918 16.6876 1.42894C16.6876 1.51687 16.7535 1.58282 16.8195 1.67075C17.391 2.33026 17.8967 2.98977 18.3803 3.69325C18.4462 3.78118 18.5342 3.91308 18.6441 3.91308C18.9079 3.91308 20.0291 3.16564 20.0291 2.76993C20.0291 2.44018 18.3583 0.41769 18.1385 0.41769ZM15.8302 2.00051C15.6323 2.00051 14.3793 2.66002 14.3793 3.01175C14.3793 3.09969 14.4672 3.20961 14.5332 3.27556C15.2147 4.11093 15.4565 4.4187 16.072 5.32003C16.138 5.40797 16.2039 5.51788 16.3138 5.51788C16.5117 5.51788 17.7208 4.81441 17.7208 4.37474C17.7208 4.06697 16.05 2.00051 15.8302 2.00051Z" fill="#F32840"/>
<path d="M25.5909 3.40746C25.415 3.40746 25.3051 3.42944 25.3051 3.62729C25.3051 3.71523 25.3931 5.2321 25.3931 6.24334C25.3931 10.2444 25.0193 13.1902 21.7878 15.9601C21.6339 16.092 21.458 16.2459 21.458 16.4437C21.458 16.7295 21.8317 16.9494 22.0516 17.0813C22.4912 17.367 23.7223 18.1365 24.184 18.1365C24.4697 18.1365 24.8435 17.7408 25.0853 17.4989C26.6901 15.8941 27.9432 13.6298 28.3608 11.3875C28.7126 9.60683 28.7785 7.58434 28.7785 5.7597C28.7785 5.4959 28.7566 5.2321 28.7566 4.96829C28.7566 4.50664 28.8005 4.35275 28.9984 4.13292C29.0423 4.08895 29.1303 4.00102 29.1303 3.91308C29.1303 3.73721 28.7785 3.69325 28.3608 3.64928C27.7893 3.58333 26.0526 3.40746 25.5909 3.40746ZM33.7908 6.705C33.7908 6.04549 33.7908 5.38598 33.8128 4.72647C33.8128 4.44069 33.8128 4.11093 34.0326 3.8911C34.1205 3.80316 34.2305 3.71523 34.2305 3.58333C34.2305 3.40746 34.0986 3.38547 33.9227 3.34151C33.6149 3.29754 32.0761 3.12167 31.7243 3.0777C31.5485 3.05572 30.6471 2.96779 30.6032 2.96779C30.4713 2.96779 30.3614 2.98977 30.3614 3.14365C30.3614 3.20961 30.3614 3.25357 30.3833 3.31952C30.4053 3.60531 30.4273 4.08895 30.4273 4.59457C30.4273 5.27606 30.4053 6.00152 30.4053 6.4412V13.344C30.4053 14.5751 30.3394 15.5644 30.3394 16.0041C30.3394 16.5097 30.9109 16.8394 31.2847 17.0373C31.6144 17.2351 32.9334 17.8946 33.2632 17.8946C33.527 17.8946 33.8567 17.5869 34.0766 17.389C34.9559 16.6196 35.9012 15.9381 36.8025 15.2127C37.8797 14.3553 38.913 13.4759 39.9462 12.5746C39.9902 12.5307 40.0781 12.4647 40.1441 12.3988C40.5398 12.047 41.1773 11.4974 41.1773 11.1017C41.1773 10.75 40.7816 10.0465 40.6057 9.73874C40.3199 9.23311 39.9462 8.55162 39.6384 8.55162C39.4406 8.55162 39.2867 8.72749 39.1768 8.83741C38.4733 9.54088 35.0219 12.7945 34.2305 12.7945C33.8348 12.7945 33.7908 12.4867 33.7908 11.5854V6.705Z" fill="#F32840"/>
<path d="M54.1696 2.37423C53.9717 2.37423 53.9278 2.79192 53.9058 2.9458C53.7299 4.48466 53.0704 6.33128 52.3669 7.71625C52.213 8.00203 52.0592 8.3098 51.6854 8.3098C51.5755 8.3098 51.4436 8.24385 51.2897 8.1779C50.8501 7.95806 48.9595 7.1007 48.5418 7.1007C48.0362 7.1007 47.6185 7.95806 47.3986 8.39774C47.2667 8.66154 46.937 9.43097 46.937 9.69477C46.937 9.98056 47.1568 10.0905 47.3986 10.1784C47.9922 10.3982 48.9815 10.75 49.5311 11.0358C49.6849 11.1237 49.7949 11.2776 49.7949 11.4535C49.7949 11.6513 49.641 11.8052 49.4651 11.9811C47.7943 13.7398 46.1456 14.9269 43.8813 15.8062C43.8373 15.8282 43.7933 15.8502 43.7274 15.8722C43.4196 15.9821 42.958 16.1579 42.958 16.4657C42.958 16.7295 43.4856 17.3451 43.7274 17.6089C44.0352 17.9606 44.8046 18.8619 45.2223 18.8619C45.8158 18.8619 48.256 17.3451 48.8276 16.9494C50.1686 16.0041 51.4436 14.8829 52.4769 13.6078C52.6088 13.454 52.7407 13.3221 52.9605 13.3221C53.0704 13.3221 53.2243 13.41 53.4002 13.5419C53.7739 13.8057 54.2136 14.2234 54.3894 14.3773C54.5213 14.5092 54.7412 14.729 54.939 14.729C55.5106 14.729 56.9835 12.5087 56.9835 12.1349C56.9835 12.025 56.8296 11.8272 56.5878 11.6073C56.1921 11.2336 55.5765 10.7939 55.4007 10.662C55.2468 10.5521 55.0489 10.3982 55.0489 10.0905C55.0489 9.9146 55.1149 9.7827 55.2028 9.62882C55.8184 8.55162 56.6977 6.37524 57.0934 5.16615C57.2253 4.79243 57.3132 4.50664 57.687 4.2868C57.7969 4.22085 57.9947 4.11093 57.9947 3.97903C57.9947 3.86911 57.7529 3.67126 57.4451 3.56134C56.236 3.09969 54.5213 2.37423 54.1696 2.37423Z" fill="#F32840"/>
<path d="M69.4042 9.18915C68.0412 8.66154 66.8761 8.13393 66.8761 7.32054C66.8761 6.66103 67.4257 6.08946 68.9426 6.08946C70.0637 6.08946 71.3827 6.46318 72.328 7.03475C72.5259 7.16665 72.6358 7.23261 72.7457 7.23261C72.8996 7.23261 72.9876 7.07872 73.1195 6.77095L74.0208 4.44069C74.0867 4.26482 74.1307 4.13292 74.1307 4.023C74.1307 3.82515 73.9768 3.71523 73.669 3.56134C72.5259 3.01175 70.8771 2.61605 69.2943 2.61605C65.5351 2.61605 63.0949 4.37474 63.0949 7.47442C63.0949 10.3103 65.4911 11.5194 67.5576 12.3108C69.3603 12.9923 70.7013 13.5639 70.7013 14.5312C70.7013 15.3665 69.8879 15.8722 68.5688 15.8722C67.3378 15.8722 65.7989 15.4545 64.6777 14.6411C64.4799 14.5092 64.348 14.4212 64.2381 14.4212C64.1062 14.4212 64.0182 14.5751 63.8863 14.8609L62.8971 16.9933C62.8091 17.1912 62.7652 17.3231 62.7652 17.433C62.7652 17.6308 62.8971 17.7408 63.2048 17.9166C64.5239 18.6201 66.4584 19.1257 68.327 19.1257C72.2401 19.1257 74.4824 17.2791 74.4824 14.1574C74.4824 11.2556 71.7565 10.1125 69.4042 9.18915Z" fill="#F32840"/>
<path d="M81.0071 10.4202C81.0071 10.1784 81.0731 10.0685 81.183 10.0685C81.2489 10.0685 81.3369 10.1125 81.4468 10.2444L86.3271 15.7183C87.2285 16.7295 87.9539 17.5429 88.7453 18.4662C89.0971 18.8839 89.2729 18.9718 89.8225 18.9718H90.9217C91.4273 18.9718 91.5592 18.8839 91.5592 18.4223C91.5592 18.2684 91.4933 15.7403 91.4933 14.5751V7.16665C91.4933 6.00152 91.5592 3.47341 91.5592 3.31952C91.5592 2.85787 91.4273 2.76993 90.9217 2.76993H88.4815C87.9759 2.76993 87.844 2.85787 87.844 3.31952C87.844 3.47341 87.9099 6.00152 87.9099 7.16665V11.1017C87.9099 11.3435 87.844 11.4535 87.7561 11.4535C87.6901 11.4535 87.5802 11.3875 87.4703 11.2556L82.8977 6.04549C82.1063 5.14416 81.3369 4.26482 80.5235 3.27556C80.1717 2.85787 79.9958 2.76993 79.4463 2.76993H77.9953C77.4897 2.76993 77.3578 2.85787 77.3578 3.31952C77.3578 3.47341 77.4238 6.00152 77.4238 7.16665V14.5751C77.4238 15.7403 77.3578 18.2684 77.3578 18.4223C77.3578 18.8839 77.4897 18.9718 77.9953 18.9718H80.4355C80.9411 18.9718 81.0731 18.8839 81.0731 18.4223C81.0731 18.2684 81.0071 15.7403 81.0071 14.5751V10.4202Z" fill="#F32840"/>
<path d="M100.8 9.18915C99.4374 8.66154 98.2723 8.13393 98.2723 7.32054C98.2723 6.66103 98.8219 6.08946 100.339 6.08946C101.46 6.08946 102.779 6.46318 103.724 7.03475C103.922 7.16665 104.032 7.23261 104.142 7.23261C104.296 7.23261 104.384 7.07872 104.516 6.77095L105.417 4.44069C105.483 4.26482 105.527 4.13292 105.527 4.023C105.527 3.82515 105.373 3.71523 105.065 3.56134C103.922 3.01175 102.273 2.61605 100.69 2.61605C96.9313 2.61605 94.4911 4.37474 94.4911 7.47442C94.4911 10.3103 96.8873 11.5194 98.9538 12.3108C100.756 12.9923 102.097 13.5639 102.097 14.5312C102.097 15.3665 101.284 15.8722 99.965 15.8722C98.7339 15.8722 97.1951 15.4545 96.0739 14.6411C95.8761 14.5092 95.7442 14.4212 95.6343 14.4212C95.5024 14.4212 95.4144 14.5751 95.2825 14.8609L94.2933 16.9933C94.2053 17.1912 94.1614 17.3231 94.1614 17.433C94.1614 17.6308 94.2933 17.7408 94.601 17.9166C95.92 18.6201 97.8546 19.1257 99.7232 19.1257C103.636 19.1257 105.879 17.2791 105.879 14.1574C105.879 11.2556 103.153 10.1125 100.8 9.18915Z" fill="#F32840"/>
<path d="M119.416 10.75C119.482 10.4862 119.548 10.3543 119.812 10.3543C119.9 10.3543 119.966 10.3763 120.032 10.4202C120.405 10.728 121.373 11.5414 121.724 11.5414C121.988 11.5414 122.406 11.1677 122.802 10.772L122.999 10.5741C124.34 9.29906 125.637 7.98005 126.89 6.59508C126.956 6.50715 127.11 6.35326 127.198 6.26533C127.418 6.08946 127.66 5.89161 127.66 5.64979C127.66 5.12218 126.803 4.2868 126.429 3.91308C126.143 3.62729 125.879 3.34151 125.484 3.34151C125.374 3.34151 125.22 3.36349 125.11 3.38548C124.472 3.49539 123.769 3.51738 123.087 3.51738H113.415C112.271 3.51738 111.15 3.47341 110.029 3.47341C109.479 3.47341 109.392 3.7592 109.392 4.24283V5.364C109.392 6.59508 109.414 6.8369 110.095 6.8369C110.403 6.8369 110.711 6.81492 111.018 6.81492C111.81 6.79293 112.601 6.79293 113.415 6.79293H121.526C121.768 6.79293 121.878 6.90285 121.878 7.03475C121.878 7.32054 120.493 8.52964 120.317 8.68352C120.273 8.72749 120.229 8.74947 120.163 8.74947C120.054 8.74947 119.966 8.68352 119.966 8.5736C119.966 8.55162 119.988 8.50765 120.01 8.48567C120.032 8.41972 120.098 8.35377 120.098 8.28782C120.098 8.1779 120.032 8.08996 119.658 8.046C119.152 7.98005 116.998 7.89211 116.36 7.89211C116.162 7.89211 116.14 7.95806 116.14 8.13393C116.14 8.1779 116.162 8.19988 116.162 8.24385C116.162 8.77146 116.14 9.387 116.075 9.84865C115.591 12.7945 113.942 15.2127 111.304 16.7955C110.842 17.0593 110.667 17.1692 110.667 17.3011C110.667 17.7847 112.909 19.5434 113.393 19.5434C113.854 19.5434 115.239 18.2684 115.613 17.9166C117.723 15.8941 118.735 13.5199 119.416 10.75Z" fill="#F32840"/>
<path d="M147.379 0C146.104 0 145.093 1.03323 145.093 2.2863C145.093 3.56134 146.104 4.59457 147.379 4.59457C148.654 4.59457 149.665 3.56134 149.665 2.2863C149.665 1.03323 148.632 0 147.379 0ZM147.379 1.12116C148.017 1.12116 148.544 1.64877 148.544 2.2863C148.544 2.9458 148.017 3.45143 147.379 3.45143C146.72 3.45143 146.214 2.9458 146.214 2.2863C146.214 1.64877 146.742 1.12116 147.379 1.12116ZM134.563 3.60531C133.573 3.60531 132.562 3.56134 131.573 3.56134C130.935 3.56134 130.826 3.69325 130.826 4.61656V6.04549C130.826 6.90285 130.935 6.99078 131.683 6.99078C132.628 6.99078 133.551 6.9688 134.497 6.9688H141.488C141.839 6.9688 142.235 7.01277 142.235 7.40847C142.235 8.59559 141.224 10.9478 139.861 12.4207C138.388 14.0255 135.64 15.6084 133.508 16.092C133.31 16.136 133.09 16.2019 133.09 16.4437C133.09 16.8175 133.617 17.7627 133.815 18.0925C134.035 18.4662 134.431 19.1697 134.914 19.1697C135.574 19.1697 137.575 18.1365 138.234 17.7847C142.323 15.4984 144.851 12.4647 145.796 7.80418C145.884 7.43046 145.95 7.12269 146.038 6.74897C146.082 6.5731 146.236 6.15541 146.236 6.02351C146.236 5.69375 145.62 5.05623 145.269 4.68251L145.093 4.50664C144.763 4.1549 144.214 3.56134 143.73 3.56134C143.29 3.56134 142.323 3.60531 141.641 3.60531H134.563Z" fill="#F32840"/>
<path d="M155.909 4.04498C155.909 2.90184 156.261 3.12167 156.261 2.8139C156.261 2.66002 155.997 2.61605 155.513 2.57208C155.403 2.5501 155.293 2.5501 155.161 2.52811C154.722 2.48415 152.875 2.26431 152.589 2.26431C152.435 2.26431 152.391 2.30828 152.391 2.48415C152.391 2.66002 152.413 2.92382 152.413 3.12167C152.435 3.84713 152.435 4.59457 152.435 5.32003V9.95857C152.435 10.9039 152.369 11.8711 152.369 12.5966C152.369 13.1022 152.545 13.2561 153.381 13.2561H154.744C155.887 13.2561 155.931 13.0802 155.931 12.2229C155.931 11.4535 155.909 10.684 155.909 9.89262V4.04498ZM164.241 3.86911C164.241 3.47341 164.263 2.8139 164.416 2.63803C164.526 2.52811 164.614 2.44018 164.614 2.33026C164.614 2.13241 164.351 2.11043 164.197 2.08844C163.515 1.97852 161.559 1.75869 160.943 1.75869C160.789 1.75869 160.723 1.82464 160.723 1.97852C160.723 2.11043 160.745 2.30828 160.767 2.44018C160.833 2.98977 160.833 3.53936 160.833 4.08895V8.59559C160.833 10.0685 160.767 11.6293 160.547 13.1022C160.196 15.3446 158.789 16.5317 156.898 17.5649C156.722 17.6528 156.283 17.8507 156.283 18.0485C156.283 18.4442 157.162 19.0818 157.47 19.3016C157.777 19.5434 158.569 20.1809 158.899 20.1809C159.338 20.1809 161.009 18.8619 161.405 18.5322C163.032 17.1032 163.735 15.4325 164.021 13.3221C164.241 11.6073 164.241 9.89262 164.241 8.1779V3.86911Z" fill="#F32840"/>
<path d="M174.331 0.131903C173.891 0.131903 173.452 0.0879346 172.99 0.0879346C172.353 0.0879346 172.001 0.197852 172.001 0.923312C172.001 1.71472 172.067 2.48415 172.067 3.27556V16.7295C172.067 17.8727 172.023 18.9938 172.023 20.137C172.023 20.7745 172.155 20.8405 172.726 20.8405H174.001C174.727 20.8405 174.815 20.7745 174.815 20.071C174.815 18.9499 174.771 17.8507 174.771 16.7295V3.8911C174.771 3.27556 174.793 2.90184 175.518 2.90184H178.53C178.838 2.90184 179.167 2.9458 179.497 2.9458C180.025 2.9458 180.069 2.72597 180.069 2.02249V0.989262C180.069 0.285787 180.025 0.0659513 179.497 0.0659513C179.058 0.0659513 178.552 0.131903 177.936 0.131903H174.331Z" fill="#F32840"/>
<path d="M184.993 1.82464C184.553 1.82464 183.103 3.62729 183.103 4.04498C183.103 4.22085 183.388 4.39672 183.52 4.48465C184.773 5.25408 185.96 6.11144 187.126 7.01277C187.257 7.12269 187.543 7.36451 187.697 7.36451C188.137 7.36451 189.566 5.51788 189.566 5.03425C189.566 4.72647 188.401 3.91308 188.093 3.69325C187.631 3.36349 185.389 1.82464 184.993 1.82464ZM180.64 8.99129C180.64 9.18915 180.86 9.29906 181.102 9.43097C182.531 10.2444 183.498 10.8599 184.817 11.8052C184.949 11.9151 185.213 12.091 185.367 12.091C185.85 12.091 187.257 10.1564 187.257 9.67278C187.257 9.29906 186.07 8.59559 185.631 8.33178C185.191 8.046 182.751 6.55111 182.399 6.55111C181.915 6.55111 180.64 8.5736 180.64 8.99129ZM182.157 16.2019C182.157 16.2898 182.223 16.4217 182.267 16.5097C182.553 17.0593 183.015 18.1804 183.322 18.796C183.41 18.9938 183.696 19.6314 183.916 19.6314C184.004 19.6314 184.092 19.5434 184.114 19.4775C184.378 19.1037 184.422 19.1037 185.015 18.8839C190.709 16.7515 194.49 13.7178 196.864 8.00203C196.996 7.69426 197.348 6.8369 197.348 6.55111C197.348 6.22136 196.535 5.42995 196.249 5.14416C195.985 4.90234 195.303 4.26482 194.996 4.26482C194.666 4.26482 194.534 4.59457 194.446 4.83639C193.589 7.21062 192.358 9.9146 190.577 11.7392C189.016 13.344 187.323 14.1794 185.257 14.9708C184.685 15.1907 183.125 15.7842 182.619 15.8941C182.465 15.9381 182.157 16.0041 182.157 16.2019Z" fill="#F32840"/>
<path d="M202.866 2.22034C202.228 2.22034 200.909 4.30879 200.909 4.74846C200.909 4.96829 201.129 5.1002 201.305 5.21011C202.756 6.02351 203.723 6.72698 204.998 7.78219C205.13 7.9141 205.35 8.11195 205.548 8.11195C206.053 8.11195 207.614 6.33128 207.614 5.69375C207.614 5.51788 207.548 5.40797 207.416 5.29805C206.691 4.63854 205.328 3.58333 203.547 2.52811C203.24 2.35225 202.976 2.22034 202.866 2.22034ZM215.462 5.47392C215.221 5.47392 215.045 5.71574 214.847 6.00152C214.803 6.06747 214.759 6.11144 214.715 6.17739C212.868 8.70551 209.483 11.4535 206.779 13.0583C205.02 14.0915 203.108 14.9488 201.151 15.4765C200.975 15.5204 200.733 15.6303 200.733 15.8282C200.733 16.07 201.217 16.8834 201.371 17.1472C201.679 17.7188 202.03 18.2904 202.404 18.8399C202.492 18.9938 202.624 19.1917 202.8 19.1917C202.888 19.1917 202.954 19.1257 202.976 19.0598C203.152 18.752 203.13 18.708 203.569 18.4882C207.966 16.3778 211.505 14.3993 215.045 10.9478C215.506 10.5082 217.287 8.81542 217.287 8.28782C217.287 8.046 217.067 7.58434 216.913 7.25459C216.847 7.16665 216.825 7.07872 216.781 7.01277C216.584 6.66103 215.902 5.47392 215.462 5.47392Z" fill="#F32840"/>
<path d="M229.84 4.37474C229.62 4.33077 229.422 4.22085 229.422 3.97903C229.422 3.82515 229.774 3.01175 230.301 2.72597C230.389 2.682 230.499 2.63803 230.499 2.52811C230.499 2.35225 230.235 2.24233 229.972 2.13241C229.598 1.93456 227.312 0.79141 227.114 0.79141C226.938 0.79141 226.828 1.12116 226.718 1.40695C226.19 2.83588 225.091 4.61656 224.19 5.84764C223.157 7.25459 222.079 8.39773 220.694 9.49692C220.585 9.58485 220.475 9.69477 220.475 9.84865C220.475 10.0465 220.629 10.2224 220.76 10.3543C221.134 10.662 222.717 11.7392 223.157 11.7392C223.508 11.7392 224.542 10.6401 224.827 10.3323C225.377 9.76072 226.322 8.66154 226.762 8.046C226.96 7.78219 227.136 7.51839 227.509 7.51839H230.653C230.917 7.51839 231.225 7.54038 231.225 7.82616C231.225 8.24385 230.587 9.27708 230.345 9.6508C228.213 12.9264 225.399 15.2346 221.86 16.9054C221.794 16.9274 221.728 16.9713 221.662 16.9933C221.376 17.1472 221.068 17.3011 221.068 17.5429C221.068 17.8507 221.574 18.3123 221.838 18.5542C222.189 18.8619 223.135 19.6973 223.53 19.6973C223.816 19.6973 224.63 19.2576 224.959 19.0818C230.147 16.2019 232.412 13.1242 235.138 7.98005C235.336 7.60633 235.533 7.23261 235.753 6.88087C235.863 6.705 236.149 6.26533 236.149 6.11144C236.149 5.80367 235.006 4.19887 234.346 4.19887C234.258 4.19887 234.192 4.19887 234.104 4.22085C233.533 4.35275 233.269 4.37474 232.873 4.37474H229.84Z" fill="#F32840"/>
<path d="M241.579 3.86911C240.678 3.86911 240.15 4.11093 240.15 5.07821C240.15 5.82565 240.172 6.55111 240.172 7.27657V14.707C240.172 15.4984 240.15 16.3118 240.15 17.1032C240.15 17.9606 240.238 18.0485 241.337 18.0485H242.59C243.535 18.0485 243.579 17.9386 243.623 17.433C243.667 16.8175 243.887 16.7515 244.789 16.7515H250.79C251.691 16.7515 251.911 16.8175 251.955 17.433C251.977 17.9166 252.043 18.0485 252.878 18.0485H254.241C255.341 18.0485 255.429 17.9826 255.429 17.1032C255.429 16.2898 255.407 15.4984 255.407 14.707V7.27657C255.407 6.55111 255.429 5.82565 255.429 5.07821C255.429 4.00102 254.791 3.84713 253.582 3.84713C253.142 3.84713 252.637 3.86911 252.065 3.86911H241.579ZM251.318 7.05674C251.691 7.1007 251.999 7.34252 251.999 7.73823V12.9044C251.999 13.2781 251.691 13.5859 251.318 13.5859H244.261C243.887 13.5859 243.579 13.2781 243.579 12.9044V7.73823C243.579 7.36451 243.887 7.05674 244.261 7.05674H251.318Z" fill="#F32840"/>
<path d="M265.717 2.08844C264.64 2.08844 263.431 2.02249 262.771 2.02249C262.265 2.02249 262.134 2.2863 262.134 3.01175V4.22085C262.134 5.05623 262.178 5.34202 262.837 5.34202C263.804 5.34202 264.772 5.32003 265.717 5.32003H270.839C271.784 5.32003 272.752 5.34202 273.719 5.34202C274.4 5.34202 274.422 5.05623 274.422 4.1549V3.12167C274.422 2.33026 274.334 2.02249 273.785 2.02249C273.499 2.02249 273.213 2.06646 272.928 2.06646C272.224 2.08844 271.521 2.08844 270.839 2.08844H265.717ZM264.046 6.88087C263.035 6.88087 262.024 6.8369 261.012 6.8369C260.441 6.8369 260.309 6.9688 260.309 7.84815V9.10121C260.309 9.95857 260.397 10.1564 261.056 10.1564C262.024 10.1564 262.991 10.1344 263.98 10.1344H271.477C271.74 10.1344 272.18 10.1784 272.18 10.6181C272.18 11.0358 271.477 12.025 271.213 12.3768C269.718 14.3333 267.344 16.3558 265.057 17.3011C264.904 17.367 264.618 17.4989 264.618 17.6968C264.618 18.1145 266.157 20.049 266.816 20.049C267.564 20.049 269.828 18.4223 270.465 17.8946C273.213 15.7183 275.17 13.1902 276.357 9.84865C276.423 9.62882 276.709 8.94733 276.709 8.74947C276.709 8.39773 276.313 8.02401 276.049 7.76021C275.741 7.47442 275.016 6.79293 274.664 6.79293C274.51 6.79293 274.312 6.81492 274.159 6.8369C273.873 6.88087 273.279 6.88087 272.708 6.88087H264.046Z" fill="#F32840"/>
<path d="M290.668 8.15592C290.668 7.67228 290.822 7.40847 291.174 7.03475C292.823 5.364 293.79 4.1549 294.318 3.62729C294.559 3.38547 294.801 3.31952 295.109 3.25357C295.241 3.20961 295.395 3.16564 295.395 3.01175C295.395 2.87985 295.219 2.66002 294.955 2.46216C294.296 1.97852 292.449 0.637525 292.119 0.637525C291.965 0.637525 291.877 0.79141 291.833 0.901328C291.328 1.73671 290.448 2.92382 289.811 3.64928C288.25 5.45193 286.206 7.12269 284.205 8.39774C283.128 9.07923 281.083 10.2444 279.918 10.684C279.72 10.75 279.457 10.8379 279.457 11.0797C279.457 11.6513 281.523 13.6738 282.029 13.6738C282.534 13.6738 285.568 11.6513 286.162 11.2336C286.316 11.1237 286.601 10.9039 286.799 10.9039C287.085 10.9039 287.195 11.1237 287.195 11.4535V16.3558C287.195 17.3451 287.151 18.3343 287.151 19.3236C287.151 19.8292 287.305 19.9611 288.338 19.9611H289.239C290.339 19.9611 290.712 19.9391 290.712 19.2576C290.712 18.8399 290.69 18.4223 290.69 18.0266C290.69 17.433 290.668 16.8394 290.668 16.2459V8.15592Z" fill="#F32840"/>
<path d="M302.605 3.40746C301.616 3.40746 300.605 3.36349 299.616 3.36349C299 3.36349 298.868 3.49539 298.868 4.39672V5.69375C298.868 6.705 298.956 6.81492 299.747 6.81492C300.671 6.81492 301.616 6.77095 302.539 6.77095H309.31C309.882 6.77095 310.3 6.8369 310.3 7.21062C310.3 8.15592 309.332 10.75 307.903 12.2449C306.409 13.8277 303.683 15.4325 301.572 15.9161C301.374 15.9601 301.132 16.0041 301.132 16.2459C301.132 16.5976 301.528 17.3011 301.704 17.6089C301.946 18.0266 302.473 18.9718 302.957 18.9718C303.639 18.9718 305.639 17.9606 306.277 17.6089C310.585 15.2126 312.938 12.1569 313.949 7.32054C314.037 6.90285 314.103 6.48516 314.213 6.08946C314.279 5.84764 314.477 5.34202 314.477 5.18813C314.477 4.94631 314.191 4.63854 313.861 4.2868L313.509 3.8911C313.179 3.51738 312.894 3.29754 312.586 3.29754C312.52 3.29754 312.19 3.34151 312.102 3.36349C311.663 3.40746 310.212 3.40746 309.684 3.40746H302.605Z" fill="#F32840"/>
<path d="M324.127 20.7965C324.567 20.7965 325.007 20.8405 325.468 20.8405C326.106 20.8405 326.458 20.7305 326.458 20.0051C326.458 19.2137 326.392 18.4442 326.392 17.6528V4.19887C326.392 3.05572 326.436 1.93456 326.436 0.79141C326.436 0.153886 326.304 0.0879346 325.732 0.0879346H324.457C323.732 0.0879346 323.644 0.153886 323.644 0.857361C323.644 1.97852 323.688 3.0777 323.688 4.19887V17.0373C323.688 17.6528 323.666 18.0266 322.94 18.0266H319.928C319.621 18.0266 319.291 17.9826 318.961 17.9826C318.434 17.9826 318.39 18.2024 318.39 18.9059V19.9391C318.39 20.6426 318.434 20.8624 318.961 20.8624C319.401 20.8624 319.906 20.7965 320.522 20.7965H324.127Z" fill="#F32840"/>
<path d="M346.067 8.24385C345.825 8.24385 344.594 8.90336 344.594 9.21113C344.594 9.27708 344.616 9.34303 344.704 9.45295C345.188 10.0685 345.627 10.6401 346.045 11.2776C346.331 11.7173 346.375 11.7832 346.485 11.7832C346.704 11.7832 347.892 11.1017 347.892 10.662C347.892 10.3323 346.682 8.83741 346.397 8.50765C346.309 8.39774 346.177 8.24385 346.067 8.24385ZM348.925 6.94682C348.661 6.94682 347.452 7.62831 347.452 7.9141C347.452 8.02401 347.562 8.15592 347.628 8.24385C348.133 8.85939 348.617 9.47493 349.035 10.1564C349.101 10.2663 349.211 10.4642 349.364 10.4642C349.606 10.4642 350.771 9.76072 350.771 9.32105C350.771 9.03526 349.167 6.94682 348.925 6.94682ZM331.997 6.46318C332.107 7.14467 332.261 8.13393 332.723 8.13393C332.811 8.13393 332.943 8.11195 333.031 8.08996C334.174 7.76021 335.691 7.43046 336.856 7.21062C337.164 7.14467 337.757 7.01277 338.043 7.01277C338.285 7.01277 338.439 7.14467 338.439 7.34252C338.439 7.47442 338.373 7.56236 338.307 7.67228C337.076 9.45295 336.416 11.0797 336.416 13.2781C336.416 18.0266 339.824 19.0818 343.891 19.0818C344.352 19.0818 344.66 19.0158 344.836 18.5761C345.056 18.0046 345.21 16.6416 345.21 16.0041C345.21 15.5864 345.056 15.5204 344.638 15.5204C344.33 15.5204 343.605 15.5864 343.055 15.5864C341.121 15.5864 340.021 15.0148 340.021 12.9264C340.021 10.0245 341.868 7.47442 344.572 6.50715C345.693 6.11144 346.551 6.13342 347.716 6.11144C348.661 6.08946 348.903 6.08946 348.903 5.67177C348.903 5.1002 348.749 3.80316 348.617 3.23159C348.529 2.8139 348.463 2.50613 348.067 2.50613C348.002 2.50613 347.936 2.50613 347.848 2.52811C345.166 3.03374 338.79 3.7592 336.02 3.93506C335.405 3.97903 334.899 4.00102 334.46 4.023C332.041 4.1549 331.8 4.17689 331.8 4.85838C331.8 5.29805 331.888 5.71574 331.997 6.46318Z" fill="#F32840"/>
<path d="M81.944 59.154C82.428 59.154 82.56 59.066 82.56 58.692C82.56 58.406 82.472 56.932 82.494 56.096L82.582 51.894C82.582 48.55 81.328 46.922 77.72 46.922C76.07 46.922 74.266 47.384 72.902 48.066C72.572 48.242 72.462 48.352 72.462 48.572C72.462 48.682 72.484 48.792 72.572 48.99L73.276 50.728C73.408 51.036 73.496 51.168 73.65 51.168C73.738 51.168 73.87 51.102 74.068 50.97C74.97 50.42 76.202 50.002 77.214 50.002C78.072 50.002 78.556 50.244 78.82 50.728C78.908 50.882 78.974 51.014 78.974 51.102C78.974 51.278 78.82 51.366 78.49 51.388C74.97 51.74 72 53.192 72 55.942C72 58.164 73.54 59.286 75.608 59.286C76.686 59.286 77.852 58.978 78.842 58.296C78.974 58.208 79.084 58.164 79.15 58.164C79.282 58.164 79.326 58.296 79.348 58.582C79.37 59.088 79.458 59.154 79.942 59.154H81.944ZM79.062 54.534L79.04 55.106C79.04 55.634 78.93 55.81 78.49 56.052C77.94 56.36 77.346 56.536 76.774 56.536C75.982 56.536 75.542 56.272 75.542 55.59C75.542 54.82 76.73 54.27 78.27 54.006C78.38 53.984 78.622 53.962 78.688 53.962C78.996 53.962 79.062 54.094 79.062 54.534Z" fill="#F32840"/>
<path d="M95.5049 59.154C96.0109 59.154 96.1429 59.066 96.1429 58.604C96.1429 58.45 96.0989 56.316 96.0989 55.414V50.794C96.0989 49.892 96.1429 47.758 96.1429 47.604C96.1429 47.142 96.0109 47.054 95.5049 47.054H93.0849C92.5789 47.054 92.4469 47.142 92.4469 47.604C92.4469 47.758 92.4909 49.892 92.4909 50.794V54.732C92.4909 55.238 92.3809 55.414 91.9629 55.678C91.4789 55.986 90.9729 56.096 90.4669 56.096C89.2129 56.096 88.6849 55.326 88.6849 54.358V50.794C88.6849 49.892 88.7289 47.758 88.7289 47.604C88.7289 47.142 88.5969 47.054 88.0909 47.054H85.6709C85.1649 47.054 85.0329 47.142 85.0329 47.604C85.0329 47.758 85.0769 49.892 85.0769 50.794V54.996C85.0769 57.878 86.8589 59.286 89.1909 59.286C90.3789 59.286 91.4129 58.89 92.2489 58.318C92.4029 58.208 92.4909 58.164 92.5569 58.164C92.6669 58.164 92.7109 58.274 92.7329 58.56C92.7549 59.066 92.8649 59.154 93.3489 59.154H95.5049Z" fill="#F32840"/>
<path d="M105.757 43.622C104.745 43.622 103.733 43.556 102.721 43.556C102.193 43.556 102.149 43.71 102.149 44.48V45.954C102.149 46.746 102.193 47.01 102.743 47.01C103.755 47.01 104.767 46.966 105.757 46.966H109.101C109.475 46.966 109.849 47.01 109.849 47.384C109.849 47.582 109.651 47.89 109.541 48.044C107.561 51.08 103.909 54.05 100.499 55.26C100.235 55.348 99.9275 55.48 99.9275 55.81C99.9275 56.096 100.301 56.734 100.477 56.998C100.719 57.35 101.533 58.56 101.929 58.56C102.369 58.56 104.503 57.306 104.987 56.998C106.197 56.228 107.385 55.326 108.441 54.358C108.595 54.204 108.771 54.094 108.991 54.094C109.189 54.094 109.497 54.314 109.717 54.468C111.103 55.524 112.467 56.668 113.589 58.01C113.633 58.054 113.677 58.098 113.699 58.164C113.941 58.45 114.227 58.802 114.557 58.802C115.173 58.802 117.021 56.866 117.021 56.25C117.021 56.14 116.977 56.052 116.889 55.986C116.735 55.788 115.965 55.106 115.745 54.908C114.513 53.83 113.083 52.708 111.741 51.784C111.543 51.674 111.433 51.542 111.433 51.322C111.433 51.146 111.499 51.036 111.609 50.904C112.951 49.188 114.249 46.9 114.667 46.152C114.821 45.888 114.997 45.58 114.997 45.47C114.997 45.162 113.787 43.512 113.105 43.512C112.951 43.512 112.709 43.534 112.555 43.556C112.115 43.622 111.477 43.622 111.037 43.622H105.757Z" fill="#F32840"/>
<path d="M123.687 45.492C122.675 45.492 121.663 45.448 120.629 45.448C120.101 45.448 120.057 45.602 120.057 46.658V47.714C120.057 48.506 120.101 48.902 120.717 48.902C121.597 48.902 122.719 48.858 123.687 48.858H131.563C131.959 48.858 132.289 48.88 132.289 49.166C132.289 49.386 132.047 49.606 131.915 49.738C131.189 50.442 130.397 51.058 129.627 51.718C129.451 51.872 129.297 52.026 129.033 52.026C128.813 52.026 128.681 51.938 128.549 51.784C128.263 51.498 127.427 50.64 127.053 50.64C126.525 50.64 124.633 52.114 124.633 52.488C124.633 52.686 124.963 52.994 125.117 53.148C126.657 54.578 128.043 56.228 129.165 58.032C129.275 58.208 129.451 58.494 129.649 58.494C130.221 58.494 132.289 57.108 132.289 56.646C132.289 56.47 131.651 55.524 131.497 55.304C131.387 55.15 131.255 54.974 131.255 54.776C131.255 54.468 131.497 54.27 131.717 54.094C133.631 52.51 135.479 50.794 137.261 49.034C137.525 48.748 137.789 48.506 138.009 48.308C138.361 48 138.581 47.802 138.581 47.67C138.581 47.45 138.009 46.724 137.855 46.526C137.393 45.976 136.887 45.404 136.513 45.404C136.425 45.404 136.315 45.404 136.249 45.426C135.655 45.492 135.039 45.492 134.445 45.492H123.687Z" fill="#F32840"/>
<path d="M146.49 45.294C146.314 45.294 146.226 45.514 146.116 45.756C144.796 48.858 142.772 51.586 140.396 53.94C140.308 54.028 140.198 54.16 140.198 54.314C140.198 54.864 142.552 56.272 142.926 56.272C143.366 56.272 144.598 54.776 144.928 54.38C146.6 52.356 147.898 50.288 149.152 47.978C149.306 47.692 149.394 47.538 149.702 47.384C149.856 47.296 149.9 47.252 149.9 47.142C149.9 47.01 149.812 46.944 149.724 46.878C149.592 46.768 148.25 46.042 148.03 45.932C147.744 45.778 146.754 45.294 146.49 45.294ZM154.476 45.822C154.124 45.822 153.486 46.284 153.178 46.504C152.892 46.702 152.056 47.274 152.056 47.604C152.056 47.802 152.188 47.956 152.32 48.11C153.816 49.958 155.554 53.082 156.478 55.282C156.566 55.524 156.698 55.788 156.984 55.788C157.38 55.788 158.216 55.392 158.59 55.194C158.964 54.996 159.998 54.468 159.998 53.984C159.998 53.038 157.226 48.836 156.544 47.912C156.28 47.538 155.246 46.196 154.96 45.976C154.806 45.888 154.652 45.822 154.476 45.822ZM158.348 42.654C157.094 42.654 156.06 43.688 156.06 44.964C156.06 46.218 157.094 47.252 158.348 47.252C159.624 47.252 160.658 46.218 160.658 44.964C160.658 43.688 159.624 42.654 158.348 42.654ZM158.348 43.798C159.008 43.798 159.514 44.304 159.514 44.964C159.514 45.602 159.008 46.13 158.348 46.13C157.71 46.13 157.182 45.602 157.182 44.964C157.182 44.326 157.71 43.798 158.348 43.798Z" fill="#F32840"/>
<path d="M169.788 43.622C168.776 43.622 167.764 43.556 166.752 43.556C166.224 43.556 166.18 43.71 166.18 44.48V45.954C166.18 46.746 166.224 47.01 166.774 47.01C167.786 47.01 168.798 46.966 169.788 46.966H173.132C173.506 46.966 173.88 47.01 173.88 47.384C173.88 47.582 173.682 47.89 173.572 48.044C171.592 51.08 167.94 54.05 164.53 55.26C164.266 55.348 163.958 55.48 163.958 55.81C163.958 56.096 164.332 56.734 164.508 56.998C164.75 57.35 165.564 58.56 165.96 58.56C166.4 58.56 168.534 57.306 169.018 56.998C170.228 56.228 171.416 55.326 172.472 54.358C172.626 54.204 172.802 54.094 173.022 54.094C173.22 54.094 173.528 54.314 173.748 54.468C175.134 55.524 176.498 56.668 177.62 58.01C177.664 58.054 177.708 58.098 177.73 58.164C177.972 58.45 178.258 58.802 178.588 58.802C179.204 58.802 181.052 56.866 181.052 56.25C181.052 56.14 181.008 56.052 180.92 55.986C180.766 55.788 179.996 55.106 179.776 54.908C178.544 53.83 177.114 52.708 175.772 51.784C175.574 51.674 175.464 51.542 175.464 51.322C175.464 51.146 175.53 51.036 175.64 50.904C176.982 49.188 178.28 46.9 178.698 46.152C178.852 45.888 179.028 45.58 179.028 45.47C179.028 45.162 177.818 43.512 177.136 43.512C176.982 43.512 176.74 43.534 176.586 43.556C176.146 43.622 175.508 43.622 175.068 43.622H169.788Z" fill="#F32840"/>
<path d="M199.884 40.168C198.608 40.168 197.596 41.202 197.596 42.456C197.596 43.732 198.608 44.766 199.884 44.766C201.16 44.766 202.172 43.732 202.172 42.456C202.172 41.202 201.138 40.168 199.884 40.168ZM199.884 41.29C200.522 41.29 201.05 41.818 201.05 42.456C201.05 43.116 200.522 43.622 199.884 43.622C199.224 43.622 198.718 43.116 198.718 42.456C198.718 41.818 199.246 41.29 199.884 41.29ZM187.058 43.776C186.068 43.776 185.056 43.732 184.066 43.732C183.428 43.732 183.318 43.864 183.318 44.788V46.218C183.318 47.076 183.428 47.164 184.176 47.164C185.122 47.164 186.046 47.142 186.992 47.142H193.988C194.34 47.142 194.736 47.186 194.736 47.582C194.736 48.77 193.724 51.124 192.36 52.598C190.886 54.204 188.136 55.788 186.002 56.272C185.804 56.316 185.584 56.382 185.584 56.624C185.584 56.998 186.112 57.944 186.31 58.274C186.53 58.648 186.926 59.352 187.41 59.352C188.07 59.352 190.072 58.318 190.732 57.966C194.824 55.678 197.354 52.642 198.3 47.978C198.388 47.604 198.454 47.296 198.542 46.922C198.586 46.746 198.74 46.328 198.74 46.196C198.74 45.866 198.124 45.228 197.772 44.854L197.596 44.678C197.266 44.326 196.716 43.732 196.232 43.732C195.792 43.732 194.824 43.776 194.142 43.776H187.058Z" fill="#F32840"/>
<path d="M209.278 45.294C209.278 44.26 209.3 44.018 209.652 43.71C209.718 43.666 209.762 43.6 209.762 43.512C209.762 43.292 209.542 43.226 208.772 43.116C208.31 43.05 206.176 42.742 206 42.742C205.824 42.742 205.758 42.896 205.758 43.028C205.758 43.182 205.802 43.424 205.802 43.6C205.802 44.282 205.802 45.778 205.802 46.658V56.558C205.802 57.086 205.802 57.372 206.308 57.68C206.616 57.856 208.09 58.604 208.354 58.604C208.508 58.604 208.794 58.472 208.948 58.406L209.608 58.098C212.204 57.02 214.866 55.59 217.176 53.984C218.43 53.104 219.662 52.136 220.784 51.058C220.96 50.882 221.202 50.662 221.202 50.42C221.202 49.848 220.08 47.626 219.64 47.626C219.42 47.626 219.2 47.868 219.024 48.044C216.692 50.618 212.226 53.17 211.5 53.478C210.994 53.698 210.114 54.138 209.85 54.138C209.344 54.138 209.278 53.61 209.278 53.082V45.294Z" fill="#F32840"/>
<path d="M226.416 44.964C226.416 45.228 226.702 45.294 226.922 45.36C228.946 45.954 230.948 46.592 232.862 47.494C233.06 47.582 233.544 47.802 233.72 47.802C234.05 47.802 234.292 47.208 234.468 46.812C234.666 46.394 235.062 45.47 235.062 45.03C235.062 44.876 234.996 44.744 234.864 44.656C234.6 44.48 232.994 43.842 232.598 43.71C231.828 43.402 228.506 42.236 227.846 42.236C227.516 42.236 227.318 42.632 227.076 43.094C227.01 43.204 226.966 43.336 226.9 43.446C226.768 43.732 226.416 44.678 226.416 44.964ZM225.8 53.082C225.338 53.082 225.074 53.368 224.942 53.786C224.81 54.226 224.414 55.524 224.414 55.898C224.414 56.338 224.722 56.36 225.096 56.404C228.594 56.888 232.07 57.768 235.282 59.264C235.414 59.33 235.678 59.462 235.832 59.462C236.448 59.462 237.13 57.064 237.13 56.514C237.13 56.272 237.02 56.228 236.646 56.074C234.116 55.018 231.74 54.292 229.078 53.676C228.44 53.544 226.35 53.082 225.8 53.082ZM226.834 47.494C226.35 47.494 226.174 48.066 226.02 48.572C225.888 49.012 225.602 49.958 225.602 50.332C225.602 50.728 225.954 50.772 226.328 50.838C228.726 51.278 231.124 51.96 233.346 52.994C233.5 53.06 233.786 53.192 233.94 53.192C234.314 53.192 234.468 52.818 234.688 52.268L234.82 51.938C234.996 51.52 235.26 50.75 235.26 50.31C235.26 50.046 235.106 49.958 234.886 49.87C233.258 49.232 232.092 48.858 230.398 48.374C229.848 48.22 227.208 47.494 226.834 47.494Z" fill="#F32840"/>
<path d="M251.65 50.926C251.716 50.662 251.782 50.53 252.046 50.53C252.134 50.53 252.2 50.552 252.266 50.596C252.64 50.904 253.608 51.718 253.96 51.718C254.224 51.718 254.642 51.344 255.038 50.948L255.236 50.75C256.578 49.474 257.876 48.154 259.13 46.768C259.196 46.68 259.35 46.526 259.438 46.438C259.658 46.262 259.9 46.064 259.9 45.822C259.9 45.294 259.042 44.458 258.668 44.084C258.382 43.798 258.118 43.512 257.722 43.512C257.612 43.512 257.458 43.534 257.348 43.556C256.71 43.666 256.006 43.688 255.324 43.688H245.644C244.5 43.688 243.378 43.644 242.256 43.644C241.706 43.644 241.618 43.93 241.618 44.414V45.536C241.618 46.768 241.64 47.01 242.322 47.01C242.63 47.01 242.938 46.988 243.246 46.988C244.038 46.966 244.83 46.966 245.644 46.966H253.762C254.004 46.966 254.114 47.076 254.114 47.208C254.114 47.494 252.728 48.704 252.552 48.858C252.508 48.902 252.464 48.924 252.398 48.924C252.288 48.924 252.2 48.858 252.2 48.748C252.2 48.726 252.222 48.682 252.244 48.66C252.266 48.594 252.332 48.528 252.332 48.462C252.332 48.352 252.266 48.264 251.892 48.22C251.386 48.154 249.23 48.066 248.592 48.066C248.394 48.066 248.372 48.132 248.372 48.308C248.372 48.352 248.394 48.374 248.394 48.418C248.394 48.946 248.372 49.562 248.306 50.024C247.822 52.972 246.172 55.392 243.532 56.976C243.07 57.24 242.894 57.35 242.894 57.482C242.894 57.966 245.138 59.726 245.622 59.726C246.084 59.726 247.47 58.45 247.844 58.098C249.956 56.074 250.968 53.698 251.65 50.926Z" fill="#F32840"/>
<path d="M268.568 42.104C268.282 42.104 268.216 42.346 268.15 42.588C267.644 44.194 264.96 49.716 264.08 51.454C263.882 51.85 263.706 52.18 263.574 52.466C262.936 53.786 262.892 53.874 262.034 53.874H261.616C261.374 53.874 261.132 53.852 260.89 53.852C260.67 53.852 260.384 53.852 260.384 54.16C260.384 54.336 260.406 54.534 260.45 54.71C260.626 55.414 260.758 56.14 260.934 56.866C261.044 57.328 261.132 57.746 261.396 57.746C261.528 57.746 261.594 57.658 261.682 57.57C261.814 57.372 261.924 57.306 262.166 57.262C262.914 57.13 272 56.03 273.386 55.876C273.518 55.854 274.332 55.744 274.398 55.744C274.728 55.744 274.904 55.942 275.08 56.184C275.168 56.338 275.256 56.492 275.344 56.624C275.762 57.328 275.982 57.702 276.268 57.702C276.708 57.702 277.324 57.196 277.654 56.932C278.028 56.646 278.666 56.14 278.666 55.634C278.666 55.062 276.642 52.642 276.18 52.092C275.322 51.08 274.024 49.672 273.034 48.792C272.88 48.638 272.682 48.484 272.44 48.484C272.11 48.484 271.714 48.88 271.296 49.276C271.01 49.518 270.284 50.134 270.284 50.508C270.284 50.684 270.394 50.794 270.526 50.926C270.988 51.344 271.472 51.762 271.912 52.224C272.066 52.378 272.22 52.576 272.22 52.73C272.22 53.06 271.846 53.104 271.406 53.148C270.174 53.28 268.942 53.412 267.732 53.522C267.556 53.544 267.314 53.566 267.204 53.566C266.962 53.566 266.786 53.39 266.786 53.17C266.786 53.016 266.83 52.95 266.896 52.818C268.238 50.288 269.426 47.714 270.79 45.206C270.834 45.14 270.878 45.052 270.922 44.986C271.142 44.59 271.362 44.172 271.758 43.974C271.868 43.908 272.044 43.82 272.044 43.688C272.044 43.468 271.692 43.336 271.362 43.204C271.296 43.182 271.23 43.138 271.164 43.116C270.746 42.918 268.898 42.104 268.568 42.104Z" fill="#F32840"/>
<path d="M222.84 92.12C222.64 92.12 222.6 92.26 222.54 92.56C222.38 93.3 222 94.34 221.6 95.04C221.44 95.32 221.26 95.4 220.28 95.4C219.62 95.4 218.9 95.36 218.46 95.36C217.82 95.36 217.74 95.38 217.74 96.62C217.74 98.12 217.8 98.18 218.48 98.18C218.74 98.18 219.02 98.16 219.26 98.16C219.42 98.16 219.56 98.28 219.56 98.44C219.56 98.52 219.54 98.58 219.44 98.72C218.8 99.62 217.5 101.7 216.68 102.64C216.44 102.9 216.32 103.02 216.32 103.18C216.32 103.66 218.36 104.78 218.8 104.78C218.96 104.78 219.04 104.68 219.1 104.56C219.68 103.52 220.28 102.46 221.22 101.72C221.82 101.26 223.2 100.56 223.96 100.56C224.32 100.56 224.58 100.8 224.58 101.08C224.58 101.3 224.42 101.4 224.24 101.48C223.88 101.66 223.48 101.88 223.14 102.08C221.68 102.94 220.26 104.02 220.26 105.9C220.26 107.36 221.02 108.42 222.3 109C223.48 109.54 224.4 109.64 225.8 109.64C226.78 109.64 228.78 109.58 229.68 109.4C230.26 109.28 230.3 109.08 230.3 108.32C230.3 107.04 230.28 106.32 229.8 106.32C229.66 106.32 229.48 106.34 229.3 106.38C228.04 106.66 226.86 106.88 225.58 106.88C224.88 106.88 223.18 106.88 223.18 105.88C223.18 105.18 224.18 104.54 224.38 104.54C224.54 104.54 224.62 104.68 224.62 104.82V104.92C224.6 105.1 224.58 105.28 224.58 105.46C224.58 106.08 225 106.14 226.38 106.14C227.5 106.14 227.52 106.12 227.52 104.84C227.52 104.4 227.5 103.92 227.5 103.68C227.5 103.14 227.58 102.96 228.06 102.76C228.98 102.38 229.58 102.12 230.54 101.76C230.94 101.62 231.14 101.56 231.14 101.3C231.14 100.84 230.44 98.54 229.94 98.54C229.86 98.54 229.76 98.6 229.68 98.64C229.6 98.68 229.46 98.76 229.28 98.86C228.68 99.2 227.62 99.8 227.42 99.8C227.26 99.8 227.16 99.72 227.08 99.56C226.82 99 226.68 98.74 226.12 98.42C225.72 98.18 225.16 98.1 224.68 98.1C224.08 98.1 223.56 98.2 222.98 98.4C222.94 98.42 222.84 98.46 222.8 98.46C222.72 98.46 222.62 98.42 222.62 98.32C222.62 98.3 222.66 97.86 223.3 97.78C224.54 97.64 225.9 97.4 227 97.2C228.1 97 228.28 96.92 228.28 96.62C228.28 96.2 228.14 95.4 228.04 95C227.96 94.64 227.86 94.22 227.42 94.22C227.24 94.22 227.02 94.3 226.86 94.36C226.44 94.5 225.54 94.8 225.24 94.8C225.1 94.8 225 94.74 225 94.58C225 94.42 225.3 93.92 225.54 93.82C225.68 93.78 225.9 93.72 225.9 93.56C225.9 93.38 225.64 93.24 225.28 93.08C224.96 92.94 223.06 92.12 222.84 92.12Z" fill="#F32840"/>
<rect x="40" y="81" width="170" height="42" fill="#F32840"/>
<path d="M65.572 108.612C65.572 109.844 65.432 109.984 64.704 109.984C64.452 109.984 64.032 109.956 63.78 109.928C63.64 109.9 63.192 109.9 63.192 109.508C63.192 109.48 63.276 109.284 63.276 109.228C63.304 109.172 63.304 109.088 63.304 109.032C63.304 108.472 61.96 106.736 61.568 106.26C61.456 106.12 61.316 105.952 61.316 105.756C61.316 105.42 61.652 105.392 61.932 105.392H64.788C65.208 105.392 65.572 105.756 65.572 106.176V108.612ZM55.66 98C55.66 97.468 56.052 97.244 56.416 97.244C56.808 97.244 57.088 97.58 57.088 97.888V98.028C57.088 98.476 57.116 98.924 57.116 99.372C57.116 99.596 57.088 99.736 56.808 99.792C56.64 99.848 56.472 99.932 56.304 100.016C56.22 100.044 56.136 100.1 56.024 100.1C55.716 100.1 55.66 99.708 55.66 99.456V98ZM64.676 99.96C65.348 99.96 65.544 100.464 65.544 101.052C65.544 101.22 65.404 101.836 64.592 101.836H61.428C60.476 101.836 59.44 101.78 58.6 101.78C58.236 101.78 58.012 101.78 57.956 101.36C57.928 101.136 57.872 100.94 57.788 100.716C57.76 100.604 57.704 100.464 57.704 100.352C57.704 99.988 58.152 99.96 60.84 99.96H64.676ZM66.496 90.86C66.496 90.496 66.496 90.02 66.776 89.74C66.916 89.572 67.056 89.46 67.056 89.264C67.056 88.984 66.86 88.956 66.272 88.928C65.208 88.872 63.948 88.788 62.912 88.788C62.604 88.788 62.352 88.844 62.352 89.208C62.352 89.292 62.38 89.404 62.38 89.488C62.408 89.824 62.464 90.552 62.464 90.916C62.464 91.364 62.128 91.672 61.652 91.672C60.84 91.672 60.028 91.616 59.244 91.616C58.46 91.616 58.404 91.924 58.404 92.792V93.884C58.404 94.696 58.46 95.032 59.188 95.032C59.972 95.032 60.756 94.976 61.512 94.976H61.792C62.24 94.976 62.464 95.284 62.464 95.676V95.872C62.464 96.236 62.156 96.544 61.792 96.544H59.692C58.46 96.544 57.816 96.488 57.816 95.844V94.36C57.816 93.772 57.732 93.52 57.116 93.52C56.892 93.52 56.556 93.548 56.444 93.548C56.024 93.548 55.66 93.212 55.66 92.792V91.392C55.66 90.72 55.688 90.02 55.912 89.796C56.08 89.628 56.192 89.544 56.192 89.348C56.192 89.096 56.052 89.068 55.408 89.012C54.596 88.956 52.636 88.844 52.104 88.844C51.852 88.844 51.544 88.928 51.544 89.208C51.544 89.292 51.572 89.376 51.572 89.46C51.628 90.048 51.656 90.72 51.656 91.42V93.184C51.656 93.492 51.404 93.576 51.264 93.576C51.068 93.576 50.9 93.436 50.9 93.24C50.9 92.512 50.956 92.456 51.208 92.288C51.348 92.176 51.46 92.036 51.46 91.84C51.46 91.476 50.732 91.42 50.452 91.364C50.116 91.336 48.548 91.112 48.296 91.112C47.764 91.112 47.82 91.448 47.82 91.98C47.764 93.996 47.68 96.264 47.316 98.224C47.26 98.448 47.176 98.952 47.176 99.148C47.176 99.876 49.108 100.1 49.668 100.1C50.088 100.1 50.508 100.072 50.62 99.568C50.676 99.344 50.76 97.916 50.76 97.664V97.608C50.76 97.356 50.872 97.188 51.18 97.188H51.292C51.516 97.188 51.656 97.356 51.656 97.552V100.828C51.656 101.948 51.376 102.116 48.884 102.76C47.848 103.04 47.568 103.068 47.568 103.516C47.568 103.796 47.708 104.244 47.764 104.524C47.932 105.168 48.044 105.7 48.156 106.148C48.436 107.324 48.548 107.828 48.912 107.828C49.192 107.828 49.276 107.548 49.36 107.352C49.528 106.876 49.892 106.736 50.396 106.512C50.62 106.428 50.984 106.26 51.208 106.26C51.572 106.26 51.656 106.568 51.656 106.848V109.172C51.656 110.516 51.572 111.832 51.572 113.148C51.572 113.792 51.852 113.876 52.692 113.876H54.652C55.464 113.876 55.744 113.792 55.744 113.148C55.744 111.832 55.66 110.516 55.66 109.172V105.7C55.66 104.972 55.828 104.272 56.556 103.964C56.864 103.852 57.032 103.712 57.284 103.712C57.564 103.712 57.676 103.964 57.676 104.58C57.676 105.056 57.816 105.476 58.348 105.476C58.684 105.476 59.02 105.448 59.356 105.448C59.44 105.448 59.552 105.476 59.552 105.588C59.552 105.672 59.468 105.784 59.384 105.812C58.964 106.12 57.928 106.876 57.928 107.408C57.928 107.66 58.124 107.912 58.292 108.108C58.936 108.976 59.384 109.62 59.692 110.068C60.224 110.852 60.392 111.076 60.7 111.076C61.064 111.076 61.4 110.88 61.68 110.712C61.848 110.6 62.016 110.516 62.128 110.516C62.408 110.516 62.464 110.74 62.464 110.964C62.492 111.552 62.604 112.336 62.772 112.896C63.052 113.792 63.36 113.96 64.564 113.96C68.4 113.96 69.408 113.4 69.408 109.872V106.456C69.408 105.7 69.856 105.448 70.248 105.448C70.612 105.448 70.948 105.476 71.312 105.476C71.956 105.476 72.012 105.084 72.012 104.244V103.124C72.012 102.06 71.984 101.78 71.2 101.78C70.836 101.78 70.416 101.808 70.22 101.808C69.828 101.808 69.436 101.472 69.436 101.052C69.436 100.884 69.52 100.688 69.66 100.548C69.744 100.464 69.828 100.408 69.912 100.296C69.996 100.128 70.08 100.016 70.388 100.016C70.78 100.016 71.172 100.044 71.564 100.044C72.292 100.044 72.348 99.764 72.348 98.868V97.692C72.348 96.796 72.292 96.488 71.564 96.488C70.556 96.488 69.576 96.544 68.568 96.544H67.168C66.804 96.544 66.496 96.236 66.496 95.872V95.648C66.496 95.256 66.804 94.976 67.168 94.976H67.98C68.904 94.976 69.8 95.032 70.724 95.032C71.452 95.032 71.508 94.668 71.508 93.856V92.792C71.508 91.952 71.452 91.616 70.724 91.616C69.8 91.616 68.54 91.672 67.616 91.672C66.58 91.672 66.496 91.168 66.496 90.86Z" fill="white"/>
<path d="M99.62 91C99.62 90.104 99.648 89.908 99.872 89.712C100.068 89.572 100.236 89.46 100.236 89.264C100.236 88.9 99.928 88.816 99.452 88.788C98.584 88.732 96.96 88.648 96.12 88.648C95.868 88.648 95.56 88.648 95.56 88.984C95.56 89.04 95.588 89.152 95.588 89.208C95.644 89.712 95.672 90.552 95.672 91.308V108.36C95.672 109.592 95.644 109.844 94.832 109.844C94.356 109.844 93.74 109.788 93.46 109.788C92.704 109.788 92.592 110.32 92.592 110.964C92.592 111.58 92.704 112.364 92.872 112.98C93.124 113.792 93.432 113.876 94.468 113.876C97.044 113.876 99.676 113.316 99.676 110.208C99.676 109.424 99.62 108.64 99.62 107.856V91ZM93.852 94.668C93.852 93.1 93.88 92.988 94.132 92.792C94.3 92.68 94.524 92.512 94.524 92.288C94.524 91.98 94.188 91.896 93.964 91.868C93.32 91.812 90.884 91.644 90.38 91.644C90.1 91.644 89.848 91.728 89.848 92.036C89.848 92.12 89.848 92.148 89.876 92.316C89.96 92.848 89.96 93.408 89.96 94.024V103.852C89.96 105.028 89.876 106.204 89.876 107.408C89.876 107.996 90.184 108.052 91.08 108.052H92.872C93.656 108.052 93.936 107.996 93.936 107.38C93.936 106.204 93.852 105.028 93.852 103.852V94.668ZM80.076 93.716C80.076 93.296 80.412 92.932 80.86 92.932H83.884C84.304 92.932 84.668 93.296 84.668 93.716V95.144C84.668 95.564 84.304 95.928 83.884 95.928H80.86C80.412 95.928 80.076 95.564 80.076 95.144V93.716ZM82.26 100.548C82.456 100.436 82.764 100.296 82.764 100.1C82.764 99.792 82.176 99.708 81.924 99.68C81.84 99.652 81.588 99.652 81.588 99.484C81.588 99.344 81.896 99.344 82.204 99.344H84.36C84.5 99.344 84.584 99.428 84.584 99.568C84.584 100.016 84.92 100.016 86.152 100.016H87.636C88.28 100.016 88.504 99.932 88.504 99.568C88.504 99.344 88.42 98.644 88.42 97.72V92.512C88.42 91.672 88.476 90.944 88.476 90.524C88.476 89.516 87.468 89.46 86.712 89.46C85.816 89.46 84.948 89.516 84.052 89.516H80.72C79.852 89.516 78.984 89.46 78.088 89.46C77.304 89.46 76.324 89.516 76.324 90.552C76.324 91.168 76.38 91.84 76.38 92.512V97.72C76.38 98.224 76.296 99.428 76.296 99.596C76.296 100.016 76.688 100.016 77.332 100.016H77.556C78.088 100.016 78.396 100.436 78.396 100.8C78.396 101.276 78.228 102.956 78.144 103.488C77.836 105.896 76.856 109.452 75.344 111.384C75.26 111.496 75.064 111.72 75.064 111.86C75.064 112.616 77.444 113.792 78.032 113.792C78.592 113.792 79.236 112.448 79.46 111.972C80.3 110.292 81 108.22 81.336 106.372C81.532 105.392 81.84 105.14 82.848 105.14H84.108C84.556 105.14 84.808 105.196 84.808 105.672C84.808 106.512 84.612 108.136 84.416 108.976C84.276 109.648 83.996 110.068 82.904 110.068C82.512 110.068 82.036 110.012 81.644 109.956C81.56 109.956 81.364 109.928 81.28 109.928C80.72 109.928 80.72 110.432 80.72 110.88C80.72 113.652 81.28 113.848 82.344 113.848C83.156 113.848 84.388 113.736 85.172 113.596C86.432 113.344 87.076 112.728 87.608 111.58C88.364 109.984 88.756 105.532 88.756 103.684C88.756 102.2 88.7 101.612 87.356 101.612C86.6 101.612 85.872 101.668 85.116 101.668H82.652C82.148 101.668 82.036 101.388 82.036 101.22C82.036 101.108 82.064 100.688 82.26 100.548Z" fill="white"/>
<path d="M115.664 93.604C115.384 93.548 115.132 93.408 115.132 93.1C115.132 92.904 115.58 91.868 116.252 91.504C116.364 91.448 116.504 91.392 116.504 91.252C116.504 91.028 116.168 90.888 115.832 90.748C115.356 90.496 112.444 89.04 112.192 89.04C111.968 89.04 111.828 89.46 111.688 89.824C111.016 91.644 109.616 93.912 108.468 95.48C107.152 97.272 105.78 98.728 104.016 100.128C103.876 100.24 103.736 100.38 103.736 100.576C103.736 100.828 103.932 101.052 104.1 101.22C104.576 101.612 106.592 102.984 107.152 102.984C107.6 102.984 108.916 101.584 109.28 101.192C109.98 100.464 111.184 99.064 111.744 98.28C111.996 97.944 112.22 97.608 112.696 97.608H116.7C117.036 97.608 117.428 97.636 117.428 98C117.428 98.532 116.616 99.848 116.308 100.324C113.592 104.496 110.008 107.436 105.5 109.564C105.416 109.592 105.332 109.648 105.248 109.676C104.884 109.872 104.492 110.068 104.492 110.376C104.492 110.768 105.136 111.356 105.472 111.664C105.92 112.056 107.124 113.12 107.628 113.12C107.992 113.12 109.028 112.56 109.448 112.336C116.056 108.668 118.94 104.748 122.412 98.196C122.664 97.72 122.916 97.244 123.196 96.796C123.336 96.572 123.7 96.012 123.7 95.816C123.7 95.424 122.244 93.38 121.404 93.38C121.292 93.38 121.208 93.38 121.096 93.408C120.368 93.576 120.032 93.604 119.528 93.604H115.664Z" fill="white"/>
<path d="M131.82 98.756C130.056 98.756 128.488 98.644 128.096 98.644C127.368 98.644 127.284 98.98 127.284 99.82V101.108C127.284 102.592 127.284 103.124 128.236 103.124C129.272 103.124 130.588 103.04 131.82 103.04H144.7C145.932 103.04 147.22 103.124 148.312 103.124C149.208 103.124 149.236 102.648 149.236 101.108V99.764C149.236 98.952 149.124 98.644 148.396 98.644C148.144 98.644 146.352 98.756 144.7 98.756H131.82Z" fill="white"/>
<path d="M158.728 95.368C157.496 95.368 155.34 95.284 154.976 95.284C154.332 95.284 154.192 95.508 154.192 96.684V98.056C154.192 99.008 154.304 99.512 155.06 99.512C156.292 99.512 157.496 99.456 158.728 99.456H162.452C162.928 99.456 163.32 99.82 163.32 100.296V106.232C163.32 108.304 163.124 108.584 160.94 108.696C160.632 108.724 160.016 108.752 160.016 109.172C160.016 109.676 160.716 111.244 160.968 111.748C161.388 112.532 161.528 112.7 162.032 112.7C163.208 112.7 165.476 112.084 166.4 111.384C167.38 110.628 167.52 109.228 167.52 107.772C167.52 107.184 167.492 106.596 167.492 106.036V100.296C167.492 99.82 167.884 99.456 168.36 99.456H171.86C173.148 99.456 174.436 99.484 175.724 99.484C176.508 99.484 176.62 99.12 176.62 98.084V96.656C176.62 95.62 176.508 95.284 175.836 95.284C174.772 95.284 173.148 95.368 171.86 95.368H168.248C167.576 95.368 167.492 94.752 167.492 94.304V94.052C167.492 93.604 167.52 93.184 167.52 92.764V92.4C167.52 92.008 167.576 91.756 167.856 91.476C167.968 91.364 168.136 91.224 168.136 91.028C168.136 90.804 167.828 90.748 167.66 90.72C167.156 90.636 164.244 90.3 163.824 90.3C163.432 90.3 163.152 90.356 163.152 90.692C163.152 90.832 163.18 90.972 163.18 91.084C163.32 92.204 163.292 92.932 163.32 94.052V94.304C163.32 94.752 163.264 95.368 162.536 95.368H158.728ZM158.168 100.828C157.888 100.828 157.748 101.108 157.636 101.304C156.712 102.928 155.284 104.412 153.772 105.532C153.548 105.7 153.072 106.036 153.072 106.316C153.072 107.016 155.312 109.06 155.872 109.06C156.74 109.06 160.38 104.888 161.08 104.048C161.36 103.712 161.444 103.544 161.864 103.32C161.976 103.264 162.144 103.18 162.144 103.04C162.144 102.872 161.92 102.648 161.612 102.48C160.576 101.92 158.56 100.828 158.168 100.828ZM171.804 100.744C171.356 100.744 171.02 101.108 170.404 101.78C170.068 102.116 169.34 102.9 169.34 103.376C169.34 103.628 169.592 103.824 169.788 103.992C171.048 105 172.504 106.54 173.344 107.604C173.932 108.36 174.352 108.892 174.66 108.892C175.276 108.892 177.432 106.82 177.432 106.092C177.432 105.448 175.388 103.488 174.856 102.984C174.268 102.396 172.616 100.744 171.804 100.744ZM175.5 88.592C173.876 88.592 172.588 89.908 172.588 91.504C172.588 93.128 173.876 94.444 175.5 94.444C177.124 94.444 178.412 93.128 178.412 91.504C178.412 89.908 177.124 88.592 175.5 88.592ZM175.5 90.02C176.312 90.02 176.984 90.692 176.984 91.504C176.984 92.316 176.312 92.988 175.5 92.988C174.688 92.988 174.016 92.344 174.016 91.504C174.016 90.692 174.688 90.02 175.5 90.02Z" fill="white"/>
<path d="M184.208 90.86C183.396 90.86 181.716 93.52 181.716 94.08C181.716 94.36 181.996 94.528 182.22 94.668C184.068 95.704 185.3 96.6 186.924 97.944C187.092 98.112 187.372 98.364 187.624 98.364C188.268 98.364 190.256 96.096 190.256 95.284C190.256 95.06 190.172 94.92 190.004 94.78C189.08 93.94 187.344 92.596 185.076 91.252C184.684 91.028 184.348 90.86 184.208 90.86ZM200.252 95.004C199.944 95.004 199.72 95.312 199.468 95.676C199.412 95.76 199.356 95.816 199.3 95.9C196.948 99.12 192.636 102.62 189.192 104.664C186.952 105.98 184.516 107.072 182.024 107.744C181.8 107.8 181.492 107.94 181.492 108.192C181.492 108.5 182.108 109.536 182.304 109.872C182.696 110.6 183.144 111.328 183.62 112.028C183.732 112.224 183.9 112.476 184.124 112.476C184.236 112.476 184.32 112.392 184.348 112.308C184.572 111.916 184.544 111.86 185.104 111.58C190.704 108.892 195.212 106.372 199.72 101.976C200.308 101.416 202.576 99.26 202.576 98.588C202.576 98.28 202.296 97.692 202.1 97.272C202.016 97.16 201.988 97.048 201.932 96.964C201.68 96.516 200.812 95.004 200.252 95.004Z" fill="white"/>
<rect x="238" y="81" width="74" height="42" fill="#F32840"/>
<path d="M260.508 106.624C260.508 105.504 260.592 103.32 260.592 103.124C260.592 102.536 260.424 102.424 259.78 102.424H256.672C256.028 102.424 255.86 102.536 255.86 103.124C255.86 103.32 255.944 105.504 255.944 106.624V107.044C255.944 107.716 255.804 107.884 255.132 107.996C254.796 108.052 254.432 108.08 254.068 108.08C250.792 108.08 248.076 106.456 248.076 102.424C248.076 98.532 250.764 96.18 254.6 96.18C255.804 96.18 257.064 96.516 257.96 96.992C258.212 97.132 258.38 97.216 258.52 97.216C258.716 97.216 258.828 97.02 258.968 96.628L260.144 93.548C260.228 93.324 260.284 93.156 260.284 93.016C260.284 92.764 260.088 92.596 259.696 92.4C258.408 91.812 256.56 91.392 254.684 91.392C248.216 91.392 243.176 95.228 243.176 102.424C243.176 107.912 246.312 112.364 253.844 112.364C256.028 112.364 258.324 111.888 259.752 111.3C260.368 111.02 260.508 110.824 260.508 110.152V106.624Z" fill="white"/>
<path d="M269.627 107.912C268.927 107.912 268.787 107.772 268.787 107.072V104.188C268.787 103.544 268.899 103.432 269.543 103.432H270.355C271.671 103.432 274.499 103.488 274.695 103.488C275.283 103.488 275.395 103.32 275.395 102.676V100.016C275.395 99.372 275.283 99.204 274.695 99.204C274.499 99.204 271.671 99.26 270.355 99.26H269.543C268.899 99.26 268.787 99.148 268.787 98.504V96.796C268.787 96.096 268.927 95.956 269.627 95.956H270.999C272.315 95.956 275.143 96.012 275.339 96.012C275.927 96.012 276.039 95.844 276.039 95.2V92.316C276.039 91.672 275.927 91.504 275.339 91.504C275.143 91.504 272.315 91.56 270.999 91.56H268.759C267.471 91.56 265.007 91.504 264.811 91.504C264.223 91.504 264.027 91.7 264.027 92.288C264.027 92.484 264.111 95.592 264.111 97.076V106.68C264.111 108.164 264.027 111.272 264.027 111.468C264.027 112.056 264.223 112.252 264.811 112.252C265.007 112.252 267.471 112.196 268.759 112.196H271.615C272.931 112.196 275.759 112.252 275.955 112.252C276.543 112.252 276.655 112.084 276.655 111.44V108.668C276.655 108.024 276.543 107.856 275.955 107.856C275.759 107.856 272.931 107.912 271.615 107.912H269.627Z" fill="white"/>
<path d="M289.961 96.824C289.961 96.124 290.101 95.984 290.801 95.984H291.389C292.397 95.984 294.973 96.04 295.169 96.04C295.757 96.04 295.869 95.872 295.869 95.228V92.316C295.869 91.672 295.757 91.504 295.169 91.504C294.973 91.504 292.145 91.56 290.829 91.56H284.333C283.017 91.56 280.189 91.504 279.993 91.504C279.405 91.504 279.293 91.672 279.293 92.316V95.228C279.293 95.872 279.405 96.04 279.993 96.04C280.189 96.04 282.765 95.984 283.773 95.984H284.361C285.061 95.984 285.201 96.124 285.201 96.824V106.596C285.201 108.08 285.117 111.3 285.117 111.496C285.117 112.084 285.285 112.196 285.929 112.196H289.233C289.877 112.196 290.045 112.084 290.045 111.496C290.045 111.3 289.961 108.08 289.961 106.596V96.824Z" fill="white"/>
<path d="M304.355 104.944C305.083 104.944 305.195 104.832 305.223 104.104L305.475 97.804C305.587 95.704 305.811 91.868 305.811 91.308C305.811 90.832 305.643 90.72 305.027 90.72H301.611C300.995 90.72 300.827 90.832 300.827 91.308C300.827 91.868 301.051 95.732 301.163 97.468L301.443 104.104C301.471 104.832 301.583 104.944 302.311 104.944H304.355ZM303.459 106.708C301.611 106.708 300.575 108.052 300.575 109.704C300.575 111.16 301.667 112.168 303.179 112.168C305.083 112.168 306.091 110.824 306.091 109.284C306.091 107.8 304.971 106.708 303.459 106.708Z" fill="white"/>
</svg>
