<svg width="104" height="105" viewBox="0 0 104 105" fill="none" xmlns="http://www.w3.org/2000/svg">
<path d="M52 105C80.7188 105 104 81.7188 104 53C104 24.2812 80.7188 1 52 1C23.2812 1 0 24.2812 0 53C0 81.7188 23.2812 105 52 105Z" fill="white"/>
<path d="M103.5 53C103.5 81.4427 80.4427 104.5 52 104.5C23.5573 104.5 0.5 81.4427 0.5 53C0.5 24.5573 23.5573 1.5 52 1.5C80.4427 1.5 103.5 24.5573 103.5 53Z" stroke="#B0B9BE" stroke-opacity="0.24"/>
<circle cx="16" cy="16" r="16" fill="#F32840"/>
<path d="M20.9297 19.9492H22.8516V22.4336H20.9297V25H18.1992V22.4336H9.31641L20.9297 5.55859V19.9492ZM18.1992 19.9492V13.8906L14.0273 19.9492H18.1992Z" fill="white"/>
<path d="M52 29C38.8551 29 28 39.8551 28 53C28 66.1449 38.8551 77 52 77C65.1449 77 76 66.1449 76 53C76 39.8551 65.2297 29 52 29ZM73.5406 51.8127H66.9258C66.6714 48.5901 65.3993 45.5371 63.4488 43.2473L68.1131 38.583C71.2509 42.2297 73.2862 46.8092 73.5406 51.8127ZM61.7527 41.636C59.4629 39.6007 56.4947 38.4134 53.1873 38.159V31.5442C58.2756 31.7986 62.7703 33.8339 66.417 36.9717L61.7527 41.636ZM50.8127 38.159C47.5901 38.4134 44.5371 39.6855 42.2473 41.636L37.583 36.9717C41.2297 33.8339 45.8092 31.7986 50.8127 31.5442V38.159ZM40.636 43.3322C38.6007 45.6219 37.4134 48.5901 37.159 51.8975H30.5442C30.7986 46.8092 32.8339 42.3145 35.9717 38.6678L40.636 43.3322ZM37.159 54.2721C37.4134 57.4947 38.6855 60.5477 40.636 62.8375L35.9717 67.5018C32.8339 63.8551 30.7986 59.2756 30.5442 54.2721H37.159ZM42.3322 64.4488C44.6219 66.4841 47.5901 67.6714 50.8975 67.9258V74.5406C45.8092 74.2862 41.3145 72.2509 37.6678 69.1131L42.3322 64.4488ZM53.2721 67.9258C56.4947 67.6714 59.5477 66.3993 61.8375 64.4488L66.5018 69.1131C62.8551 72.2509 58.3604 74.2862 53.2721 74.5406V67.9258ZM60.9046 61.9046C58.6148 64.1943 55.477 65.636 52 65.636C48.523 65.636 45.3852 64.1943 43.0954 61.9046C40.8057 59.6148 39.364 56.477 39.364 53C39.364 49.523 40.8057 46.3852 43.0954 44.0954C45.3852 41.8057 48.523 40.364 52 40.364C55.477 40.364 58.6148 41.8057 60.9046 44.0954C63.1943 46.3852 64.636 49.523 64.636 53C64.636 56.477 63.1943 59.6148 60.9046 61.9046ZM68.1131 67.5018L63.4488 62.8375C65.4841 60.5477 66.6714 57.5795 66.9258 54.2721H73.5406C73.2862 59.2756 71.2509 63.8551 68.1131 67.5018Z" fill="#F32840"/>
<path d="M58.0212 49.4378C59.3781 49.4378 60.3958 48.3354 60.3958 47.0633C60.3958 45.7912 59.2933 44.6887 58.0212 44.6887C56.6643 44.6887 55.6467 45.7912 55.6467 47.0633C55.6467 47.3177 55.6467 47.4025 55.7315 47.6569L54.0353 49.353C53.4417 49.0138 52.6785 48.8442 52 48.8442C51.2368 48.8442 50.5583 49.0986 49.9647 49.353L48.2686 47.6569C48.2686 47.4025 48.3534 47.3177 48.3534 47.0633C48.3534 45.7064 47.2509 44.6887 45.9788 44.6887C44.7067 44.6887 43.6042 45.7912 43.6042 47.0633C43.6042 48.3354 44.7067 49.4378 45.9788 49.4378C46.2332 49.4378 46.318 49.4378 46.5724 49.353L48.2686 51.0491C47.9293 51.6428 47.7597 52.406 47.7597 53.0845C47.7597 53.8477 48.0141 54.5262 48.2686 55.1198L46.5724 56.8159C46.318 56.7311 46.2332 56.7311 45.9788 56.7311C44.6219 56.7311 43.6042 57.8336 43.6042 59.1057C43.6042 60.4626 44.7067 61.4802 45.9788 61.4802C47.2509 61.4802 48.3534 60.3778 48.3534 59.1057C48.3534 58.8513 48.3534 58.7665 48.2686 58.512L49.9647 56.8159C50.5583 57.1552 51.3216 57.3248 52 57.3248C52.7633 57.3248 53.4417 57.0703 54.0353 56.8159L55.7315 58.512C55.7315 58.7665 55.6467 58.8513 55.6467 59.1057C55.6467 60.4626 56.7491 61.4802 58.0212 61.4802C59.3781 61.4802 60.3958 60.3778 60.3958 59.1057C60.3958 57.7488 59.2933 56.7311 58.0212 56.7311C57.7668 56.7311 57.682 56.7311 57.4276 56.8159L55.7315 55.1198C56.0707 54.5262 56.2403 53.7629 56.2403 53.0845C56.2403 52.3212 55.9859 51.6428 55.7315 51.0491L57.4276 49.353C57.682 49.4378 57.7668 49.4378 58.0212 49.4378ZM50.2191 52.9997C50.2191 52.0668 51.0671 51.2188 52 51.2188C52.9329 51.2188 53.7809 52.0668 53.7809 52.9997C53.7809 53.9325 52.9329 54.7806 52 54.7806C51.0671 54.7806 50.2191 54.0173 50.2191 52.9997Z" fill="#F32840"/>
<path d="M68.8762 57.24C67.5193 57.24 66.5017 58.3425 66.5017 59.6145C66.5017 60.8866 67.6042 61.9891 68.8762 61.9891C70.2331 61.9891 71.2508 60.8866 71.2508 59.6145C71.2508 58.3425 70.1483 57.24 68.8762 57.24Z" fill="#F32840"/>
</svg>
