<svg width="104" height="104" viewBox="0 0 104 104" fill="none" xmlns="http://www.w3.org/2000/svg">
<path d="M52 104C80.7188 104 104 80.7188 104 52C104 23.2812 80.7188 0 52 0C23.2812 0 0 23.2812 0 52C0 80.7188 23.2812 104 52 104Z" fill="white"/>
<path d="M103.5 52C103.5 80.4427 80.4427 103.5 52 103.5C23.5573 103.5 0.5 80.4427 0.5 52C0.5 23.5573 23.5573 0.5 52 0.5C80.4427 0.5 103.5 23.5573 103.5 52Z" stroke="#B0B9BE" stroke-opacity="0.24"/>
<path d="M28 36.6667C28 31.8802 31.8802 28 36.6667 28H67.3333C72.1198 28 76 31.8802 76 36.6667V67.3333C76 72.1198 72.1198 76 67.3333 76H36.6667C31.8802 76 28 72.1198 28 67.3333V36.6667Z" fill="#F32840"/>
<path fill-rule="evenodd" clip-rule="evenodd" d="M50.2301 36C53.0348 36 55.2039 37.5289 56.1532 40.0504C56.8431 41.9383 58.9515 44.0922 61.4622 44.8664C61.592 44.9074 61.6439 45.0588 61.5574 45.1648C61.2157 45.5973 60.8199 46.3044 60.6015 46.8407C60.5518 46.964 60.3983 46.9964 60.2966 46.9121C58.7461 45.6124 57.4269 45.1561 55.6212 44.9961C54.8124 44.9312 54.287 44.9529 53.5517 45.0718C53.4457 45.0891 53.3657 45.1907 53.3852 45.2945C53.5625 46.2612 54.341 47.2581 55.7185 47.7555C57.3772 48.3826 60.448 50.3094 60.448 54.3728C60.448 57.7658 58.3092 59.7791 56.2267 60.7934C53.2489 62.0866 51.5795 62.8413 49.6483 64.5627C48.9715 65.2265 48.619 65.9013 48.619 66.643C48.619 67.4475 49.4126 68.7796 50.8572 68.7796C51.6119 68.7796 52.3558 68.453 52.8445 68.0249C53.1819 67.7286 53.6771 67.7005 54.0361 67.973C54.4621 68.2952 54.5075 68.9115 54.1421 69.3029C53.5171 69.969 52.5591 70.462 51.2248 70.462C47.4642 70.4599 45.4401 67.1166 45.4033 64.7075C45.3622 61.9719 47.2652 60.0646 48.7055 58.8038C50.7599 56.7213 50.2474 54.3339 49.5618 53.0537C49.1899 52.4049 48.1346 51.8081 46.8846 52.1865C45.8488 52.5347 45.2216 53.6268 45.2952 54.5264C45.2995 54.5826 45.2411 54.6194 45.1957 54.5891C42.9467 53.0861 41.528 49.5309 43.0051 46.3412C43.0483 46.2461 43.1651 46.2028 43.2602 46.2482C43.6906 46.458 44.4712 46.6591 45.094 46.6591C45.4509 46.6591 46.0629 46.6591 46.6316 46.4342C46.7614 46.3823 46.7938 46.2136 46.6943 46.1163C46.1191 45.567 46.0045 45.3183 45.6671 44.5571C45.3081 43.7072 45.3017 42.3946 45.5547 41.6269C45.5633 41.5988 45.5417 41.5707 45.5114 41.5772C45.0703 41.6658 44.4756 41.921 44.1079 42.187C44.0798 42.2065 44.0409 42.1827 44.0474 42.1481C44.3739 40.4072 45.732 38.9021 47.6329 38.5366C47.6675 38.5302 47.6783 38.4869 47.6502 38.4674C47.2155 38.1712 46.6035 37.8684 45.9093 37.7689C45.9093 37.7689 47.4036 36 50.2301 36Z" fill="white"/>
<circle cx="16" cy="16" r="16" fill="#F32840"/>
<path d="M15.5977 9.46094H12.4688L13.9688 6.90625H18.3281V25H15.5977V9.46094Z" fill="white"/>
</svg>
