<svg width="104" height="104" viewBox="0 0 104 104" fill="none" xmlns="http://www.w3.org/2000/svg">
<path d="M52 104C80.7188 104 104 80.7188 104 52C104 23.2812 80.7188 0 52 0C23.2812 0 0 23.2812 0 52C0 80.7188 23.2812 104 52 104Z" fill="white"/>
<path d="M103.5 52C103.5 80.4427 80.4427 103.5 52 103.5C23.5573 103.5 0.5 80.4427 0.5 52C0.5 23.5573 23.5573 0.5 52 0.5C80.4427 0.5 103.5 23.5573 103.5 52Z" stroke="#B0B9BE" stroke-opacity="0.24"/>
<path d="M45.2313 43.2102H49.711L49.7219 42.687L49.7764 39.1011H45.4166L45.2313 43.2102ZM46.4629 40.1038H48.6537L48.6101 42.1638H46.3866L46.4629 40.1038Z" fill="#F32840"/>
<path d="M44.8171 52.1809H48.3812H49.5693L49.5802 51.5924L49.602 49.8376L49.6347 47.5596H45.0133L44.8171 52.1809ZM46.1359 48.6931H48.4575L48.4357 49.8376L48.4139 51.0038H46.0487L46.1359 48.6931Z" fill="#F32840"/>
<path d="M54.2777 48.6924L54.2995 49.8368H54.8772H57.8092L57.8528 51.0031H54.3104L54.3322 52.1802H59.0844L58.9318 48.6924H54.2777Z" fill="#F32840"/>
<path d="M58.6811 43.2102L58.6593 42.687L58.4958 39.1011H54.136L54.2014 43.2102H58.6811ZM57.4386 40.1038L57.5149 42.1638H55.2914L55.2478 40.1038H57.4386Z" fill="#F32840"/>
<path d="M45.0787 46.4473H46.2231L46.2449 45.9023L46.2667 45.3574H48.5447L48.512 46.4473H49.6565L49.6892 44.2783H45.1768L45.0787 46.4473Z" fill="#F32840"/>
<path d="M53.0461 39.1011H50.8662L50.8553 40.1038H51.4003H51.9562V41.1284H53.057L53.0461 39.1011Z" fill="#F32840"/>
<path d="M53.1225 49.837L53.1116 48.6926H52.5339H51.9562V45.3574H57.6348L57.6784 46.4473H53.1007L53.1116 47.5591H57.722H58.8774L58.8229 46.4473L58.7793 45.3574L58.7248 44.2783H57.6021H50.8227L50.7791 49.837H51.9562V51.0033H50.7682V52.1804H51.9562H53.1443L53.1334 51.0033L53.1225 49.837Z" fill="#F32840"/>
<path d="M53.0679 42.1639H52.512H51.9561V41.1284H50.8444L50.8335 43.2102H53.0788L53.0679 42.1639Z" fill="#F32840"/>
<path d="M75.8914 75.6906C75.8914 75.6906 75.6952 75.2873 75.4009 74.6551C74.954 73.7069 74.2565 72.2246 73.6243 70.8294C73.3082 70.1319 73.0139 69.4452 72.7632 68.8566C72.5235 68.2681 72.3273 67.7776 72.2401 67.4942C72.1202 67.1236 72.0439 66.4043 72.0439 65.5432C72.0439 64.1154 72.2183 62.2952 72.4036 60.5621C72.5889 58.8291 72.7741 57.2051 72.7741 56.028C72.7741 55.6029 72.7523 55.2432 72.6651 54.8617C72.5671 54.4803 72.4036 54.1533 72.2074 53.8263C71.5207 52.7145 70.3981 51.6028 69.4062 50.6873C68.8176 50.1423 68.2836 49.6954 67.9457 49.4229C67.9348 49.194 67.9348 48.9542 67.9239 48.7254C67.9021 48.3657 67.8694 48.0278 67.8258 47.7226C67.7713 47.4065 67.7168 47.134 67.5969 46.8288C67.3462 46.2076 66.9211 45.6953 66.4198 45.3247C66.2672 45.2157 66.1037 45.1176 65.9402 45.0413L65.9184 44.6817L65.853 43.6571L65.7876 42.6326L65.7222 41.608L65.6568 40.5835L65.5914 39.5589L65.5042 38.5562L65.4388 37.5316L65.3734 36.5071L65.308 35.4825L65.2426 34.458L65.1772 33.4334L65.1118 32.4089L65.0464 31.4061V31.199V31.1445L65.0246 30.9266L65.0137 30.8721L64.981 30.6541L64.9701 30.5996L64.9265 30.3816L64.9156 30.3271L64.872 30.12L64.8611 30.0655L64.8066 29.8584L64.7848 29.8039L64.7195 29.5968L64.6977 29.5423L64.6214 29.3461L64.5996 29.3025L64.5124 29.1063L64.4906 29.0627L64.3925 28.8775L64.3707 28.8339L64.2617 28.6486L64.229 28.605L64.12 28.4306L64.0873 28.387L63.9674 28.2126L63.9347 28.169L63.8039 28.0055L63.7712 27.9619L63.6295 27.7984L63.5968 27.7657L63.4551 27.6131L63.4115 27.5695L63.2589 27.4278L63.2262 27.3951L63.0627 27.2534L63.0191 27.2207L62.8556 27.0899L62.812 27.0572L62.6377 26.9374L62.5941 26.9047L62.4197 26.7957L62.3761 26.763L62.1908 26.654L62.1472 26.6322L61.9728 26.5668L61.9292 26.545L61.733 26.4578L61.6894 26.436L61.4932 26.3597L61.4387 26.3379L61.2316 26.2725L61.1771 26.2507L60.97 26.1962L60.9155 26.1853L60.7085 26.1417L60.654 26.1308L60.436 26.0872L60.3815 26.0763L60.1635 26.0436L60.109 26.0327L59.891 26.0109H59.8365L59.6076 26H59.5749H59.0953H58.6158H58.1362H57.6566H57.177H56.6975H56.2397H55.7601H55.2805H54.801H54.3214H53.8418H53.3622H52.8826H52.4249H51.9453H51.4657H50.9861H50.5066H50.027H49.5474H49.0678H48.6101H48.1305H47.6509H47.1713H46.6918H46.2122H45.7326H45.253H44.7953H44.3157H44.283L44.0541 26.0109H43.9996L43.7816 26.0327L43.7271 26.0436L43.5091 26.0763L43.4546 26.0872L43.2366 26.1308L43.1821 26.1417L42.975 26.1853L42.9206 26.1962L42.7135 26.2507L42.659 26.2725L42.4519 26.3379L42.3974 26.3597L42.2012 26.436L42.1794 26.4578L41.9832 26.545L41.9396 26.5668L41.7543 26.6649L41.7107 26.6867L41.5254 26.7957L41.4818 26.8284L41.3074 26.9374L41.2638 26.9701L41.0894 27.0899L41.0458 27.1226L40.8824 27.2534L40.8388 27.2861L40.6753 27.4278L40.6426 27.4605L40.49 27.6022L40.4464 27.6458L40.3047 27.7984L40.272 27.8311L40.1303 27.9946L40.0976 28.0382L39.9668 28.2017L39.9341 28.2453L39.8142 28.4197L39.7815 28.4633L39.6725 28.6377L39.6398 28.6813L39.5308 28.8666L39.509 28.9102L39.4109 29.0954L39.3891 29.139L39.3019 29.3352L39.2801 29.3788L39.2038 29.575L39.182 29.6295L39.1166 29.8366L39.0948 29.8911L39.0403 30.0982L39.0294 30.1527L38.9859 30.3598L38.975 30.4143L38.9314 30.6323L38.9205 30.6868L38.9096 30.883L38.8987 30.9375L38.8769 31.1554V31.2099V31.417L38.8115 32.4198L38.7461 33.4443L38.6807 34.4689L38.6153 35.4934L38.5499 36.518L38.4845 37.5425L38.3973 38.5562L38.3319 39.5807L38.2665 40.6053L38.2011 41.6298L38.1357 42.6544L38.0703 43.6789L38.0049 44.7035L37.9831 45.0958C37.8414 45.1721 37.6997 45.2593 37.5798 45.3465C37.0675 45.7171 36.6534 46.2294 36.4027 46.8506C36.2828 47.1449 36.2283 47.4283 36.1738 47.7444C36.0975 48.2458 36.0648 48.8234 36.043 49.4447C35.6288 49.7935 34.9095 50.393 34.1574 51.1123C33.5797 51.6682 32.9803 52.2786 32.468 52.8998C32.2173 53.2159 31.9775 53.5211 31.7922 53.8481C31.596 54.1751 31.4325 54.5021 31.3344 54.8835C31.2472 55.265 31.2254 55.6247 31.2254 56.0498C31.2254 57.2269 31.4107 58.8509 31.596 60.584C31.7813 62.317 31.9557 64.1372 31.9557 65.565C31.9557 66.4261 31.8794 67.1454 31.7595 67.516C31.6396 67.8975 31.3453 68.6495 30.9748 69.4997C30.4189 70.7858 29.6995 72.3445 29.1219 73.5761C28.5442 74.8077 28.1082 75.7124 28.1082 75.7124C27.8466 76.2574 28.0755 76.9113 28.6205 77.162C29.1654 77.4127 29.8194 77.1947 30.0701 76.6497C30.0701 76.6497 30.8549 75.0148 31.7159 73.151C32.141 72.2137 32.5988 71.2218 32.9694 70.339C33.3508 69.4561 33.656 68.6931 33.8304 68.1373C34.0593 67.3743 34.1138 66.5132 34.1247 65.5323C34.1247 63.941 33.9394 62.0663 33.7541 60.3333C33.5688 58.6003 33.3944 56.9762 33.3944 56.028C33.3944 55.701 33.4271 55.4503 33.438 55.3958C33.4489 55.3304 33.5252 55.1669 33.6451 54.9598C34.0702 54.2405 35.1056 53.1723 36.0103 52.3331C36.0103 52.5838 36.0103 52.8453 36.0103 53.0742C36.0103 53.205 36.0103 53.3358 36.0103 53.4448C36.0103 54.2405 35.8032 55.0797 35.5961 55.7119C35.4871 56.028 35.389 56.2896 35.3127 56.464L35.2255 56.6601L35.2037 56.7037V56.7146C34.9313 57.2487 35.1601 57.9027 35.6942 58.1752C36.2283 58.4477 36.8823 58.2188 37.1547 57.6847C37.1765 57.652 37.4163 57.1506 37.667 56.3877C37.9177 55.6247 38.1793 54.5893 38.1902 53.4557C38.1902 53.3249 38.1902 53.1941 38.1902 53.0633C38.1902 52.453 38.1793 51.7554 38.1793 51.0469C38.1793 50.2731 38.1902 49.4883 38.2338 48.8561C38.2556 48.5401 38.2774 48.2567 38.3101 48.0387C38.3428 47.8207 38.3864 47.6681 38.3973 47.6463C38.4845 47.4174 38.648 47.2212 38.8442 47.0904C39.0294 46.9596 39.2256 46.8942 39.3564 46.9051C39.4981 46.916 39.5853 46.9269 39.7488 47.1013C39.9014 47.2757 40.1194 47.6681 40.2066 48.4093C40.49 50.7853 40.5772 52.6492 40.5772 54.1315C40.5772 54.8508 40.5554 55.483 40.5227 56.0389V56.2133C40.5227 56.7364 40.6426 57.1942 40.7843 57.6302C41.2311 58.9163 41.9178 60.039 42.1358 62.0336C42.2012 62.5895 42.223 63.1126 42.223 63.5922C42.223 65.6849 41.7216 67.08 41.1003 68.2136C40.4682 69.358 39.6834 70.2191 39.0512 71.2218C37.7651 73.2927 36.7951 75.7233 36.7842 75.756C36.5553 76.3119 36.8278 76.944 37.3945 77.1729C37.9504 77.4018 38.5826 77.1293 38.8115 76.5625L38.8551 76.4644C39.0403 76.0067 39.9123 73.9794 40.9042 72.3772C41.3183 71.7014 42.0813 70.8185 42.8007 69.6196H43.3892H43.9996H44.61H45.2203H45.8307H46.4411H47.0514H47.6618H48.2722H48.8826H49.4929H50.1033H50.7137H51.324H51.9344H52.5448H53.1551H53.7655H54.3759H54.9862H55.5966H56.207H56.8174H57.4277H58.0381H58.6485H59.2588H59.8692H60.4796H61.0899H61.1335C61.8529 70.8185 62.6159 71.6905 63.03 72.3772C63.5968 73.2927 64.1309 74.35 64.5124 75.1674C64.7086 75.5816 64.8611 75.9304 64.9592 76.1811C65.0137 76.301 65.0573 76.399 65.0791 76.4644L65.1227 76.5625C65.3516 77.1184 65.9838 77.3909 66.5397 77.1729C67.0955 76.944 67.368 76.3119 67.15 75.756C67.1391 75.7233 66.1691 73.2927 64.8829 71.2218C64.2508 70.2191 63.4551 69.358 62.8338 68.2136C62.2126 67.0691 61.7112 65.6849 61.7112 63.5922C61.7112 63.1126 61.7439 62.5895 61.7984 62.0336C61.9401 60.7038 62.2998 59.7556 62.6486 58.8945C62.8229 58.4695 62.9973 58.0553 63.1499 57.6193C63.2916 57.1833 63.4115 56.7255 63.4115 56.2024V56.028C63.3788 55.4721 63.357 54.8399 63.357 54.1206C63.357 52.6383 63.4442 50.7744 63.7276 48.3984C63.8148 47.6572 64.0328 47.2648 64.1854 47.0904C64.3489 46.916 64.4252 46.9051 64.5778 46.8942C64.7085 46.8942 64.9047 46.9487 65.09 47.0795C65.2753 47.2103 65.4388 47.4174 65.5369 47.6354C65.5478 47.6572 65.5914 47.8098 65.6241 48.0278C65.7222 48.6926 65.7549 49.8807 65.7549 51.036C65.7549 51.7336 65.744 52.4312 65.744 53.0524C65.744 53.1832 65.744 53.314 65.744 53.4448C65.7549 54.5784 66.0165 55.6029 66.2672 56.3768C66.5179 57.1397 66.7685 57.6411 66.7794 57.6738C67.0519 58.2079 67.7059 58.4368 68.24 58.1643C68.774 57.8918 69.0029 57.2378 68.7304 56.7037C68.7195 56.6819 68.5125 56.2569 68.3163 55.6356C68.1092 55.0143 67.9239 54.1969 67.9239 53.4339C67.9239 53.314 67.9239 53.1941 67.9239 53.0633C67.9239 52.8344 67.9239 52.5838 67.9239 52.3222C68.1746 52.5511 68.4362 52.8017 68.6868 53.0524C69.1555 53.5211 69.6024 54.0007 69.9294 54.4367C70.2673 54.8617 70.4744 55.265 70.4962 55.3849C70.518 55.4394 70.5398 55.6901 70.5398 56.0171C70.5398 56.9653 70.3654 58.5894 70.1801 60.3224C69.9948 62.0663 69.8095 63.9301 69.8095 65.5214C69.8095 66.4915 69.8749 67.3634 70.1038 68.1264C70.2782 68.6713 70.5834 69.4343 70.9648 70.3281C72.1093 72.9766 73.8641 76.6279 73.8641 76.6279C74.1257 77.1729 74.7796 77.4018 75.3137 77.1402C75.935 76.8786 76.153 76.2247 75.8914 75.6906ZM41.0458 31.5478V31.5042V31.308L41.0567 31.1445L41.0894 30.9701L41.1221 30.8067L41.1548 30.6432L41.1984 30.4906L41.2529 30.338L41.3074 30.1854L41.3728 30.0437L41.4491 29.902L41.5254 29.7603L41.6126 29.6295L41.6998 29.4987L41.7979 29.3788L41.9069 29.2589L42.0159 29.1499L42.1249 29.0409L42.2448 28.9429L42.3647 28.8448L42.4955 28.7576L42.6263 28.6704L42.768 28.5941L42.9097 28.5178L43.0513 28.4524L43.2039 28.3979L43.3565 28.3434L43.5091 28.2998L43.6617 28.2671L43.8252 28.2344L43.9887 28.2126L44.1522 28.2017H44.3375H44.7953H45.2748H45.7544H46.234H46.7136H47.1931H47.6727H48.1523H48.6319H49.1114H49.591H50.0706H50.5502H51.0297H51.5093H51.9889H52.4685H52.948H53.4276H53.9072H54.3868H54.8663H55.3459H55.8255H56.3051H56.7847H57.2642H57.7438H58.2234H58.703H59.1825H59.6403H59.8256L59.9891 28.2126L60.1526 28.2344L60.3161 28.2671L60.4687 28.2998L60.6213 28.3434L60.7085 28.3979L60.861 28.4524L61.0027 28.5178L61.1444 28.5941L61.2861 28.6704L61.4169 28.7576L61.5477 28.8448L61.6676 28.9429L61.7875 29.0409L61.8965 29.1499L62.0055 29.2589L62.1145 29.3788L62.2126 29.4987L62.2998 29.6295L62.387 29.7603L62.4633 29.902L62.5396 30.0437L62.605 30.1854L62.6595 30.338L62.714 30.4906L62.7575 30.6432L62.7902 30.8067L62.8229 30.9701L62.8447 31.1336L62.8556 31.2971V31.4933V31.5369L62.921 32.5506H53.0461H40.9804L41.0458 31.5478ZM59.3133 67.4397H58.703H58.0926H57.4822H56.8718H56.2397H55.6293H55.0189H54.4086H53.7982H53.1878H52.5775H51.9671H51.3349H50.7246H50.1142H49.5038H48.8934H48.2831H47.6727H47.0623H46.4302H45.8198H45.2094H44.5991H43.9887H43.7816C44.1413 66.3607 44.4029 65.1072 44.392 63.5922C44.392 63.4287 44.3702 63.2434 44.3593 63.0799H53.0352H59.6076C59.6076 63.2434 59.5749 63.4287 59.5749 63.5922C59.5749 65.1072 59.8256 66.3607 60.1853 67.4397H59.9128H59.3133ZM62.605 45.6626C62.06 46.273 61.7439 47.1122 61.624 48.1477C61.3297 50.6001 61.2316 52.562 61.2316 54.1315C61.2316 54.8944 61.2534 55.5702 61.2861 56.1588V56.2133C61.2861 56.3877 61.2425 56.6166 61.1335 56.9326C60.8719 57.7501 60.1635 59.0144 59.8147 60.9109H53.0461H44.1631C43.9451 59.7447 43.6072 58.8073 43.302 58.0771C43.1167 57.6193 42.9533 57.2378 42.8443 56.9326C42.7353 56.6166 42.6917 56.3986 42.6917 56.2133V56.1588C42.7244 55.5702 42.7462 54.9053 42.7462 54.1315C42.7462 52.5729 42.659 50.611 42.3538 48.1477C42.223 47.1122 41.9069 46.273 41.3728 45.6626C41.0349 45.2811 40.6099 45.0195 40.163 44.8778V44.8342L40.2284 43.8097L40.2938 42.7852L40.3592 41.7606L40.4355 40.7361L40.5009 39.7115L40.5663 38.687L40.6317 37.6624L40.6971 36.6379L40.7625 35.6133L40.817 34.7196H53.0243H63.0518L63.1063 35.6133L63.1717 36.6379L63.2371 37.6624L63.3025 38.687L63.3679 39.7115L63.466 40.7361L63.5314 41.7606L63.5968 42.7852L63.6622 43.8097L63.7276 44.8342V44.8996C63.3243 45.0413 62.921 45.292 62.605 45.6626Z" fill="#F32840"/>
<circle cx="16" cy="16" r="16" fill="#F32840"/>
<path d="M15.3047 16.5977V14.2656C16.4609 14.2656 17.2383 14.1367 17.6367 13.8789C18.3477 13.4258 18.7031 12.6992 18.7031 11.6992C18.7031 10.9258 18.4453 10.2969 17.9297 9.8125C17.4219 9.32031 16.7617 9.07422 15.9492 9.07422C15.1914 9.07422 14.6055 9.25781 14.1914 9.625C13.793 10 13.4961 10.6328 13.3008 11.5234H10.582C10.8633 9.82031 11.4414 8.57422 12.3164 7.78516C13.1914 6.98828 14.4141 6.58984 15.9844 6.58984C17.5703 6.58984 18.8633 7.05859 19.8633 7.99609C20.8633 8.92578 21.3633 10.125 21.3633 11.5938C21.3633 13.25 20.707 14.5391 19.3945 15.4609C20.8945 16.3438 21.6445 17.7773 21.6445 19.7617C21.6445 21.3867 21.0977 22.7148 20.0039 23.7461C18.9102 24.7773 17.5078 25.293 15.7969 25.293C13.6172 25.293 12 24.4922 10.9453 22.8906C10.5078 22.2188 10.2305 21.2891 10.1133 20.1016H12.75C12.8906 20.9766 13.2305 21.6484 13.7695 22.1172C14.3164 22.5781 15.0273 22.8086 15.9023 22.8086C16.7852 22.8086 17.5156 22.5156 18.0938 21.9297C18.6719 21.3281 18.9609 20.5664 18.9609 19.6445C18.9609 18.4258 18.5273 17.5586 17.6602 17.043C17.1523 16.7461 16.3672 16.5977 15.3047 16.5977Z" fill="white"/>
</svg>
