<svg width="104" height="104" viewBox="0 0 104 104" fill="none" xmlns="http://www.w3.org/2000/svg">
<path d="M52 104C80.7188 104 104 80.7188 104 52C104 23.2812 80.7188 0 52 0C23.2812 0 0 23.2812 0 52C0 80.7188 23.2812 104 52 104Z" fill="white"/>
<path d="M103.5 52C103.5 80.4427 80.4427 103.5 52 103.5C23.5573 103.5 0.5 80.4427 0.5 52C0.5 23.5573 23.5573 0.5 52 0.5C80.4427 0.5 103.5 23.5573 103.5 52Z" stroke="#B0B9BE" stroke-opacity="0.24"/>
<circle cx="16" cy="16" r="16" fill="#F32840"/>
<path d="M15.1055 22.4336H21.8438V25H9.69141L15.9727 17.3945C16.5898 16.6367 17.1055 15.9805 17.5195 15.4258C17.9414 14.8711 18.2617 14.4062 18.4805 14.0312C18.9258 13.2969 19.1484 12.6367 19.1484 12.0508C19.1484 11.207 18.8516 10.5 18.2578 9.92969C17.6641 9.35938 16.9297 9.07422 16.0547 9.07422C14.2266 9.07422 13.1797 10.1562 12.9141 12.3203H10.1953C10.6328 8.50781 12.5586 6.60156 15.9727 6.60156C17.6211 6.60156 19.0039 7.125 20.1211 8.17188C21.2461 9.21875 21.8086 10.5156 21.8086 12.0625C21.8086 13.0469 21.5469 14.0117 21.0234 14.957C20.7578 15.4492 20.3672 16.0352 19.8516 16.7148C19.3438 17.3867 18.6992 18.1836 17.918 19.1055L15.1055 22.4336Z" fill="white"/>
<path d="M61.0249 56.575L56.9749 53.2C56.4499 52.75 55.8499 52.525 55.1749 52.45L47.375 51.7V47.05H49.025V50.2L55.3249 50.8C56.2999 50.875 57.2749 51.325 58.0249 51.925L62.0749 55.3L61.0249 56.575Z" fill="#F32840"/>
<path d="M33.875 70.375L29.825 65.725C29.3 65.05 29 64.3 29 63.475C29 62.725 29.225 62.125 29.6 61.6L35.675 53.875C36.35 53.05 37.175 52.375 38.15 52L42.35 50.35V47.05H44V51.55L38.75 53.575C38.075 53.875 37.4 54.325 36.95 54.925L30.875 62.65C30.725 62.8 30.65 63.1 30.65 63.475C30.65 64 30.875 64.375 31.1 64.6L35.15 69.25L33.875 70.375Z" fill="#F32840"/>
<path d="M34.9605 63.1105L33.7103 64.1871L37.5763 68.6765L38.8266 67.5999L34.9605 63.1105Z" fill="#F32840"/>
<path d="M34.85 73.5249C32.525 73.5249 30.65 71.8749 30.65 69.7749C30.65 68.7249 31.175 67.6749 32.075 66.9999L33.125 68.2749C32.6 68.6499 32.375 69.1749 32.375 69.7749C32.375 70.8999 33.5 71.8749 34.85 71.8749C36.2 71.8749 37.325 70.7499 37.325 69.3999H38.975C39.05 71.6499 37.175 73.5249 34.85 73.5249Z" fill="#F32840"/>
<path d="M45.725 48.475C42.05 48.475 39.05 45.475 39.05 41.8V37.375H40.7V41.8C40.7 44.575 42.95 46.825 45.725 46.825C48.5 46.825 50.75 44.575 50.75 41.8V37.6H52.4V41.8C52.4 45.475 49.4 48.475 45.725 48.475Z" fill="#F32840"/>
<path d="M42.65 39.625L40.475 38.65C38.6 37.825 37.325 35.95 37.325 33.85C37.325 33.175 37.4 32.8 37.775 31.3C37.85 30.775 38 30.175 38.225 29.35L38.525 28L39.575 28.9C39.725 29.05 39.875 29.2 40.025 29.35C41 30.25 41.75 30.925 43.175 30.925C43.7 30.925 44.15 30.775 44.675 30.625C45.4999 30.4 46.4749 30.1 48.1999 30.1C50.4499 30.1 52.3999 31.9 52.3999 34.075V38.5H50.7499V34C50.7499 32.8 49.5499 31.75 48.1999 31.75C46.7749 31.75 45.8749 31.975 45.1249 32.2C44.525 32.35 43.925 32.575 43.175 32.575C41.45 32.575 40.4 31.9 39.5 31.15C39.425 31.375 39.425 31.525 39.35 31.675C39.05 33.175 38.975 33.475 38.975 33.925C38.975 35.35 39.8 36.625 41.075 37.15L43.25 38.125L42.65 39.625Z" fill="#F32840"/>
<path d="M45.7249 53.6494L42.725 51.6244L43.625 50.2744L45.7249 51.6244L47.7499 50.2744L48.6499 51.6244L45.7249 53.6494Z" fill="#F32840"/>
<path d="M35.5285 65.0567L32.5271 67.5469L33.5806 68.8167L36.582 66.3266L35.5285 65.0567Z" fill="#F32840"/>
<path d="M61.55 62.6498C59.15 62.6498 57.35 60.9248 57.35 58.4498C57.35 56.1998 58.775 55.0748 61.55 55.0748C64.325 55.0748 65.7499 56.1998 65.7499 58.4498C65.7499 60.8498 64.025 62.6498 61.55 62.6498ZM61.55 56.7998C59.45 56.7998 59.075 57.3998 59.075 58.4498C59.075 60.1748 60.35 60.9248 61.55 60.9248C62.825 60.9248 64.025 60.1748 64.025 58.4498C64.1 57.3998 63.65 56.7998 61.55 56.7998Z" fill="#F32840"/>
<path d="M69.1249 76H45.725C44.375 76 43.25 74.875 43.25 73.525V59.275C43.25 57.925 44.375 56.8 45.725 56.8H58.3249V58.45H45.725C45.275 58.45 44.9 58.825 44.9 59.275V73.45C44.9 73.9 45.275 74.275 45.725 74.275H69.1249C69.5749 74.275 69.9499 73.9 69.9499 73.45V59.275C69.9499 58.825 69.5749 58.45 69.1249 58.45H64.8499V56.8H69.1249C70.4749 56.8 71.5999 57.925 71.5999 59.275V73.45C71.5999 74.875 70.4749 76 69.1249 76Z" fill="#F32840"/>
<path d="M66.5749 67.675H59.8999V69.325H66.5749V67.675Z" fill="#F32840"/>
<path d="M66.5749 70.9755H59.8999V72.6255H66.5749V70.9755Z" fill="#F32840"/>
<path d="M62.375 38.4253H60.725V42.6253H62.375V38.4253Z" fill="#F32840"/>
<path d="M71.4222 40.7312L68.0281 44.1252L69.1948 45.292L72.5889 41.8979L71.4222 40.7312Z" fill="#F32840"/>
<path d="M75.7999 50.9498H71.5999V52.5998H75.7999V50.9498Z" fill="#F32840"/>
<path fill-rule="evenodd" clip-rule="evenodd" d="M51.125 60.1005C52.175 60.1005 53 60.7005 53.3 61.6005C53.525 62.2755 54.3499 63.1005 55.2499 63.4005C55.3249 63.4005 55.3249 63.4755 55.2499 63.4755C55.0999 63.6255 54.9499 63.9255 54.8749 64.0755C54.8749 64.1505 54.7999 64.1505 54.7999 64.0755C54.1999 63.6255 53.7499 63.4005 53.075 63.4005C52.775 63.4005 52.55 63.4005 52.325 63.4005C52.25 63.4005 52.25 63.4755 52.25 63.4755C52.325 63.8505 52.625 64.2255 53.15 64.3755C53.7499 64.6005 54.8749 65.3505 54.8749 66.8504C54.8749 68.1254 54.0499 68.8754 53.3 69.2504C52.175 69.7004 51.575 70.0004 50.9 70.6754C50.675 70.9004 50.525 71.2004 50.525 71.4254C50.525 71.7254 50.825 72.2504 51.35 72.2504C51.65 72.2504 51.875 72.1004 52.1 71.9504C52.25 71.8754 52.4 71.8004 52.55 71.9504C52.7 72.1004 52.7 72.3254 52.625 72.4754C52.4 72.7004 52.025 72.9254 51.575 72.9254C50.15 72.9254 49.4 71.6504 49.4 70.8254C49.4 69.7754 50.075 69.1004 50.6 68.6504C51.35 67.9004 51.2 67.0004 50.9 66.5505C50.75 66.3255 50.375 66.1005 49.925 66.2504C49.55 66.4004 49.325 66.7754 49.325 67.1504C48.5 66.6254 47.975 65.2755 48.5 64.0755C48.5 64.0755 48.575 64.0005 48.575 64.0755C48.725 64.1505 49.025 64.2255 49.25 64.2255C49.4 64.2255 49.625 64.2255 49.85 64.1505C49.925 64.1505 49.925 64.0755 49.85 64.0005C49.625 63.7755 49.625 63.7005 49.475 63.4005C49.325 63.1005 49.325 62.5755 49.4 62.3505C49.25 62.3505 49.025 62.5005 48.875 62.5755C49.025 61.9005 49.475 61.3755 50.225 61.2255C50.075 61.1505 49.85 61.0005 49.55 61.0005C49.55 60.7755 50.075 60.1005 51.125 60.1005Z" fill="#F32840"/>
</svg>
