<svg width="88" height="64" viewBox="0 0 88 64" fill="none" xmlns="http://www.w3.org/2000/svg">
<path d="M88 56V0L0 64H80C84.4183 64 88 60.4183 88 56Z" fill="white"/>
<path d="M63.6099 43.991C64.1672 44.604 64.122 45.5526 63.509 46.1099C62.896 46.6672 61.9474 46.622 61.3901 46.009L63.6099 43.991ZM56.3901 40.509C55.8328 39.896 55.878 38.9474 56.491 38.3901C57.104 37.8328 58.0526 37.878 58.6099 38.491L56.3901 40.509ZM61.3901 46.009L56.3901 40.509L58.6099 38.491L63.6099 43.991L61.3901 46.009Z" fill="#5FBE00"/>
<path d="M56.3901 49.491C55.8328 50.104 55.878 51.0526 56.491 51.6099C57.104 52.1672 58.0526 52.122 58.6099 51.509L56.3901 49.491ZM63.6099 46.009C64.1672 45.396 64.122 44.4474 63.509 43.8901C62.896 43.3328 61.9474 43.378 61.3901 43.991L63.6099 46.009ZM58.6099 51.509L63.6099 46.009L61.3901 43.991L56.3901 49.491L58.6099 51.509Z" fill="#5FBE00"/>
</svg>
