<svg width="18" height="18" viewBox="0 0 18 18" fill="none" xmlns="http://www.w3.org/2000/svg">
<path fill-rule="evenodd" clip-rule="evenodd" d="M5.0637 13.8479L4.95147 14.6043C4.87046 15.1502 4.70929 15.728 4.43974 16.3239C5.13528 16.031 5.81586 15.5949 6.32943 14.9528L6.72985 14.4522L7.34598 14.5649C7.87995 14.6626 8.43299 14.715 9 14.715C13.552 14.715 16.92 11.5023 16.92 7.92C16.92 4.33768 13.552 1.125 9 1.125C4.44802 1.125 1.08 4.33768 1.08 7.92C1.08 10.1462 2.34802 12.1927 4.42957 13.4614L5.0637 13.8479ZM3.57333 17.7776C2.63193 17.9996 1.92857 18 1.92857 18C2.34643 17.5789 2.68269 17.164 2.95157 16.7606C3.51394 15.917 3.7815 15.1241 3.88414 14.4324C1.53868 13.0028 0 10.6207 0 7.92C0 3.546 4.02943 0 9 0C13.9706 0 18 3.546 18 7.92C18 12.294 13.9706 15.84 9 15.84C8.36904 15.84 7.7535 15.7817 7.15918 15.673C6.14893 16.936 4.69282 17.5135 3.57333 17.7776Z" fill="#575555"/>
</svg>
