<svg width="20" height="18" viewBox="0 0 20 18" fill="none" xmlns="http://www.w3.org/2000/svg">
<path fill-rule="evenodd" clip-rule="evenodd" d="M10.4639 1.36077C10.3078 0.912844 9.67403 0.913686 9.51914 1.36202L7.71675 6.57896C7.64712 6.78049 7.45737 6.91569 7.24416 6.91569H1.58129C1.09289 6.91569 0.89422 7.54401 1.29384 7.8248L5.78964 10.9837C5.97162 11.1116 6.04727 11.3443 5.97524 11.5548L4.25272 16.5876C4.09736 17.0415 4.60848 17.4324 5.00589 17.1637L9.71005 13.9821C9.87903 13.8678 10.1005 13.8676 10.2696 13.9817L14.9904 17.1639C15.3885 17.4323 15.8992 17.0399 15.7425 16.5861L14.0057 11.556C13.9328 11.345 14.0086 11.1113 14.1915 10.9833L18.7011 7.82525C19.1015 7.54486 18.9031 6.91569 18.4143 6.91569H12.7548C12.5421 6.91569 12.3527 6.78109 12.2827 6.58022L10.4639 1.36077Z" fill="#EAEAEA"/>
<mask id="mask0" mask-type="alpha" maskUnits="userSpaceOnUse" x="1" y="1" width="18" height="17">
<path fill-rule="evenodd" clip-rule="evenodd" d="M10.4639 1.36077C10.3078 0.912844 9.67403 0.913686 9.51914 1.36202L7.71675 6.57896C7.64712 6.78049 7.45737 6.91569 7.24416 6.91569H1.58129C1.09289 6.91569 0.89422 7.54401 1.29384 7.8248L5.78964 10.9837C5.97162 11.1116 6.04727 11.3443 5.97524 11.5548L4.25272 16.5876C4.09736 17.0415 4.60848 17.4324 5.00589 17.1637L9.71005 13.9821C9.87903 13.8678 10.1005 13.8676 10.2696 13.9817L14.9904 17.1639C15.3885 17.4323 15.8992 17.0399 15.7425 16.5861L14.0057 11.556C13.9328 11.345 14.0086 11.1113 14.1915 10.9833L18.7011 7.82525C19.1015 7.54486 18.9031 6.91569 18.4143 6.91569H12.7548C12.5421 6.91569 12.3527 6.78109 12.2827 6.58022L10.4639 1.36077Z" fill="#EAEAEA"/>
</mask>
<g mask="url(#mask0)">
<rect width="10" height="18" fill="#FF961B"/>
</g>
</svg>
