<svg width="32" height="32" viewBox="0 0 32 32" fill="none" xmlns="http://www.w3.org/2000/svg">
<path fill-rule="evenodd" clip-rule="evenodd" d="M16 32C24.8366 32 32 24.8366 32 16C32 7.16344 24.8366 0 16 0C7.16344 0 0 7.16344 0 16C0 24.8366 7.16344 32 16 32ZM23.9648 12.4519C23.9648 17.8743 19.8368 24.1271 12.2896 24.1271C9.97202 24.1271 7.81602 23.4479 5.99922 22.2807C6.32082 22.3183 6.64722 22.3375 6.97842 22.3375C8.90082 22.3375 10.6696 21.6815 12.0744 20.5807C10.2776 20.5479 8.76322 19.3615 8.24082 17.7311C8.49042 17.7791 8.74802 17.8055 9.01202 17.8055C9.38642 17.8055 9.74882 17.7551 10.0936 17.6615C8.21602 17.2855 6.80162 15.6263 6.80162 13.6391C6.80162 13.6215 6.80162 13.6039 6.80242 13.5871C7.35522 13.8951 7.98802 14.0799 8.66082 14.1007C7.56002 13.3655 6.83522 12.1095 6.83522 10.6855C6.83522 9.93428 7.03842 9.22948 7.39122 8.62307C9.41442 11.1063 12.4384 12.7391 15.8488 12.9103C15.7784 12.6103 15.7424 12.2975 15.7424 11.9751C15.7424 9.70947 17.58 7.87187 19.8464 7.87187C21.0264 7.87187 22.0928 8.37107 22.8416 9.16867C23.776 8.98467 24.6544 8.64307 25.4472 8.17268C25.1408 9.13027 24.4904 9.93427 23.6432 10.4423C24.4736 10.3431 25.2648 10.1231 26 9.79667C25.4504 10.6199 24.7536 11.3423 23.9528 11.9215C23.9608 12.0975 23.9648 12.2743 23.9648 12.4519Z" fill="black"/>
</svg>
