<svg width="20" height="18" viewBox="0 0 20 18" fill="none" xmlns="http://www.w3.org/2000/svg">
<path fill-rule="evenodd" clip-rule="evenodd" d="M10.3835 1.33547C10.2275 0.887547 9.59368 0.888389 9.43879 1.33673L7.6364 6.55366C7.56677 6.75519 7.37702 6.89039 7.16381 6.89039H1.50094C1.01254 6.89039 0.813871 7.51871 1.21349 7.7995L5.70929 10.9584C5.89127 11.0863 5.96692 11.319 5.89489 11.5295L4.17237 16.5623C4.01701 17.0162 4.52812 17.4071 4.92554 17.1384L9.6297 13.9568C9.79868 13.8425 10.0201 13.8423 10.1893 13.9564L14.9101 17.1386C15.3082 17.407 15.8189 17.0146 15.6622 16.5608L13.9254 11.5307C13.8525 11.3197 13.9283 11.086 14.1112 10.958L18.6208 7.79995C19.0212 7.51956 18.8228 6.89039 18.334 6.89039H12.6745C12.4618 6.89039 12.2724 6.7558 12.2024 6.55492L10.3835 1.33547Z" fill="#F37D00"/>
</svg>
