<svg width="18" height="17" viewBox="0 0 18 17" fill="none" xmlns="http://www.w3.org/2000/svg">
<path fill-rule="evenodd" clip-rule="evenodd" d="M9.46388 0.360767C9.3078 -0.0871564 8.67403 -0.0863137 8.51914 0.362023L6.71675 5.57896C6.64712 5.78049 6.45737 5.91569 6.24416 5.91569H0.581293C0.0928917 5.91569 -0.10578 6.54401 0.293839 6.8248L4.78964 9.98374C4.97162 10.1116 5.04727 10.3443 4.97524 10.5548L3.25272 15.5876C3.09736 16.0415 3.60847 16.4324 4.00589 16.1637L8.71005 12.9821C8.87903 12.8678 9.10049 12.8676 9.26964 12.9817L13.9904 16.1639C14.3885 16.4323 14.8992 16.0399 14.7425 15.5861L13.0057 10.556C12.9328 10.345 13.0086 10.1113 13.1915 9.98327L17.7011 6.82525C18.1015 6.54486 17.9031 5.91569 17.4143 5.91569H11.7548C11.5421 5.91569 11.3527 5.7811 11.2827 5.58022L9.46388 0.360767Z" fill="#FF961B"/>
</svg>
