<svg width="8" height="14" viewBox="0 0 8 14" fill="none" xmlns="http://www.w3.org/2000/svg">
<path d="M7.60991 5.99099C8.16717 6.60398 8.122 7.55265 7.50901 8.10991C6.89602 8.66717 5.94735 8.622 5.39009 8.00901L7.60991 5.99099ZM0.39009 2.50901C-0.167171 1.89602 -0.121995 0.94735 0.490991 0.39009C1.10398 -0.167171 2.05265 -0.121996 2.60991 0.490991L0.39009 2.50901ZM5.39009 8.00901L0.39009 2.50901L2.60991 0.490991L7.60991 5.99099L5.39009 8.00901Z" fill="white"/>
<path d="M0.39009 11.491C-0.167171 12.104 -0.121996 13.0526 0.490991 13.6099C1.10398 14.1672 2.05265 14.122 2.60991 13.509L0.39009 11.491ZM7.60991 8.00901C8.16717 7.39602 8.122 6.44735 7.50901 5.89009C6.89602 5.33283 5.94735 5.378 5.39009 5.99099L7.60991 8.00901ZM2.60991 13.509L7.60991 8.00901L5.39009 5.99099L0.39009 11.491L2.60991 13.509Z" fill="white"/>
</svg>
