<svg width="32" height="32" viewBox="0 0 32 32" fill="none" xmlns="http://www.w3.org/2000/svg">
<path d="M15.9937 2.88311C20.2667 2.88311 20.7683 2.90216 22.4571 2.97837C24.0191 3.04822 24.8635 3.30859 25.4286 3.53086C26.1778 3.82298 26.7111 4.16591 27.2698 4.72475C27.8286 5.28359 28.1778 5.81703 28.4635 6.56638C28.6794 7.13157 28.946 7.97619 29.0159 9.5384C29.0921 11.2276 29.1111 11.7293 29.1111 16.0032C29.1111 20.277 29.0921 20.7787 29.0159 22.468C28.946 24.0302 28.6857 24.8748 28.4635 25.44C28.1714 26.1893 27.8286 26.7228 27.2698 27.2816C26.7111 27.8404 26.1778 28.1897 25.4286 28.4755C24.8635 28.6914 24.0191 28.9581 22.4571 29.028C20.7683 29.1042 20.2667 29.1232 15.9937 29.1232C11.7206 29.1232 11.219 29.1042 9.53016 29.028C7.96825 28.9581 7.12381 28.6978 6.55873 28.4755C5.80952 28.1834 5.27619 27.8404 4.71746 27.2816C4.15873 26.7228 3.80952 26.1893 3.52381 25.44C3.30794 24.8748 3.04127 24.0302 2.97143 22.468C2.89524 20.7787 2.87619 20.277 2.87619 16.0032C2.87619 11.7293 2.89524 11.2276 2.97143 9.5384C3.04127 7.97619 3.30159 7.13157 3.52381 6.56638C3.81587 5.81703 4.15873 5.28359 4.71746 4.72475C5.27619 4.16591 5.80952 3.81663 6.55873 3.53086C7.12381 3.31494 7.96825 3.04822 9.53016 2.97837C11.219 2.89581 11.727 2.88311 15.9937 2.88311ZM15.9937 0C11.6508 0 11.1048 0.0190514 9.39683 0.095257C7.69524 0.171463 6.53333 0.444533 5.51746 0.838262C4.46349 1.24469 3.5746 1.79718 2.68571 2.68625C1.79683 3.57531 1.25079 4.47073 0.838095 5.51856C0.444444 6.53463 0.171429 7.69677 0.0952381 9.40504C0.0190476 11.107 0 11.6531 0 15.9968C0 20.3405 0.0190476 20.8867 0.0952381 22.595C0.171429 24.2969 0.444444 25.459 0.838095 26.4814C1.24444 27.5356 1.79683 28.4247 2.68571 29.3138C3.5746 30.2028 4.46984 30.749 5.51746 31.1617C6.53333 31.5555 7.69524 31.8285 9.40318 31.9047C11.1111 31.9809 11.6508 32 16 32C20.3492 32 20.8889 31.9809 22.5968 31.9047C24.2984 31.8285 25.4603 31.5555 26.4825 31.1617C27.5365 30.7553 28.4254 30.2028 29.3143 29.3138C30.2032 28.4247 30.7492 27.5293 31.1619 26.4814C31.5556 25.4654 31.8286 24.3032 31.9048 22.595C31.981 20.8867 32 20.3469 32 15.9968C32 11.6468 31.981 11.107 31.9048 9.39869C31.8286 7.69677 31.5556 6.53463 31.1619 5.51221C30.7556 4.45803 30.2032 3.56896 29.3143 2.6799C28.4254 1.79083 27.5302 1.24469 26.4825 0.831911C25.4667 0.438182 24.3048 0.165112 22.5968 0.0889065C20.8825 0.0190514 20.3365 0 15.9937 0Z" fill="black"/>
<path d="M15.9937 7.78564C11.4604 7.78564 7.77783 11.4626 7.77783 16.0031C7.77783 20.5437 11.454 24.2207 15.9937 24.2207C20.5334 24.2207 24.2096 20.5437 24.2096 16.0031C24.2096 11.4626 20.5334 7.78564 15.9937 7.78564ZM15.9937 21.3312C13.0477 21.3312 10.6604 18.9434 10.6604 15.9968C10.6604 13.0502 13.0477 10.6624 15.9937 10.6624C18.9397 10.6624 21.327 13.0502 21.327 15.9968C21.327 18.9434 18.9397 21.3312 15.9937 21.3312Z" fill="black"/>
<path d="M24.5333 9.37355C25.5923 9.37355 26.4508 8.51474 26.4508 7.45533C26.4508 6.39593 25.5923 5.53711 24.5333 5.53711C23.4743 5.53711 22.6158 6.39593 22.6158 7.45533C22.6158 8.51474 23.4743 9.37355 24.5333 9.37355Z" fill="black"/>
</svg>
