<svg width="18" height="18" viewBox="0 0 18 18" fill="none" xmlns="http://www.w3.org/2000/svg">
<mask id="path-1-inside-1" fill="white">
<path fill-rule="evenodd" clip-rule="evenodd" d="M5.0637 13.8479L4.95147 14.6043C4.87046 15.1502 4.70929 15.728 4.43974 16.3239C5.13528 16.031 5.81586 15.5949 6.32943 14.9528L6.72985 14.4522L7.34598 14.5649C7.87995 14.6626 8.43299 14.715 9 14.715C13.552 14.715 16.92 11.5023 16.92 7.92C16.92 4.33768 13.552 1.125 9 1.125C4.44802 1.125 1.08 4.33768 1.08 7.92C1.08 10.1462 2.34802 12.1927 4.42957 13.4614L5.0637 13.8479ZM3.57333 17.7776C2.63193 17.9996 1.92857 18 1.92857 18C2.34643 17.5789 2.68269 17.164 2.95157 16.7606C3.51394 15.917 3.7815 15.1241 3.88414 14.4324C1.53868 13.0028 0 10.6207 0 7.92C0 3.546 4.02943 0 9 0C13.9706 0 18 3.546 18 7.92C18 12.294 13.9706 15.84 9 15.84C8.36904 15.84 7.7535 15.7817 7.15918 15.673C6.14893 16.936 4.69282 17.5135 3.57333 17.7776Z"/>
</mask>
<path fill-rule="evenodd" clip-rule="evenodd" d="M5.0637 13.8479L4.95147 14.6043C4.87046 15.1502 4.70929 15.728 4.43974 16.3239C5.13528 16.031 5.81586 15.5949 6.32943 14.9528L6.72985 14.4522L7.34598 14.5649C7.87995 14.6626 8.43299 14.715 9 14.715C13.552 14.715 16.92 11.5023 16.92 7.92C16.92 4.33768 13.552 1.125 9 1.125C4.44802 1.125 1.08 4.33768 1.08 7.92C1.08 10.1462 2.34802 12.1927 4.42957 13.4614L5.0637 13.8479ZM3.57333 17.7776C2.63193 17.9996 1.92857 18 1.92857 18C2.34643 17.5789 2.68269 17.164 2.95157 16.7606C3.51394 15.917 3.7815 15.1241 3.88414 14.4324C1.53868 13.0028 0 10.6207 0 7.92C0 3.546 4.02943 0 9 0C13.9706 0 18 3.546 18 7.92C18 12.294 13.9706 15.84 9 15.84C8.36904 15.84 7.7535 15.7817 7.15918 15.673C6.14893 16.936 4.69282 17.5135 3.57333 17.7776Z" fill="#575555"/>
<path d="M4.95147 14.6043L6.43522 14.8244V14.8244L4.95147 14.6043ZM5.0637 13.8479L6.54745 14.0681L6.6934 13.0846L5.84437 12.5671L5.0637 13.8479ZM4.43974 16.3239L3.07306 15.7057L1.49665 19.1908L5.02186 17.7064L4.43974 16.3239ZM6.32943 14.9528L7.50083 15.8898H7.50083L6.32943 14.9528ZM6.72985 14.4522L6.99977 12.9767L6.11821 12.8154L5.55845 13.5153L6.72985 14.4522ZM7.34598 14.5649L7.07607 16.0404H7.07607L7.34598 14.5649ZM4.42957 13.4614L5.21024 12.1806L4.42957 13.4614ZM1.92857 18L0.863855 16.9434L-1.67513 19.5019L1.92937 19.5L1.92857 18ZM3.57333 17.7776L3.91767 19.2375L3.57333 17.7776ZM2.95157 16.7606L4.19969 17.5926L4.19969 17.5926L2.95157 16.7606ZM3.88414 14.4324L5.3679 14.6526L5.51384 13.669L4.66481 13.1516L3.88414 14.4324ZM7.15918 15.673L7.42909 14.1974L6.54754 14.0362L5.98778 14.736L7.15918 15.673ZM6.43522 14.8244L6.54745 14.0681L3.57995 13.6277L3.46771 14.3841L6.43522 14.8244ZM5.80643 16.9421C6.13419 16.2175 6.33415 15.5055 6.43522 14.8244L3.46771 14.3841C3.40676 14.7948 3.28439 15.2385 3.07306 15.7057L5.80643 16.9421ZM5.15802 14.0159C4.84216 14.4108 4.39281 14.7161 3.85763 14.9415L5.02186 17.7064C5.87774 17.346 6.78956 16.779 7.50083 15.8898L5.15802 14.0159ZM5.55845 13.5153L5.15802 14.0159L7.50083 15.8898L7.90125 15.3891L5.55845 13.5153ZM7.6159 13.0894L6.99977 12.9767L6.45993 15.9277L7.07607 16.0404L7.6159 13.0894ZM9 13.215C8.52557 13.215 8.06286 13.1712 7.6159 13.0894L7.07607 16.0404C7.69705 16.154 8.34042 16.215 9 16.215V13.215ZM15.42 7.92C15.42 10.5092 12.8984 13.215 9 13.215V16.215C14.2056 16.215 18.42 12.4954 18.42 7.92H15.42ZM9 2.625C12.8984 2.625 15.42 5.33075 15.42 7.92H18.42C18.42 3.34461 14.2056 -0.375 9 -0.375V2.625ZM2.58 7.92C2.58 5.33075 5.1016 2.625 9 2.625V-0.375C3.79443 -0.375 -0.42 3.34461 -0.42 7.92H2.58ZM5.21024 12.1806C3.50482 11.1411 2.58 9.54532 2.58 7.92H-0.42C-0.42 10.7471 1.19123 13.2443 3.64889 14.7422L5.21024 12.1806ZM5.84437 12.5671L5.21024 12.1806L3.64889 14.7422L4.28303 15.1288L5.84437 12.5671ZM1.92857 18C1.92937 19.5 1.92961 19.5 1.92984 19.5C1.92993 19.5 1.93017 19.5 1.93033 19.5C1.93066 19.5 1.931 19.5 1.93135 19.5C1.93206 19.5 1.93281 19.5 1.9336 19.5C1.93518 19.5 1.93694 19.5 1.93888 19.5C1.94275 19.4999 1.94732 19.4999 1.95258 19.4999C1.96309 19.4997 1.97634 19.4996 1.99223 19.4992C2.02399 19.4985 2.06633 19.4973 2.1183 19.4951C2.22214 19.4905 2.36512 19.4819 2.53961 19.4654C2.88716 19.4324 3.36768 19.3672 3.91767 19.2375L3.22899 16.3176C2.83757 16.41 2.49572 16.456 2.25624 16.4788C2.13722 16.4901 2.04552 16.4954 1.98806 16.4979C1.95938 16.4991 1.93942 16.4997 1.92904 16.4999C1.92385 16.5 1.92108 16.5 1.92082 16.5C1.9207 16.5 1.9212 16.5 1.92236 16.5C1.92293 16.5 1.92367 16.5 1.92457 16.5C1.92502 16.5 1.92551 16.5 1.92605 16.5C1.92631 16.5 1.92659 16.5 1.92688 16.5C1.92702 16.5 1.92724 16.5 1.92732 16.5C1.92754 16.5 1.92777 16.5 1.92857 18ZM1.70345 15.9286C1.49163 16.2464 1.21782 16.5867 0.863855 16.9434L2.99329 19.0566C3.47503 18.5711 3.87375 18.0815 4.19969 17.5926L1.70345 15.9286ZM2.40039 14.2122C2.33006 14.6862 2.14251 15.27 1.70345 15.9286L4.19969 17.5926C4.88536 16.564 5.23295 15.562 5.3679 14.6526L2.40039 14.2122ZM-1.5 7.92C-1.5 11.2234 0.383604 14.0555 3.10347 15.7132L4.66481 13.1516C2.69375 11.9502 1.5 10.0181 1.5 7.92H-1.5ZM9 -1.5C3.3869 -1.5 -1.5 2.54316 -1.5 7.92H1.5C1.5 4.54884 4.67195 1.5 9 1.5V-1.5ZM19.5 7.92C19.5 2.54316 14.6131 -1.5 9 -1.5V1.5C13.328 1.5 16.5 4.54884 16.5 7.92H19.5ZM9 17.34C14.6131 17.34 19.5 13.2968 19.5 7.92H16.5C16.5 11.2912 13.328 14.34 9 14.34V17.34ZM6.88926 17.1485C7.5706 17.2731 8.27646 17.34 9 17.34V14.34C8.46161 14.34 7.9364 14.2902 7.42909 14.1974L6.88926 17.1485ZM3.91767 19.2375C5.19247 18.9369 7.0226 18.2452 8.33058 16.6099L5.98778 14.736C5.27526 15.6269 4.19316 16.0902 3.22899 16.3176L3.91767 19.2375Z" fill="#575555" mask="url(#path-1-inside-1)"/>
</svg>
