<svg width="18" height="16" viewBox="0 0 18 16" fill="none" xmlns="http://www.w3.org/2000/svg">
<path fill-rule="evenodd" clip-rule="evenodd" d="M9 3.31919L8.16452 2.3748C7.40619 1.51762 6.32539 1 5.14286 1C2.97127 1 1.08 2.77492 1.08 5.12C1.08 7.59032 2.59011 9.58369 4.51906 11.2736C5.47722 12.1131 6.50014 12.8443 7.43528 13.505C7.49514 13.5473 7.55502 13.5896 7.61483 13.6317C8.10009 13.9741 8.58018 14.3129 9 14.639C9.41982 14.3129 9.89991 13.9741 10.3852 13.6317C10.445 13.5896 10.5049 13.5473 10.5647 13.505C11.4999 12.8443 12.5228 12.1131 13.4809 11.2736C15.4099 9.58369 16.92 7.59032 16.92 5.12C16.92 2.77492 15.0287 1 12.8571 1C11.6746 1 10.5938 1.51762 9.83548 2.3748L9 3.31919ZM9.66291 15.4291C9.4039 15.6312 9.17964 15.8212 9 16C8.82036 15.8212 8.5961 15.6312 8.33709 15.4291C7.93595 15.1161 7.45147 14.7741 6.92031 14.399C4.1124 12.4163 0 9.51255 0 5.12C0 2.29216 2.30239 0 5.14286 0C6.30375 0 7.37272 0.385034 8.23242 1.03194C8.51171 1.24211 8.76891 1.4799 9 1.74112C9.23109 1.4799 9.4883 1.24211 9.76758 1.03194C10.6273 0.385034 11.6962 0 12.8571 0C15.6976 0 18 2.29216 18 5.12C18 9.51255 13.8876 12.4163 11.0797 14.399C10.5485 14.7741 10.064 15.1161 9.66291 15.4291Z" fill="#575555"/>
</svg>
