<svg width="14" height="19" viewBox="0 0 14 19" fill="none" xmlns="http://www.w3.org/2000/svg">
<path d="M13.8833 0.116667C13.7667 0.116667 13.5333 0 13.4167 0H0.583333C0.466667 0 0.233333 0.116667 0.116667 0.116667C0 0.116667 0 0.466667 0 0.583333V18.0833C0 18.3167 0.116667 18.55 0.35 18.55C0.583333 18.6667 0.816667 18.6667 0.933333 18.55L7 14.1167L13.0667 18.55C13.3 18.6667 13.5333 18.6667 13.65 18.55C13.8833 18.4333 14 18.2 14 18.0833V0.583333C14 0.466667 13.8833 0.233333 13.8833 0.116667ZM6.65 12.95L1.16667 16.9167V1.16667H12.8333V16.9167L7.35 12.95C7.11667 12.8333 6.88333 12.8333 6.65 12.95Z" fill="#575555"/>
</svg>
