<svg width="20" height="18" viewBox="0 0 20 18" fill="none" xmlns="http://www.w3.org/2000/svg">
<path fill-rule="evenodd" clip-rule="evenodd" d="M10.4639 1.36086C10.3078 0.912938 9.67403 0.91378 9.51914 1.36211L7.71675 6.57905C7.64712 6.78058 7.45737 6.91578 7.24416 6.91578H1.58129C1.09289 6.91578 0.894224 7.5441 1.29384 7.82489L5.78964 10.9838C5.97162 11.1117 6.04727 11.3444 5.97524 11.5549L4.25272 16.5877C4.09736 17.0416 4.60848 17.4325 5.00589 17.1638L9.71005 13.9822C9.87903 13.8679 10.1005 13.8677 10.2696 13.9818L14.9904 17.164C15.3885 17.4324 15.8992 17.04 15.7425 16.5862L14.0057 11.5561C13.9328 11.3451 14.0086 11.1114 14.1915 10.9834L18.7011 7.82534C19.1015 7.54495 18.9031 6.91578 18.4143 6.91578H12.7548C12.5421 6.91578 12.3527 6.78118 12.2827 6.58031L10.4639 1.36086Z" fill="#EAEAEA"/>
<mask id="mask0" mask-type="alpha" maskUnits="userSpaceOnUse" x="1" y="1" width="18" height="17">
<path fill-rule="evenodd" clip-rule="evenodd" d="M10.4639 1.36086C10.3078 0.912938 9.67403 0.91378 9.51914 1.36211L7.71675 6.57905C7.64712 6.78058 7.45737 6.91578 7.24416 6.91578H1.58129C1.09289 6.91578 0.894224 7.5441 1.29384 7.82489L5.78964 10.9838C5.97162 11.1117 6.04727 11.3444 5.97524 11.5549L4.25272 16.5877C4.09736 17.0416 4.60848 17.4325 5.00589 17.1638L9.71005 13.9822C9.87903 13.8679 10.1005 13.8677 10.2696 13.9818L14.9904 17.164C15.3885 17.4324 15.8992 17.04 15.7425 16.5862L14.0057 11.5561C13.9328 11.3451 14.0086 11.1114 14.1915 10.9834L18.7011 7.82534C19.1015 7.54495 18.9031 6.91578 18.4143 6.91578H12.7548C12.5421 6.91578 12.3527 6.78118 12.2827 6.58031L10.4639 1.36086Z" fill="#EAEAEA"/>
</mask>
<g mask="url(#mask0)">
</g>
</svg>
