<svg width="208" height="208" viewBox="0 0 208 208" fill="none" xmlns="http://www.w3.org/2000/svg">
<g filter="url(#filter0_d)">
<circle cx="104" cy="104" r="80" fill="white"/>
</g>
<path fill-rule="evenodd" clip-rule="evenodd" d="M98.8377 54.6663C107.018 54.6663 113.345 59.094 116.114 66.3962C118.126 71.8635 124.275 78.1011 131.598 80.3431C131.977 80.4621 132.128 80.9005 131.876 81.2073C130.879 82.4599 129.725 84.5077 129.088 86.0609C128.943 86.4178 128.495 86.5118 128.199 86.2675C123.676 82.5037 119.829 81.1823 114.562 80.7188C112.203 80.531 110.67 80.5936 108.526 80.938C108.217 80.9881 107.983 81.2825 108.04 81.5831C108.557 84.3825 110.828 87.2696 114.846 88.71C119.684 90.5261 128.64 96.1061 128.64 107.874C128.64 117.7 122.402 123.53 116.328 126.467C107.643 130.212 102.774 132.398 97.141 137.383C95.1668 139.306 94.1387 141.26 94.1387 143.408C94.1387 145.738 96.4535 149.595 100.667 149.595C102.868 149.595 105.038 148.65 106.463 147.41C107.447 146.552 108.892 146.47 109.939 147.259C111.181 148.192 111.314 149.977 110.248 151.111C108.425 153.04 105.631 154.468 101.739 154.468C90.7706 154.461 84.8669 144.779 84.7597 137.803C84.6398 129.881 90.1903 124.357 94.391 120.706C100.383 114.675 98.8882 107.761 96.8887 104.053C95.8039 102.175 92.7259 100.446 89.0802 101.542C86.059 102.55 84.2298 105.713 84.4443 108.318C84.4569 108.481 84.2866 108.588 84.1541 108.5C77.5945 104.135 73.4568 93.8391 77.7648 84.6017C77.8909 84.3261 78.2315 84.2009 78.5091 84.3324C79.7642 84.9399 82.0412 85.5223 83.8577 85.5223C84.8984 85.5223 86.6834 85.5223 88.3422 84.871C88.7207 84.7207 88.8153 84.2322 88.5252 83.9504C86.8474 82.3597 86.5131 81.6395 85.5292 79.435C84.4821 76.9738 84.4632 73.1724 85.2012 70.9491C85.2264 70.8677 85.1633 70.7863 85.075 70.8051C83.7883 71.0619 82.0538 71.8009 80.9815 72.5712C80.8995 72.6275 80.786 72.5586 80.8049 72.4584C81.7573 67.417 85.7184 63.0582 91.2626 61.9998C91.3635 61.981 91.395 61.8558 91.313 61.7994C90.0452 60.9415 88.2602 60.0647 86.2356 59.7766C86.2356 59.7891 90.594 54.6663 98.8377 54.6663Z" fill="#F22840"/>
<defs>
<filter id="filter0_d" x="0" y="0" width="208" height="208" filterUnits="userSpaceOnUse" color-interpolation-filters="sRGB">
<feFlood flood-opacity="0" result="BackgroundImageFix"/>
<feColorMatrix in="SourceAlpha" type="matrix" values="0 0 0 0 0 0 0 0 0 0 0 0 0 0 0 0 0 0 127 0"/>
<feOffset/>
<feGaussianBlur stdDeviation="12"/>
<feColorMatrix type="matrix" values="0 0 0 0 0.94902 0 0 0 0 0.156863 0 0 0 0 0.25098 0 0 0 0.25 0"/>
<feBlend mode="normal" in2="BackgroundImageFix" result="effect1_dropShadow"/>
<feBlend mode="normal" in="SourceGraphic" in2="effect1_dropShadow" result="shape"/>
</filter>
</defs>
</svg>
