<svg width="139" height="36" viewBox="0 0 139 36" fill="none" xmlns="http://www.w3.org/2000/svg">
<g filter="url(#filter0_d)">
<path fill-rule="evenodd" clip-rule="evenodd" d="M6 18C6 11.3726 11.3726 6 18 6H121C127.627 6 133 11.3726 133 18V18C133 24.6274 127.627 30 121 30H18C11.3726 30 6 24.6274 6 18V18Z" fill="url(#paint0_linear)"/>
<path d="M18 6.9H121C127.13 6.9 132.1 11.8696 132.1 18C132.1 24.1304 127.13 29.1 121 29.1H18C11.8696 29.1 6.9 24.1304 6.9 18C6.9 11.8696 11.8696 6.9 18 6.9Z" stroke="#F37D00" stroke-opacity="0.578861" stroke-width="1.8"/>
</g>
<path d="M40.008 14.364L39.024 13.632C38.784 13.716 38.304 13.788 37.788 13.788H33.552C33.192 13.788 32.46 13.752 32.136 13.704V15.408C32.388 15.396 33.048 15.324 33.552 15.324H37.62C37.356 16.176 36.624 17.364 35.832 18.264C34.704 19.524 32.844 20.988 30.912 21.708L32.148 23.004C33.792 22.224 35.388 20.976 36.66 19.632C37.788 20.724 38.904 21.948 39.684 23.028L41.052 21.84C40.344 20.976 38.892 19.44 37.704 18.408C38.508 17.328 39.18 16.044 39.588 15.108C39.696 14.868 39.912 14.496 40.008 14.364ZM49.8323 15.156C49.8323 14.736 50.1683 14.388 50.5883 14.388C51.0083 14.388 51.3563 14.736 51.3563 15.156C51.3563 15.576 51.0083 15.912 50.5883 15.912C50.1683 15.912 49.8323 15.576 49.8323 15.156ZM49.0403 15.156C49.0403 16.02 49.7243 16.704 50.5883 16.704C51.4523 16.704 52.1483 16.02 52.1483 15.156C52.1483 14.292 51.4523 13.596 50.5883 13.596C49.7243 13.596 49.0403 14.292 49.0403 15.156ZM41.5763 19.08L43.0163 20.568C43.2323 20.256 43.5203 19.836 43.7963 19.452C44.2763 18.804 45.1283 17.616 45.5963 17.016C45.9443 16.584 46.1963 16.56 46.5803 16.944C47.0123 17.388 48.0803 18.552 48.7763 19.38C49.4843 20.208 50.5043 21.444 51.3083 22.44L52.6283 21.024C51.7043 20.04 50.4803 18.708 49.6763 17.856C48.9563 17.076 48.0323 16.116 47.2283 15.36C46.2923 14.484 45.5843 14.616 44.8763 15.456C44.0483 16.44 43.1123 17.616 42.5723 18.168C42.2003 18.528 41.9363 18.792 41.5763 19.08ZM56.8643 12.996L55.9883 14.316C56.7803 14.76 58.0283 15.576 58.7003 16.044L59.6003 14.712C58.9763 14.28 57.6563 13.428 56.8643 12.996ZM54.6323 21.516L55.5323 23.1C56.6003 22.908 58.3163 22.308 59.5403 21.612C61.5083 20.484 63.2003 18.96 64.3163 17.304L63.3923 15.672C62.4323 17.388 60.7643 19.032 58.7243 20.172C57.4163 20.892 55.9763 21.288 54.6323 21.516ZM55.0163 15.732L54.1403 17.064C54.9443 17.484 56.1923 18.3 56.8763 18.768L57.7523 17.424C57.1403 16.992 55.8203 16.164 55.0163 15.732ZM68.9563 14.88L67.3483 15.264C67.4803 15.516 67.6003 15.804 67.6842 16.116C67.7683 16.38 67.8763 16.764 67.9963 17.232C67.4443 17.34 67.0123 17.412 66.8443 17.436C66.4483 17.508 66.1243 17.544 65.7402 17.58L66.1123 19.02C66.4723 18.936 67.3483 18.756 68.3563 18.54C68.7883 20.172 69.2803 22.044 69.4603 22.692C69.5563 23.028 69.6403 23.424 69.6763 23.748L71.3083 23.34C71.2122 23.1 71.0563 22.56 70.9843 22.356C70.8043 21.732 70.2883 19.884 69.8323 18.228C71.1283 17.964 72.3283 17.712 72.6163 17.664C72.2923 18.252 71.4523 19.272 70.8403 19.824L72.1603 20.484C73.0003 19.584 74.2123 17.784 74.7163 16.728L73.7563 16.044C73.5883 16.128 73.3603 16.2 73.1443 16.236C72.6763 16.344 70.9963 16.668 69.4723 16.956C69.3403 16.488 69.2323 16.08 69.1483 15.792C69.0763 15.48 69.0043 15.156 68.9563 14.88ZM81.6923 22.236L82.7003 23.064C82.8083 22.968 82.9523 22.848 83.2163 22.704C84.5603 22.02 86.2883 20.724 87.2843 19.428L86.3603 18.108C85.5563 19.272 84.3683 20.22 83.3963 20.64V14.364C83.3963 13.824 83.4683 13.356 83.4803 13.32H81.6923C81.7043 13.356 81.7883 13.812 81.7883 14.352V21.348C81.7883 21.672 81.7403 22.008 81.6923 22.236ZM76.1363 22.056L77.6003 23.028C78.6203 22.116 79.3763 20.94 79.7363 19.584C80.0603 18.372 80.0963 15.84 80.0963 14.424C80.0963 13.92 80.1683 13.392 80.1803 13.332H78.4163C78.4883 13.632 78.5243 13.956 78.5243 14.436C78.5243 15.888 78.5123 18.156 78.1763 19.188C77.8403 20.208 77.1923 21.312 76.1363 22.056ZM94.9003 19.068C95.3923 18.78 95.8483 18.456 96.2803 18.084C96.7123 18.444 97.1923 18.78 97.7203 19.068H94.9003ZM94.9723 21.9V20.268H97.4803V21.9H94.9723ZM93.0763 18.096C92.8723 17.82 91.9723 16.752 91.6483 16.404V16.116H92.6683C92.9803 16.368 93.3523 16.704 93.5323 16.896C93.8323 16.632 94.1323 16.32 94.4203 15.972C94.6843 16.368 94.9843 16.764 95.3203 17.148C94.5403 17.796 93.6283 18.3 92.6683 18.66L93.0763 18.096ZM97.2523 14.808C96.9763 15.336 96.6283 15.828 96.2323 16.272C95.8123 15.84 95.4763 15.384 95.2003 14.928L95.2843 14.808H97.2523ZM98.1523 13.548L97.9123 13.596H95.9803C96.1243 13.296 96.2563 12.996 96.3763 12.696L95.0203 12.324C94.5883 13.476 93.8443 14.616 92.9923 15.444V14.796H91.6483V12.336H90.3043V14.796H88.7323V16.116H90.1963C89.8603 17.544 89.1763 19.2 88.4443 20.148C88.6603 20.496 88.9723 21.048 89.1043 21.444C89.5603 20.832 89.9683 19.944 90.3043 18.984V23.532H91.6483V18C91.9123 18.42 92.1643 18.864 92.3083 19.164L92.4163 19.008C92.6443 19.296 92.8963 19.68 93.0283 19.956C93.2323 19.884 93.4363 19.8 93.6403 19.704V23.544H94.9723V23.124H97.4803V23.508H98.8603V19.596L99.0763 19.68C99.2563 19.332 99.6523 18.768 99.9403 18.492C98.8963 18.204 97.9843 17.736 97.2283 17.16C98.0203 16.272 98.6443 15.216 99.0523 13.968L98.1523 13.548ZM103.86 12.396C103.224 14.16 102.132 15.888 100.992 16.98C101.244 17.328 101.676 18.12 101.832 18.468C102.108 18.18 102.396 17.856 102.672 17.508V23.52H104.136V15.276C104.58 14.472 104.952 13.656 105.276 12.852L103.86 12.396ZM112.248 14.916H110.928V12.468H109.44V14.916H104.868V16.356H109.44V21.804C109.44 22.068 109.332 22.164 109.032 22.164C108.756 22.176 107.7 22.176 106.776 22.14C106.992 22.512 107.244 23.148 107.328 23.556C108.648 23.568 109.548 23.544 110.136 23.316C110.712 23.1 110.928 22.728 110.928 21.804V16.356H112.248V14.916ZM108.324 19.992C107.964 19.272 107.22 18.096 106.68 17.22L105.408 17.808C105.948 18.72 106.656 19.956 106.968 20.688L108.324 19.992ZM121.992 12.96H120.252C120.3 13.152 120.36 13.488 120.384 13.788C120.408 14.112 120.42 14.736 120.432 15.408C119.976 15.42 119.508 15.432 119.076 15.432C118.44 15.432 117.852 15.384 117.264 15.3V16.824C117.852 16.848 118.596 16.884 119.112 16.884C119.556 16.884 120 16.872 120.456 16.86C120.456 17.028 120.456 17.172 120.456 17.292C120.456 19.32 120.264 20.388 119.34 21.348C119.004 21.72 118.404 22.104 117.948 22.308L119.328 23.4C121.728 21.876 121.944 20.136 121.944 17.304C121.944 17.184 121.944 17.004 121.944 16.8C122.616 16.764 123.24 16.716 123.72 16.656L123.732 15.096C123.24 15.192 122.604 15.264 121.932 15.312C121.932 14.652 121.932 14.028 121.932 13.776C121.944 13.512 121.956 13.224 121.992 12.96ZM116.028 13.164L114.252 12.984C114.24 13.284 114.228 13.692 114.168 14.028C114.024 15 113.784 16.848 113.784 18.816C113.784 20.304 114.204 21.984 114.468 22.704L115.8 22.572C115.788 22.404 115.776 22.2 115.776 22.08C115.776 21.936 115.8 21.672 115.848 21.492C115.992 20.808 116.316 19.596 116.664 18.564L115.92 18.084C115.716 18.528 115.5 19.104 115.344 19.476C115.02 17.988 115.44 15.468 115.74 14.136C115.8 13.884 115.92 13.452 116.028 13.164Z" fill="#F37D00"/>
<path fill-rule="evenodd" clip-rule="evenodd" d="M13.4388 17.5C13.4388 17.5 13.9418 20.5033 14.6915 21.9743C15.4412 23.4453 17 24.0549 17 24.0549C17 24.0549 15.6682 24.6802 14.6915 26.3213C13.7148 27.9623 13.3756 29.5 13.3756 29.5C13.3756 29.5 12.8699 27.9446 11.9826 26.3213C11.0953 24.6979 9 24.0549 9 24.0549C9 24.0549 11.1765 23.5 11.9826 21.9743C12.7887 20.4486 13.4388 17.5 13.4388 17.5Z" fill="#FFF267"/>
<path fill-rule="evenodd" clip-rule="evenodd" d="M13.3551 19.5879C13.3551 19.5879 13.7353 21.6789 14.302 22.703C14.8686 23.7272 16.0468 24.1515 16.0468 24.1515C16.0468 24.1515 15.0402 24.5869 14.302 25.7294C13.5637 26.872 13.3073 27.9426 13.3073 27.9426C13.3073 27.9426 12.9251 26.8597 12.2544 25.7294C11.5837 24.5992 10 24.1515 10 24.1515C10 24.1515 11.6451 23.7652 12.2544 22.703C12.8637 21.6408 13.3551 19.5879 13.3551 19.5879Z" fill="#FEC600"/>
<path fill-rule="evenodd" clip-rule="evenodd" d="M13.5521 21.1665H16.474C16.6146 22.4237 17.8597 23.2477 19.4663 23.2477C21.0829 23.2477 22.1874 22.4343 22.1874 21.3144C22.1874 20.3214 21.4946 19.772 19.7474 19.36L17.8597 18.9269C15.1888 18.3247 13.8734 16.8985 13.8734 14.6695C13.8734 11.8593 16.1829 10 19.4161 10C22.7899 10 24.9085 11.8276 24.9587 14.5849H22.1171C22.0167 13.2961 20.9423 12.5143 19.4261 12.5143C17.93 12.5143 16.9259 13.2644 16.9259 14.3948C16.9259 15.335 17.6288 15.8632 19.2956 16.2647L21.0528 16.6556C23.9546 17.3105 25.2198 18.6205 25.2198 20.9447C25.2198 23.9027 22.9405 25.7726 19.3458 25.7726C15.8615 25.7726 13.6425 24.0295 13.5521 21.1665Z" fill="#F37D00"/>
<path fill-rule="evenodd" clip-rule="evenodd" d="M27.2576 5.5C27.2576 5.5 27.8286 8.62844 28.6796 10.1607C29.5306 11.6931 31.3 12.328 31.3 12.328C31.3 12.328 29.7883 12.9793 28.6796 14.6888C27.5709 16.3983 27.1859 18 27.1859 18C27.1859 18 26.6119 16.3798 25.6046 14.6888C24.5974 12.9978 23 12.249 23 12.249C23 12.249 24.6897 11.75 25.6046 10.1607C26.5196 8.5715 27.2576 5.5 27.2576 5.5Z" fill="#FFF267"/>
<path fill-rule="evenodd" clip-rule="evenodd" d="M27.2126 7.84619C27.2126 7.84619 27.5928 9.93716 28.1595 10.9613C28.7261 11.9855 29.9043 12.4098 29.9043 12.4098C29.9043 12.4098 28.8977 12.8452 28.1595 13.9877C27.4212 15.1303 27.1648 16.2009 27.1648 16.2009C27.1648 16.2009 26.7826 15.118 26.1119 13.9877C25.4412 12.8575 24.3775 12.3571 24.3775 12.3571C24.3775 12.3571 25.5026 12.0235 26.1119 10.9613C26.7212 9.8991 27.2126 7.84619 27.2126 7.84619Z" fill="#FEC600"/>
<defs>
<filter id="filter0_d" x="0" y="0" width="139" height="36" filterUnits="userSpaceOnUse" color-interpolation-filters="sRGB">
<feFlood flood-opacity="0" result="BackgroundImageFix"/>
<feColorMatrix in="SourceAlpha" type="matrix" values="0 0 0 0 0 0 0 0 0 0 0 0 0 0 0 0 0 0 127 0"/>
<feOffset/>
<feGaussianBlur stdDeviation="3"/>
<feColorMatrix type="matrix" values="0 0 0 0 1 0 0 0 0 0.914474 0 0 0 0 0 0 0 0 1 0"/>
<feBlend mode="normal" in2="BackgroundImageFix" result="effect1_dropShadow"/>
<feBlend mode="normal" in="SourceGraphic" in2="effect1_dropShadow" result="shape"/>
</filter>
<linearGradient id="paint0_linear" x1="6" y1="6" x2="6" y2="30" gradientUnits="userSpaceOnUse">
<stop stop-color="#FFFAA1"/>
<stop offset="1" stop-color="#FFF267"/>
</linearGradient>
</defs>
</svg>
