<svg width="204" height="48" viewBox="0 0 204 48" fill="none" xmlns="http://www.w3.org/2000/svg">
<path d="M50.5189 19.1896C50.062 18.6157 49.4643 18.1575 48.7304 17.8151C47.9917 17.4775 47.2822 17.3039 46.5969 17.3039C46.2421 17.3039 45.8874 17.3328 45.5229 17.3955C45.1584 17.4582 44.8327 17.574 44.5411 17.7524C44.2496 17.926 44.0066 18.1527 43.8073 18.4324C43.608 18.7121 43.5108 19.0642 43.5108 19.4982C43.5108 19.8696 43.5886 20.1782 43.7441 20.4242C43.8996 20.6701 44.1281 20.8871 44.4294 21.0704C44.7307 21.2537 45.0855 21.4273 45.5034 21.5816C45.9165 21.7359 46.3831 21.8951 46.9031 22.0591C47.6515 22.305 48.4291 22.5799 49.2359 22.8789C50.0426 23.1779 50.7813 23.5734 51.4471 24.0653C52.1129 24.5572 52.6621 25.1697 53.0946 25.9027C53.532 26.6309 53.7459 27.5424 53.7459 28.6323C53.7459 29.8862 53.5126 30.9713 53.0461 31.8877C52.5795 32.804 51.9526 33.5611 51.1653 34.1543C50.3779 34.7523 49.474 35.1912 48.4583 35.4805C47.4425 35.7699 46.3928 35.9146 45.3139 35.9146C43.7393 35.9146 42.2132 35.6397 40.7407 35.0947C39.2681 34.5498 38.0434 33.7733 37.0666 32.7654L40.5511 29.2497C41.0906 29.9104 41.8001 30.4601 42.6847 30.899C43.5643 31.3427 44.444 31.5645 45.3139 31.5645C45.7075 31.5645 46.0915 31.5211 46.4657 31.4391C46.8399 31.3572 47.1655 31.2221 47.4474 31.0389C47.7293 30.8556 47.948 30.6048 48.1181 30.2962C48.2833 29.9875 48.3659 29.6162 48.3659 29.187C48.3659 28.777 48.2639 28.425 48.0549 28.1356C47.8459 27.8463 47.5495 27.5858 47.1704 27.3495C46.7864 27.1132 46.3102 26.8962 45.7367 26.7033C45.1681 26.5056 44.5168 26.2982 43.7927 26.0715C43.088 25.8448 42.3979 25.5796 41.7224 25.2709C41.0469 24.9623 40.4442 24.5668 39.9193 24.0846C39.3896 23.6023 38.9668 23.0139 38.6412 22.3243C38.3204 21.6347 38.16 20.7955 38.16 19.8117C38.16 18.5964 38.4079 17.5595 38.9085 16.6962C39.4042 15.833 40.0603 15.1241 40.867 14.5695C41.6738 14.0148 42.5875 13.6097 43.6032 13.3493C44.6189 13.0937 45.6444 12.9635 46.6844 12.9635C47.9285 12.9635 49.2018 13.1902 50.4946 13.6435C51.7922 14.0968 52.9246 14.7624 53.9014 15.6497L50.5189 19.1896Z" fill="#F32840"/>
<path d="M64.4377 37.6698C64.1266 38.4704 63.7767 39.1841 63.3928 39.8159C63.0088 40.4429 62.552 40.9782 62.0223 41.4219C61.4925 41.8655 60.8705 42.1983 60.1561 42.425C59.4416 42.6516 58.596 42.7626 57.6192 42.7626C57.1429 42.7626 56.6472 42.7336 56.1417 42.6709C55.6315 42.6082 55.1941 42.5263 54.8198 42.425L55.3787 38.1666C55.6266 38.2485 55.9036 38.3161 56.2049 38.3691C56.5062 38.4222 56.7784 38.4463 57.0311 38.4463C57.8184 38.4463 58.3919 38.2678 58.7418 37.9061C59.0966 37.5444 59.393 37.0381 59.6458 36.3774L60.1415 35.1138L53.668 19.9948H59.3299L62.7853 29.8668H62.8776L65.9588 19.9948H71.3728L64.4377 37.6698Z" fill="#F32840"/>
<path d="M83.0805 35.3548V26.9634C83.0805 26.5294 83.0416 26.1194 82.9736 25.7288C82.9007 25.3382 82.7792 24.9958 82.614 24.6967C82.4487 24.3977 82.2155 24.1614 81.9141 23.9878C81.6128 23.8142 81.2337 23.7274 80.7769 23.7274C80.3201 23.7274 79.9216 23.8142 79.5765 23.9878C79.2363 24.1614 78.9496 24.4026 78.7211 24.7112C78.4927 25.0199 78.3226 25.3767 78.206 25.777C78.0894 26.1773 78.0359 26.5969 78.0359 27.0261V35.3548H72.8989V19.9898H77.8464V22.1166H77.9095C78.0942 21.7887 78.3421 21.4656 78.6385 21.1473C78.9398 20.829 79.2946 20.5541 79.698 20.3274C80.1014 20.1007 80.5436 19.9175 81.0199 19.7728C81.4962 19.6281 82.0065 19.5558 82.5459 19.5558C83.5811 19.5558 84.4656 19.739 85.1897 20.1104C85.9139 20.4817 86.5019 20.9592 86.949 21.5427C87.3962 22.1311 87.7169 22.8014 87.9113 23.5634C88.1106 24.3254 88.2078 25.0874 88.2078 25.8445V35.3452H83.0805V35.3548Z" fill="#F32840"/>
<path d="M101.485 24.9576C101.193 24.5863 100.8 24.2873 100.304 24.0606C99.8084 23.8339 99.2981 23.723 98.778 23.723C98.2386 23.723 97.7526 23.8291 97.3152 24.0461C96.8778 24.2631 96.5085 24.5525 96.1974 24.9094C95.8864 25.2711 95.6434 25.6858 95.4684 26.1585C95.2935 26.6311 95.206 27.1375 95.206 27.668C95.206 28.2033 95.2886 28.7048 95.4538 29.1774C95.6191 29.6501 95.8621 30.0696 96.1828 30.4265C96.5036 30.7882 96.8875 31.0679 97.3346 31.2753C97.7818 31.4827 98.2823 31.584 98.8461 31.584C99.3661 31.584 99.8764 31.4875 100.387 31.2898C100.897 31.0921 101.305 30.8123 101.616 30.441L104.45 33.8651C103.808 34.4824 102.977 34.9647 101.961 35.3167C100.946 35.6639 99.8667 35.8424 98.7246 35.8424C97.4999 35.8424 96.3578 35.6591 95.2983 35.2878C94.2389 34.9164 93.3155 34.3763 92.533 33.6674C91.7506 32.9584 91.1334 32.1 90.6862 31.092C90.2391 30.0841 90.0107 28.9411 90.0107 27.668C90.0107 26.4141 90.2343 25.2807 90.6862 24.2728C91.1334 23.2649 91.7506 22.4064 92.533 21.6975C93.3155 20.9886 94.2389 20.4436 95.2983 20.0626C96.3578 19.6816 97.4902 19.4935 98.6954 19.4935C99.2543 19.4935 99.8084 19.5466 100.362 19.6479C100.912 19.7491 101.441 19.889 101.952 20.0626C102.462 20.2362 102.928 20.4532 103.351 20.7088C103.774 20.9644 104.143 21.249 104.454 21.5576L101.485 24.9576Z" fill="#F32840"/>
<path d="M116.206 35.3551V27.0215C116.206 26.5875 116.177 26.1775 116.114 25.7869C116.05 25.3963 115.934 25.0539 115.754 24.7548C115.579 24.4558 115.346 24.2195 115.054 24.0459C114.762 23.8723 114.388 23.7855 113.936 23.7855C113.042 23.7855 112.362 24.099 111.881 24.7259C111.404 25.3529 111.166 26.1293 111.166 27.0553V35.3551H106.063V12.0278H111.166V21.9336H111.229C111.584 21.3163 112.143 20.7665 112.911 20.2842C113.679 19.802 114.602 19.5608 115.681 19.5608C116.74 19.5608 117.625 19.7441 118.344 20.1154C119.059 20.4868 119.642 20.9642 120.089 21.5478C120.536 22.1361 120.857 22.8065 121.051 23.5685C121.25 24.3305 121.348 25.0924 121.348 25.8496V35.3502H116.206V35.3551Z" fill="#F32840"/>
<path d="M133.954 24.1567C133.726 24.094 133.502 24.0554 133.284 24.0313C133.065 24.012 132.851 24.0023 132.647 24.0023C131.962 24.0023 131.388 24.1277 130.922 24.3737C130.455 24.6196 130.081 24.9186 129.799 25.2659C129.517 25.6131 129.318 25.9941 129.192 26.404C129.065 26.814 129.007 27.1708 129.007 27.4795V35.3549H123.904V20.0092H128.822V22.2324H128.885C129.279 21.4463 129.838 20.8049 130.567 20.3082C131.291 19.8114 132.132 19.5607 133.089 19.5607C133.298 19.5607 133.498 19.5703 133.697 19.5896C133.896 19.6089 134.056 19.6427 134.178 19.6812L133.954 24.1567Z" fill="#F32840"/>
<path d="M151.363 27.6101C151.363 28.864 151.134 30.0021 150.678 31.0197C150.221 32.0373 149.599 32.9006 148.811 33.6095C148.024 34.3184 147.11 34.8682 146.075 35.2588C145.04 35.6495 143.927 35.8424 142.746 35.8424C141.585 35.8424 140.481 35.6446 139.432 35.2588C138.382 34.8682 137.473 34.3184 136.695 33.6095C135.918 32.9006 135.301 32.0373 134.844 31.0197C134.387 30.0021 134.159 28.864 134.159 27.6101C134.159 26.3562 134.387 25.2229 134.844 24.2149C135.301 23.207 135.918 22.3534 136.695 21.6541C137.473 20.9548 138.387 20.4195 139.432 20.0481C140.481 19.6768 141.585 19.4935 142.746 19.4935C143.927 19.4935 145.04 19.6768 146.075 20.0481C147.11 20.4195 148.024 20.9548 148.811 21.6541C149.599 22.3534 150.221 23.207 150.678 24.2149C151.134 25.2229 151.363 26.3562 151.363 27.6101ZM146.445 27.6101C146.445 27.1182 146.362 26.6311 146.197 26.1585C146.031 25.6858 145.793 25.2711 145.482 24.9094C145.171 24.5477 144.787 24.2583 144.33 24.0317C143.874 23.805 143.344 23.6941 142.741 23.6941C142.139 23.6941 141.609 23.805 141.152 24.0317C140.695 24.2583 140.316 24.5525 140.015 24.9094C139.713 25.2711 139.485 25.6858 139.33 26.1585C139.174 26.6311 139.096 27.1133 139.096 27.6101C139.096 28.102 139.174 28.5891 139.33 29.0617C139.485 29.5343 139.718 29.9635 140.029 30.3397C140.34 30.7207 140.724 31.0245 141.181 31.2512C141.638 31.4779 142.168 31.5888 142.77 31.5888C143.373 31.5888 143.903 31.4779 144.36 31.2512C144.816 31.0245 145.2 30.7207 145.511 30.3397C145.822 29.9587 146.056 29.5343 146.211 29.0617C146.367 28.5891 146.445 28.102 146.445 27.6101Z" fill="#F32840"/>
<path d="M153.579 35.3549V11.3669H158.93V30.7541H167.459V35.3501H153.579V35.3549Z" fill="#F32840"/>
<path d="M174.773 15.0854C174.773 15.476 174.695 15.8425 174.54 16.1801C174.384 16.5177 174.175 16.8119 173.918 17.0578C173.655 17.3038 173.344 17.5015 172.985 17.6462C172.62 17.7909 172.241 17.8632 171.847 17.8632C171.016 17.8632 170.321 17.5931 169.762 17.0434C169.204 16.4984 168.922 15.8473 168.922 15.0854C168.922 14.714 168.995 14.362 169.14 14.0195C169.286 13.682 169.495 13.3878 169.762 13.1418C170.03 12.8959 170.341 12.6933 170.696 12.539C171.05 12.3847 171.429 12.3075 171.847 12.3075C172.241 12.3075 172.62 12.3798 172.985 12.5245C173.349 12.6692 173.66 12.8621 173.918 13.1129C174.175 13.3588 174.384 13.653 174.54 13.9906C174.695 14.3282 174.773 14.6947 174.773 15.0854ZM169.296 35.355V19.99H174.399V35.355H169.296Z" fill="#F32840"/>
<path d="M187.633 15.7603C187.448 15.6976 187.229 15.6493 186.976 15.6059C186.729 15.5625 186.481 15.5432 186.228 15.5432C185.752 15.5432 185.368 15.6252 185.076 15.7892C184.785 15.9532 184.556 16.175 184.391 16.4547C184.226 16.7344 184.109 17.0479 184.051 17.3951C183.988 17.7472 183.958 18.0944 183.958 18.4417V19.9849H187.414V23.7466H183.958V35.3451H178.855V23.7514H176.022V19.9897H178.855V18.5092C178.855 17.5639 178.958 16.6621 179.166 15.8085C179.375 14.9549 179.73 14.2025 180.241 13.5563C180.751 12.9101 181.431 12.394 182.296 12.013C183.157 11.6321 184.231 11.444 185.518 11.444C185.956 11.444 186.384 11.4681 186.811 11.5211C187.234 11.5742 187.623 11.6513 187.978 11.7526L187.633 15.7603Z" fill="#F32840"/>
<path d="M203.85 27.8558C203.85 28.0632 203.85 28.2657 203.85 28.4731C203.85 28.6805 203.84 28.8734 203.821 29.0615H192.585C192.629 29.4955 192.755 29.8861 192.974 30.2334C193.192 30.5854 193.469 30.8844 193.814 31.1449C194.155 31.4005 194.538 31.603 194.966 31.7477C195.389 31.8924 195.831 31.9647 196.288 31.9647C197.095 31.9647 197.78 31.8152 198.344 31.5162C198.903 31.2172 199.36 30.8314 199.714 30.3588L203.262 32.582C202.538 33.6285 201.576 34.4387 200.385 35.003C199.189 35.5672 197.809 35.8518 196.23 35.8518C195.068 35.8518 193.97 35.6733 192.93 35.3116C191.89 34.9499 190.986 34.4291 190.208 33.7394C189.431 33.0498 188.818 32.201 188.371 31.1931C187.924 30.1851 187.701 29.0325 187.701 27.74C187.701 26.4862 187.919 25.348 188.357 24.3304C188.794 23.3128 189.382 22.4496 190.131 21.7406C190.879 21.0317 191.759 20.4819 192.774 20.0913C193.79 19.7007 194.888 19.5029 196.074 19.5029C197.216 19.5029 198.261 19.691 199.219 20.072C200.171 20.453 200.992 21.0028 201.678 21.7214C202.363 22.4399 202.898 23.3177 203.282 24.3449C203.661 25.3673 203.85 26.5392 203.85 27.8558ZM199.151 25.9123C199.151 25.1117 198.898 24.4221 198.388 23.8433C197.877 23.2694 197.114 22.9801 196.099 22.9801C195.603 22.9801 195.146 23.0572 194.728 23.2116C194.315 23.3659 193.95 23.5781 193.639 23.8433C193.328 24.1086 193.08 24.4269 192.891 24.7838C192.706 25.1455 192.599 25.5216 192.58 25.9074H199.151V25.9123Z" fill="#F32840"/>
<path fill-rule="evenodd" clip-rule="evenodd" d="M10.9978 0C14.9392 0 17.9864 2.1268 19.318 5.6377C20.2852 8.26605 23.2497 11.2657 26.7781 12.346C26.9627 12.4039 27.0308 12.6161 26.9141 12.7608C26.433 13.3636 25.879 14.3474 25.5728 15.0949C25.5048 15.2637 25.2861 15.312 25.1451 15.1914C22.9679 13.3829 21.1114 12.7463 18.5793 12.5245C17.4421 12.4328 16.7034 12.4618 15.6731 12.6306C15.5224 12.6547 15.4107 12.7945 15.4398 12.944C15.6877 14.2896 16.7812 15.6785 18.7154 16.3681C21.0385 17.2459 25.3492 19.9273 25.3492 25.5891C25.3492 30.3153 22.3458 33.1221 19.4201 34.5303C15.2406 36.3291 12.8932 37.3805 10.1814 39.7822C9.2288 40.7081 8.73795 41.6485 8.73795 42.6806C8.73795 43.7995 9.85088 45.6562 11.8823 45.6562C12.9418 45.6562 13.9867 45.2029 14.6719 44.6048C15.1482 44.1901 15.8432 44.1563 16.3438 44.5325C16.9415 44.981 17.0047 45.8394 16.4944 46.3844C15.6196 47.3152 14.2734 48 12.3975 48C7.11473 48 4.27166 43.3413 4.2182 39.9847C4.15988 36.1748 6.83285 33.5175 8.85945 31.7621C11.7463 28.8637 11.0221 25.536 10.0647 23.7516C9.53984 22.845 8.06241 22.0155 6.30311 22.5411C4.84999 23.0282 3.96548 24.5474 4.06754 25.7964C4.0724 25.8736 3.99464 25.9267 3.9266 25.8833C0.767638 23.7902 -1.22494 18.8373 0.850257 14.3957C0.913436 14.2606 1.07381 14.2028 1.20503 14.2654C1.80767 14.5596 2.90601 14.8393 3.7808 14.8393C4.28138 14.8393 5.14159 14.8393 5.93862 14.5259C6.11844 14.4535 6.16704 14.2172 6.0261 14.0822C5.21935 13.3154 5.05897 12.973 4.58269 11.912C4.07726 10.7304 4.06754 8.89782 4.42232 7.83201C4.4369 7.79343 4.40288 7.75485 4.364 7.76449C3.74678 7.88988 2.91087 8.24676 2.39086 8.61328C2.35198 8.64222 2.29852 8.60846 2.30824 8.56023C2.76508 6.13443 4.67503 4.04139 7.348 3.53019C7.3966 3.52055 7.41118 3.46268 7.3723 3.43374C6.76481 3.01899 5.89974 2.59942 4.92775 2.46438C4.92775 2.46438 7.02725 0 10.9978 0Z" fill="#F32840"/>
</svg>
