<svg width="120" height="120" viewBox="0 0 120 120" fill="none" xmlns="http://www.w3.org/2000/svg">
<path d="M73.0627 53.5609C71.2915 53.5609 69.6679 54.0037 68.0443 54.8893C68.0443 50.4613 68.0443 46.476 68.1919 45L59.0406 46.7712V47.6568L59.9262 47.8044C61.2546 47.952 61.6974 48.69 61.845 50.4613C62.1402 53.7085 62.1402 71.4207 61.845 74.2251C64.3542 74.8155 67.0111 75.1107 69.6679 75.2583C77.048 75.2583 81.3284 70.6827 81.3284 63.5978C81.476 57.6937 77.9336 53.5609 73.0627 53.5609ZM69.8155 73.7823C69.2251 73.7823 68.7823 73.7823 68.1919 73.6347C68.0443 71.7159 67.8967 63.4502 67.8967 56.3653C68.6347 56.0701 69.3727 56.0701 70.1107 56.0701C73.2103 56.0701 74.8339 59.6125 74.8339 64.0406C74.9815 69.5018 72.9151 73.7823 69.8155 73.7823ZM24.2066 45.5904H0V46.7712L1.32841 46.9188C3.24723 47.214 3.83764 48.3948 4.13284 50.9041C4.42804 57.1033 4.42804 63.155 4.13284 69.3542C3.98524 72.0111 3.24723 73.0443 1.32841 73.3395L0 73.4871V74.6679H15.6458V73.4871L14.0221 73.3395C12.1033 73.0443 11.5129 71.8635 11.2177 69.3542C11.0701 67.583 10.9225 64.631 10.9225 61.0886L14.1697 61.2362C16.3838 61.2362 17.2694 62.8598 17.7122 65.2214H18.893V55.3321H17.7122C17.1218 57.6937 16.2362 59.3173 14.1697 59.3173L10.9225 59.4649C10.9225 54.8893 10.9225 50.3137 11.2177 47.6568H15.941C19.631 47.6568 21.6974 50.0185 22.8782 54.2989L24.3542 53.8561L24.2066 45.5904ZM32.1771 53.4133C39.1144 53.4133 42.5092 58.1365 42.5092 64.3358C42.5092 70.3875 38.6716 75.2583 31.7343 75.2583C24.797 75.2583 21.4022 70.5351 21.4022 64.3358C21.4022 58.2841 25.2399 53.4133 32.1771 53.4133ZM31.7343 54.7417C28.6347 54.7417 27.8967 58.8745 27.8967 64.3358C27.8967 69.6494 29.2251 73.9299 32.0295 73.9299C35.1292 73.9299 35.8672 69.797 35.8672 64.3358C36.0148 59.0221 34.5387 54.7417 31.7343 54.7417ZM83.0996 64.4834C83.0996 58.7269 86.6421 53.4133 93.7269 53.4133C99.4834 53.4133 102.288 57.6937 102.288 63.3026H89.4465C89.2989 68.4686 91.8081 72.1587 96.8266 72.1587C98.4502 72.3063 100.221 71.7159 101.55 70.6827L102.14 71.4207C98.3026 75.9963 91.5129 76.5867 87.0849 72.7491C84.5756 70.6827 83.0996 67.583 83.0996 64.4834ZM89.5941 61.8266L96.0886 61.679C96.0886 58.8745 95.6458 54.7417 93.2841 54.7417C90.9225 54.7417 89.5941 58.5793 89.5941 61.8266ZM118.819 54.4465C116.9 53.7085 114.686 53.2657 112.62 53.2657C107.454 53.2657 104.354 56.3653 104.354 59.9077C104.354 63.5978 106.716 65.0738 109.963 66.107C113.506 67.4354 114.391 68.321 114.391 69.9446C114.391 71.7159 112.915 73.1919 111.144 73.1919C110.996 73.1919 110.996 73.1919 110.849 73.1919C108.192 73.1919 106.273 71.7159 104.797 67.4354L103.764 67.7306L103.911 73.7823C106.273 74.6679 108.782 75.1107 111.144 75.1107C116.605 75.1107 120 72.4539 120 68.0258C120 65.0738 118.524 63.4502 114.982 62.1218C111.144 60.6458 109.668 59.6125 109.668 57.8413C109.52 56.2177 110.701 54.8893 112.325 54.7417C112.472 54.7417 112.472 54.7417 112.62 54.7417C115.129 54.7417 116.9 56.3653 117.934 59.9077L118.967 59.6125L118.819 54.4465ZM60.369 54.0037C58.0074 52.6753 53.8745 53.2657 51.6605 58.2841L51.8081 53.4133L42.6568 55.1845V56.0701L43.5424 56.2177C44.8708 56.3653 45.3137 57.1033 45.4613 58.8745C45.7565 62.8598 45.7565 66.845 45.4613 70.8303C45.3137 72.6015 44.8708 73.3395 43.5424 73.4871L42.6568 73.6347V74.8155H55.4982V73.6347L53.8745 73.4871C52.5461 73.3395 52.1033 72.6015 51.9557 70.8303C51.6605 67.1402 51.6605 63.4502 51.9557 59.6125C52.5461 58.5793 55.6458 57.8413 58.3026 59.6125L60.369 54.0037ZM94.1697 51.3469C93.4317 51.3469 92.8413 51.0517 92.3985 50.4613L92.9889 49.7232C93.2841 50.1661 93.5793 50.3137 94.1697 50.3137C94.6125 50.3137 95.0554 49.8708 95.0554 49.428V49.2804V45.5904H95.941V49.2804C96.0886 50.3137 95.3506 51.0517 94.4649 51.1993C94.3173 51.3469 94.1697 51.3469 94.1697 51.3469ZM102.288 51.1993H101.255L100.664 49.8708H98.0074L97.417 51.1993H96.3838L98.893 45.5904H99.7786L102.288 51.1993ZM99.3358 46.7712L98.4502 48.9852H100.369L99.3358 46.7712ZM105.24 49.428H104.207V51.1993H103.173V45.5904H105.387C106.421 45.4428 107.306 46.1808 107.454 47.214C107.454 47.3616 107.454 47.3616 107.454 47.5092C107.454 48.5424 106.568 49.428 105.535 49.428C105.387 49.428 105.387 49.428 105.24 49.428ZM105.387 46.476H104.207V48.5424H105.387C105.978 48.69 106.421 48.2472 106.568 47.6568V47.5092C106.568 46.9188 106.125 46.476 105.535 46.476C105.387 46.476 105.387 46.476 105.387 46.476ZM113.21 51.1993H112.177L111.587 49.8708H108.93L108.339 51.1993H107.306L109.815 45.5904H110.701L113.21 51.1993ZM110.258 46.7712L109.373 48.9852H111.292L110.258 46.7712ZM117.786 45.5904H118.672V51.1993H117.786L114.686 47.214V51.1993H113.801V45.5904H114.686L117.638 49.428L117.786 45.5904Z" fill="#333333"/>
</svg>
