<svg width="96" height="18" viewBox="0 0 96 18" fill="none" xmlns="http://www.w3.org/2000/svg">
<path fill-rule="evenodd" clip-rule="evenodd" d="M0 9C0 4.02944 4.02944 0 9 0L87 0C91.9706 0 96 4.02944 96 9V9C96 13.9706 91.9706 18 87 18H9C4.02944 18 0 13.9706 0 9V9Z" fill="url(#paint0_linear_289_604)"/>
<path d="M9 0.9H87C91.4735 0.9 95.1 4.52649 95.1 9C95.1 13.4735 91.4735 17.1 87 17.1H9C4.52649 17.1 0.9 13.4735 0.9 9C0.9 4.52649 4.52649 0.9 9 0.9Z" stroke="#F37D00" stroke-opacity="0.578861" stroke-width="1.8"/>
<path d="M25.7679 6.26786L25.0357 5.72321C24.8571 5.78571 24.5 5.83929 24.1161 5.83929H20.9643C20.6964 5.83929 20.1518 5.8125 19.9107 5.77679V7.04464C20.0982 7.03571 20.5893 6.98214 20.9643 6.98214H23.9911C23.7946 7.61607 23.25 8.5 22.6607 9.16964C21.8214 10.1071 20.4375 11.1964 19 11.7321L19.9196 12.6964C21.1429 12.1161 22.3304 11.1875 23.2768 10.1875C24.1161 11 24.9464 11.9107 25.5268 12.7143L26.5446 11.8304C26.0179 11.1875 24.9375 10.0446 24.0536 9.27679C24.6518 8.47321 25.1518 7.51786 25.4554 6.82143C25.5357 6.64286 25.6964 6.36607 25.7679 6.26786Z" fill="#F37D00"/>
<path d="M33.0776 6.85714C33.0776 6.54464 33.3276 6.28571 33.6401 6.28571C33.9526 6.28571 34.2115 6.54464 34.2115 6.85714C34.2115 7.16964 33.9526 7.41964 33.6401 7.41964C33.3276 7.41964 33.0776 7.16964 33.0776 6.85714ZM32.4883 6.85714C32.4883 7.5 32.9972 8.00893 33.6401 8.00893C34.2829 8.00893 34.8008 7.5 34.8008 6.85714C34.8008 6.21429 34.2829 5.69643 33.6401 5.69643C32.9972 5.69643 32.4883 6.21429 32.4883 6.85714ZM26.9347 9.77679L28.0061 10.8839C28.1669 10.6518 28.3811 10.3393 28.5865 10.0536C28.9436 9.57143 29.5776 8.6875 29.9258 8.24107C30.1847 7.91964 30.3722 7.90179 30.6579 8.1875C30.9794 8.51786 31.774 9.38393 32.2919 10C32.8186 10.6161 33.5776 11.5357 34.1758 12.2768L35.1579 11.2232C34.4704 10.4911 33.5597 9.5 32.9615 8.86607C32.4258 8.28571 31.7383 7.57143 31.1401 7.00893C30.4436 6.35714 29.9169 6.45536 29.3901 7.08036C28.774 7.8125 28.0776 8.6875 27.6758 9.09821C27.399 9.36607 27.2026 9.5625 26.9347 9.77679Z" fill="#F37D00"/>
<path d="M38.3097 5.25L37.6579 6.23214C38.2472 6.5625 39.1758 7.16964 39.6758 7.51786L40.3454 6.52679C39.8811 6.20536 38.899 5.57143 38.3097 5.25ZM36.649 11.5893L37.3186 12.7679C38.1133 12.625 39.3901 12.1786 40.3008 11.6607C41.7651 10.8214 43.024 9.6875 43.8544 8.45536L43.1669 7.24107C42.4526 8.51786 41.2115 9.74107 39.6936 10.5893C38.7204 11.125 37.649 11.4196 36.649 11.5893ZM36.9347 7.28571L36.2829 8.27679C36.8811 8.58929 37.8097 9.19643 38.3186 9.54464L38.9704 8.54464C38.5151 8.22321 37.5329 7.60714 36.9347 7.28571Z" fill="#F37D00"/>
<path d="M47.3067 6.65179L46.1103 6.9375C46.2085 7.125 46.2978 7.33929 46.3603 7.57143C46.4228 7.76786 46.5032 8.05357 46.5924 8.40179C46.1817 8.48214 45.8603 8.53571 45.7353 8.55357C45.4407 8.60714 45.1996 8.63393 44.9139 8.66071L45.1907 9.73214C45.4585 9.66964 46.1103 9.53571 46.8603 9.375C47.1817 10.5893 47.5478 11.9821 47.6817 12.4643C47.7532 12.7143 47.8157 13.0089 47.8425 13.25L49.0567 12.9464C48.9853 12.7679 48.8692 12.3661 48.8157 12.2143C48.6817 11.75 48.2978 10.375 47.9585 9.14286C48.9228 8.94643 49.8157 8.75893 50.0299 8.72321C49.7889 9.16071 49.1639 9.91964 48.7085 10.3304L49.6907 10.8214C50.3157 10.1518 51.2175 8.8125 51.5925 8.02679L50.8782 7.51786C50.7532 7.58036 50.5835 7.63393 50.4228 7.66071C50.0746 7.74107 48.8246 7.98214 47.6907 8.19643C47.5925 7.84821 47.5121 7.54464 47.4496 7.33036C47.396 7.09821 47.3424 6.85714 47.3067 6.65179Z" fill="#F37D00"/>
<path d="M56.7829 12.125L57.5329 12.7411C57.6133 12.6696 57.7204 12.5804 57.9169 12.4732C58.9169 11.9643 60.2026 11 60.9436 10.0357L60.2561 9.05357C59.6579 9.91964 58.774 10.625 58.0508 10.9375V6.26786C58.0508 5.86607 58.1044 5.51786 58.1133 5.49107H56.7829C56.7919 5.51786 56.8544 5.85714 56.8544 6.25893V11.4643C56.8544 11.7054 56.8186 11.9554 56.7829 12.125ZM52.649 11.9911L53.7383 12.7143C54.4972 12.0357 55.0597 11.1607 55.3276 10.1518C55.5686 9.25 55.5954 7.36607 55.5954 6.3125C55.5954 5.9375 55.649 5.54464 55.6579 5.5H54.3454C54.399 5.72321 54.4258 5.96429 54.4258 6.32143C54.4258 7.40179 54.4169 9.08929 54.1669 9.85714C53.9169 10.6161 53.4347 11.4375 52.649 11.9911Z" fill="#F37D00"/>
<path d="M66.6103 9.76786C66.9764 9.55357 67.3157 9.3125 67.6371 9.03571C67.9585 9.30357 68.3157 9.55357 68.7085 9.76786H66.6103ZM66.6639 11.875V10.6607H68.5299V11.875H66.6639ZM65.2532 9.04464C65.1014 8.83929 64.4317 8.04464 64.1907 7.78571V7.57143H64.9496C65.1817 7.75893 65.4585 8.00893 65.5924 8.15179C65.8157 7.95536 66.0389 7.72321 66.2532 7.46429C66.4496 7.75893 66.6728 8.05357 66.9228 8.33929C66.3424 8.82143 65.6639 9.19643 64.9496 9.46429L65.2532 9.04464ZM68.3603 6.59821C68.1549 6.99107 67.896 7.35714 67.6014 7.6875C67.2889 7.36607 67.0389 7.02679 66.8335 6.6875L66.896 6.59821H68.3603ZM69.0299 5.66071L68.8514 5.69643H67.4139C67.521 5.47321 67.6192 5.25 67.7085 5.02679L66.6996 4.75C66.3782 5.60714 65.8246 6.45536 65.1907 7.07143V6.58929H64.1907V4.75893H63.1907V6.58929H62.021V7.57143H63.1103C62.8603 8.63393 62.3514 9.86607 61.8067 10.5714C61.9674 10.8304 62.1996 11.2411 62.2978 11.5357C62.6371 11.0804 62.9407 10.4196 63.1907 9.70536V13.0893H64.1907V8.97321C64.3871 9.28571 64.5746 9.61607 64.6817 9.83929L64.7621 9.72321C64.9317 9.9375 65.1192 10.2232 65.2175 10.4286C65.3692 10.375 65.521 10.3125 65.6728 10.2411V13.0982H66.6639V12.7857H68.5299V13.0714H69.5567V10.1607L69.7174 10.2232C69.8514 9.96429 70.146 9.54464 70.3603 9.33929C69.5835 9.125 68.9049 8.77679 68.3424 8.34821C68.9317 7.6875 69.396 6.90179 69.6996 5.97321L69.0299 5.66071Z" fill="#F37D00"/>
<path d="M73.277 4.80357C72.8038 6.11607 71.9913 7.40179 71.143 8.21429C71.3305 8.47321 71.652 9.0625 71.768 9.32143C71.9734 9.10714 72.1877 8.86607 72.393 8.60714V13.0804H73.4823V6.94643C73.8127 6.34821 74.0895 5.74107 74.3305 5.14286L73.277 4.80357ZM79.518 6.67857H78.5359V4.85714H77.4288V6.67857H74.027V7.75H77.4288V11.8036C77.4288 12 77.3484 12.0714 77.1252 12.0714C76.9198 12.0804 76.1341 12.0804 75.4466 12.0536C75.6073 12.3304 75.7948 12.8036 75.8573 13.1071C76.8395 13.1161 77.5091 13.0982 77.9466 12.9286C78.3752 12.7679 78.5359 12.4911 78.5359 11.8036V7.75H79.518V6.67857ZM76.5984 10.4554C76.3305 9.91964 75.777 9.04464 75.3752 8.39286L74.4288 8.83036C74.8305 9.50893 75.3573 10.4286 75.5895 10.9732L76.5984 10.4554Z" fill="#F37D00"/>
<path d="M86.768 5.22321H85.4734C85.5091 5.36607 85.5538 5.61607 85.5716 5.83929C85.5895 6.08036 85.5984 6.54464 85.6073 7.04464C85.268 7.05357 84.9198 7.0625 84.5984 7.0625C84.1252 7.0625 83.6877 7.02679 83.2502 6.96429V8.09821C83.6877 8.11607 84.2413 8.14286 84.6252 8.14286C84.9555 8.14286 85.2859 8.13393 85.6252 8.125C85.6252 8.25 85.6252 8.35714 85.6252 8.44643C85.6252 9.95536 85.4823 10.75 84.7948 11.4643C84.5448 11.7411 84.0984 12.0268 83.7591 12.1786L84.7859 12.9911C86.5716 11.8571 86.7323 10.5625 86.7323 8.45536C86.7323 8.36607 86.7323 8.23214 86.7323 8.08036C87.2323 8.05357 87.6966 8.01786 88.0538 7.97321L88.0627 6.8125C87.6966 6.88393 87.2234 6.9375 86.7234 6.97321C86.7234 6.48214 86.7234 6.01786 86.7234 5.83036C86.7323 5.63393 86.7413 5.41964 86.768 5.22321ZM82.3305 5.375L81.0091 5.24107C81.0002 5.46429 80.9913 5.76786 80.9466 6.01786C80.8395 6.74107 80.6609 8.11607 80.6609 9.58036C80.6609 10.6875 80.9734 11.9375 81.1698 12.4732L82.1609 12.375C82.152 12.25 82.143 12.0982 82.143 12.0089C82.143 11.9018 82.1609 11.7054 82.1966 11.5714C82.3038 11.0625 82.5448 10.1607 82.8038 9.39286L82.2502 9.03571C82.0984 9.36607 81.9377 9.79464 81.8216 10.0714C81.5805 8.96429 81.893 7.08929 82.1163 6.09821C82.1609 5.91071 82.2502 5.58929 82.3305 5.375Z" fill="#F37D00"/>
<path fill-rule="evenodd" clip-rule="evenodd" d="M5.57907 8.62451C5.57907 8.62451 5.95635 10.877 6.51863 11.9803C7.08091 13.0835 8.25 13.5407 8.25 13.5407C8.25 13.5407 7.25117 14.0096 6.51863 15.2405C5.78609 16.4713 5.53169 17.6245 5.53169 17.6245C5.53169 17.6245 5.15245 16.458 4.48695 15.2405C3.82145 14.0229 2.25 13.5407 2.25 13.5407C2.25 13.5407 3.8824 13.1245 4.48695 11.9803C5.0915 10.836 5.57907 8.62451 5.57907 8.62451Z" fill="#FFF267"/>
<path fill-rule="evenodd" clip-rule="evenodd" d="M5.51474 10.1909C5.51474 10.1909 5.79991 11.7591 6.22491 12.5273C6.64992 13.2954 7.53358 13.6137 7.53358 13.6137C7.53358 13.6137 6.77861 13.9402 6.22491 14.7971C5.67122 15.654 5.47893 16.4569 5.47893 16.4569C5.47893 16.4569 5.19227 15.6448 4.68925 14.7971C4.18623 13.9494 2.99844 13.6137 2.99844 13.6137C2.99844 13.6137 4.2323 13.3239 4.68925 12.5273C5.14621 11.7306 5.51474 10.1909 5.51474 10.1909Z" fill="#FEC600"/>
<path fill-rule="evenodd" clip-rule="evenodd" d="M5.66479 11.3744H7.85626C7.96169 12.3173 8.89551 12.9353 10.1004 12.9353C11.3129 12.9353 12.1413 12.3252 12.1413 11.4853C12.1413 10.7406 11.6217 10.3285 10.3113 10.0195L8.89551 9.69468C6.89231 9.24305 5.90578 8.17341 5.90578 6.5016C5.90578 4.39401 7.63786 2.99951 10.0628 2.99951C12.5931 2.99951 14.1821 4.37024 14.2198 6.43821H12.0886C12.0133 5.47157 11.2075 4.88525 10.0703 4.88525C8.94822 4.88525 8.19514 5.4478 8.19514 6.29559C8.19514 7.00077 8.7223 7.39693 9.97241 7.69801L11.2903 7.99118C13.4667 8.48242 14.4156 9.46491 14.4156 11.208C14.4156 13.4265 12.7061 14.829 10.0101 14.829C7.39688 14.829 5.73257 13.5216 5.66479 11.3744Z" fill="#F37D00"/>
<path fill-rule="evenodd" clip-rule="evenodd" d="M15.9417 0C15.9417 0 16.3699 2.34633 17.0082 3.49556C17.6465 4.64479 18.9735 5.12099 18.9735 5.12099C18.9735 5.12099 17.8397 5.6095 17.0082 6.89161C16.1767 8.17371 15.8879 9.375 15.8879 9.375C15.8879 9.375 15.4574 8.15988 14.702 6.89161C13.9466 5.62333 12.7485 5.06179 12.7485 5.06179C12.7485 5.06179 14.0158 4.6875 14.702 3.49556C15.3882 2.30362 15.9417 0 15.9417 0Z" fill="#FFF267"/>
<path fill-rule="evenodd" clip-rule="evenodd" d="M15.9073 1.76025C15.9073 1.76025 16.1924 3.32848 16.6175 4.0966C17.0425 4.86471 17.9261 5.18299 17.9261 5.18299C17.9261 5.18299 17.1711 5.5095 16.6175 6.36642C16.0638 7.22335 15.8715 8.02626 15.8715 8.02626C15.8715 8.02626 15.5848 7.21411 15.0818 6.36642C14.5788 5.51874 13.781 5.14342 13.781 5.14342C13.781 5.14342 14.6248 4.89326 15.0818 4.0966C15.5387 3.29993 15.9073 1.76025 15.9073 1.76025Z" fill="#FEC600"/>
<defs>
<linearGradient id="paint0_linear_289_604" x1="0" y1="0" x2="0" y2="18" gradientUnits="userSpaceOnUse">
<stop stop-color="#FFFAA1"/>
<stop offset="1" stop-color="#FFF267"/>
</linearGradient>
</defs>
</svg>
