<svg width="14" height="13" viewBox="0 0 14 13" fill="none" xmlns="http://www.w3.org/2000/svg">
<path fill-rule="evenodd" clip-rule="evenodd" d="M7.47193 0.52776C7.32523 0.059994 6.66295 0.0608031 6.51739 0.528926L5.4296 4.02733C5.36459 4.23641 5.1711 4.37887 4.95215 4.37887H1.45294C0.977325 4.37887 0.770354 4.9803 1.14525 5.27298L3.99618 7.49875C4.15971 7.62642 4.22741 7.8418 4.16634 8.04006L3.09212 11.5274C2.94948 11.9905 3.48297 12.3654 3.87035 12.0743L6.69291 9.95321C6.87061 9.81967 7.11512 9.81948 7.29303 9.95273L10.1263 12.0748C10.5143 12.3655 11.0474 11.9892 10.9035 11.5263L9.82052 8.04126C9.75873 7.84243 9.82662 7.62612 9.99095 7.49826L12.8502 5.27348C13.2259 4.98116 13.0192 4.37887 12.5432 4.37887H9.04691C8.82841 4.37887 8.63521 4.23698 8.56983 4.02849L7.47193 0.52776Z" fill="#F37D00"/>
</svg>
