<svg width="14" height="14" viewBox="0 0 14 14" fill="none" xmlns="http://www.w3.org/2000/svg">
<path fill-rule="evenodd" clip-rule="evenodd" d="M7.47193 1.52776C7.32523 1.05999 6.66295 1.0608 6.51739 1.52893L5.4296 5.02733C5.36459 5.23641 5.1711 5.37887 4.95215 5.37887H1.45294C0.977325 5.37887 0.770354 5.9803 1.14525 6.27298L3.99618 8.49875C4.15971 8.62642 4.22741 8.8418 4.16634 9.04006L3.09212 12.5274C2.94948 12.9905 3.48297 13.3654 3.87035 13.0743L6.69291 10.9532C6.87061 10.8197 7.11512 10.8195 7.29303 10.9527L10.1263 13.0748C10.5143 13.3655 11.0474 12.9892 10.9035 12.5263L9.82052 9.04126C9.75873 8.84243 9.82662 8.62612 9.99095 8.49826L12.8502 6.27348C13.2259 5.98116 13.0192 5.37887 12.5432 5.37887H9.04691C8.82841 5.37887 8.63521 5.23698 8.56983 5.02849L7.47193 1.52776Z" fill="#EAEAEA"/>
<mask id="mask0_289_657" style="mask-type:alpha" maskUnits="userSpaceOnUse" x="0" y="0" width="7" height="14">
<rect width="7" height="14" fill="#D9D9D9"/>
</mask>
<g mask="url(#mask0_289_657)">
<path fill-rule="evenodd" clip-rule="evenodd" d="M7.47193 1.52776C7.32523 1.05999 6.66295 1.0608 6.51739 1.52893L5.4296 5.02733C5.36459 5.23641 5.1711 5.37887 4.95215 5.37887H1.45294C0.977325 5.37887 0.770354 5.9803 1.14525 6.27298L3.99618 8.49875C4.15971 8.62642 4.22741 8.8418 4.16634 9.04006L3.09212 12.5274C2.94948 12.9905 3.48297 13.3654 3.87035 13.0743L6.69291 10.9532C6.87061 10.8197 7.11512 10.8195 7.29303 10.9527L10.1263 13.0748C10.5143 13.3655 11.0474 12.9892 10.9035 12.5263L9.82052 9.04126C9.75873 8.84243 9.82662 8.62612 9.99095 8.49826L12.8502 6.27348C13.2259 5.98116 13.0192 5.37887 12.5432 5.37887H9.04691C8.82841 5.37887 8.63521 5.23698 8.56983 5.02849L7.47193 1.52776Z" fill="#F37D00"/>
</g>
</svg>
