<svg width="40" height="40" viewBox="0 0 40 40" fill="none" xmlns="http://www.w3.org/2000/svg">
<path d="M40 20C40 31.0457 31.0457 40 20 40C8.9543 40 0 31.0457 0 20C0 8.9543 8.9543 0 20 0C31.0457 0 40 8.9543 40 20Z" fill="#F22840"/>
<path fill-rule="evenodd" clip-rule="evenodd" d="M16.3901 15.509C15.8328 14.896 15.878 13.9474 16.491 13.3901C17.104 12.8328 18.0526 12.878 18.6099 13.491L23.5983 18.9783C23.7105 19.0986 23.7994 19.2333 23.8647 19.3766C23.9501 19.5633 23.9948 19.7635 23.9996 19.964C24.0054 20.2049 23.9535 20.4474 23.843 20.669C23.7805 20.7945 23.6995 20.9129 23.6001 21.0198L18.6099 26.509C18.0527 27.122 17.104 27.1672 16.491 26.6099C15.878 26.0527 15.8328 25.104 16.3901 24.491L20.4728 20L16.3901 15.509Z" fill="white"/>
</svg>
