<svg width="8" height="14" viewBox="0 0 8 14" fill="none" xmlns="http://www.w3.org/2000/svg">
<path fill-rule="evenodd" clip-rule="evenodd" d="M0.390101 2.50902C-0.16716 1.89603 -0.121985 0.947361 0.491001 0.3901C1.10399 -0.16716 2.05266 -0.121985 2.60992 0.491001L7.59835 5.97827C7.71051 6.09857 7.79941 6.23334 7.86476 6.37658C7.95013 6.56335 7.99488 6.76348 7.9996 6.96402C8.00542 7.20486 7.95358 7.44735 7.843 7.66902C7.78052 7.79454 7.69949 7.91287 7.60013 8.01981L2.60994 13.509C2.05268 14.122 1.10401 14.1672 0.491022 13.6099C-0.121964 13.0527 -0.167139 12.104 0.390121 11.491L4.47283 7.00002L0.390101 2.50902Z" fill="white"/>
</svg>
