<svg width="200" height="200" viewBox="0 0 200 200" fill="none" xmlns="http://www.w3.org/2000/svg">
<path d="M26.24 105.44V109.328L35.258 103.928V140.918H39.308V99.1762H36.284L26.24 105.44Z" fill="white"/>
<path d="M53.5032 136.274H48.5892L45.5652 145.184H49.2372L53.5032 136.274Z" fill="white"/>
<path d="M53.4847 105.44V109.328L62.5027 103.928V140.918H66.5527V99.1762H63.5287L53.4847 105.44Z" fill="white"/>
<path d="M96.5159 98.3662H91.9259C88.2539 103.334 84.5279 107.6 80.8019 113.378C76.9139 119.318 76.4279 123.854 76.4279 126.986C76.4279 135.356 82.0439 141.512 89.9819 141.512C98.4059 141.512 102.942 134.6 102.942 127.04C102.942 119.48 98.0279 113 90.7379 113C88.6319 113 87.1739 113.486 84.7439 114.188C88.8479 108.41 91.6559 104.576 96.5159 98.3662ZM89.7119 137.732C83.4479 137.57 80.8019 131.9 80.8019 127.148C80.8019 122.018 84.0419 116.564 89.6579 116.564C95.5439 116.564 98.5679 122.18 98.5679 127.04C98.5679 131.846 95.5439 137.894 89.7119 137.732Z" fill="white"/>
<path d="M140.369 131.468V127.742H132.593V99.3382H128.165L110.291 128.066V131.468H128.435V140.918H132.701V131.468H140.369ZM114.611 127.742L128.543 105.116V127.742H114.611Z" fill="white"/>
<path d="M150.632 129.74C154.448 129.74 157.148 126.608 157.148 121.244C157.148 115.916 154.448 112.856 150.632 112.856C146.816 112.856 144.152 115.916 144.152 121.244C144.152 126.608 146.816 129.74 150.632 129.74ZM150.632 126.752C149.084 126.752 147.896 125.168 147.896 121.244C147.896 117.32 149.084 115.844 150.632 115.844C152.18 115.844 153.404 117.32 153.404 121.244C153.404 125.168 152.18 126.752 150.632 126.752ZM151.532 140.504H154.628L169.136 112.856H166.004L151.532 140.504ZM170 140.504C173.78 140.504 176.516 137.336 176.516 132.008C176.516 126.644 173.78 123.584 170 123.584C166.22 123.584 163.52 126.644 163.52 132.008C163.52 137.336 166.22 140.504 170 140.504ZM170 137.48C168.452 137.48 167.228 135.932 167.228 132.008C167.228 128.084 168.452 126.572 170 126.572C171.548 126.572 172.772 128.084 172.772 132.008C172.772 135.932 171.548 137.48 170 137.48Z" fill="white"/>
<path d="M40.96 71.4755H52.14V72.5415H40.96V71.4755ZM47.824 62.6095V64.3255H43.092C43.664 63.8055 44.08 63.2335 44.366 62.6095H47.824ZM39.478 59.7755H42.104C42.104 60.1395 42.052 60.4775 41.948 60.7895H39.114L39.478 59.7755ZM44.938 56.9415H47.824V57.9815H44.938V56.9415ZM53.466 56.9415V57.9815H50.762V56.9415H53.466ZM47.824 60.7895H44.86C44.886 60.4515 44.912 60.1135 44.938 59.7755H47.824V60.7895ZM54.922 62.6095C54.87 62.9995 54.792 63.2335 54.688 63.3635C54.532 63.5455 54.376 63.5455 54.142 63.5455C53.856 63.5715 53.31 63.5455 52.712 63.4675C52.816 63.7015 52.946 64.0135 53.024 64.3255H50.762V62.6095H54.922ZM52.14 67.1075H40.96V66.0935H52.14V67.1075ZM52.14 69.8115H40.96V68.7715H52.14V69.8115ZM55.286 74.3095V65.3395C55.442 65.3395 55.572 65.3135 55.676 65.3135C56.222 65.2875 56.794 65.0795 57.184 64.6895C57.626 64.2215 57.782 63.2855 57.912 61.5955C57.938 61.3095 57.964 60.7895 57.964 60.7895H50.762V59.7755H56.274V55.1215H50.762V54.0035H47.824V55.1215H44.938V54.0035H42.13V55.1215H36.228V56.9415H42.13V57.9815H37.19C36.748 59.5155 36.124 61.3875 35.552 62.6615L38.36 62.8435L38.464 62.6095H40.726C39.66 63.4675 37.788 64.1175 34.564 64.5335C35.032 65.1055 35.76 66.2755 36.02 66.9255C36.722 66.8215 37.346 66.7175 37.944 66.5875V74.3095H41.48C39.66 75.0635 37.008 75.7135 34.59 76.1295C35.24 76.6495 36.332 77.7415 36.826 78.3395C39.478 77.6895 42.78 76.5195 44.938 75.2455L42.884 74.3095H49.826L47.85 75.5315C50.554 76.4155 53.258 77.5075 54.792 78.2875L58.224 76.8055C56.586 76.1035 53.856 75.1155 51.36 74.3095H55.286Z" fill="white"/>
<path d="M75.28 67.7575V64.5595H80.766V67.7575H75.28ZM67.194 67.7575C67.246 66.7955 67.272 65.8595 67.272 65.0275V64.5595H72.16V67.7575H67.194ZM72.16 58.6575V61.6735H67.272V58.6575H72.16ZM80.766 61.6735H75.28V58.6575H80.766V61.6735ZM83.834 55.7195H64.204V65.0015C64.204 68.6415 63.97 73.2695 61.136 76.3895C61.838 76.7535 63.086 77.8195 63.58 78.3915C65.452 76.3635 66.388 73.5035 66.856 70.6695H72.16V77.9235H75.28V70.6695H80.766V74.5695C80.766 75.0375 80.584 75.1935 80.09 75.1935C79.622 75.1935 77.906 75.2195 76.45 75.1415C76.84 75.9475 77.334 77.2735 77.438 78.1055C79.778 78.1315 81.364 78.0795 82.43 77.5595C83.47 77.0915 83.834 76.2595 83.834 74.5955V55.7195Z" fill="white"/>
<path d="M96.132 61.3615C95.846 63.2595 95.43 65.0015 94.884 66.6135C93.766 65.2355 92.57 63.9095 91.452 62.7135L89.242 64.4555C90.672 66.0415 92.206 67.8875 93.584 69.7335C92.258 72.2295 90.464 74.2315 88.046 75.6355C88.696 76.2075 89.762 77.4295 90.126 78.0535C92.31 76.5975 94.078 74.7255 95.456 72.4375C96.21 73.6075 96.808 74.6995 97.224 75.6355L99.694 73.5295C99.096 72.2815 98.16 70.8255 97.016 69.3175C97.952 67.0815 98.654 64.5595 99.148 61.7515L96.132 61.3615ZM99.954 65.9635C101.124 67.7315 102.242 70.0975 102.632 71.6315L105.31 70.2535C104.894 68.7195 103.646 66.4835 102.424 64.7675L99.954 65.9635ZM112.564 59.7495H109.782V53.9775H106.74V59.7495H101.072V57.9815H96.262V54.0035H93.298V57.9815H88.774V60.8415H100.214V62.7135H106.74V74.4135C106.74 74.8295 106.584 74.9595 106.116 74.9595C105.674 74.9595 104.27 74.9855 102.814 74.9075C103.256 75.8435 103.698 77.3255 103.802 78.2355C105.96 78.2355 107.494 78.1055 108.482 77.5595C109.47 77.0655 109.782 76.1555 109.782 74.4135V62.7135H112.564V59.7495Z" fill="white"/>
<path d="M118.362 60.5555C117.66 62.3755 116.438 64.2215 115.034 65.3655C115.71 65.8075 116.854 66.7175 117.374 67.2115C118.882 65.7815 120.364 63.5195 121.222 61.2835L118.362 60.5555ZM127.306 72.7755C126.656 71.9175 125.668 70.9035 124.524 69.8635C125.122 68.6935 125.642 67.4195 126.058 66.0675L126.162 66.3535L128.736 64.9755C128.242 63.6235 126.89 61.6475 125.668 60.2175L123.276 61.4135C124.212 62.6095 125.2 64.1175 125.772 65.3915L123.198 64.8455C122.912 65.8855 122.574 66.8995 122.158 67.8355C121.274 67.1335 120.39 66.4575 119.558 65.8595L117.816 68.0175C118.752 68.7455 119.766 69.5775 120.754 70.4615C119.324 72.6975 117.452 74.4915 115.138 75.7395C115.762 76.3115 116.802 77.5595 117.218 78.2095C119.48 76.7795 121.43 74.8815 122.99 72.5675C123.952 73.5295 124.81 74.4915 125.356 75.2975L127.306 72.7755ZM133.728 59.6715C133.754 57.9555 133.78 56.1615 133.78 54.3155H130.816C130.816 56.1875 130.816 57.9815 130.79 59.6715H128.45V57.2275H123.692V54.1075H120.676V57.2275H115.788V59.9835H128.268V62.6095H130.712C130.452 68.4335 129.516 73.0355 126.058 76.0775C126.76 76.5715 127.774 77.6115 128.242 78.3395C132.168 74.7515 133.286 69.2915 133.624 62.6095H136.12C135.964 70.9815 135.73 74.1535 135.184 74.8555C134.924 75.2195 134.664 75.2975 134.274 75.2975C133.78 75.2975 132.714 75.2715 131.544 75.1935C132.038 76.0255 132.376 77.2215 132.428 78.0795C133.702 78.1055 134.924 78.1315 135.73 77.9755C136.588 77.8455 137.186 77.5595 137.784 76.7015C138.616 75.5315 138.824 71.7355 139.032 61.0495C139.058 60.6595 139.058 59.6715 139.058 59.6715H133.728Z" fill="white"/>
<path d="M148.808 63.4675V61.8035H152.994V63.4675H148.808ZM148.808 57.7475H152.994V59.4115H148.808V57.7475ZM160.404 59.4115H156.27V57.7475H160.404V59.4115ZM160.404 63.4675H156.27V61.8035H160.404V63.4675ZM166.202 70.4095V67.5755H156.27V66.0415H163.81V55.1735H145.558V66.0415H152.994V67.5755H143.036V70.4095H150.732C148.548 72.3595 145.324 74.0755 142.23 74.9855C142.932 75.6355 143.868 76.8315 144.336 77.5595C147.43 76.4155 150.602 74.3875 152.994 71.9955V78.2615H156.27V71.8655C158.688 74.2315 161.86 76.2595 164.876 77.4035C165.318 76.6235 166.254 75.4015 166.956 74.7775C163.992 73.9195 160.82 72.2555 158.532 70.4095H166.202Z" fill="white"/>
</svg>
