<svg width="200" height="200" viewBox="0 0 200 200" fill="none" xmlns="http://www.w3.org/2000/svg">
<path d="M66.3486 49.5559H59.0946V52.2599H77.1386V49.5559H69.5466V47.8659H79.5306V45.0579H69.5466V43.0039H66.3486V45.0579H56.6246V47.8659H66.3486V49.5559ZM79.1926 59.0719V53.5339H56.9626V59.0719H59.9526V56.3159H76.0726V59.0719H79.1926ZM63.0466 57.1219C62.7346 61.1259 62.0846 63.4659 55.9226 64.6619C56.5466 65.3119 57.3266 66.5339 57.6126 67.3399C64.7106 65.6499 65.8546 62.3479 66.2706 57.1219H63.0466ZM73.6286 64.1679C72.6926 64.1679 72.5366 64.0639 72.5366 63.2319V57.1219H69.4166V63.2839C69.4166 66.0659 70.1706 66.9499 73.1866 66.9499H76.5406C78.9846 66.9499 79.7906 65.9879 80.1286 62.2439C79.2966 62.0359 77.9706 61.5679 77.3466 61.0739C77.2426 63.7259 77.0866 64.1679 76.2286 64.1679H73.6286Z" fill="white"/>
<path d="M95.9366 62.8679V53.8719H105.115V50.7259H95.9366V43.2899H92.6086V62.8679H83.3006V65.9879H106.935V62.8679H95.9366Z" fill="white"/>
<path d="M118.895 65.3639C123.601 65.3639 126.331 62.7379 126.331 56.3419V45.7599H122.639V56.6799C122.639 60.6839 121.183 62.0359 118.895 62.0359C116.633 62.0359 115.255 60.6839 115.255 56.6799V45.7599H111.407V56.3419C111.407 62.7379 114.215 65.3639 118.895 65.3639Z" fill="white"/>
<path d="M130.96 64.9999H134.808V58.1619H137.382C141.516 58.1619 144.818 56.1859 144.818 51.7919C144.818 47.2419 141.542 45.7599 137.278 45.7599H130.96V64.9999ZM134.808 55.1199V48.8019H136.992C139.644 48.8019 141.048 49.5559 141.048 51.7919C141.048 54.0019 139.774 55.1199 137.122 55.1199H134.808Z" fill="white"/>
<path d="M51.24 116.44V120.328L60.258 114.928V151.918H64.308V110.176H61.284L51.24 116.44Z" fill="white"/>
<path d="M77.7472 147.274H72.8332V151.918H77.7472V147.274Z" fill="white"/>
<path d="M91.227 129.994C86.475 132.208 84.207 135.88 84.207 140.362C84.207 148.138 90.741 152.512 97.437 152.512C104.943 152.512 110.721 147.544 110.721 140.416C110.721 135.664 108.237 131.83 103.593 129.994C107.967 128.374 109.641 124.918 109.641 121.084C109.641 114.388 104.295 109.636 97.491 109.636C90.687 109.636 85.341 114.334 85.341 121.084C85.341 125.188 87.285 128.482 91.227 129.994ZM97.491 113.308C101.811 113.308 105.213 116.656 105.213 120.814C105.213 125.296 101.649 128.374 97.491 128.374C92.847 128.374 89.769 125.026 89.823 120.922C89.931 116.332 93.279 113.308 97.491 113.308ZM97.437 131.992C102.567 131.992 106.347 135.664 106.347 140.362C106.347 145.492 102.135 148.84 97.491 148.84C92.415 148.84 88.635 145.06 88.635 140.362C88.635 135.34 92.793 131.992 97.437 131.992Z" fill="white"/>
<path d="M124.604 120.616C122.768 125.764 119.672 130.876 116.432 134.116C117.152 135.124 118.304 137.5 118.7 138.544C119.528 137.68 120.356 136.708 121.148 135.664V154.06H125.216V129.328C126.548 126.916 127.736 124.396 128.672 121.912L124.604 120.616ZM144.404 143.836V148.66H134.072V143.836H144.404ZM129.896 154.132H134.072V152.62H144.404V153.952H148.76V139.948H129.896V154.132ZM142.928 127.924C142.568 129.508 141.848 131.596 141.272 133.036L143.18 133.396H134.576L136.484 132.892C136.268 131.56 135.656 129.544 134.9 127.924H142.928ZM145.232 133.396C145.844 132.1 146.528 130.3 147.248 128.428L144.404 127.924H150.236V124.108H141.236V120.544H136.844V124.108H128.276V127.924H133.352L131.012 128.464C131.696 130.012 132.236 131.956 132.452 133.396H126.944V137.32H150.956V133.396H145.232Z" fill="white"/>
<path d="M37.742 83.4316C37.91 83.1376 38.064 82.8436 38.218 82.5356V84.0056H41.438C40.5 85.3496 39.156 86.5256 37.742 87.3096V83.4316ZM46.394 85.0276C45.932 85.5736 45.26 86.2316 44.602 86.7916C44.336 85.9096 44.14 84.9856 43.986 84.0056H47.304V82.4656H43.664V80.3236H41.97V82.4656H38.26C38.554 81.8636 38.82 81.2616 39.058 80.6736L37.518 80.1696C36.762 82.1436 35.516 84.1176 34.228 85.3496C34.508 85.7556 34.942 86.6796 35.096 87.0856C35.46 86.7216 35.824 86.3016 36.174 85.8396V93.1756H37.742V87.6736C38.05 88.0376 38.428 88.5556 38.61 88.8356C39.016 88.5836 39.422 88.3036 39.814 87.9956V91.1316C39.254 91.2436 38.736 91.3276 38.288 91.4116L38.75 92.9936C40.29 92.6576 42.32 92.2096 44.21 91.7476L44.042 90.2496C43.16 90.4456 42.25 90.6416 41.396 90.8096V86.5816C41.844 86.1336 42.25 85.6436 42.628 85.1256C43.3 88.6676 44.42 91.5096 46.702 93.0776C46.982 92.6296 47.5 91.9856 47.892 91.6496C46.646 90.9076 45.75 89.6756 45.106 88.1636C45.904 87.6036 46.828 86.8756 47.64 86.2036L46.394 85.0276Z" fill="white"/>
<path d="M62.41 83.5436V81.9476H55.648C55.83 81.4856 55.984 81.0096 56.124 80.5476L54.346 80.1416C54.192 80.7296 54.01 81.3456 53.772 81.9476H49.978V83.5436H53.072C52.218 85.2236 51.028 86.7496 49.502 87.7436C49.782 88.1636 50.16 88.9196 50.328 89.3816C50.776 89.0736 51.182 88.7516 51.574 88.3876V93.1896H53.254V86.5116C53.94 85.6016 54.5 84.5936 54.99 83.5436H62.41ZM62.606 88.1496H59.316V87.7716C60.226 87.0856 61.164 86.1756 61.864 85.3776L60.828 84.5376L60.478 84.6356H55.158V86.1336H59.092C58.784 86.4416 58.462 86.7496 58.14 87.0016H57.622V88.1496H54.08V89.7036H57.622V91.3976C57.622 91.5796 57.552 91.6216 57.328 91.6356C57.104 91.6496 56.278 91.6496 55.578 91.6076C55.774 92.0696 55.984 92.7276 56.04 93.2176C57.16 93.2176 57.986 93.2036 58.56 92.9516C59.162 92.7136 59.316 92.2796 59.316 91.4396V89.7036H62.606V88.1496Z" fill="white"/>
<path d="M76.018 85.0976H73.512V84.2436H76.018V85.0976ZM76.018 87.1276H73.512V86.2596H76.018V87.1276ZM76.018 89.1576H73.512V88.3036H76.018V89.1576ZM72.154 82.9836V90.4036H77.432V82.9836H75.332C75.416 82.7036 75.5 82.4096 75.584 82.1016H77.656V80.7016H71.874V82.1016H73.932C73.904 82.3956 73.876 82.6896 73.834 82.9836H72.154ZM71.37 80.7016H65.07V82.0736H71.37V80.7016ZM68.332 90.8656H69.172V91.4116H68.332V90.8656ZM68.29 85.8816H69.578C69.494 86.2036 69.368 86.5956 69.242 86.9456H68.472C68.598 86.6376 68.71 86.3156 68.808 86.0076L68.29 85.8816ZM66.792 85.8816H67.618C67.422 86.5536 67.114 87.1836 66.764 87.7436C66.792 87.2676 66.792 86.8056 66.792 86.3996V85.8816ZM69.886 83.9216V84.7476H66.792V83.9216H69.886ZM69.172 88.5136H68.332V87.9676H69.172V88.5136ZM69.172 89.9556H68.332V89.4236H69.172V89.9556ZM71.664 91.4116H70.222V90.8656H71.426V89.9556H70.222V89.4236H71.426V88.5136H70.222V87.9676H71.482V86.9456H70.418L70.838 86.1196L69.956 85.8816H71.37V82.7876H65.406V86.3996C65.406 88.1216 65.35 90.5156 64.594 92.2096C64.916 92.3636 65.532 92.7976 65.77 93.0636C66.33 91.8876 66.596 90.2916 66.708 88.8076C66.876 88.9616 67.044 89.1296 67.142 89.2416L67.17 89.2136V93.0496H68.332V92.4896H71.468C71.748 92.7416 72.056 93.0356 72.252 93.2456C73.078 92.8116 74.058 92.0276 74.674 91.3136L73.358 90.5296C72.994 91.0056 72.322 91.5936 71.664 92.0136V91.4116ZM75.038 91.3276C75.64 91.9016 76.396 92.6996 76.76 93.2316L78.006 92.3916C77.614 91.8736 76.816 91.1036 76.214 90.5856L75.038 91.3276Z" fill="white"/>
<path d="M84.18 88.8496C84.936 88.5836 85.664 88.2616 86.35 87.9116C87.092 88.2756 87.89 88.5976 88.744 88.8496H84.18ZM84.11 91.4116V90.2216H88.772V91.4116H84.11ZM84.782 84.9436H87.89C87.47 85.3776 86.938 85.7836 86.35 86.1476C85.72 85.8116 85.174 85.4196 84.712 84.9996L84.782 84.9436ZM89.304 83.6276L89.024 83.6976H85.972C86.126 83.5016 86.28 83.3056 86.42 83.1096L84.866 82.8016H90.718V84.3556H92.426V81.2896H87.232V80.1556H85.524V81.2896H80.414V84.3556H82.052V82.8016H84.628C83.928 83.8376 82.64 84.8736 80.694 85.6156C81.058 85.8676 81.576 86.4556 81.8 86.8476C82.43 86.5536 82.99 86.2456 83.508 85.9096C83.9 86.2876 84.32 86.6376 84.768 86.9596C83.284 87.6176 81.562 88.0796 79.854 88.3456C80.134 88.6956 80.484 89.3816 80.624 89.8156C81.254 89.6896 81.87 89.5496 82.486 89.3816V93.2176H84.11V92.7836H88.772V93.1896H90.494V89.2976C90.956 89.3816 91.432 89.4656 91.922 89.5356C92.146 89.0596 92.622 88.3176 92.972 87.9256C91.166 87.7436 89.472 87.3936 88.016 86.8756C88.996 86.1476 89.822 85.3076 90.424 84.2996L89.304 83.6276Z" fill="white"/>
<path d="M98.39 80.7716C98.404 81.6396 98.292 82.6476 98.096 83.7116C97.396 83.7676 96.738 83.8096 96.304 83.8236C95.8 83.8376 95.338 83.8656 94.834 83.8236L94.988 85.6996C95.422 85.6296 96.136 85.5316 96.528 85.4896C96.794 85.4476 97.228 85.3916 97.718 85.3356C97.214 87.2256 96.276 89.9976 94.918 91.8176L96.738 92.5456C98.012 90.5016 99.02 87.2396 99.552 85.1396C99.944 85.1116 100.28 85.0836 100.504 85.0836C101.386 85.0836 101.862 85.2376 101.862 86.3436C101.862 87.7156 101.68 89.3676 101.288 90.1376C101.078 90.5996 100.714 90.7396 100.252 90.7396C99.888 90.7396 99.09 90.5996 98.558 90.4456L98.866 92.2796C99.328 92.3916 99.986 92.4756 100.518 92.4756C101.568 92.4756 102.338 92.1676 102.8 91.2016C103.388 89.9976 103.584 87.7856 103.584 86.1476C103.584 84.1596 102.548 83.5016 101.078 83.5016C100.798 83.5016 100.378 83.5296 99.916 83.5576C100.014 83.0536 100.126 82.5496 100.196 82.1296C100.266 81.7796 100.364 81.3456 100.448 80.9816L98.39 80.7716ZM103.556 82.9836C104.55 84.2156 105.544 86.7216 105.908 88.2616L107.658 87.4356C107.238 86.1196 106.076 83.4736 105.236 82.2836L103.556 82.9836Z" fill="white"/>
<path d="M111.956 82.4516C113.034 82.7316 116.128 83.3756 117.528 83.5576L117.948 81.8496C116.73 81.7096 113.72 81.1776 112.404 80.7716L111.956 82.4516ZM112.488 83.5576L110.612 83.3056C110.528 85.0276 110.192 87.7296 109.926 89.0876L111.536 89.4936C111.648 89.2136 111.802 88.9896 112.054 88.6816C112.922 87.6316 114.308 87.0576 115.876 87.0576C117.094 87.0576 117.948 87.7156 117.948 88.6116C117.948 90.3756 115.75 91.3976 111.592 90.8096L112.124 92.6296C117.892 93.1336 119.894 91.1876 119.894 88.6536C119.894 86.9736 118.48 85.4756 116.044 85.4756C114.602 85.4756 113.23 85.8816 111.97 86.7916C112.068 85.9936 112.306 84.3276 112.488 83.5576Z" fill="white"/>
<path d="M125.522 89.4796C125.004 89.4796 124.444 88.7936 124.444 87.3936C124.444 85.8676 125.662 83.8516 127.958 83.3756C127.79 84.5236 127.538 85.7136 127.216 86.7356C126.656 88.6116 126.096 89.4796 125.522 89.4796ZM129.33 92.5736C132.83 92.0416 134.622 89.9696 134.622 87.0576C134.622 84.0336 132.452 81.6396 129.022 81.6396C125.424 81.6396 122.638 84.3836 122.638 87.5756C122.638 89.9136 123.94 91.6076 125.466 91.6076C126.978 91.6076 128.182 89.8996 129.008 87.0996C129.4 85.7976 129.638 84.5096 129.834 83.3336C131.696 83.6556 132.732 85.0836 132.732 87.0016C132.732 89.0176 131.36 90.2916 129.582 90.7116C129.218 90.7956 128.826 90.8656 128.294 90.9356L129.33 92.5736Z" fill="white"/>
<path d="M142.896 83.6836H138.99V85.1396H148.706V83.6836H144.618V82.7736H149.994V81.2616H144.618V80.1556H142.896V81.2616H137.66V82.7736H142.896V83.6836ZM149.812 88.8076V85.8256H137.842V88.8076H139.452V87.3236H148.132V88.8076H149.812ZM141.118 87.7576C140.95 89.9136 140.6 91.1736 137.282 91.8176C137.618 92.1676 138.038 92.8256 138.192 93.2596C142.014 92.3496 142.63 90.5716 142.854 87.7576H141.118ZM146.816 91.5516C146.312 91.5516 146.228 91.4956 146.228 91.0476V87.7576H144.548V91.0756C144.548 92.5736 144.954 93.0496 146.578 93.0496H148.384C149.7 93.0496 150.134 92.5316 150.316 90.5156C149.868 90.4036 149.154 90.1516 148.818 89.8856C148.762 91.3136 148.678 91.5516 148.216 91.5516H146.816Z" fill="white"/>
<path d="M159.388 90.8516V86.0076H164.33V84.3136H159.388V80.3096H157.596V90.8516H152.584V92.5316H165.31V90.8516H159.388Z" fill="white"/>
</svg>
