<svg width="200" height="200" viewBox="0 0 200 200" fill="none" xmlns="http://www.w3.org/2000/svg">
<path d="M114.808 5.71696C120.056 10.4655 127.304 12.4649 134.302 10.9653C145.423 8.59106 156.545 14.9641 159.919 25.8357C162.043 32.5836 167.416 37.9569 174.164 40.0812C184.911 43.5801 191.409 54.7017 189.035 65.6982C187.535 72.696 189.535 79.9438 194.283 85.1921C201.906 93.5645 201.906 106.435 194.283 114.808C189.535 120.056 187.535 127.304 189.035 134.302C191.409 145.423 185.036 156.545 174.164 159.919C167.416 162.043 162.043 167.416 159.919 174.164C156.42 184.911 145.298 191.409 134.302 189.035C127.304 187.535 120.056 189.535 114.808 194.283C106.435 201.906 93.5645 201.906 85.1921 194.283C79.9438 189.535 72.696 187.535 65.6982 189.035C54.5767 191.409 43.4552 185.036 40.0812 174.164C37.9569 167.416 32.5836 162.043 25.8357 159.919C15.089 156.42 8.59106 145.298 10.9653 134.302H10.8404C12.3399 127.304 10.3405 120.056 5.592 114.808H5.71696C-1.90565 106.435 -1.90565 93.5645 5.71696 85.1921C10.4655 79.9438 12.4649 72.696 10.9653 65.6982H10.8404C8.4661 54.5767 14.8391 43.4552 25.7107 40.0812C32.4586 37.9569 37.8319 32.5836 39.9563 25.8357C43.4552 15.089 54.5767 8.59106 65.5733 10.9653C72.5711 12.4649 79.8188 10.4655 85.0672 5.71696C93.4395 -1.90565 106.311 -1.90565 114.683 5.71696H114.808Z" fill="#F32840"/>
</svg>
