<svg width="136" height="136" viewBox="0 0 136 136" fill="none" xmlns="http://www.w3.org/2000/svg">
<rect width="136" height="136" fill="white"/>
<path fill-rule="evenodd" clip-rule="evenodd" d="M85.88 38.5195C84.56 37.04 82.68 36 80.48 36H55.52C53.32 36 51.44 37.04 50.12 38.5195C48.8 40 48 41.9199 48 44V92C48 94.0801 48.8 96 50.12 97.4805C51.44 98.96 53.32 100 55.52 100H80.44C82.64 100 84.52 98.96 85.84 97.4805C87.16 96 87.96 94.0801 87.96 92V80V44C87.96 41.9199 87.16 40 85.84 38.5195H85.88ZM84 80V84H52V88H84V92C84 93 83.56 94.04 82.88 94.7998C82.2 95.5596 81.32 96 80.44 96H55.52C54.64 96 53.8 95.5596 53.08 94.7998C52.4 94.04 51.96 92.96 51.96 92V52H84V80ZM84 48H52V44C52 43 52.44 41.96 53.12 41.2002C53.8 40.4404 54.68 40 55.56 40H80.48C81.36 40 82.2 40.4404 82.92 41.2002C83.6 41.96 84.04 43.04 84.04 44V48H84ZM64 92C64 90.8955 64.8954 90 66 90H70C71.1046 90 72 90.8955 72 92C72 93.1045 71.1046 94 70 94H66C64.8954 94 64 93.1045 64 92ZM70.88 58.8398C70.24 57.0801 68.72 56 66.76 56V56.0801C64.8 56.0801 63.76 57.3203 63.76 57.3203C64.24 57.4004 64.64 57.5996 64.96 57.7998V57.8398C63.64 58.0801 62.72 59.1602 62.48 60.3604H62.52C62.76 60.1602 63.16 60 63.48 59.9199C63.32 60.4404 63.32 61.3604 63.56 61.96C63.8 62.4805 63.88 62.6396 64.28 63.04C64.36 63.1201 64.32 63.2803 64.24 63.2803C63.9939 63.3789 63.7326 63.417 63.5121 63.4316C63.3742 63.4404 63.2523 63.4404 63.16 63.4404C62.72 63.4404 62.16 63.3203 61.88 63.1602C61.84 63.1602 61.72 63.1602 61.72 63.2402C60.68 65.4805 61.68 67.96 63.24 69C63.32 69.04 63.32 68.96 63.32 68.96C63.28 68.3203 63.72 67.5596 64.44 67.3203C65.32 67.04 66.08 67.4805 66.32 67.9199C66.8 68.7998 67.16 70.4805 65.72 71.9199C64.72 72.7998 63.44 74.1201 63.44 76.04C63.44 77.7197 64.88 80.04 67.48 80.04C68.4 80.04 69.08 79.7197 69.52 79.2402C69.76 78.96 69.72 78.5596 69.44 78.3203C69.16 78.0801 68.84 78.1201 68.6 78.3203C68.24 78.5996 67.72 78.8398 67.2 78.8398C66.2 78.8398 65.64 77.9199 65.64 77.3604C65.64 76.8398 65.88 76.4004 66.36 75.9199C67.72 74.7197 68.88 74.2002 70.96 73.2803C72.4 72.5596 73.88 71.1602 73.88 68.7998C73.88 65.96 71.76 64.6396 70.6 64.2002C69.64 63.8398 69.08 63.1602 68.96 62.4805C68.96 62.4004 69 62.3203 69.08 62.3203C69.6 62.2803 69.96 62.2402 70.52 62.2803C71.76 62.3604 72.68 62.6797 73.76 63.5996C73.8 63.6797 73.96 63.6396 73.96 63.5596C74.12 63.2002 74.4 62.7197 74.64 62.4004C74.68 62.3203 74.64 62.2002 74.56 62.2002C72.84 61.6396 71.36 60.1602 70.88 58.8398Z" fill="#333333"/>
</svg>
