<svg width="136" height="136" viewBox="0 0 136 136" fill="none" xmlns="http://www.w3.org/2000/svg">
<rect width="136" height="136" fill="white"/>
<path fill-rule="evenodd" clip-rule="evenodd" d="M86.0863 36.0019C86.5854 36.0235 87.0415 36.2284 87.3833 36.5555C87.5057 36.6726 87.6109 36.8029 87.6979 36.9427C87.8223 37.1424 87.9129 37.3665 87.9611 37.6078L99.9611 97.6077C100.109 98.3457 99.8295 99.104 99.2386 99.5702C98.6477 100.036 97.8452 100.131 97.1618 99.8158L72.7152 88.5328L65.6641 99.1095C65.2041 99.7994 64.3662 100.134 63.5576 99.9506C62.7489 99.7672 62.1373 99.1038 62.0201 98.283L60.2654 86.0001H38.0001C37.1834 86.0001 36.4488 85.5036 36.1443 84.7458C35.8398 83.988 36.0266 83.1212 36.6163 82.5561L84.5961 36.5755C84.6665 36.5061 84.7418 36.4422 84.8215 36.3841C84.9419 36.2962 85.0701 36.2232 85.2035 36.1653C85.475 36.0473 85.7754 35.9884 86.0863 36.0019ZM64.0709 84.3546L65.2396 92.5352L70.1657 85.1459L78.4157 56.8605L64.0709 84.3546ZM74.4024 84.906L95.2676 94.5361L85.6375 46.3856L74.4024 84.906ZM42.9776 82.0001H60.7877L78.5977 47.8641L42.9776 82.0001Z" fill="#333333"/>
</svg>
