<svg width="136" height="136" viewBox="0 0 136 136" fill="none" xmlns="http://www.w3.org/2000/svg">
<rect width="136" height="136" fill="white"/>
<path fill-rule="evenodd" clip-rule="evenodd" d="M43.4132 40.5847C44.1964 40.2099 45.0737 40 46 40H90C90.9263 40 91.8036 40.2099 92.5868 40.5847C92.5865 40.5851 92.5861 40.5854 92.5858 40.5858L68 65.1716L43.4142 40.5858C43.4139 40.5854 43.4135 40.5851 43.4132 40.5847ZM40.5847 43.4132C40.2099 44.1964 40 45.0737 40 46V90C40 93.3137 42.6863 96 46 96H90C93.3137 96 96 93.3137 96 90V46C96 45.0737 95.7901 44.1964 95.4153 43.4132C95.4149 43.4135 95.4146 43.4139 95.4142 43.4142L69.4142 69.4142C68.6332 70.1953 67.3668 70.1953 66.5858 69.4142L40.5858 43.4142C40.5854 43.4139 40.5851 43.4135 40.5847 43.4132ZM46 36C40.4772 36 36 40.4772 36 46V90C36 95.5228 40.4772 100 46 100H90C95.5228 100 100 95.5228 100 90V46C100 40.4772 95.5228 36 90 36H46Z" fill="#060000"/>
</svg>
