<svg width="136" height="136" viewBox="0 0 136 136" fill="none" xmlns="http://www.w3.org/2000/svg">
<rect width="136" height="136" fill="white"/>
<path fill-rule="evenodd" clip-rule="evenodd" d="M40.357 91.646L41.4175 84.2257L47.7802 90.5859L40.357 91.646ZM52.2829 93.9819C52.8401 93.9024 53.3107 93.6004 53.6176 93.1786L87.1753 59.6342C87.2589 59.5734 87.3388 59.5053 87.4142 59.4299C87.4896 59.3545 87.5578 59.2746 87.6186 59.191L95.4121 51.4006C96.1932 50.6199 96.1932 49.3541 95.4121 48.5733L83.4196 36.5856C82.6385 35.8048 81.3722 35.8048 80.5912 36.5856L38.589 78.571C38.2642 78.8957 38.0745 79.3042 38.0198 79.7269L36.0201 93.7193C35.9311 94.3422 36.1407 94.9707 36.5858 95.4157C37.0309 95.8607 37.6597 96.0701 38.2829 95.9812L52.2829 93.9819ZM85.9827 55.1717L91.1695 49.987L82.0054 40.8265L76.8186 46.0112L85.9827 55.1717ZM73.9902 48.8385L42.8317 79.9847L51.9958 89.1452L83.1543 57.999L73.9902 48.8385ZM36 96.0023H100V100.002H36V96.0023Z" fill="#060000"/>
</svg>
