<svg width="26" height="20" viewBox="0 0 26 20" fill="none" xmlns="http://www.w3.org/2000/svg">
<path d="M8 0C6.48 1.76 4.88 4 3.36 6.16C0.879999 9.52 0 11.36 0 14.08C0 17.68 2.24 19.76 5.44 19.76C8.08 19.76 10.24 17.76 10.24 14.96C10.24 12.88 9.2 11.36 7.12 10.56C6.08 10.16 5.92 9.68 5.92 9.04C5.92 8.4 6 7.84 6.64 6.72C7.84 4.56 9.68 1.68 10.8 0H8ZM23.2 0C21.68 1.76 20.08 4 18.56 6.16C16.08 9.52 15.2 11.36 15.2 14.08C15.2 17.68 17.44 19.76 20.64 19.76C23.28 19.76 25.44 17.76 25.44 14.96C25.44 12.88 24.4 11.36 22.32 10.56C21.28 10.16 21.12 9.68 21.12 9.04C21.12 8.4 21.2 7.84 21.84 6.72C23.04 4.56 24.88 1.68 26 0H23.2Z" fill="#E0E7ED"/>
</svg>
