<svg width="26" height="20" viewBox="0 0 26 20" fill="none" xmlns="http://www.w3.org/2000/svg">
<path d="M18 19.76C19.52 18 21.12 15.76 22.64 13.6C25.12 10.24 26 8.4 26 5.68C26 2.08 23.76 0 20.56 0C17.92 0 15.76 2 15.76 4.8C15.76 6.88 16.8 8.4 18.88 9.2C19.92 9.6 20.08 10.08 20.08 10.72C20.08 11.36 20 11.92 19.36 13.04C18.16 15.2 16.32 18.08 15.2 19.76H18ZM2.8 19.76C4.32 18 5.92 15.76 7.44 13.6C9.92 10.24 10.8 8.4 10.8 5.68C10.8 2.08 8.56 0 5.36 0C2.72 0 0.56 2 0.56 4.8C0.56 6.88 1.6 8.4 3.68 9.2C4.72 9.6 4.88 10.08 4.88 10.72C4.88 11.36 4.8 11.92 4.16 13.04C2.96 15.2 1.12 18.08 0 19.76H2.8Z" fill="#E0E7ED"/>
</svg>
