<svg width="207" height="64" viewBox="0 0 207 64" fill="none" xmlns="http://www.w3.org/2000/svg">
<path d="M119.877 43.8448C119.777 43.8098 119.657 43.7848 119.522 43.7598C119.387 43.7398 119.252 43.7248 119.117 43.7248C118.857 43.7248 118.652 43.7698 118.497 43.8598C118.337 43.9498 118.217 44.0698 118.127 44.2198C118.037 44.3698 117.977 44.5448 117.942 44.7348C117.907 44.9248 117.892 45.1148 117.892 45.3048V46.1448H119.757V48.1948H117.892V54.5198H115.132V48.1998H113.602V46.1498H115.132V45.3448C115.132 44.8298 115.187 44.3398 115.302 43.8748C115.412 43.4098 115.607 42.9998 115.882 42.6448C116.157 42.2898 116.527 42.0098 116.992 41.8048C117.457 41.5998 118.037 41.4948 118.732 41.4948C118.967 41.4948 119.202 41.5098 119.432 41.5348C119.662 41.5648 119.872 41.6048 120.062 41.6598L119.877 43.8448Z" fill="white"/>
<path d="M129.122 50.3049C129.122 50.9899 128.997 51.6099 128.752 52.1649C128.507 52.7199 128.167 53.1899 127.742 53.5799C127.317 53.9649 126.822 54.2649 126.262 54.4799C125.702 54.6949 125.102 54.7999 124.462 54.7999C123.832 54.7999 123.237 54.6949 122.672 54.4799C122.107 54.2649 121.612 53.9649 121.192 53.5799C120.772 53.1949 120.437 52.7249 120.192 52.1649C119.947 51.6099 119.822 50.9899 119.822 50.3049C119.822 49.6199 119.947 49.0049 120.192 48.4549C120.437 47.9049 120.772 47.4399 121.192 47.0599C121.612 46.6799 122.107 46.3899 122.672 46.1849C123.237 45.9849 123.837 45.8799 124.462 45.8799C125.102 45.8799 125.702 45.9799 126.262 46.1849C126.822 46.3849 127.317 46.6799 127.742 47.0599C128.167 47.4399 128.507 47.9049 128.752 48.4549C129.002 49.0049 129.122 49.6199 129.122 50.3049ZM126.467 50.3049C126.467 50.0349 126.422 49.7749 126.332 49.5149C126.242 49.2599 126.112 49.0299 125.947 48.8349C125.777 48.6399 125.572 48.4799 125.327 48.3549C125.082 48.2299 124.792 48.1699 124.467 48.1699C124.142 48.1699 123.857 48.2299 123.607 48.3549C123.362 48.4799 123.157 48.6399 122.992 48.8349C122.827 49.0299 122.707 49.2599 122.622 49.5149C122.537 49.7749 122.497 50.0349 122.497 50.3049C122.497 50.5749 122.537 50.8399 122.622 51.0949C122.707 51.3549 122.832 51.5849 123.002 51.7949C123.172 52.0049 123.377 52.1699 123.627 52.2899C123.872 52.4149 124.157 52.4749 124.487 52.4749C124.812 52.4749 125.097 52.4149 125.342 52.2899C125.587 52.1649 125.797 51.9999 125.967 51.7949C126.137 51.5899 126.262 51.3549 126.347 51.0949C126.422 50.8349 126.467 50.5749 126.467 50.3049Z" fill="white"/>
<path d="M135.187 48.4196C135.062 48.3846 134.942 48.3646 134.827 48.3546C134.707 48.3446 134.592 48.3396 134.482 48.3396C134.112 48.3396 133.802 48.4046 133.547 48.5396C133.297 48.6746 133.092 48.8346 132.942 49.0246C132.792 49.2146 132.682 49.4196 132.612 49.6446C132.547 49.8696 132.512 50.0646 132.512 50.2296V54.5246H129.752V46.1596H132.412V47.3696H132.447C132.662 46.9396 132.962 46.5896 133.357 46.3196C133.752 46.0496 134.202 45.9146 134.717 45.9146C134.827 45.9146 134.937 45.9196 135.047 45.9296C135.152 45.9396 135.242 45.9596 135.307 45.9796L135.187 48.4196Z" fill="white"/>
<path d="M149.492 51.0599C149.492 51.7099 149.362 52.2549 149.107 52.6999C148.847 53.1449 148.507 53.4999 148.082 53.7699C147.657 54.0399 147.172 54.2299 146.627 54.3499C146.082 54.4699 145.527 54.5249 144.952 54.5249H140.207V42.6149H144.952C145.412 42.6149 145.882 42.6649 146.367 42.7599C146.847 42.8549 147.287 43.0199 147.677 43.2499C148.072 43.4799 148.387 43.7899 148.637 44.1849C148.882 44.5799 149.007 45.0749 149.007 45.6799C149.007 46.3399 148.827 46.8899 148.467 47.3199C148.107 47.7499 147.637 48.0649 147.052 48.2549V48.2899C147.387 48.3449 147.707 48.4499 148.002 48.5999C148.297 48.7499 148.557 48.9449 148.777 49.1799C148.997 49.4149 149.172 49.6899 149.297 50.0049C149.427 50.3149 149.492 50.6699 149.492 51.0599ZM146.232 46.0649C146.232 45.6599 146.077 45.3649 145.772 45.1799C145.462 44.9949 145.007 44.8999 144.402 44.8999H142.987V47.3549H144.537C145.077 47.3549 145.492 47.2449 145.792 47.0249C146.082 46.8149 146.232 46.4899 146.232 46.0649ZM146.617 50.7899C146.617 50.2949 146.432 49.9549 146.062 49.7649C145.692 49.5749 145.197 49.4799 144.582 49.4799H142.982V52.2049H144.597C144.822 52.2049 145.052 52.1849 145.297 52.1449C145.537 52.1049 145.757 52.0349 145.952 51.9349C146.147 51.8349 146.307 51.6899 146.432 51.5049C146.557 51.3199 146.617 51.0849 146.617 50.7899Z" fill="white"/>
<path d="M156.202 54.5247V53.3647H156.167C156.067 53.5547 155.932 53.7347 155.772 53.9047C155.607 54.0747 155.417 54.2197 155.202 54.3447C154.982 54.4697 154.742 54.5697 154.477 54.6497C154.212 54.7297 153.937 54.7697 153.647 54.7697C153.087 54.7697 152.612 54.6697 152.227 54.4647C151.842 54.2647 151.527 53.9997 151.287 53.6847C151.047 53.3647 150.872 52.9997 150.767 52.5897C150.662 52.1797 150.607 51.7647 150.607 51.3347V46.1497H153.382V50.6897C153.382 50.9247 153.397 51.1497 153.432 51.3647C153.467 51.5797 153.532 51.7697 153.627 51.9347C153.722 52.1047 153.847 52.2347 154.007 52.3297C154.162 52.4247 154.372 52.4747 154.632 52.4747C155.112 52.4747 155.482 52.2947 155.732 51.9347C155.982 51.5747 156.112 51.1547 156.112 50.6747V46.1497H158.872V54.5247H156.202Z" fill="white"/>
<path d="M165.377 48.6197C165.152 48.4047 164.887 48.2297 164.587 48.0797C164.282 47.9347 163.967 47.8597 163.627 47.8597C163.367 47.8597 163.132 47.9097 162.912 48.0097C162.692 48.1097 162.582 48.2847 162.582 48.5297C162.582 48.7647 162.702 48.9347 162.942 49.0347C163.182 49.1347 163.572 49.2497 164.112 49.3697C164.427 49.4347 164.742 49.5347 165.062 49.6547C165.382 49.7797 165.672 49.9397 165.927 50.1447C166.187 50.3447 166.392 50.5947 166.547 50.8847C166.702 51.1746 166.782 51.5247 166.782 51.9297C166.782 52.4547 166.677 52.9047 166.462 53.2647C166.247 53.6297 165.972 53.9247 165.627 54.1497C165.287 54.3747 164.902 54.5346 164.477 54.6397C164.052 54.7396 163.622 54.7897 163.197 54.7897C162.512 54.7897 161.842 54.6797 161.187 54.4597C160.532 54.2396 159.987 53.9197 159.547 53.4947L161.092 51.8646C161.337 52.1346 161.642 52.3597 162.002 52.5397C162.362 52.7197 162.742 52.8096 163.147 52.8096C163.372 52.8096 163.592 52.7547 163.812 52.6497C164.032 52.5447 164.142 52.3547 164.142 52.0847C164.142 51.8247 164.007 51.6347 163.737 51.5147C163.467 51.3897 163.047 51.2646 162.477 51.1296C162.187 51.0646 161.892 50.9747 161.602 50.8597C161.312 50.7497 161.047 50.5947 160.822 50.4047C160.592 50.2147 160.402 49.9797 160.257 49.6997C160.112 49.4197 160.037 49.0847 160.037 48.6897C160.037 48.1847 160.142 47.7547 160.357 47.4047C160.572 47.0547 160.847 46.7647 161.182 46.5397C161.517 46.3147 161.892 46.1497 162.302 46.0447C162.712 45.9397 163.117 45.8847 163.522 45.8847C164.152 45.8847 164.762 45.9847 165.362 46.1797C165.962 46.3747 166.467 46.6697 166.882 47.0647L165.377 48.6197Z" fill="white"/>
<path d="M170.822 43.4751C170.822 43.6901 170.782 43.8851 170.697 44.0701C170.612 44.2551 170.502 44.4151 170.362 44.5501C170.222 44.6851 170.052 44.7901 169.857 44.8701C169.662 44.9501 169.457 44.9901 169.242 44.9901C168.792 44.9901 168.417 44.8401 168.117 44.5451C167.812 44.2501 167.662 43.8901 167.662 43.4751C167.662 43.2751 167.702 43.0801 167.782 42.8951C167.862 42.7101 167.972 42.5501 168.117 42.4151C168.262 42.2801 168.432 42.1701 168.622 42.0851C168.812 42.0001 169.022 41.9601 169.247 41.9601C169.457 41.9601 169.662 42.0001 169.862 42.0801C170.057 42.1601 170.227 42.2651 170.367 42.4001C170.507 42.5351 170.617 42.6951 170.702 42.8801C170.782 43.0601 170.822 43.2601 170.822 43.4751ZM167.862 54.5251V46.1501H170.622V54.5251H167.862Z" fill="white"/>
<path d="M177.747 54.5249V49.9499C177.747 49.7149 177.727 49.4899 177.687 49.2749C177.647 49.0649 177.582 48.8749 177.492 48.7099C177.402 48.5499 177.277 48.4199 177.112 48.3249C176.947 48.2299 176.742 48.1799 176.497 48.1799C176.252 48.1799 176.032 48.2299 175.852 48.3249C175.667 48.4199 175.512 48.5499 175.387 48.7199C175.262 48.8899 175.172 49.0799 175.107 49.2999C175.047 49.5199 175.012 49.7449 175.012 49.9799V54.5199H172.237V46.1499H174.912V47.3099H174.947C175.047 47.1299 175.182 46.9549 175.342 46.7799C175.507 46.6049 175.697 46.4599 175.912 46.3349C176.132 46.2099 176.367 46.1099 176.627 46.0299C176.887 45.9499 177.157 45.9099 177.452 45.9099C178.012 45.9099 178.487 46.0099 178.882 46.2149C179.277 46.4149 179.592 46.6799 179.832 46.9949C180.072 47.3149 180.247 47.6799 180.352 48.0949C180.457 48.5099 180.512 48.9249 180.512 49.3399V54.5199H177.747V54.5249Z" fill="white"/>
<path d="M190.357 50.44C190.357 50.55 190.357 50.665 190.357 50.775C190.357 50.885 190.352 50.995 190.342 51.095H184.267C184.287 51.33 184.362 51.545 184.477 51.735C184.597 51.925 184.747 52.09 184.932 52.23C185.117 52.37 185.322 52.48 185.552 52.56C185.782 52.64 186.022 52.68 186.267 52.68C186.707 52.68 187.072 52.6 187.377 52.435C187.682 52.275 187.927 52.065 188.117 51.805L190.037 53.015C189.642 53.585 189.127 54.025 188.482 54.335C187.837 54.645 187.087 54.8 186.237 54.8C185.607 54.8 185.017 54.7 184.452 54.505C183.887 54.31 183.402 54.025 182.982 53.645C182.562 53.27 182.232 52.805 181.992 52.255C181.752 51.705 181.632 51.075 181.632 50.37C181.632 49.685 181.752 49.065 181.987 48.51C182.222 47.955 182.542 47.485 182.947 47.095C183.352 46.71 183.827 46.41 184.377 46.195C184.927 45.98 185.522 45.875 186.162 45.875C186.777 45.875 187.347 45.98 187.862 46.185C188.377 46.395 188.822 46.695 189.192 47.085C189.562 47.48 189.852 47.955 190.057 48.515C190.262 49.075 190.357 49.72 190.357 50.44ZM187.817 49.38C187.817 48.94 187.682 48.565 187.407 48.255C187.132 47.94 186.722 47.785 186.172 47.785C185.902 47.785 185.657 47.825 185.432 47.91C185.207 47.995 185.012 48.11 184.842 48.255C184.672 48.4 184.537 48.57 184.437 48.77C184.337 48.965 184.282 49.17 184.267 49.385H187.817V49.38Z" fill="white"/>
<path d="M196.442 48.6197C196.217 48.4047 195.952 48.2297 195.652 48.0797C195.347 47.9347 195.032 47.8597 194.692 47.8597C194.432 47.8597 194.197 47.9097 193.977 48.0097C193.757 48.1097 193.647 48.2847 193.647 48.5297C193.647 48.7647 193.767 48.9347 194.007 49.0347C194.247 49.1347 194.637 49.2497 195.177 49.3697C195.492 49.4347 195.807 49.5347 196.127 49.6547C196.447 49.7797 196.737 49.9397 196.992 50.1447C197.252 50.3447 197.457 50.5947 197.612 50.8847C197.767 51.1746 197.847 51.5247 197.847 51.9297C197.847 52.4547 197.742 52.9047 197.527 53.2647C197.312 53.6297 197.037 53.9247 196.692 54.1497C196.352 54.3747 195.967 54.5346 195.542 54.6397C195.117 54.7396 194.687 54.7897 194.262 54.7897C193.577 54.7897 192.907 54.6797 192.252 54.4597C191.597 54.2396 191.052 53.9197 190.612 53.4947L192.157 51.8646C192.402 52.1346 192.707 52.3597 193.067 52.5397C193.427 52.7197 193.807 52.8096 194.212 52.8096C194.437 52.8096 194.657 52.7547 194.877 52.6497C195.097 52.5447 195.207 52.3547 195.207 52.0847C195.207 51.8247 195.072 51.6347 194.802 51.5147C194.532 51.3897 194.112 51.2646 193.542 51.1296C193.252 51.0646 192.957 50.9747 192.667 50.8597C192.377 50.7497 192.112 50.5947 191.887 50.4047C191.657 50.2147 191.467 49.9797 191.322 49.6997C191.177 49.4197 191.102 49.0847 191.102 48.6897C191.102 48.1847 191.207 47.7547 191.422 47.4047C191.637 47.0497 191.912 46.7647 192.247 46.5397C192.582 46.3147 192.957 46.1497 193.367 46.0447C193.777 45.9397 194.182 45.8847 194.587 45.8847C195.217 45.8847 195.827 45.9847 196.427 46.1797C197.027 46.3747 197.532 46.6697 197.947 47.0647L196.442 48.6197Z" fill="white"/>
<path d="M203.822 48.6197C203.597 48.4047 203.332 48.2297 203.032 48.0797C202.727 47.9347 202.412 47.8597 202.072 47.8597C201.812 47.8597 201.577 47.9097 201.357 48.0097C201.137 48.1097 201.027 48.2847 201.027 48.5297C201.027 48.7647 201.147 48.9347 201.387 49.0347C201.627 49.1347 202.017 49.2497 202.557 49.3697C202.872 49.4347 203.187 49.5347 203.507 49.6547C203.827 49.7797 204.117 49.9397 204.372 50.1447C204.632 50.3447 204.837 50.5947 204.992 50.8847C205.147 51.1746 205.227 51.5247 205.227 51.9297C205.227 52.4547 205.122 52.9047 204.907 53.2647C204.692 53.6297 204.417 53.9247 204.072 54.1497C203.732 54.3747 203.347 54.5346 202.922 54.6397C202.497 54.7396 202.067 54.7897 201.642 54.7897C200.957 54.7897 200.287 54.6797 199.632 54.4597C198.977 54.2396 198.432 53.9197 197.992 53.4947L199.537 51.8646C199.782 52.1346 200.087 52.3597 200.447 52.5397C200.807 52.7197 201.187 52.8096 201.592 52.8096C201.817 52.8096 202.037 52.7547 202.257 52.6497C202.477 52.5447 202.587 52.3547 202.587 52.0847C202.587 51.8247 202.452 51.6347 202.182 51.5147C201.912 51.3897 201.492 51.2646 200.922 51.1296C200.632 51.0646 200.337 50.9747 200.047 50.8597C199.757 50.7497 199.492 50.5947 199.267 50.4047C199.037 50.2147 198.847 49.9797 198.702 49.6997C198.557 49.4197 198.482 49.0847 198.482 48.6897C198.482 48.1847 198.587 47.7547 198.802 47.4047C199.017 47.0547 199.292 46.7647 199.627 46.5397C199.962 46.3147 200.337 46.1497 200.747 46.0447C201.157 45.9397 201.562 45.8847 201.967 45.8847C202.597 45.8847 203.207 45.9847 203.807 46.1797C204.407 46.3747 204.912 46.6697 205.327 47.0647L203.822 48.6197Z" fill="white"/>
<path d="M61.6867 19.0948C61.2567 18.5498 60.6967 18.1148 60.0017 17.7898C59.3067 17.4698 58.6367 17.3048 57.9917 17.3048C57.6567 17.3048 57.3217 17.3348 56.9817 17.3948C56.6417 17.4548 56.3317 17.5648 56.0567 17.7298C55.7817 17.8948 55.5517 18.1098 55.3667 18.3748C55.1817 18.6398 55.0867 18.9748 55.0867 19.3848C55.0867 19.7348 55.1617 20.0298 55.3067 20.2648C55.4517 20.4998 55.6667 20.7048 55.9517 20.8798C56.2367 21.0548 56.5717 21.2148 56.9617 21.3648C57.3517 21.5098 57.7917 21.6648 58.2817 21.8198C58.9867 22.0548 59.7167 22.3148 60.4817 22.5948C61.2417 22.8798 61.9367 23.2548 62.5617 23.7248C63.1867 24.1948 63.7067 24.7748 64.1167 25.4698C64.5267 26.1648 64.7317 27.0298 64.7317 28.0648C64.7317 29.2548 64.5117 30.2898 64.0717 31.1548C63.6317 32.0248 63.0417 32.7448 62.2967 33.3098C61.5517 33.8748 60.7017 34.2948 59.7467 34.5698C58.7917 34.8448 57.8017 34.9798 56.7867 34.9798C55.3017 34.9798 53.8667 34.7198 52.4767 34.2048C51.0868 33.6848 49.9368 32.9498 49.0168 31.9898L52.3017 28.6498C52.8117 29.2748 53.4767 29.7998 54.3117 30.2198C55.1417 30.6398 55.9667 30.8498 56.7867 30.8498C57.1567 30.8498 57.5217 30.8098 57.8717 30.7348C58.2217 30.6548 58.5317 30.5298 58.7967 30.3548C59.0617 30.1798 59.2717 29.9448 59.4267 29.6498C59.5817 29.3548 59.6617 29.0048 59.6617 28.5948C59.6617 28.2048 59.5617 27.8698 59.3667 27.5998C59.1717 27.3248 58.8917 27.0748 58.5317 26.8548C58.1717 26.6298 57.7217 26.4248 57.1817 26.2398C56.6417 26.0548 56.0317 25.8548 55.3517 25.6398C54.6867 25.4248 54.0368 25.1698 53.4018 24.8798C52.7668 24.5848 52.2017 24.2098 51.7017 23.7498C51.2017 23.2898 50.8017 22.7348 50.5017 22.0798C50.1967 21.4248 50.0468 20.6298 50.0468 19.6898C50.0468 18.5348 50.2817 17.5498 50.7517 16.7298C51.2217 15.9097 51.8368 15.2347 52.5968 14.7047C53.3568 14.1747 54.2167 13.7897 55.1767 13.5447C56.1317 13.2997 57.1017 13.1797 58.0767 13.1797C59.2517 13.1797 60.4467 13.3947 61.6667 13.8247C62.8867 14.2547 63.9567 14.8897 64.8767 15.7297L61.6867 19.0948Z" fill="white"/>
<path d="M74.8017 36.6502C74.5067 37.4102 74.1817 38.0902 73.8217 38.6852C73.4617 39.2802 73.0317 39.7902 72.5317 40.2102C72.0317 40.6302 71.4467 40.9502 70.7717 41.1652C70.0967 41.3802 69.3017 41.4852 68.3817 41.4852C67.9317 41.4852 67.4667 41.4552 66.9917 41.3952C66.5117 41.3352 66.0967 41.2602 65.7467 41.1602L66.2767 37.1152C66.5117 37.1952 66.7717 37.2552 67.0517 37.3052C67.3367 37.3552 67.5917 37.3802 67.8267 37.3802C68.5667 37.3802 69.1067 37.2102 69.4367 36.8652C69.7667 36.5252 70.0517 36.0402 70.2867 35.4152L70.7567 34.2151L64.6617 19.8501H69.9967L73.2517 29.2301H73.3417L76.2417 19.8501H81.3417L74.8017 36.6502Z" fill="white"/>
<path d="M92.3617 34.4551V26.4801C92.3617 26.0701 92.3267 25.6801 92.2567 25.3051C92.1867 24.9351 92.0767 24.6051 91.9217 24.3251C91.7667 24.0401 91.5467 23.8151 91.2617 23.6501C90.9767 23.4851 90.6217 23.4001 90.1917 23.4001C89.7617 23.4001 89.3867 23.4851 89.0617 23.6501C88.7417 23.8151 88.4717 24.0451 88.2567 24.3401C88.0417 24.6351 87.8817 24.9701 87.7717 25.3501C87.6617 25.7301 87.6117 26.1251 87.6117 26.5351V34.4501H82.7767V19.8501H87.4367V21.8751H87.4967C87.6717 21.5651 87.9017 21.2551 88.1867 20.9501C88.4717 20.6451 88.8017 20.3901 89.1817 20.1751C89.5617 19.9601 89.9767 19.7851 90.4267 19.6451C90.8767 19.5101 91.3567 19.4401 91.8617 19.4401C92.8367 19.4401 93.6667 19.6151 94.3517 19.9701C95.0367 20.3201 95.5867 20.7751 96.0067 21.3351C96.4267 21.8901 96.7317 22.5301 96.9167 23.2551C97.1017 23.9801 97.1967 24.7001 97.1967 25.4251V34.4551H92.3617Z" fill="white"/>
<path d="M109.697 24.575C109.422 24.225 109.052 23.94 108.582 23.725C108.112 23.51 107.632 23.405 107.147 23.405C106.637 23.405 106.182 23.51 105.767 23.715C105.357 23.92 105.007 24.195 104.712 24.535C104.417 24.875 104.187 25.275 104.022 25.72C103.857 26.17 103.772 26.65 103.772 27.155C103.772 27.665 103.852 28.14 104.007 28.59C104.162 29.04 104.392 29.435 104.697 29.775C105.002 30.115 105.362 30.385 105.782 30.58C106.202 30.775 106.677 30.875 107.202 30.875C107.692 30.875 108.172 30.785 108.652 30.595C109.132 30.41 109.517 30.14 109.812 29.79L112.477 33.045C111.872 33.63 111.087 34.09 110.132 34.425C109.172 34.755 108.157 34.925 107.082 34.925C105.927 34.925 104.852 34.75 103.852 34.395C102.852 34.045 101.982 33.53 101.247 32.855C100.507 32.18 99.9317 31.365 99.5067 30.405C99.0817 29.45 98.8717 28.365 98.8717 27.15C98.8717 25.96 99.0817 24.885 99.5067 23.925C99.9317 22.97 100.507 22.15 101.247 21.475C101.982 20.8 102.852 20.285 103.852 19.92C104.852 19.56 105.917 19.38 107.052 19.38C107.582 19.38 108.102 19.43 108.622 19.525C109.142 19.625 109.637 19.755 110.117 19.92C110.597 20.085 111.037 20.29 111.437 20.535C111.837 20.78 112.182 21.05 112.477 21.34L109.697 24.575Z" fill="white"/>
<path d="M123.562 34.4549V26.5399C123.562 26.1299 123.532 25.7399 123.472 25.3649C123.412 24.9949 123.302 24.6649 123.137 24.3849C122.972 24.0999 122.752 23.8749 122.477 23.7099C122.202 23.5449 121.852 23.4599 121.422 23.4599C120.582 23.4599 119.937 23.7599 119.487 24.3549C119.037 24.9499 118.812 25.6899 118.812 26.5699V34.4549H114.007V12.2899H118.812V21.6999H118.872C119.202 21.1149 119.732 20.5899 120.457 20.1299C121.182 19.6699 122.052 19.4399 123.067 19.4399C124.062 19.4399 124.897 19.6149 125.572 19.9699C126.247 20.3199 126.792 20.7749 127.212 21.3349C127.632 21.8899 127.932 22.5299 128.122 23.2549C128.307 23.9799 128.402 24.6999 128.402 25.4249V34.4549H123.562Z" fill="white"/>
<path d="M140.282 23.8153C140.067 23.7553 139.857 23.7203 139.652 23.7003C139.447 23.6803 139.247 23.6703 139.052 23.6703C138.407 23.6703 137.867 23.7853 137.427 24.0203C136.987 24.2553 136.637 24.5353 136.372 24.8703C136.107 25.2003 135.917 25.5603 135.802 25.9503C135.687 26.3403 135.627 26.6803 135.627 26.9753V34.4603H130.822V19.8753H135.452V21.9853H135.512C135.882 21.2403 136.412 20.6253 137.097 20.1553C137.782 19.6853 138.572 19.4453 139.472 19.4453C139.667 19.4453 139.857 19.4553 140.042 19.4753C140.227 19.4953 140.377 19.5253 140.497 19.5653L140.282 23.8153Z" fill="white"/>
<path d="M156.677 27.095C156.677 28.285 156.462 29.365 156.032 30.335C155.602 31.3 155.017 32.125 154.272 32.795C153.527 33.47 152.667 33.99 151.692 34.365C150.717 34.735 149.667 34.92 148.557 34.92C147.462 34.92 146.422 34.735 145.437 34.365C144.452 33.995 143.592 33.47 142.857 32.795C142.122 32.12 141.542 31.3 141.112 30.335C140.682 29.37 140.467 28.29 140.467 27.095C140.467 25.905 140.682 24.83 141.112 23.87C141.542 22.915 142.122 22.1 142.857 21.435C143.592 20.77 144.452 20.26 145.437 19.91C146.422 19.56 147.462 19.38 148.557 19.38C149.672 19.38 150.717 19.555 151.692 19.91C152.667 20.26 153.527 20.77 154.272 21.435C155.017 22.1 155.602 22.91 156.032 23.87C156.462 24.83 156.677 25.905 156.677 27.095ZM152.047 27.095C152.047 26.625 151.967 26.165 151.812 25.715C151.657 25.265 151.432 24.87 151.137 24.53C150.842 24.19 150.482 23.91 150.052 23.695C149.622 23.48 149.122 23.375 148.557 23.375C147.992 23.375 147.492 23.485 147.062 23.695C146.632 23.91 146.277 24.19 145.992 24.53C145.707 24.87 145.492 25.27 145.347 25.715C145.202 26.165 145.127 26.625 145.127 27.095C145.127 27.565 145.202 28.025 145.347 28.475C145.492 28.925 145.712 29.33 146.007 29.69C146.302 30.05 146.662 30.34 147.092 30.555C147.522 30.77 148.022 30.875 148.587 30.875C149.152 30.875 149.652 30.77 150.082 30.555C150.512 30.34 150.872 30.05 151.167 29.69C151.462 29.33 151.682 28.925 151.827 28.475C151.972 28.025 152.047 27.565 152.047 27.095Z" fill="white"/>
<path d="M158.767 34.4549V11.6649H163.807V30.0849H171.837V34.4549H158.767Z" fill="white"/>
<path d="M178.737 15.1949C178.737 15.5649 178.662 15.9149 178.517 16.2349C178.372 16.5549 178.177 16.8349 177.932 17.0699C177.687 17.3049 177.392 17.4899 177.052 17.6249C176.712 17.7599 176.352 17.8299 175.982 17.8299C175.202 17.8299 174.547 17.5699 174.017 17.0549C173.487 16.5349 173.227 15.9149 173.227 15.1949C173.227 14.8449 173.297 14.5049 173.432 14.1849C173.567 13.8649 173.762 13.5849 174.017 13.3499C174.272 13.1149 174.562 12.9249 174.897 12.7799C175.227 12.6349 175.592 12.5599 175.982 12.5599C176.352 12.5599 176.712 12.6299 177.052 12.7649C177.392 12.8999 177.687 13.0849 177.932 13.3199C178.177 13.5549 178.372 13.8349 178.517 14.1549C178.662 14.4749 178.737 14.8249 178.737 15.1949ZM173.577 34.4549V19.8549H178.382V34.4549H173.577Z" fill="white"/>
<path d="M190.847 15.8401C190.672 15.7801 190.467 15.7351 190.232 15.6951C189.997 15.6551 189.762 15.6351 189.527 15.6351C189.077 15.6351 188.717 15.7151 188.442 15.8701C188.167 16.0251 187.952 16.2351 187.797 16.5001C187.642 16.7651 187.532 17.0601 187.477 17.3951C187.417 17.7251 187.387 18.0601 187.387 18.3901V19.8551H190.642V23.4301H187.387V34.4501H182.577V23.4301H179.912V19.8551H182.577V18.4501C182.577 17.5501 182.677 16.6951 182.872 15.8851C183.067 15.0751 183.402 14.3601 183.882 13.7451C184.362 13.1301 185.007 12.6401 185.817 12.2801C186.627 11.9201 187.637 11.7401 188.852 11.7401C189.262 11.7401 189.667 11.7651 190.067 11.8151C190.467 11.8651 190.832 11.9351 191.167 12.0351L190.847 15.8401Z" fill="white"/>
<path d="M206.122 27.3301C206.122 27.5251 206.122 27.7201 206.122 27.9151C206.122 28.1101 206.112 28.2951 206.092 28.4701H195.512C195.552 28.8801 195.672 29.25 195.877 29.585C196.082 29.92 196.347 30.2051 196.667 30.4501C196.987 30.6951 197.352 30.8851 197.752 31.0201C198.152 31.1551 198.567 31.225 198.997 31.225C199.757 31.225 200.402 31.0851 200.932 30.8001C201.462 30.515 201.887 30.1501 202.222 29.7001L205.562 31.8101C204.877 32.8051 203.972 33.5751 202.852 34.1101C201.727 34.6501 200.422 34.9151 198.937 34.9151C197.842 34.9151 196.807 34.7451 195.832 34.4001C194.852 34.0601 194.002 33.5601 193.267 32.9051C192.532 32.2501 191.957 31.4451 191.537 30.4851C191.117 29.5301 190.907 28.4351 190.907 27.2001C190.907 26.01 191.112 24.93 191.522 23.96C191.932 22.995 192.487 22.17 193.192 21.5C193.897 20.825 194.727 20.305 195.682 19.93C196.637 19.56 197.677 19.375 198.787 19.375C199.862 19.375 200.847 19.555 201.747 19.915C202.647 20.275 203.417 20.8 204.062 21.485C204.707 22.17 205.212 23 205.572 23.975C205.942 24.965 206.122 26.0801 206.122 27.3301ZM201.697 25.485C201.697 24.725 201.457 24.07 200.977 23.52C200.497 22.975 199.782 22.7 198.822 22.7C198.352 22.7 197.922 22.775 197.532 22.92C197.142 23.065 196.797 23.265 196.507 23.52C196.212 23.775 195.977 24.07 195.802 24.415C195.627 24.755 195.527 25.115 195.507 25.485H201.697Z" fill="white"/>
<path fill-rule="evenodd" clip-rule="evenodd" d="M14.5517 0C19.7617 0 23.7867 2.84 25.5517 7.52C26.8317 11.025 30.7467 15.025 35.4117 16.465C35.6567 16.54 35.7467 16.82 35.5917 17.02C34.9567 17.825 34.2217 19.135 33.8167 20.135C33.7267 20.365 33.4367 20.425 33.2517 20.265C30.3667 17.855 27.9167 17 24.5617 16.705C23.0567 16.585 22.0817 16.625 20.7167 16.845C20.5217 16.875 20.3717 17.065 20.4067 17.26C20.7367 19.055 22.1817 20.91 24.7367 21.83C27.8167 22.995 33.5217 26.57 33.5217 34.12C33.5217 40.42 29.5467 44.165 25.6817 46.045C20.1517 48.445 17.0517 49.85 13.4667 53.045C12.2117 54.28 11.5567 55.53 11.5567 56.91C11.5567 58.405 13.0317 60.88 15.7117 60.88C17.1117 60.88 18.4967 60.275 19.4017 59.48C20.0267 58.93 20.9467 58.88 21.6167 59.38C22.4067 59.98 22.4917 61.125 21.8117 61.85C20.6517 63.09 18.8717 64.005 16.3917 64C9.40675 64 5.64675 57.79 5.58175 53.31C5.50675 48.23 9.04175 44.685 11.7167 42.345C15.5317 38.48 14.5767 34.045 13.3067 31.665C12.6167 30.46 10.6567 29.35 8.33175 30.055C6.40675 30.705 5.24175 32.73 5.37675 34.4C5.38675 34.505 5.27675 34.575 5.19175 34.515C1.01675 31.725 -1.61825 25.12 1.12175 19.195C1.20175 19.015 1.41675 18.94 1.59175 19.025C2.39175 19.415 3.84175 19.79 4.99675 19.79C5.65675 19.79 6.79675 19.79 7.85175 19.37C8.09175 19.275 8.15175 18.96 7.96675 18.78C6.90175 17.76 6.68675 17.3 6.05675 15.885C5.39175 14.305 5.37675 11.87 5.84675 10.445C5.86175 10.39 5.82175 10.345 5.76675 10.355C4.94675 10.52 3.84175 10.995 3.15675 11.49C3.10675 11.53 3.03175 11.48 3.04675 11.42C3.65175 8.185 6.17675 5.39 9.70675 4.71C9.77175 4.7 9.79175 4.62 9.74175 4.58C8.93675 4.03 7.79675 3.465 6.51175 3.285C6.52675 3.285 9.29675 0 14.5517 0Z" fill="white"/>
</svg>
