<svg width="207" height="64" viewBox="0 0 207 64" fill="none" xmlns="http://www.w3.org/2000/svg">
<path d="M119.877 43.8451C119.777 43.8101 119.657 43.7851 119.522 43.7601C119.387 43.7401 119.252 43.7251 119.117 43.7251C118.857 43.7251 118.652 43.7701 118.497 43.8601C118.337 43.9501 118.217 44.0701 118.127 44.2201C118.037 44.3701 117.977 44.5451 117.942 44.7351C117.907 44.9251 117.892 45.1151 117.892 45.3051V46.1451H119.757V48.1951H117.892V54.5201H115.132V48.2001H113.602V46.1501H115.132V45.3451C115.132 44.8301 115.187 44.3401 115.302 43.8751C115.412 43.4101 115.607 43.0001 115.882 42.6451C116.157 42.2901 116.527 42.0101 116.992 41.8051C117.457 41.6001 118.037 41.4951 118.732 41.4951C118.967 41.4951 119.202 41.5101 119.432 41.5351C119.662 41.5651 119.872 41.6051 120.062 41.6601L119.877 43.8451Z" fill="#212226"/>
<path d="M129.122 50.3049C129.122 50.9899 128.997 51.6099 128.752 52.1649C128.507 52.7199 128.167 53.1899 127.742 53.5799C127.317 53.9649 126.822 54.2649 126.262 54.4799C125.702 54.6949 125.102 54.7999 124.462 54.7999C123.832 54.7999 123.237 54.6949 122.672 54.4799C122.107 54.2649 121.612 53.9649 121.192 53.5799C120.772 53.1949 120.437 52.7249 120.192 52.1649C119.947 51.6099 119.822 50.9899 119.822 50.3049C119.822 49.6199 119.947 49.0049 120.192 48.4549C120.437 47.9049 120.772 47.4399 121.192 47.0599C121.612 46.6799 122.107 46.3899 122.672 46.1849C123.237 45.9849 123.837 45.8799 124.462 45.8799C125.102 45.8799 125.702 45.9799 126.262 46.1849C126.822 46.3849 127.317 46.6799 127.742 47.0599C128.167 47.4399 128.507 47.9049 128.752 48.4549C129.002 49.0049 129.122 49.6199 129.122 50.3049ZM126.467 50.3049C126.467 50.0349 126.422 49.7749 126.332 49.5149C126.242 49.2599 126.112 49.0299 125.947 48.8349C125.777 48.6399 125.572 48.4799 125.327 48.3549C125.082 48.2299 124.792 48.1699 124.467 48.1699C124.142 48.1699 123.857 48.2299 123.607 48.3549C123.362 48.4799 123.157 48.6399 122.992 48.8349C122.827 49.0299 122.707 49.2599 122.622 49.5149C122.537 49.7749 122.497 50.0349 122.497 50.3049C122.497 50.5749 122.537 50.8399 122.622 51.0949C122.707 51.3549 122.832 51.5849 123.002 51.7949C123.172 52.0049 123.377 52.1699 123.627 52.2899C123.872 52.4149 124.157 52.4749 124.487 52.4749C124.812 52.4749 125.097 52.4149 125.342 52.2899C125.587 52.1649 125.797 51.9999 125.967 51.7949C126.137 51.5899 126.262 51.3549 126.347 51.0949C126.422 50.8349 126.467 50.5749 126.467 50.3049Z" fill="#212226"/>
<path d="M135.187 48.4199C135.062 48.3849 134.942 48.3649 134.827 48.3549C134.707 48.3449 134.592 48.3399 134.482 48.3399C134.112 48.3399 133.802 48.4049 133.547 48.5399C133.297 48.6749 133.092 48.8349 132.942 49.0249C132.792 49.2149 132.682 49.4199 132.612 49.6449C132.547 49.8699 132.512 50.0649 132.512 50.2299V54.5249H129.752V46.1599H132.412V47.3699H132.447C132.662 46.9399 132.962 46.5899 133.357 46.3199C133.752 46.0499 134.202 45.9149 134.717 45.9149C134.827 45.9149 134.937 45.9199 135.047 45.9299C135.152 45.9399 135.242 45.9599 135.307 45.9799L135.187 48.4199Z" fill="#212226"/>
<path d="M149.492 51.0602C149.492 51.7102 149.362 52.2552 149.107 52.7002C148.847 53.1452 148.507 53.5002 148.082 53.7702C147.657 54.0402 147.172 54.2302 146.627 54.3502C146.082 54.4702 145.527 54.5252 144.952 54.5252H140.207V42.6152H144.952C145.412 42.6152 145.882 42.6652 146.367 42.7602C146.847 42.8552 147.287 43.0202 147.677 43.2502C148.072 43.4802 148.387 43.7902 148.637 44.1852C148.882 44.5802 149.007 45.0752 149.007 45.6802C149.007 46.3402 148.827 46.8902 148.467 47.3202C148.107 47.7502 147.637 48.0652 147.052 48.2552V48.2902C147.387 48.3452 147.707 48.4502 148.002 48.6002C148.297 48.7502 148.557 48.9452 148.777 49.1802C148.997 49.4152 149.172 49.6902 149.297 50.0052C149.427 50.3152 149.492 50.6702 149.492 51.0602ZM146.232 46.0652C146.232 45.6602 146.077 45.3652 145.772 45.1802C145.462 44.9952 145.007 44.9002 144.402 44.9002H142.987V47.3552H144.537C145.077 47.3552 145.492 47.2452 145.792 47.0252C146.082 46.8152 146.232 46.4902 146.232 46.0652ZM146.617 50.7902C146.617 50.2952 146.432 49.9552 146.062 49.7652C145.692 49.5752 145.197 49.4802 144.582 49.4802H142.982V52.2052H144.597C144.822 52.2052 145.052 52.1852 145.297 52.1452C145.537 52.1052 145.757 52.0352 145.952 51.9352C146.147 51.8352 146.307 51.6902 146.432 51.5052C146.557 51.3202 146.617 51.0852 146.617 50.7902Z" fill="#212226"/>
<path d="M156.202 54.5254V53.3654H156.167C156.067 53.5554 155.932 53.7354 155.772 53.9054C155.607 54.0754 155.417 54.2204 155.202 54.3454C154.982 54.4704 154.742 54.5704 154.477 54.6504C154.212 54.7304 153.937 54.7704 153.647 54.7704C153.087 54.7704 152.612 54.6704 152.227 54.4654C151.842 54.2654 151.527 54.0004 151.287 53.6854C151.047 53.3654 150.872 53.0004 150.767 52.5904C150.662 52.1804 150.607 51.7654 150.607 51.3354V46.1504H153.382V50.6904C153.382 50.9254 153.397 51.1504 153.432 51.3654C153.467 51.5804 153.532 51.7704 153.627 51.9354C153.722 52.1054 153.847 52.2354 154.007 52.3304C154.162 52.4254 154.372 52.4754 154.632 52.4754C155.112 52.4754 155.482 52.2954 155.732 51.9354C155.982 51.5754 156.112 51.1554 156.112 50.6754V46.1504H158.872V54.5254H156.202Z" fill="#212226"/>
<path d="M165.377 48.62C165.152 48.405 164.887 48.23 164.587 48.08C164.282 47.935 163.967 47.86 163.627 47.86C163.367 47.86 163.132 47.91 162.912 48.01C162.692 48.11 162.582 48.285 162.582 48.53C162.582 48.765 162.702 48.935 162.942 49.035C163.182 49.135 163.572 49.25 164.112 49.37C164.427 49.435 164.742 49.535 165.062 49.655C165.382 49.78 165.672 49.94 165.927 50.145C166.187 50.345 166.392 50.595 166.547 50.885C166.702 51.175 166.782 51.525 166.782 51.93C166.782 52.455 166.677 52.905 166.462 53.265C166.247 53.63 165.972 53.925 165.627 54.15C165.287 54.375 164.902 54.535 164.477 54.64C164.052 54.74 163.622 54.79 163.197 54.79C162.512 54.79 161.842 54.68 161.187 54.46C160.532 54.24 159.987 53.92 159.547 53.495L161.092 51.865C161.337 52.135 161.642 52.36 162.002 52.54C162.362 52.72 162.742 52.81 163.147 52.81C163.372 52.81 163.592 52.755 163.812 52.65C164.032 52.545 164.142 52.355 164.142 52.085C164.142 51.825 164.007 51.635 163.737 51.515C163.467 51.39 163.047 51.265 162.477 51.13C162.187 51.065 161.892 50.975 161.602 50.86C161.312 50.75 161.047 50.595 160.822 50.405C160.592 50.215 160.402 49.98 160.257 49.7C160.112 49.42 160.037 49.085 160.037 48.69C160.037 48.185 160.142 47.755 160.357 47.405C160.572 47.055 160.847 46.765 161.182 46.54C161.517 46.315 161.892 46.15 162.302 46.045C162.712 45.94 163.117 45.885 163.522 45.885C164.152 45.885 164.762 45.985 165.362 46.18C165.962 46.375 166.467 46.67 166.882 47.065L165.377 48.62Z" fill="#212226"/>
<path d="M170.822 43.4759C170.822 43.6909 170.782 43.8859 170.697 44.0709C170.612 44.2559 170.502 44.4159 170.362 44.5509C170.222 44.6859 170.052 44.7909 169.857 44.8709C169.662 44.9509 169.457 44.9909 169.242 44.9909C168.792 44.9909 168.417 44.8409 168.117 44.5459C167.812 44.2509 167.662 43.8909 167.662 43.4759C167.662 43.2759 167.702 43.0809 167.782 42.8959C167.862 42.7109 167.972 42.5509 168.117 42.4159C168.262 42.2809 168.432 42.1709 168.622 42.0859C168.812 42.0009 169.022 41.9609 169.247 41.9609C169.457 41.9609 169.662 42.0009 169.862 42.0809C170.057 42.1609 170.227 42.2659 170.367 42.4009C170.507 42.5359 170.617 42.6959 170.702 42.8809C170.782 43.0609 170.822 43.2609 170.822 43.4759ZM167.862 54.5259V46.1509H170.622V54.5259H167.862Z" fill="#212226"/>
<path d="M177.747 54.5252V49.9502C177.747 49.7152 177.727 49.4902 177.687 49.2752C177.647 49.0652 177.582 48.8752 177.492 48.7102C177.402 48.5502 177.277 48.4202 177.112 48.3252C176.947 48.2302 176.742 48.1802 176.497 48.1802C176.252 48.1802 176.032 48.2302 175.852 48.3252C175.667 48.4202 175.512 48.5502 175.387 48.7202C175.262 48.8902 175.172 49.0802 175.107 49.3002C175.047 49.5202 175.012 49.7452 175.012 49.9802V54.5202H172.237V46.1502H174.912V47.3102H174.947C175.047 47.1302 175.182 46.9552 175.342 46.7802C175.507 46.6052 175.697 46.4602 175.912 46.3352C176.132 46.2102 176.367 46.1102 176.627 46.0302C176.887 45.9502 177.157 45.9102 177.452 45.9102C178.012 45.9102 178.487 46.0102 178.882 46.2152C179.277 46.4152 179.592 46.6802 179.832 46.9952C180.072 47.3152 180.247 47.6802 180.352 48.0952C180.457 48.5102 180.512 48.9252 180.512 49.3402V54.5202H177.747V54.5252Z" fill="#212226"/>
<path d="M190.357 50.44C190.357 50.55 190.357 50.665 190.357 50.775C190.357 50.885 190.352 50.995 190.342 51.095H184.267C184.287 51.33 184.362 51.545 184.477 51.735C184.597 51.925 184.747 52.09 184.932 52.23C185.117 52.37 185.322 52.48 185.552 52.56C185.782 52.64 186.022 52.68 186.267 52.68C186.707 52.68 187.072 52.6 187.377 52.435C187.682 52.275 187.927 52.065 188.117 51.805L190.037 53.015C189.642 53.585 189.127 54.025 188.482 54.335C187.837 54.645 187.087 54.8 186.237 54.8C185.607 54.8 185.017 54.7 184.452 54.505C183.887 54.31 183.402 54.025 182.982 53.645C182.562 53.27 182.232 52.805 181.992 52.255C181.752 51.705 181.632 51.075 181.632 50.37C181.632 49.685 181.752 49.065 181.987 48.51C182.222 47.955 182.542 47.485 182.947 47.095C183.352 46.71 183.827 46.41 184.377 46.195C184.927 45.98 185.522 45.875 186.162 45.875C186.777 45.875 187.347 45.98 187.862 46.185C188.377 46.395 188.822 46.695 189.192 47.085C189.562 47.48 189.852 47.955 190.057 48.515C190.262 49.075 190.357 49.72 190.357 50.44ZM187.817 49.38C187.817 48.94 187.682 48.565 187.407 48.255C187.132 47.94 186.722 47.785 186.172 47.785C185.902 47.785 185.657 47.825 185.432 47.91C185.207 47.995 185.012 48.11 184.842 48.255C184.672 48.4 184.537 48.57 184.437 48.77C184.337 48.965 184.282 49.17 184.267 49.385H187.817V49.38Z" fill="#212226"/>
<path d="M196.442 48.62C196.217 48.405 195.952 48.23 195.652 48.08C195.347 47.935 195.032 47.86 194.692 47.86C194.432 47.86 194.197 47.91 193.977 48.01C193.757 48.11 193.647 48.285 193.647 48.53C193.647 48.765 193.767 48.935 194.007 49.035C194.247 49.135 194.637 49.25 195.177 49.37C195.492 49.435 195.807 49.535 196.127 49.655C196.447 49.78 196.737 49.94 196.992 50.145C197.252 50.345 197.457 50.595 197.612 50.885C197.767 51.175 197.847 51.525 197.847 51.93C197.847 52.455 197.742 52.905 197.527 53.265C197.312 53.63 197.037 53.925 196.692 54.15C196.352 54.375 195.967 54.535 195.542 54.64C195.117 54.74 194.687 54.79 194.262 54.79C193.577 54.79 192.907 54.68 192.252 54.46C191.597 54.24 191.052 53.92 190.612 53.495L192.157 51.865C192.402 52.135 192.707 52.36 193.067 52.54C193.427 52.72 193.807 52.81 194.212 52.81C194.437 52.81 194.657 52.755 194.877 52.65C195.097 52.545 195.207 52.355 195.207 52.085C195.207 51.825 195.072 51.635 194.802 51.515C194.532 51.39 194.112 51.265 193.542 51.13C193.252 51.065 192.957 50.975 192.667 50.86C192.377 50.75 192.112 50.595 191.887 50.405C191.657 50.215 191.467 49.98 191.322 49.7C191.177 49.42 191.102 49.085 191.102 48.69C191.102 48.185 191.207 47.755 191.422 47.405C191.637 47.05 191.912 46.765 192.247 46.54C192.582 46.315 192.957 46.15 193.367 46.045C193.777 45.94 194.182 45.885 194.587 45.885C195.217 45.885 195.827 45.985 196.427 46.18C197.027 46.375 197.532 46.67 197.947 47.065L196.442 48.62Z" fill="#212226"/>
<path d="M203.822 48.62C203.597 48.405 203.332 48.23 203.032 48.08C202.727 47.935 202.412 47.86 202.072 47.86C201.812 47.86 201.577 47.91 201.357 48.01C201.137 48.11 201.027 48.285 201.027 48.53C201.027 48.765 201.147 48.935 201.387 49.035C201.627 49.135 202.017 49.25 202.557 49.37C202.872 49.435 203.187 49.535 203.507 49.655C203.827 49.78 204.117 49.94 204.372 50.145C204.632 50.345 204.837 50.595 204.992 50.885C205.147 51.175 205.227 51.525 205.227 51.93C205.227 52.455 205.122 52.905 204.907 53.265C204.692 53.63 204.417 53.925 204.072 54.15C203.732 54.375 203.347 54.535 202.922 54.64C202.497 54.74 202.067 54.79 201.642 54.79C200.957 54.79 200.287 54.68 199.632 54.46C198.977 54.24 198.432 53.92 197.992 53.495L199.537 51.865C199.782 52.135 200.087 52.36 200.447 52.54C200.807 52.72 201.187 52.81 201.592 52.81C201.817 52.81 202.037 52.755 202.257 52.65C202.477 52.545 202.587 52.355 202.587 52.085C202.587 51.825 202.452 51.635 202.182 51.515C201.912 51.39 201.492 51.265 200.922 51.13C200.632 51.065 200.337 50.975 200.047 50.86C199.757 50.75 199.492 50.595 199.267 50.405C199.037 50.215 198.847 49.98 198.702 49.7C198.557 49.42 198.482 49.085 198.482 48.69C198.482 48.185 198.587 47.755 198.802 47.405C199.017 47.055 199.292 46.765 199.627 46.54C199.962 46.315 200.337 46.15 200.747 46.045C201.157 45.94 201.562 45.885 201.967 45.885C202.597 45.885 203.207 45.985 203.807 46.18C204.407 46.375 204.912 46.67 205.327 47.065L203.822 48.62Z" fill="#212226"/>
<path d="M61.6867 19.0948C61.2567 18.5498 60.6967 18.1148 60.0017 17.7898C59.3067 17.4698 58.6367 17.3048 57.9917 17.3048C57.6567 17.3048 57.3217 17.3348 56.9817 17.3948C56.6417 17.4548 56.3317 17.5648 56.0567 17.7298C55.7817 17.8948 55.5517 18.1098 55.3667 18.3748C55.1817 18.6398 55.0867 18.9748 55.0867 19.3848C55.0867 19.7348 55.1617 20.0298 55.3067 20.2648C55.4517 20.4998 55.6667 20.7048 55.9517 20.8798C56.2367 21.0548 56.5717 21.2148 56.9617 21.3648C57.3517 21.5098 57.7917 21.6648 58.2817 21.8198C58.9867 22.0548 59.7167 22.3148 60.4817 22.5948C61.2417 22.8798 61.9367 23.2548 62.5617 23.7248C63.1867 24.1948 63.7067 24.7748 64.1167 25.4698C64.5267 26.1648 64.7317 27.0298 64.7317 28.0648C64.7317 29.2548 64.5117 30.2898 64.0717 31.1548C63.6317 32.0248 63.0417 32.7448 62.2967 33.3098C61.5517 33.8748 60.7017 34.2948 59.7467 34.5698C58.7917 34.8448 57.8017 34.9798 56.7867 34.9798C55.3017 34.9798 53.8667 34.7198 52.4767 34.2048C51.0868 33.6848 49.9368 32.9498 49.0168 31.9898L52.3017 28.6498C52.8117 29.2748 53.4767 29.7998 54.3117 30.2198C55.1417 30.6398 55.9667 30.8498 56.7867 30.8498C57.1567 30.8498 57.5217 30.8098 57.8717 30.7348C58.2217 30.6548 58.5317 30.5298 58.7967 30.3548C59.0617 30.1798 59.2717 29.9448 59.4267 29.6498C59.5817 29.3548 59.6617 29.0048 59.6617 28.5948C59.6617 28.2048 59.5617 27.8698 59.3667 27.5998C59.1717 27.3248 58.8917 27.0748 58.5317 26.8548C58.1717 26.6298 57.7217 26.4248 57.1817 26.2398C56.6417 26.0548 56.0317 25.8548 55.3517 25.6398C54.6867 25.4248 54.0368 25.1698 53.4018 24.8798C52.7668 24.5848 52.2017 24.2098 51.7017 23.7498C51.2017 23.2898 50.8017 22.7348 50.5017 22.0798C50.1967 21.4248 50.0468 20.6298 50.0468 19.6898C50.0468 18.5348 50.2817 17.5498 50.7517 16.7298C51.2217 15.9097 51.8368 15.2347 52.5968 14.7047C53.3568 14.1747 54.2167 13.7897 55.1767 13.5447C56.1317 13.2997 57.1017 13.1797 58.0767 13.1797C59.2517 13.1797 60.4467 13.3947 61.6667 13.8247C62.8867 14.2547 63.9567 14.8897 64.8767 15.7297L61.6867 19.0948Z" fill="#F32840"/>
<path d="M74.8017 36.6506C74.5067 37.4106 74.1817 38.0906 73.8217 38.6856C73.4617 39.2806 73.0317 39.7906 72.5317 40.2106C72.0317 40.6306 71.4467 40.9506 70.7717 41.1656C70.0967 41.3806 69.3017 41.4856 68.3817 41.4856C67.9317 41.4856 67.4667 41.4556 66.9917 41.3956C66.5117 41.3356 66.0967 41.2606 65.7467 41.1606L66.2767 37.1156C66.5117 37.1956 66.7717 37.2556 67.0517 37.3056C67.3367 37.3556 67.5917 37.3806 67.8267 37.3806C68.5667 37.3806 69.1067 37.2106 69.4367 36.8656C69.7667 36.5256 70.0517 36.0406 70.2867 35.4156L70.7567 34.2156L64.6617 19.8506H69.9967L73.2517 29.2306H73.3417L76.2417 19.8506H81.3417L74.8017 36.6506Z" fill="#F32840"/>
<path d="M92.3617 34.4554V26.4804C92.3617 26.0704 92.3267 25.6804 92.2567 25.3054C92.1867 24.9354 92.0767 24.6054 91.9217 24.3254C91.7667 24.0404 91.5467 23.8154 91.2617 23.6504C90.9767 23.4854 90.6217 23.4004 90.1917 23.4004C89.7617 23.4004 89.3867 23.4854 89.0617 23.6504C88.7417 23.8154 88.4717 24.0454 88.2567 24.3404C88.0417 24.6354 87.8817 24.9704 87.7717 25.3504C87.6617 25.7304 87.6117 26.1254 87.6117 26.5354V34.4504H82.7767V19.8504H87.4367V21.8754H87.4967C87.6717 21.5654 87.9017 21.2554 88.1867 20.9504C88.4717 20.6454 88.8017 20.3904 89.1817 20.1754C89.5617 19.9604 89.9767 19.7854 90.4267 19.6454C90.8767 19.5104 91.3567 19.4404 91.8617 19.4404C92.8367 19.4404 93.6667 19.6154 94.3517 19.9704C95.0367 20.3204 95.5867 20.7754 96.0067 21.3354C96.4267 21.8904 96.7317 22.5304 96.9167 23.2554C97.1017 23.9804 97.1967 24.7004 97.1967 25.4254V34.4554H92.3617Z" fill="#F32840"/>
<path d="M109.697 24.575C109.422 24.225 109.052 23.94 108.582 23.725C108.112 23.51 107.632 23.405 107.147 23.405C106.637 23.405 106.182 23.51 105.767 23.715C105.357 23.92 105.007 24.195 104.712 24.535C104.417 24.875 104.187 25.275 104.022 25.72C103.857 26.17 103.772 26.65 103.772 27.155C103.772 27.665 103.852 28.14 104.007 28.59C104.162 29.04 104.392 29.435 104.697 29.775C105.002 30.115 105.362 30.385 105.782 30.58C106.202 30.775 106.677 30.875 107.202 30.875C107.692 30.875 108.172 30.785 108.652 30.595C109.132 30.41 109.517 30.14 109.812 29.79L112.477 33.045C111.872 33.63 111.087 34.09 110.132 34.425C109.172 34.755 108.157 34.925 107.082 34.925C105.927 34.925 104.852 34.75 103.852 34.395C102.852 34.045 101.982 33.53 101.247 32.855C100.507 32.18 99.9317 31.365 99.5067 30.405C99.0817 29.45 98.8717 28.365 98.8717 27.15C98.8717 25.96 99.0817 24.885 99.5067 23.925C99.9317 22.97 100.507 22.15 101.247 21.475C101.982 20.8 102.852 20.285 103.852 19.92C104.852 19.56 105.917 19.38 107.052 19.38C107.582 19.38 108.102 19.43 108.622 19.525C109.142 19.625 109.637 19.755 110.117 19.92C110.597 20.085 111.037 20.29 111.437 20.535C111.837 20.78 112.182 21.05 112.477 21.34L109.697 24.575Z" fill="#F32840"/>
<path d="M123.562 34.4549V26.5399C123.562 26.1299 123.532 25.7399 123.472 25.3649C123.412 24.9949 123.302 24.6649 123.137 24.3849C122.972 24.0999 122.752 23.8749 122.477 23.7099C122.202 23.5449 121.852 23.4599 121.422 23.4599C120.582 23.4599 119.937 23.7599 119.487 24.3549C119.037 24.9499 118.812 25.6899 118.812 26.5699V34.4549H114.007V12.2899H118.812V21.6999H118.872C119.202 21.1149 119.732 20.5899 120.457 20.1299C121.182 19.6699 122.052 19.4399 123.067 19.4399C124.062 19.4399 124.897 19.6149 125.572 19.9699C126.247 20.3199 126.792 20.7749 127.212 21.3349C127.632 21.8899 127.932 22.5299 128.122 23.2549C128.307 23.9799 128.402 24.6999 128.402 25.4249V34.4549H123.562Z" fill="#F32840"/>
<path d="M140.282 23.8153C140.067 23.7553 139.857 23.7203 139.652 23.7003C139.447 23.6803 139.247 23.6703 139.052 23.6703C138.407 23.6703 137.867 23.7853 137.427 24.0203C136.987 24.2553 136.637 24.5353 136.372 24.8703C136.107 25.2003 135.917 25.5603 135.802 25.9503C135.687 26.3403 135.627 26.6803 135.627 26.9753V34.4603H130.822V19.8753H135.452V21.9853H135.512C135.882 21.2403 136.412 20.6253 137.097 20.1553C137.782 19.6853 138.572 19.4453 139.472 19.4453C139.667 19.4453 139.857 19.4553 140.042 19.4753C140.227 19.4953 140.377 19.5253 140.497 19.5653L140.282 23.8153Z" fill="#F32840"/>
<path d="M156.677 27.095C156.677 28.285 156.462 29.365 156.032 30.335C155.602 31.3 155.017 32.125 154.272 32.795C153.527 33.47 152.667 33.99 151.692 34.365C150.717 34.735 149.667 34.92 148.557 34.92C147.462 34.92 146.422 34.735 145.437 34.365C144.452 33.995 143.592 33.47 142.857 32.795C142.122 32.12 141.542 31.3 141.112 30.335C140.682 29.37 140.467 28.29 140.467 27.095C140.467 25.905 140.682 24.83 141.112 23.87C141.542 22.915 142.122 22.1 142.857 21.435C143.592 20.77 144.452 20.26 145.437 19.91C146.422 19.56 147.462 19.38 148.557 19.38C149.672 19.38 150.717 19.555 151.692 19.91C152.667 20.26 153.527 20.77 154.272 21.435C155.017 22.1 155.602 22.91 156.032 23.87C156.462 24.83 156.677 25.905 156.677 27.095ZM152.047 27.095C152.047 26.625 151.967 26.165 151.812 25.715C151.657 25.265 151.432 24.87 151.137 24.53C150.842 24.19 150.482 23.91 150.052 23.695C149.622 23.48 149.122 23.375 148.557 23.375C147.992 23.375 147.492 23.485 147.062 23.695C146.632 23.91 146.277 24.19 145.992 24.53C145.707 24.87 145.492 25.27 145.347 25.715C145.202 26.165 145.127 26.625 145.127 27.095C145.127 27.565 145.202 28.025 145.347 28.475C145.492 28.925 145.712 29.33 146.007 29.69C146.302 30.05 146.662 30.34 147.092 30.555C147.522 30.77 148.022 30.875 148.587 30.875C149.152 30.875 149.652 30.77 150.082 30.555C150.512 30.34 150.872 30.05 151.167 29.69C151.462 29.33 151.682 28.925 151.827 28.475C151.972 28.025 152.047 27.565 152.047 27.095Z" fill="#F32840"/>
<path d="M158.767 34.4549V11.6649H163.807V30.0849H171.837V34.4549H158.767Z" fill="#F32840"/>
<path d="M178.737 15.1946C178.737 15.5646 178.662 15.9146 178.517 16.2346C178.372 16.5546 178.177 16.8346 177.932 17.0696C177.687 17.3046 177.392 17.4896 177.052 17.6246C176.712 17.7596 176.352 17.8296 175.982 17.8296C175.202 17.8296 174.547 17.5696 174.017 17.0546C173.487 16.5346 173.227 15.9146 173.227 15.1946C173.227 14.8446 173.297 14.5046 173.432 14.1846C173.567 13.8646 173.762 13.5846 174.017 13.3496C174.272 13.1146 174.562 12.9246 174.897 12.7796C175.227 12.6346 175.592 12.5596 175.982 12.5596C176.352 12.5596 176.712 12.6296 177.052 12.7646C177.392 12.8996 177.687 13.0846 177.932 13.3196C178.177 13.5546 178.372 13.8346 178.517 14.1546C178.662 14.4746 178.737 14.8246 178.737 15.1946ZM173.577 34.4546V19.8546H178.382V34.4546H173.577Z" fill="#F32840"/>
<path d="M190.847 15.8401C190.672 15.7801 190.467 15.7351 190.232 15.6951C189.997 15.6551 189.762 15.6351 189.527 15.6351C189.077 15.6351 188.717 15.7151 188.442 15.8701C188.167 16.0251 187.952 16.2351 187.797 16.5001C187.642 16.7651 187.532 17.0601 187.477 17.3951C187.417 17.7251 187.387 18.0601 187.387 18.3901V19.8551H190.642V23.4301H187.387V34.4501H182.577V23.4301H179.912V19.8551H182.577V18.4501C182.577 17.5501 182.677 16.6951 182.872 15.8851C183.067 15.0751 183.402 14.3601 183.882 13.7451C184.362 13.1301 185.007 12.6401 185.817 12.2801C186.627 11.9201 187.637 11.7401 188.852 11.7401C189.262 11.7401 189.667 11.7651 190.067 11.8151C190.467 11.8651 190.832 11.9351 191.167 12.0351L190.847 15.8401Z" fill="#F32840"/>
<path d="M206.122 27.3301C206.122 27.5251 206.122 27.7201 206.122 27.9151C206.122 28.1101 206.112 28.2951 206.092 28.4701H195.512C195.552 28.8801 195.672 29.2501 195.877 29.5851C196.082 29.9201 196.347 30.2051 196.667 30.4501C196.987 30.6951 197.352 30.8851 197.752 31.0201C198.152 31.1551 198.567 31.2251 198.997 31.2251C199.757 31.2251 200.402 31.0851 200.932 30.8001C201.462 30.5151 201.887 30.1501 202.222 29.7001L205.562 31.8101C204.877 32.8051 203.972 33.5751 202.852 34.1101C201.727 34.6501 200.422 34.9151 198.937 34.9151C197.842 34.9151 196.807 34.7451 195.832 34.4001C194.852 34.0601 194.002 33.5601 193.267 32.9051C192.532 32.2501 191.957 31.4451 191.537 30.4851C191.117 29.5301 190.907 28.4351 190.907 27.2001C190.907 26.0101 191.112 24.9301 191.522 23.9601C191.932 22.9951 192.487 22.1701 193.192 21.5001C193.897 20.8251 194.727 20.3051 195.682 19.9301C196.637 19.5601 197.677 19.3751 198.787 19.3751C199.862 19.3751 200.847 19.5551 201.747 19.9151C202.647 20.2751 203.417 20.8001 204.062 21.4851C204.707 22.1701 205.212 23.0001 205.572 23.9751C205.942 24.9651 206.122 26.0801 206.122 27.3301ZM201.697 25.4851C201.697 24.7251 201.457 24.0701 200.977 23.5201C200.497 22.9751 199.782 22.7001 198.822 22.7001C198.352 22.7001 197.922 22.7751 197.532 22.9201C197.142 23.0651 196.797 23.2651 196.507 23.5201C196.212 23.7751 195.977 24.0701 195.802 24.4151C195.627 24.7551 195.527 25.1151 195.507 25.4851H201.697Z" fill="#F32840"/>
<path fill-rule="evenodd" clip-rule="evenodd" d="M14.5517 0C19.7617 0 23.7867 2.84 25.5517 7.52C26.8317 11.025 30.7467 15.025 35.4117 16.465C35.6567 16.54 35.7467 16.82 35.5917 17.02C34.9567 17.825 34.2217 19.135 33.8167 20.135C33.7267 20.365 33.4367 20.425 33.2517 20.265C30.3667 17.855 27.9167 17 24.5617 16.705C23.0567 16.585 22.0817 16.625 20.7167 16.845C20.5217 16.875 20.3717 17.065 20.4067 17.26C20.7367 19.055 22.1817 20.91 24.7367 21.83C27.8167 22.995 33.5217 26.57 33.5217 34.12C33.5217 40.42 29.5467 44.165 25.6817 46.045C20.1517 48.445 17.0517 49.85 13.4667 53.045C12.2117 54.28 11.5567 55.53 11.5567 56.91C11.5567 58.405 13.0317 60.88 15.7117 60.88C17.1117 60.88 18.4967 60.275 19.4017 59.48C20.0267 58.93 20.9467 58.88 21.6167 59.38C22.4067 59.98 22.4917 61.125 21.8117 61.85C20.6517 63.09 18.8717 64.005 16.3917 64C9.40675 64 5.64675 57.79 5.58175 53.31C5.50675 48.23 9.04175 44.685 11.7167 42.345C15.5317 38.48 14.5767 34.045 13.3067 31.665C12.6167 30.46 10.6567 29.35 8.33175 30.055C6.40675 30.705 5.24175 32.73 5.37675 34.4C5.38675 34.505 5.27675 34.575 5.19175 34.515C1.01675 31.725 -1.61825 25.12 1.12175 19.195C1.20175 19.015 1.41675 18.94 1.59175 19.025C2.39175 19.415 3.84175 19.79 4.99675 19.79C5.65675 19.79 6.79675 19.79 7.85175 19.37C8.09175 19.275 8.15175 18.96 7.96675 18.78C6.90175 17.76 6.68675 17.3 6.05675 15.885C5.39175 14.305 5.37675 11.87 5.84675 10.445C5.86175 10.39 5.82175 10.345 5.76675 10.355C4.94675 10.52 3.84175 10.995 3.15675 11.49C3.10675 11.53 3.03175 11.48 3.04675 11.42C3.65175 8.185 6.17675 5.39 9.70675 4.71C9.77175 4.7 9.79175 4.62 9.74175 4.58C8.93675 4.03 7.79675 3.465 6.51175 3.285C6.52675 3.285 9.29675 0 14.5517 0Z" fill="#F32840"/>
</svg>
