<svg width="664" height="168" viewBox="0 0 664 168" fill="none" xmlns="http://www.w3.org/2000/svg">
<path fill-rule="evenodd" clip-rule="evenodd" d="M480.743 34.9073C483.779 33.8393 486.702 32.5464 489.456 31.1411C492.435 32.6026 495.639 33.8955 499.068 34.9073H480.743ZM480.462 45.194V40.416H499.181V45.194H480.462ZM483.16 19.2243H495.639C493.953 20.9669 491.817 22.597 489.456 24.0585C486.927 22.7094 484.734 21.1355 482.879 19.4492L483.16 19.2243ZM501.317 13.9404L500.193 14.2215H487.938C488.557 13.4345 489.175 12.6476 489.737 11.8606L483.498 10.624H506.994V16.8634H513.852V4.55313H492.997V0H486.14V4.55313H465.622V16.8634H472.199V10.624H482.542C479.732 14.7836 474.56 18.9433 466.747 21.9225C468.208 22.9343 470.288 25.2952 471.187 26.8691C473.717 25.6886 475.965 24.452 478.045 23.1029C479.619 24.6206 481.305 26.0259 483.104 27.3188C477.146 29.9607 470.232 31.8157 463.374 32.8837C464.498 34.289 465.904 37.0434 466.466 38.7859C468.995 38.28 471.468 37.7179 473.942 37.0434V52.4453H480.462V50.7027H499.181V52.3329H506.095V36.7061C507.95 37.0434 509.861 37.3806 511.828 37.6617C512.728 35.7505 514.639 32.7713 516.044 31.1974C508.793 30.4666 501.991 29.0613 496.145 26.9815C500.08 24.0585 503.397 20.6858 505.814 16.6386L501.317 13.9404ZM105.597 18.1884C102.787 16.1648 95.8729 12.3986 91.8819 10.6561L88.2843 16.1648C92.1067 17.8511 98.4586 21.5049 101.663 24.0906L105.597 18.1884ZM84.6306 9.64428C82.4383 10.3188 79.8526 10.9371 77.1544 11.3868C77.7389 9.17433 78.2613 7.05483 78.6757 5.37369C78.8193 4.79113 78.9499 4.2612 79.0656 3.79828L71.3647 3.01132C71.2522 5.87811 70.6339 9.25079 69.847 12.3424C68.1606 12.4548 66.4743 12.5111 64.8441 12.5111C62.8205 12.5111 59.8413 12.3986 57.4242 12.1176L57.9301 18.6381C60.3472 18.7505 62.5957 18.8067 64.9003 18.8067H64.9005C65.8561 18.8067 66.8116 18.8067 67.7671 18.7505C65.2938 24.7652 60.9093 32.972 56.4124 38.4245L63.214 41.8534C67.7109 35.5015 72.4889 25.8332 75.1308 18.0198C78.8408 17.5139 82.2697 16.7831 84.7992 16.1086L84.6306 9.64428ZM85.9796 40.6168C85.9796 43.596 84.743 45.7882 80.9768 45.7882C77.9414 45.7882 76.1988 44.383 76.1988 42.3031C76.1988 40.3357 78.2787 38.9867 81.4827 38.9867C83.0566 38.9867 84.5181 39.2115 85.9796 39.5488V40.6168ZM85.0803 21.1114C85.1314 22.1351 85.193 23.2986 85.2586 24.539V24.5392L85.2586 24.5398L85.2587 24.5417C85.4092 27.3875 85.5812 30.6379 85.6986 33.5341C84.5181 33.4217 83.2253 33.3093 81.9324 33.3093C74.1752 33.3093 69.6221 37.5252 69.6221 42.9777C69.6221 49.1047 75.0746 52.1963 81.9886 52.1963C89.9144 52.1963 92.725 48.1491 92.725 42.9777V42.4718C95.7604 44.3267 98.2899 46.5752 100.257 48.374L103.967 42.4156C101.157 39.886 97.2219 37.0755 92.444 35.2767C92.2753 32.5223 92.1629 29.8242 92.1067 28.2503C92.0967 27.8125 92.085 27.38 92.0734 26.9515V26.9514V26.9512V26.9511V26.9509V26.9508V26.9507V26.9505V26.9504V26.9503C92.0195 24.9586 91.9679 23.054 92.1067 21.1114H85.0803ZM27.4312 25.8814C24.5082 25.9376 21.9225 26.4435 19.7864 27.118V27.2304C19.7864 30.6593 20.0113 33.6948 20.4048 36.4491C23.1029 33.751 25.5762 30.3783 27.4312 25.8814ZM6.57674 40.2715C6.57674 42.0141 7.3637 42.9697 9.16247 42.9697C10.7364 42.9697 12.6476 42.3513 14.7274 41.1709C14.1091 37.6858 13.6594 33.8634 13.547 30.041C9.38732 32.8516 6.57674 37.1237 6.57674 40.2715ZM29.2862 20.204C29.511 19.0798 29.7359 17.6745 29.7921 16.8875L36.6499 18.4615C36.3688 19.0798 35.9753 20.2602 35.6381 21.3282C42.1024 23.4643 46.3745 28.4671 46.3745 34.9876C46.3745 42.801 41.7089 50.502 28.0495 52.5256L24.3396 46.6796C35.076 45.4992 39.4604 40.1029 39.4604 34.6504C39.4604 31.2777 37.493 28.2985 33.7269 26.837C30.6352 34.4255 26.1945 40.2153 21.9787 43.7004C22.3722 45.1618 22.8218 46.5109 23.2715 47.8599L23.2715 47.86L16.8634 49.7712C16.809 49.6078 16.7512 49.4377 16.6917 49.2626L16.6914 49.262C16.5055 48.7148 16.303 48.1188 16.1327 47.5228C13.4345 48.8719 10.4553 49.7712 7.53234 49.7712C3.4289 49.7712 0 47.2979 0 41.6206C0 34.5379 5.9022 27.0056 13.6594 23.3519C13.828 20.991 13.9967 18.6301 14.2215 16.3816H12.4227C9.99636 16.3816 6.60165 16.2267 4.03915 16.1097L4.03849 16.1097C3.51425 16.0858 3.02486 16.0635 2.58573 16.0444L2.36088 9.58004C4.32828 9.8611 9.21868 10.3108 12.6476 10.3108H14.7836L15.1209 7.33158C15.2333 6.31978 15.3457 4.9707 15.2895 4.01511L22.597 4.18374C22.2035 5.30797 21.9787 6.31978 21.81 7.16295C21.5852 8.06233 21.4166 9.07414 21.2479 10.1422C27.9933 9.91731 34.0079 9.24277 40.135 7.78127L40.1912 14.1894C34.7387 15.2012 27.2626 15.8757 20.4048 16.213C20.2361 17.8431 20.0675 19.5295 20.0113 21.2158C22.6532 20.5975 25.5762 20.204 28.3306 20.204H29.2862ZM10.6882 153.778V144.592H52.6461V153.778H10.6882ZM52.6461 125.777V134.875H10.6882V125.777H52.6461ZM52.6461 106.962V116.061H10.6882V106.962H52.6461ZM33.5663 96.8925C34.9796 93.7125 36.3929 90.2676 37.7179 86.7343L24.998 85.321C24.5564 88.8542 23.5847 93.0942 22.6131 96.8925H0V167.912H10.6882V163.495H52.6461V167.823H63.8643V96.8925H33.5663ZM638.294 140.705C636.158 140.705 634.022 142.167 634.022 145.09C634.022 147.676 636.102 149.249 638.294 149.249C640.599 149.249 642.678 147.507 641.948 142.673C641.161 141.324 639.868 140.705 638.294 140.705ZM653.692 124.897C657.79 124.885 661.767 124.873 663.701 124.91L663.645 131.487C660.273 131.318 655.045 131.206 647.513 131.206C647.569 134.016 647.569 137.052 647.569 139.469C648.974 141.548 649.649 144.247 649.649 147.17C649.649 154.421 645.377 163.64 631.773 167.462L625.871 161.504C631.492 160.323 636.383 158.468 639.474 155.152C638.687 155.32 637.844 155.433 636.945 155.433C632.617 155.433 627.333 152.004 627.333 145.202C627.333 138.907 632.392 134.803 638.463 134.803C639.249 134.803 639.98 134.859 640.655 134.972L640.599 131.262C632.167 131.374 623.566 131.711 616.709 132.105L616.54 125.36C620.608 125.36 626.22 125.244 631.694 125.132L631.697 125.132C634.77 125.069 637.799 125.006 640.486 124.966C640.486 124.292 640.486 123.673 640.43 123.28C640.318 121.481 640.149 119.345 639.924 118.446H648.018C647.867 119.254 647.715 121.743 647.645 122.891L647.625 123.224C647.625 123.284 647.624 123.347 647.622 123.412C647.618 123.563 647.61 123.725 647.601 123.898C647.586 124.201 647.569 124.539 647.569 124.91C649.47 124.91 651.597 124.903 653.692 124.897ZM517.103 126.982C517.103 124.34 516.878 121.642 516.372 119.449L525.366 119.562C524.972 121.923 524.691 124.733 524.635 126.982C524.354 132.94 523.961 145.419 523.961 152.333C523.961 157.954 527.333 159.753 531.605 159.753C540.824 159.753 546.67 154.469 550.661 148.398L555.72 154.638C552.123 159.922 544.253 167.342 531.549 167.342C522.443 167.342 516.541 163.351 516.541 153.851C516.541 149.696 516.714 143.337 516.869 137.686C516.992 133.169 517.103 129.105 517.103 126.982ZM207.958 137.798L212.118 136.056C213.467 138.079 215.547 141.452 216.615 143.701L212.343 145.612C210.937 142.52 209.757 140.328 207.958 137.798ZM214.31 135.381L218.413 133.47C219.819 135.437 221.955 138.754 223.135 140.946L218.919 142.97C217.402 139.934 216.109 137.855 214.31 135.381ZM175.355 134.482L174.625 126.837C176.873 126.781 179.009 126.669 180.077 126.556C182.815 126.325 187.12 125.939 192.266 125.478L192.271 125.478C195.894 125.153 199.933 124.792 204.136 124.42C209.869 123.97 215.94 123.633 219.875 123.464L219.931 130.66C216.952 130.66 212.174 130.716 209.195 131.39C202.449 133.189 197.447 140.384 197.447 146.961C197.447 156.123 205.991 159.44 215.434 159.889L212.848 167.59C201.156 166.86 190.139 160.564 190.139 148.479C190.139 140.44 194.58 134.145 198.346 131.334C193.512 131.84 181.82 133.077 175.355 134.482ZM584.243 157.392C584.243 160.596 582.332 161.496 579.353 161.496C575.531 161.496 573.563 160.147 573.563 158.067C573.563 156.156 575.699 154.638 579.634 154.638C581.208 154.638 582.726 154.806 584.187 155.031C584.243 155.987 584.243 156.774 584.243 157.392ZM606.503 158.797C603.299 156.099 597.959 152.389 590.933 150.366C590.785 148.5 590.681 146.549 590.582 144.7L590.539 143.901C595.935 143.733 600.264 143.339 605.267 142.777V136.2C600.713 136.763 596.048 137.268 590.427 137.493L590.483 131.704C595.18 131.456 599.226 131.079 602.618 130.762L602.619 130.762L602.62 130.762L602.621 130.762L602.621 130.761L602.622 130.761L602.623 130.761L602.624 130.761L602.624 130.761C603.086 130.718 603.536 130.676 603.974 130.636L603.805 124.227C598.971 124.958 594.867 125.408 590.539 125.577L590.595 123.384C590.652 121.979 590.82 120.574 590.989 119.449H583.4C583.625 120.517 583.681 122.26 583.681 123.272V125.801H580.927C577.498 125.801 572.327 125.408 568.842 124.733L568.898 131.085C572.102 131.591 577.442 131.928 580.983 131.928H583.625V137.718H580.983C578.004 137.718 570.753 137.325 567.549 136.706L567.492 143.283C571.202 143.733 577.611 144.014 580.871 144.014H583.738L583.748 144.324L583.748 144.331C583.801 145.869 583.857 147.495 583.962 149.073C582.838 148.96 581.714 148.904 580.534 148.904C571.933 148.904 566.762 152.839 566.762 158.46C566.762 164.362 571.483 167.735 580.365 167.735C587.729 167.735 591.326 164.081 591.326 159.303C591.326 158.741 591.326 158.067 591.27 157.336C595.711 159.36 599.533 162.226 602.512 165.037L606.503 158.797ZM285.795 118.181H259.56V123.657H285.795V118.181ZM279.258 136.377H305.935V154.485C305.935 159.343 304.963 161.905 301.43 163.495C297.985 164.997 293.127 164.997 286.855 164.997C286.325 162.082 284.912 158.107 283.498 155.457C287.473 155.633 292.155 155.633 293.392 155.633C294.717 155.633 295.158 155.28 295.158 154.308V145.74H279.258V168H268.394V145.74H251.787V164.025H241.099V136.377H268.394V131.077H249.49V110.761H296.483V131.077H279.258V136.377ZM304.875 89.3842C302.313 92.4759 299.84 95.2142 297.632 97.4225H311.058V118.711H300.547V106.521H245.25V118.711H235.181V97.4225H247.105C245.78 94.8608 243.926 91.9459 242.159 89.7376L251.699 85.8509C254.26 88.7659 256.999 92.6525 258.147 95.3025L253.377 97.4225H267.422V85.321H278.287V97.4225H292.155L287.208 95.6558C289.417 93.0059 292.067 88.9426 293.568 86.0276L304.875 89.3842ZM107.396 149.097H123.384V141.677H107.396V138.232H123.031V110.937H107.396V107.492H124.356V114.382H132.394C131.776 130.194 129.656 142.825 122.766 152.365C117.643 152.807 112.431 153.248 107.396 153.602V149.097ZM90.9662 131.695V127.72H97.8561V131.695H90.9662ZM114.286 127.72V131.695H107.396V127.72H114.286ZM107.396 121.449V117.562H114.286V121.449H107.396ZM90.9662 117.562H97.8561V121.449H90.9662V117.562ZM142.641 104.754C142.817 98.9241 142.817 92.7409 142.817 86.2926H132.747C132.747 92.8292 132.747 98.9241 132.659 104.754H124.356V99.8958H107.396V95.5675C113.138 94.9492 118.614 94.1542 123.296 93.1825L118.703 85.321C108.986 87.4409 93.7045 88.9426 80.6313 89.6492C81.603 91.6809 82.5747 94.9492 82.928 97.0691C87.6979 96.9808 92.7329 96.7158 97.8561 96.3625V99.8958H80.4547V107.492H97.8561V110.937H82.663V138.232H97.8561V141.677H82.3097V149.097H97.8561V154.397C91.0546 154.838 84.8713 155.28 79.9247 155.633L81.1613 164.467C90.7005 163.672 103.419 162.347 116.138 161.022L116.141 161.022C118.438 162.965 120.999 165.88 122.324 168C137.164 156.252 141.227 138.055 142.376 114.382H150.326C149.796 142.914 148.912 153.69 147.057 156.075C146.262 157.223 145.379 157.577 144.054 157.577C142.376 157.577 139.019 157.488 135.132 157.135C136.899 160.05 138.047 164.29 138.224 167.205L138.303 167.207C142.515 167.294 146.544 167.378 149.177 166.852C152.092 166.233 154.124 165.35 156.155 162.435C158.982 158.372 159.689 145.564 160.484 109.436C160.484 108.199 160.572 104.754 160.572 104.754H142.641ZM362.001 123.071V127.488H370.923V123.071H362.001ZM370.923 112.029H362.001V116.269H370.923V112.029ZM390.356 116.269V112.029H381.17V116.269H390.356ZM381.17 127.488H390.356V123.071H381.17V127.488ZM381.17 155.401H370.923V147.186H347.868V138.617H370.923V134.731H352.462V104.698H370.923V101.076H348.928V92.5963H370.923V86.3247H381.17V92.5963H404.313V101.076H381.17V104.698H400.426V134.731H381.17V138.617H405.373V147.186H381.17V155.401ZM333.559 88.4447C338.505 92.4197 344.6 98.2496 347.427 102.49L338.77 109.114C336.297 104.786 330.467 98.6913 325.52 94.4513L333.559 88.4447ZM325.167 120.509H345.042V148.687C348.487 154.606 354.67 157.079 363.68 157.432C374.28 157.874 395.126 157.609 407.316 156.637C406.079 159.111 404.578 163.969 404.048 166.884C393.094 167.414 374.368 167.59 363.591 167.149C353.08 166.707 346.013 164.145 340.713 157.344C337.18 160.789 333.559 164.145 329.054 167.944L324.107 157.521C327.552 155.312 331.527 152.397 335.06 149.394V130.138H325.167V120.509ZM440.465 86.3247C435.165 99.6629 425.89 112.648 416.35 120.686C418.294 123.336 421.297 129.166 422.445 131.816C425.36 129.078 428.364 125.898 431.19 122.453V167.502H441.702V107.613C445.235 101.783 448.327 95.7763 450.888 89.7697L440.465 86.3247ZM472.971 156.814C468.732 156.814 468.113 155.931 468.113 150.719V128.459C478.448 123.513 489.401 117.594 498.146 111.411L490.373 102.225C484.543 107.259 476.416 112.913 468.113 117.683V87.4731H457.513V150.631C457.513 163.086 460.693 166.619 471.823 166.619H486.928C497.351 166.619 500.089 161.054 501.326 145.861C498.5 145.242 494.083 143.211 491.61 141.356C490.903 153.811 490.196 156.814 485.956 156.814H472.971ZM151.105 27.4553C147.226 27.4553 143.853 27.6239 140.368 28.0736V21.4969C143.46 21.2158 147.451 20.9348 151.048 20.9348C154.196 20.9348 157.569 21.1034 160.829 21.4407L160.661 28.1298C157.906 27.7926 154.477 27.4553 151.105 27.4553ZM135.422 12.0533C138.569 11.5474 141.717 10.9291 144.753 10.1984V17.2248C141.436 17.9555 137.67 18.5739 133.96 19.0236C133.454 21.4407 132.892 23.914 132.274 26.1624C130.25 33.9758 126.484 45.3867 123.449 51.9073L115.635 49.3215C118.952 43.7566 123.168 32.0646 125.247 24.2512C125.641 22.7897 126.034 21.2158 126.428 19.6419L126.252 19.6496L126.252 19.6496C125.023 19.7031 123.847 19.7543 122.774 19.7543C120.076 19.7543 117.996 19.6419 116.029 19.5295L115.86 12.5592C118.727 12.8965 120.582 13.0089 122.886 13.0089C124.517 13.0089 126.147 12.9527 127.833 12.8403C128.058 11.6037 128.227 10.5356 128.339 9.63625C128.62 7.55643 128.676 5.30797 128.564 4.01511L137.052 4.68964C136.781 5.73373 136.457 7.23006 136.19 8.4649C136.069 9.02505 135.959 9.5314 135.871 9.91731L135.422 12.0533ZM135.984 42.2951C135.984 39.7656 136.49 37.0674 136.939 34.8752L143.628 35.4935C143.179 37.0674 142.842 38.9224 142.842 40.1591C142.842 42.5762 144.247 44.3749 150.205 44.3749C153.915 44.3749 157.794 43.9815 161.785 43.2507L161.504 50.3896C158.356 50.783 154.59 51.1765 150.149 51.1765C140.762 51.1765 135.984 47.9163 135.984 42.2951ZM183.402 39.5086C181.322 39.5086 179.073 36.7543 179.073 31.1331C179.073 25.0061 183.964 16.9116 193.182 15.0004C192.508 19.6098 191.496 24.3877 190.203 28.4912C187.955 36.0235 185.706 39.5086 183.402 39.5086ZM198.691 51.9314C212.744 49.7953 219.939 41.476 219.939 29.784C219.939 17.6424 211.226 8.03021 197.455 8.03021C183.008 8.03021 171.822 19.0477 171.822 31.8639C171.822 41.2512 177.05 48.0528 183.177 48.0528C189.248 48.0528 194.082 41.195 197.398 29.9527C198.972 24.725 199.928 19.5536 200.715 14.8318C208.191 16.1247 212.351 21.8582 212.351 29.5592C212.351 37.6537 206.842 42.7689 199.703 44.4552C198.242 44.7925 196.668 45.0736 194.532 45.3546L198.691 51.9314ZM355.087 31.1331C355.087 36.7543 357.336 39.5086 359.415 39.5086C361.72 39.5086 363.969 36.0235 366.217 28.4912C367.51 24.3877 368.522 19.6098 369.196 15.0004C359.978 16.9116 355.087 25.0061 355.087 31.1331ZM395.953 29.784C395.953 41.476 388.758 49.7953 374.705 51.9314L370.545 45.3546C372.681 45.0736 374.255 44.7925 375.717 44.4552C382.856 42.7689 388.364 37.6537 388.364 29.5592C388.364 21.8582 384.205 16.1247 376.729 14.8318C375.942 19.5536 374.986 24.725 373.412 29.9527C370.096 41.195 365.261 48.0528 359.191 48.0528C353.064 48.0528 347.836 41.2512 347.836 31.8639C347.836 19.0477 359.022 8.03021 373.468 8.03021C387.24 8.03021 395.953 17.6424 395.953 29.784ZM240.938 44.4874C239.476 44.4874 236.89 42.9134 236.89 41.2271C236.89 39.2597 239.139 36.955 242.568 35.2125C242.68 38.1355 242.736 40.665 242.736 42.0703C242.736 43.9815 241.949 44.4874 240.938 44.4874ZM248.863 24.4761C248.863 22.8459 248.863 21.1596 248.92 19.4733C252.573 19.0236 256.396 18.4614 259.544 17.7307L259.375 10.7605C256.452 11.6037 252.798 12.3344 249.145 12.8403C249.201 11.435 249.257 10.0859 249.313 8.84929C249.426 7.444 249.65 5.02691 249.763 4.01511H242.118C242.287 5.02691 242.512 7.72506 242.512 8.9055C242.512 9.8611 242.512 11.4912 242.455 13.4586L242.287 13.4671C241.224 13.5203 240.212 13.571 239.251 13.571C237.228 13.571 234.811 13.5148 231.55 13.1214L231.663 19.8667C234.08 20.0916 236.89 20.1478 239.42 20.1478C240.269 20.1478 241.219 20.0977 242.221 20.0447L242.399 20.0354V24.7009C242.399 25.9938 242.399 27.2866 242.455 28.5795C235.654 31.5587 229.976 36.5615 229.976 41.4519C229.976 47.3541 237.677 52.0197 243.13 52.0197C246.727 52.0197 249.257 50.2209 249.257 43.3069C249.257 42.1406 249.194 40.095 249.12 37.6684L249.12 37.6657L249.119 37.6589L249.119 37.6487C249.072 36.1043 249.02 34.4063 248.976 32.6829C252.405 31.7274 256.002 31.1652 259.431 31.1652C264.265 31.1652 267.638 33.3575 267.638 37.1237C267.638 41.1709 264.041 43.4755 259.544 44.2625C257.576 44.5998 255.215 44.656 252.686 44.656L255.272 51.7948C257.464 51.6824 259.993 51.4576 262.579 50.8955C271.404 48.7032 274.833 43.7566 274.833 37.1799C274.833 29.5351 268.088 24.982 259.544 24.982C256.452 24.982 252.63 25.4879 248.863 26.4435V24.4761ZM262.579 15.4822C266.064 17.1686 273.315 21.272 275.957 23.5767L279.33 17.8431C276.407 15.7633 269.943 12.1096 265.671 10.0297L262.579 15.4822ZM412.904 41.2271C412.904 42.9134 415.49 44.4874 416.951 44.4874C417.963 44.4874 418.75 43.9815 418.75 42.0703C418.75 40.665 418.694 38.1355 418.582 35.2125C415.153 36.955 412.904 39.2597 412.904 41.2271ZM424.933 19.4733C424.877 21.1596 424.877 22.8459 424.877 24.4761V26.4435C428.643 25.4879 432.466 24.982 435.557 24.982C444.102 24.982 450.847 29.5351 450.847 37.1799C450.847 43.7566 447.418 48.7032 438.593 50.8955C436.007 51.4576 433.478 51.6824 431.285 51.7948L428.7 44.656C431.229 44.656 433.59 44.5998 435.557 44.2625C440.054 43.4755 443.652 41.1709 443.652 37.1237C443.652 33.3575 440.279 31.1652 435.445 31.1652C432.016 31.1652 428.419 31.7274 424.99 32.6829C425.033 34.4131 425.086 36.1177 425.133 37.667C425.208 40.0942 425.271 42.1404 425.271 43.3069C425.271 50.2209 422.741 52.0197 419.144 52.0197C413.691 52.0197 405.99 47.3541 405.99 41.4519C405.99 36.5615 411.668 31.5587 418.469 28.5795C418.413 27.2866 418.413 25.9938 418.413 24.7009V20.0354L418.235 20.0447L418.235 20.0448C417.232 20.0977 416.283 20.1478 415.434 20.1478C412.904 20.1478 410.094 20.0916 407.677 19.8667L407.564 13.1214C410.824 13.5148 413.241 13.571 415.265 13.571C416.226 13.571 417.238 13.5203 418.3 13.4671L418.469 13.4586C418.525 11.4912 418.525 9.8611 418.525 8.9055C418.525 7.72506 418.3 5.02691 418.132 4.01511H425.777C425.664 5.02691 425.439 7.444 425.327 8.84929C425.271 10.0859 425.215 11.435 425.158 12.8403C428.812 12.3344 432.466 11.6037 435.389 10.7605L435.557 17.7307C432.41 18.4614 428.587 19.0236 424.933 19.4733ZM451.971 23.5767C449.329 21.272 442.078 17.1686 438.593 15.4822L441.684 10.0297C445.957 12.1096 452.421 15.7633 455.344 17.8431L451.971 23.5767ZM540.191 20.2923C541.708 22.3722 545.756 28.5554 546.711 30.0731L543.282 34.8511C542.608 33.221 541.427 30.6915 540.191 28.2744V52.5015H534.12V31.4784C532.658 35.8067 530.916 39.7415 529.005 42.5521C528.386 40.6971 527.037 38.1676 526.082 36.6499C529.229 32.2654 532.209 24.452 533.614 17.819H527.374V11.6358H534.12V0.0562112H540.191V11.6358H545.812V17.819H540.191V20.2923ZM543.844 43.5639C547.161 42.0462 552.107 39.5167 556.885 37.0434L558.628 42.4397C554.693 44.7443 550.309 47.2176 546.711 49.185L543.844 43.5639ZM552.388 38.1114C551.377 36.144 549.072 33.1086 547.048 30.9163L551.602 27.9371C553.681 29.9607 556.042 32.8275 557.167 34.7387L552.388 38.1114ZM567.959 33.8393C569.926 31.9843 572.119 29.6234 573.412 27.7685L578.471 31.3098C576.11 33.7269 573.243 36.425 571.051 38.2238C573.412 40.9782 576.391 43.1704 579.82 44.5757C578.414 45.8123 576.559 48.2856 575.604 49.972C571.5 47.7235 568.184 44.2946 565.654 40.0788V45.9248C565.654 48.9602 565.092 50.5341 563.294 51.5459C561.439 52.5015 558.797 52.6701 555.312 52.6701C555.087 50.9276 554.356 48.3419 553.513 46.7117C555.424 46.8241 557.616 46.8242 558.291 46.8242C558.965 46.8242 559.19 46.5431 559.19 45.8686V26.7004H545.98V21.2479H559.19V18.7746H548.566V13.7718H559.19V11.5234H547.048V6.29568H552.782C552.22 4.83419 551.377 3.26027 550.59 1.91119L555.874 0.112424C557.167 2.02361 558.516 4.60934 559.078 6.29568H566.048C566.891 4.38449 568.015 1.79877 568.577 0L575.21 1.51771C574.199 3.20406 573.187 4.8904 572.287 6.29568H577.74V11.5234H565.654V13.7718H576.559V18.7746H565.654V21.2479H578.752V26.7004H565.654V28.8927C566.273 30.6352 567.06 32.2654 567.959 33.8393ZM620.661 41.4519C620.641 40.548 620.614 39.4432 620.585 38.2553C620.532 36.119 620.473 33.7142 620.437 31.7274C623.866 30.1534 627.013 28.9168 629.487 27.9612C631.398 27.1742 634.321 26.05 636.12 25.6003L633.309 19.136C632.803 19.3749 632.301 19.6138 631.798 19.8527C630.291 20.5694 628.784 21.2861 627.182 22.0028C626.463 22.3186 625.738 22.629 624.994 22.9475L624.993 22.9477C623.354 23.6496 621.621 24.3914 619.65 25.3193C618.413 22.4525 615.602 20.991 612.23 20.991C610.375 20.991 607.396 21.3844 605.934 22.1152C607.115 20.4851 608.239 18.4615 609.138 16.4941C615.097 16.2692 621.954 15.8195 627.294 15.0326L627.351 8.51203C622.46 9.41141 616.839 9.8611 611.611 10.1422C612.271 7.94253 612.662 6.06569 612.942 4.72213L612.942 4.72145L612.961 4.63344L605.653 4.01511C605.597 5.58903 605.203 7.83749 604.529 10.367H601.831C599.02 10.367 594.86 10.1984 592.05 9.74868V16.2692C595.085 16.5503 599.189 16.6627 601.437 16.6627H602.112C599.638 21.6093 595.704 26.5559 589.858 31.9522L595.816 36.3929L596.186 35.9249C597.933 33.7133 599.411 31.8422 600.987 30.2659C603.124 28.2423 606.552 26.4435 609.7 26.4435C611.218 26.4435 612.679 26.9494 613.579 28.3547C607.227 31.6149 600.482 36.1119 600.482 43.1945C600.482 50.3896 607.058 52.4694 615.771 52.4694C620.999 52.4694 627.8 52.0197 631.51 51.57L631.735 44.3187C626.845 45.3305 620.661 45.9489 615.94 45.9489C610.487 45.9489 607.845 45.1057 607.845 42.0141C607.845 39.2597 610.094 37.0674 614.197 34.819L614.189 35.1648C614.135 37.4798 614.079 39.8993 613.972 41.4519H620.661ZM306.938 44.5195H326.893V36.8747H306.938V44.5195ZM312.728 13.6594H319.529V18.9433H337.067V24.8455H319.529V30.9725H333.751V52.3891H326.893V50.3655H306.938V52.4453H300.417V30.9725H312.728V13.6594ZM317.337 0V6.46432H337.798V12.8162H297.045V20.6296C297.045 29.6797 296.202 43.5639 291.143 52.3329C289.906 51.2086 286.927 49.2975 285.353 48.5667C289.962 40.5285 290.356 28.7241 290.356 20.6296V6.46432H310.367V0H317.337Z" fill="white"/>
</svg>
