<svg width="38" height="38" viewBox="0 0 38 38" fill="none" xmlns="http://www.w3.org/2000/svg">
<path d="M37.8588 12.6489C37.6928 12.1743 37.2423 11.8658 36.7444 11.8658H23.7747L20.0759 0.806873C19.9099 0.332242 19.4594 0 18.9615 0C18.4636 0 17.9894 0.332242 17.8471 0.806873L14.172 11.8658H1.17862C0.680702 11.8658 0.230203 12.1743 0.0642289 12.6489C-0.101745 13.1235 0.0642289 13.6456 0.443597 13.9779L10.7102 22.2127L5.99186 36.4042C5.82588 36.9026 5.99186 37.4484 6.44236 37.7569C6.86915 38.0654 7.4382 38.0417 7.86499 37.7094L18.9852 28.8101L30.1054 37.7094C30.5085 38.0417 31.1013 38.0654 31.5281 37.7569C31.9549 37.4484 32.1446 36.9026 31.9786 36.4042L27.2602 22.2127L37.5268 13.9779C37.9299 13.6694 38.0722 13.1235 37.9062 12.6489H37.8588Z" fill="#F22840"/>
<path d="M16.6693 17.183H17.4183C17.4183 16.1703 17.9668 15.3687 19.106 15.3687C19.8971 15.3687 20.6039 15.7695 20.6039 16.6028C20.6039 17.394 19.9499 18.1007 19.5069 18.6492C18.5153 19.8728 17.5871 21.0226 16.6377 22.1302V22.8264H21.6271V22.0563H17.6398C18.5048 21.0859 19.1799 20.2631 19.8866 19.4087C20.6039 18.5437 21.4794 17.6788 21.4794 16.5817C21.4794 15.2315 20.2663 14.5986 19.1588 14.5986C17.9879 14.5986 17.4183 15.1261 17.1124 15.5058C16.7537 15.9699 16.6799 16.5079 16.6693 17.183Z" fill="white"/>
</svg>
