<svg width="56" height="56" viewBox="0 0 56 56" fill="none" xmlns="http://www.w3.org/2000/svg">
<path d="M55.8298 18.6532C55.5851 17.9532 54.9207 17.4983 54.1864 17.4983H35.0603L29.6056 1.18988C29.3609 0.489952 28.6965 0 27.9623 0C27.228 0 26.5287 0.489952 26.3189 1.18988L20.8992 17.4983H1.7381C1.00382 17.4983 0.339476 17.9532 0.0947175 18.6532C-0.150041 19.3531 0.0947175 20.123 0.654166 20.613L15.7943 32.7568L8.83611 53.6848C8.59135 54.4197 8.83611 55.2246 9.50045 55.6796C10.1298 56.1345 10.969 56.0995 11.5984 55.6096L27.9972 42.4859L44.3961 55.6096C44.9905 56.0995 45.8646 56.1345 46.494 55.6796C47.1234 55.2246 47.4031 54.4197 47.1584 53.6848L40.2002 32.7568L55.3403 20.613C55.9347 20.158 56.1445 19.3531 55.8997 18.6532H55.8298Z" fill="#F22840"/>
<path d="M25.4813 22.2V23.64L28.8213 21.64V35.34H30.3213V19.88H29.2013L25.4813 22.2Z" fill="white"/>
</svg>
