<svg width="80" height="80" viewBox="0 0 80 80" fill="none" xmlns="http://www.w3.org/2000/svg">
<path d="M80 27.5V67.5C80 74.4 74.4 80 67.5 80H12.5C5.6 80 0 74.4 0 67.5V27.5C0 20.6 5.6 15 12.5 15H25C26.4 15 27.5 16.1 27.5 17.5C27.5 18.9 26.4 20 25 20H12.5C8.35 20 5 23.35 5 27.5V67.5C5 71.65 8.35 75 12.5 75H67.5C71.65 75 75 71.65 75 67.5V65H5V55H75V27.5C75 26.1 76.1 25 77.5 25C78.9 25 80 26.1 80 27.5ZM33.7 20.25C32.9 19.6 32.5 18.6 32.5 17.7C32.5 16.85 32.8 16.1 33.4 15.45C33.95 14.8 34.9 14.4 35.85 14.4H47.9L51.9 2.3C52.3 0.85 53.75 0 55 0C56.25 0 57.65 0.8 58.15 2.25L62.2 14.4H74.25C75.2 14.4 76.1 14.85 76.7 15.45C77.25 16.1 77.55 16.85 77.6 17.7C77.6 18.6 77.2 19.6 76.4 20.25L66.55 28.35L70.1 40.8L70.2 41.7C70.2 42.65 69.8 43.5 69.2 44.05C68.6 44.6 67.8 44.95 66.9 44.95C66.25 44.95 65.5 44.75 64.95 44.3L55.05 37.05L45.15 44.3C44.6 44.7 43.85 44.95 43.2 44.95C42.3 44.95 41.5 44.6 40.9 44C40.3 43.45 39.9 42.6 39.9 41.65L40.05 40.75L43.6 28.3L33.75 20.2L33.7 20.25ZM40.5 19.4L47.95 25.55C48.7 26.2 49.05 27.2 48.75 28.15L46.1 37.4L53.45 32C54.35 31.35 55.55 31.35 56.4 32L63.75 37.4L61.1 28.15C60.8 27.2 61.1 26.15 61.9 25.55L69.4 19.4H60.3C59.2 19.4 58.25 18.7 57.95 17.7L54.95 8.7L51.95 17.7C51.6 18.7 50.65 19.4 49.6 19.4H40.5V19.4ZM24.95 25.05C27.7 25.05 29.95 27.3 29.95 30.05V35.05C29.95 37.8 27.7 40.05 24.95 40.05H15C12.25 40.05 10 37.8 10 35.05V30.05C10 27.3 12.25 25.05 15 25.05H25H24.95ZM24.95 30.05H15V35.05H25V30.05H24.95Z" fill="#F22840"/>
</svg>
