<svg width="80" height="80" viewBox="0 0 80 80" fill="none" xmlns="http://www.w3.org/2000/svg">
<path fill-rule="evenodd" clip-rule="evenodd" d="M40 70C41.75 70 43.4 69.7 45 69.2V79.5C43.4 79.8 41.7 80 40 80C24.8 80 12.5 67.7 12.5 52.5V27.5C12.5 12.3 24.8 0 40 0C55.2 0 67.5 12.3 67.5 27.5V45H57.5V27.5C57.5 17.85 49.65 10 40 10C30.35 10 22.5 17.85 22.5 27.5V52.5C22.5 62.15 30.35 70 40 70ZM50 80V70V65V55V50H55H62.5H67.5H75H80V55V65V70V80H75V70H67.5H62.5H55V80H50ZM62.5 65H55V55H62.5V65ZM75 65H67.5V55H75V65Z" fill="#F22840"/>
</svg>
