<svg width="80" height="80" viewBox="0 0 80 80" fill="none" xmlns="http://www.w3.org/2000/svg">
<path fill-rule="evenodd" clip-rule="evenodd" d="M40.1 30.1C33.2 30.1 27 32.9 22.45 37.4C17.95 41.95 15.15 48.1 15.15 55H5.09998C5.09998 37.4 18.15 22.95 35 20.5V10H25V0H55.05V10H45.1V20.5C55.7 22.05 64.8 28.35 70.1 37.15C67.05 35.8 63.65 35 60.05 35C58.45 35 56.9 35.15 55.4 35.45C51.15 32.15 45.9 30.1 40.1 30.1ZM5 70L0 60H35C35 63.55 35.75 66.95 37.1 70H5ZM46.1 65.75C45.75 64.85 45.45 63.9 45.3 62.95C45.1 62 45.05 61.05 45.05 60.05C45.05 59.05 45.15 58.1 45.3 57.15C45.5 56.2 45.75 55.25 46.1 54.35C46.45 53.45 46.9 52.55 47.45 51.75C48 50.9 48.65 50.1 49.4 49.4C50.15 48.65 50.9 48 51.75 47.45C52.6 46.9 53.45 46.45 54.35 46.05C55.25 45.7 56.2 45.4 57.15 45.2C58.1 45 59.05 44.9 60 44.9C60.95 44.9 61.9 45 62.85 45.2C63.8 45.4 64.75 45.65 65.6 46.05C66.9 46.55 68.35 45.95 68.85 44.7C69.35 43.4 68.75 41.95 67.5 41.45C66.3 40.95 65.05 40.6 63.8 40.35C62.55 40.1 61.25 40 60 40C58.75 40 57.45 40.1 56.2 40.35C54.95 40.6 53.7 40.95 52.5 41.45C51.3 41.95 50.15 42.55 49 43.3C47.9 44.05 46.85 44.9 45.85 45.85C44.9 46.85 44 47.9 43.3 49C42.55 50.1 41.95 51.3 41.45 52.5C40.95 53.7 40.6 54.95 40.35 56.2C40.1 57.45 40 58.75 40 60.05C40 61.35 40.1 62.6 40.35 63.9C40.6 65.15 40.95 66.4 41.45 67.6C41.6934 68.1912 42.0094 68.7582 42.3307 69.3346L42.3309 69.335C42.4714 69.5872 42.613 69.8413 42.75 70.1L40 72.4L49.2 73.2L50 64L46.65 66.8C46.45 66.45 46.25 66.1 46.1 65.7V65.75ZM77.6694 50.6154C77.9906 51.1918 78.3066 51.7588 78.55 52.35V52.4C79.05 53.6 79.4 54.85 79.65 56.1C79.9 57.4 80 58.65 80 59.95C80 61.25 79.9 62.55 79.65 63.8C79.4 65.05 79.05 66.3 78.55 67.5C78.05 68.7 77.45 69.9 76.7 71C76 72.1 75.1 73.15 74.15 74.15C73.15 75.1 72.1 75.95 71 76.7C69.9 77.45 68.7 78.05 67.5 78.55C66.3 79.05 65.05 79.4 63.8 79.65C62.55 79.9 61.25 80 60 80C58.75 80 57.45 79.9 56.2 79.65C54.95 79.4 53.7 79.05 52.5 78.55C51.25 78.05 50.65 76.55 51.15 75.3C51.65 74.05 53.1 73.45 54.4 73.95C55.3 74.35 56.25 74.6 57.2 74.8C58.15 75 59.1 75.1 60.05 75.1C61 75.1 61.95 75 62.9 74.8C63.8 74.6 64.75 74.3 65.65 73.95C66.55 73.55 67.4 73.1 68.25 72.55C69.1 72 69.85 71.35 70.6 70.6C71.35 69.9 72 69.1 72.55 68.25C73.1 67.45 73.55 66.55 73.9 65.65C74.25 64.75 74.5 63.8 74.7 62.85C74.85 61.9 74.95 60.95 74.95 59.95C74.95 58.95 74.9 58 74.7 57.05C74.55 56.1 74.25 55.15 73.9 54.25C73.75 53.85 73.55 53.5 73.35 53.15L70 55.95L70.8 46.75L80 47.55L77.25 49.85C77.387 50.1088 77.5287 50.363 77.6694 50.6154Z" fill="#F32840"/>
</svg>
