<svg width="340" height="80" viewBox="0 0 340 80" fill="none" xmlns="http://www.w3.org/2000/svg">
<path d="M24.256 34.728H15.712V33.768H24.256V34.728ZM24.256 37.32H15.712V36.328H24.256V37.32ZM24.256 39.944H15.712V38.92H24.256V39.944ZM12.192 32.072V41.64H27.936V32.072H20.992L21.408 31.08H30.528V28.52H25.824C26.272 27.912 26.752 27.176 27.232 26.376L23.68 25.832C23.36 26.6 22.816 27.656 22.304 28.52H17.92C17.6 27.688 16.992 26.632 16.448 25.864L13.344 26.44C13.728 27.048 14.144 27.816 14.432 28.52H9.664V31.08H17.92C17.856 31.432 17.76 31.752 17.696 32.072H12.192ZM9.248 30.184C8.352 28.968 6.4 27.336 4.8 26.248L2.336 28.328C3.936 29.512 5.824 31.272 6.656 32.456L9.248 30.184ZM23.712 45.384C26.112 45.352 28.416 45.288 30.112 45.224C30.272 44.392 30.72 43.016 31.04 42.312C26.624 42.632 18.272 42.728 14.4 42.568C11.68 42.472 9.76 41.768 8.704 40.008V33.8H1.568V36.68H5.248V40.552C3.904 41.32 2.496 42.024 1.312 42.6L2.592 45.608C4.384 44.52 5.952 43.528 7.488 42.472C9.024 44.488 11.2 45.192 14.432 45.32C15.904 45.352 17.888 45.384 20.032 45.384V46.728H1.472V49.608H8.544L6.848 51.016C8.352 52.072 10.272 53.704 11.104 54.76L13.856 52.424C13.12 51.592 11.808 50.504 10.528 49.608H20.032V52.072C20.032 52.424 19.872 52.552 19.36 52.552C18.88 52.584 17.12 52.584 15.552 52.488C16.032 53.448 16.576 54.76 16.736 55.784C19.104 55.784 20.8 55.752 22.08 55.272C23.36 54.76 23.712 53.864 23.712 52.168V49.608H30.56V46.728H23.712V45.384ZM41.952 27.688V31.56H49.248C49.344 32.648 49.472 33.8 49.696 35.016L47.744 34.664C45.984 43.08 42.176 49.256 35.52 52.616C36.512 53.352 38.304 54.92 39.008 55.72C44.576 52.392 48.416 47.08 50.816 39.912C52.576 45.64 55.968 51.688 62.592 55.688C63.264 54.696 64.832 53.032 65.664 52.36C53.888 45.416 53.024 33.736 53.024 27.688H41.952ZM75.616 42.472C75.616 40.808 76.832 39.976 78.048 39.976C78.944 39.976 79.68 40.328 80.128 41.096C80.544 43.848 79.36 44.84 78.048 44.84C76.8 44.84 75.616 43.944 75.616 42.472ZM92.512 30.984C90.848 30.952 86.528 30.984 83.328 30.984C83.328 30.6 83.36 30.28 83.36 30.024C83.392 29.512 83.488 27.816 83.584 27.304H78.976C79.104 27.816 79.2 29.032 79.264 30.056C79.296 30.28 79.296 30.632 79.296 31.016C75.04 31.08 69.28 31.24 65.664 31.24L65.76 35.08C69.664 34.856 74.56 34.664 79.36 34.6L79.392 36.712C79.008 36.648 78.592 36.616 78.144 36.616C74.688 36.616 71.808 38.952 71.808 42.536C71.808 46.408 74.816 48.36 77.28 48.36C77.792 48.36 78.272 48.296 78.72 48.2C76.96 50.088 74.176 51.144 70.976 51.816L74.336 55.208C82.08 53.032 84.512 47.784 84.512 43.656C84.512 41.992 84.128 40.456 83.328 39.272C83.328 37.896 83.328 36.168 83.296 34.568C87.584 34.568 90.56 34.632 92.48 34.728L92.512 30.984ZM107.552 51.08C105.696 51.08 104.352 50.28 104.352 49.096C104.352 48.296 105.12 47.592 106.304 47.592C108.032 47.592 109.216 48.936 109.408 50.984C108.832 51.048 108.224 51.08 107.552 51.08ZM114.528 28.232C114.144 28.328 113.408 28.456 112.096 28.552C110.304 28.712 103.52 28.872 101.856 28.872C100.96 28.872 99.872 28.808 98.976 28.712L99.104 32.84C99.84 32.712 100.832 32.616 101.696 32.584C103.36 32.456 107.712 32.264 109.344 32.232C107.776 33.608 104.48 36.264 102.72 37.736C100.832 39.272 97.024 42.504 94.784 44.328L97.664 47.304C101.056 43.464 104.224 40.872 109.088 40.872C112.768 40.872 115.648 42.792 115.648 45.64C115.648 47.56 114.784 49.032 113.056 49.96C112.576 46.952 110.208 44.552 106.304 44.552C102.944 44.552 100.608 46.92 100.608 49.48C100.608 52.648 103.936 54.664 108.352 54.664C116 54.664 119.808 50.696 119.808 45.704C119.808 41.096 115.712 37.736 110.336 37.736C109.312 37.736 108.416 37.8 107.36 38.088C109.344 36.488 112.672 33.672 114.368 32.488C115.072 32.008 115.808 31.528 116.576 31.048L114.528 28.232Z" fill="white"/>
<path d="M207.736 47.24C206.552 47.24 205.272 45.672 205.272 42.472C205.272 38.984 208.056 34.376 213.304 33.288C212.92 35.912 212.344 38.632 211.608 40.968C210.328 45.256 209.048 47.24 207.736 47.24ZM216.44 54.312C224.44 53.096 228.536 48.36 228.536 41.704C228.536 34.792 223.576 29.32 215.736 29.32C207.512 29.32 201.144 35.592 201.144 42.888C201.144 48.232 204.12 52.104 207.608 52.104C211.064 52.104 213.816 48.2 215.704 41.8C216.6 38.824 217.144 35.88 217.592 33.192C221.848 33.928 224.216 37.192 224.216 41.576C224.216 46.184 221.08 49.096 217.016 50.056C216.184 50.248 215.288 50.408 214.072 50.568L216.44 54.312ZM251.224 27.784C251.064 28.616 250.744 29.928 250.456 30.728C249.592 33.224 248.568 35.752 246.936 38.312C244.344 36.392 241.048 34.152 238.488 32.552L235.736 35.848C239 37.8 242.04 40.104 244.312 41.896C241.176 45.704 237.368 48.808 232.152 51.336L235.832 54.632C241.24 51.688 244.92 48.136 247.736 44.744C250.296 46.952 252.568 49.16 254.808 51.784L258.104 48.104C255.96 45.832 253.304 43.368 250.488 41.064C252.408 38.12 253.848 34.92 254.808 32.36C255.096 31.624 255.704 30.216 256.12 29.512L251.224 27.784ZM263.16 28.456C263.256 29.16 263.288 30.28 263.288 30.888V41.672C263.288 42.632 263.16 43.88 263.128 44.488H267.864C267.8 43.752 267.768 42.504 267.768 41.704V30.888C267.768 29.864 267.8 29.16 267.864 28.456H263.16ZM277.88 28.168C278.008 29.064 278.072 30.088 278.072 31.368V37.448C278.072 42.44 277.656 44.84 275.48 47.24C273.528 49.32 270.84 50.536 267.64 51.272L271 54.792C273.336 54.056 276.664 52.488 278.776 50.152C281.144 47.528 282.488 44.584 282.488 37.704V31.368C282.488 30.088 282.552 29.064 282.616 28.168H277.88ZM299.32 33.96L295.512 35.208C296.312 36.872 297.72 40.744 298.104 42.312L301.944 40.968C301.496 39.496 299.928 35.336 299.32 33.96ZM306.616 34.856C306.264 38.856 304.728 43.112 302.552 45.832C299.896 49.16 295.448 51.592 291.928 52.52L295.288 55.944C299.032 54.536 303.032 51.848 306.008 48.008C308.184 45.192 309.528 41.864 310.36 38.632C310.552 37.992 310.744 37.32 311.128 36.296L306.616 34.856ZM291.896 35.656L288.056 37.032C288.824 38.44 290.424 42.696 290.968 44.424L294.872 42.952C294.232 41.16 292.696 37.288 291.896 35.656ZM335.608 41.224C332.664 39.784 326.52 37.512 322.232 36.264V31.56C322.232 30.216 322.392 28.808 322.52 27.688H317.528C317.752 28.808 317.848 30.408 317.848 31.56V49.928C317.848 51.208 317.72 53.128 317.528 54.376H322.52C322.392 53.096 322.232 50.856 322.232 49.928V40.872C325.688 42.056 330.488 43.912 333.784 45.64L335.608 41.224Z" fill="white"/>
<path d="M138.152 55.672C144.92 55.672 150.632 51.88 150.632 45.352C150.632 40.696 147.56 37.72 143.528 36.616V36.376C147.32 34.888 149.48 32.104 149.48 28.264C149.48 22.168 144.824 18.808 137.96 18.808C133.784 18.808 130.376 20.488 127.304 23.176L130.904 27.496C133.016 25.576 135.08 24.376 137.624 24.328C140.648 24.376 142.376 26.008 142.376 28.792C142.376 31.96 140.264 34.216 133.736 34.216V39.304C141.464 39.304 143.528 41.464 143.528 44.968C143.528 48.136 141.08 49.912 137.48 49.912C134.264 49.912 131.672 48.328 129.56 46.264L126.248 50.728C128.744 53.56 132.536 55.672 138.152 55.672ZM153.698 28.696L156.386 35.416C161.33 33.208 172.562 28.504 179.57 28.504C185.282 28.504 188.354 31.912 188.354 36.376C188.354 44.632 178.274 48.376 165.41 48.664L168.146 55C184.898 54.136 195.17 47.224 195.17 36.472C195.17 27.688 188.402 22.744 179.81 22.744C172.85 22.744 163.202 26.152 159.506 27.256C157.778 27.784 155.426 28.408 153.698 28.696Z" fill="white"/>
</svg>
