<svg width="200" height="142" viewBox="0 0 200 142" fill="none" xmlns="http://www.w3.org/2000/svg">
<path d="M100.375 2.26253L102.675 9.1634H109.576C109.976 9.1634 110.126 9.61345 109.826 9.86348L104.276 14.4141L106.276 21.4149C106.376 21.765 105.976 22.065 105.676 21.865L99.975 17.7145L94.2743 21.865C93.9743 22.115 93.5242 21.815 93.6742 21.4149L95.6745 14.4141L90.1238 9.86348C89.8237 9.61345 90.0238 9.1634 90.3738 9.1634H97.2747L99.575 2.26253C99.675 1.91249 100.225 1.91249 100.325 2.26253H100.375ZM49.7687 15.8142L51.2189 22.9651L45.2182 26.4156C44.8681 26.6156 44.9681 27.1156 45.3682 27.1656L52.4691 28.3658L54.2193 35.4667C54.3193 35.8167 54.8194 35.8667 54.9694 35.5167L57.8197 29.0659L64.8206 29.816C65.2207 29.816 65.4207 29.4159 65.1206 29.1159L59.87 24.0653L62.4203 17.3144C62.5703 16.9644 62.1703 16.6143 61.8202 16.8144L55.8195 20.2648L50.3688 15.4142C50.0688 15.1641 49.6187 15.4142 49.7187 15.8142H49.7687ZM149.531 15.3642L144.081 20.2148L138.08 16.7643C137.73 16.5643 137.38 16.9144 137.48 17.2644L139.98 24.0153L134.729 29.0659C134.429 29.3159 134.679 29.816 135.029 29.766L142.03 29.0159L144.881 35.4667C145.031 35.8167 145.531 35.7667 145.631 35.4167L147.381 28.3158L154.482 27.1156C154.832 27.0656 154.932 26.5656 154.632 26.3655L148.631 22.9151L150.081 15.7642C150.181 15.3642 149.731 15.1141 149.431 15.3642H149.531ZM186.136 51.7687L178.985 53.2189L175.534 47.2182C175.334 46.8681 174.834 46.9681 174.784 47.3682L173.584 54.4691L166.483 56.2193C166.133 56.3193 166.083 56.8194 166.433 56.9694L172.884 59.8197L172.134 66.8206C172.134 67.2207 172.534 67.4207 172.834 67.1206L177.885 61.87L184.636 64.4203C184.986 64.5703 185.336 64.1703 185.136 63.8202L181.685 57.8195L186.536 52.3688C186.786 52.0688 186.536 51.6187 186.136 51.7187V51.7687ZM199.737 101.575L192.837 99.2747V92.3738C192.837 91.9738 192.387 91.8237 192.137 92.1238L187.586 97.6745L180.585 95.6742C180.235 95.5742 179.935 95.9743 180.135 96.2743L184.286 101.975L180.135 107.676C179.885 107.976 180.185 108.426 180.585 108.276L187.586 106.276L192.137 111.826C192.387 112.126 192.837 111.926 192.837 111.576V104.675L199.737 102.375C200.088 102.275 200.088 101.725 199.737 101.625V101.575ZM0.262533 102.375L7.1634 104.675V111.576C7.1634 111.976 7.61345 112.126 7.86348 111.826L12.4141 106.276L19.4149 108.276C19.765 108.376 20.065 107.976 19.865 107.676L15.7145 101.975L19.865 96.2743C20.115 95.9743 19.815 95.5242 19.4149 95.6742L12.4141 97.6745L7.86348 92.1238C7.61345 91.8237 7.1634 92.0238 7.1634 92.3738V99.2747L0.262533 101.575C-0.0875109 101.675 -0.0875109 102.225 0.262533 102.325V102.375ZM13.4142 52.4188L18.2648 57.8695L14.8144 63.8702C14.6143 64.2203 14.9644 64.5703 15.3144 64.4703L22.0653 61.97L27.1159 67.2207C27.3659 67.5207 27.866 67.2707 27.816 66.9206L27.0659 59.9197L33.5167 57.0694C33.8667 56.9194 33.8167 56.4193 33.4667 56.3193L26.3658 54.5691L25.1656 47.4682C25.1156 47.1181 24.6156 47.0181 24.4156 47.3182L20.9651 53.3189L13.8142 51.8687C13.4142 51.7687 13.1641 52.2188 13.4142 52.5188V52.4188Z" fill="#EAEFF3"/>
<path d="M96.7847 95.88V72.912C96.7847 62.472 89.4407 55.992 79.9367 55.992C70.4327 55.992 63.0887 62.472 63.0887 72.912V95.88C63.0887 106.32 70.4327 112.728 79.9367 112.728C89.4407 112.728 96.7847 106.32 96.7847 95.88ZM91.1687 73.272V95.52C91.1687 102.576 86.7767 107.976 79.9367 107.976C73.1687 107.976 68.8487 102.576 68.8487 95.52V73.272C68.8487 66.576 72.9527 60.816 79.9367 60.816C87.1367 60.816 91.1687 66.576 91.1687 73.272ZM104.549 73.488H109.661C109.661 66.576 113.405 61.104 121.181 61.104C126.581 61.104 131.405 63.84 131.405 69.528C131.405 74.928 126.941 79.752 123.917 83.496C117.149 91.848 110.813 99.696 104.333 107.256V112.008H138.389V106.752H111.173C117.077 100.128 121.685 94.512 126.509 88.68C131.405 82.776 137.381 76.872 137.381 69.384C137.381 60.168 129.101 55.848 121.541 55.848C113.549 55.848 109.661 59.448 107.573 62.04C105.125 65.208 104.621 68.88 104.549 73.488Z" fill="#333333"/>
<rect x="62" y="138" width="76" height="4" fill="#333333"/>
</svg>
