<svg width="56" height="56" viewBox="0 0 56 56" fill="none" xmlns="http://www.w3.org/2000/svg">
<path d="M55.8298 18.6532C55.5851 17.9532 54.9207 17.4983 54.1864 17.4983H35.0603L29.6056 1.18988C29.3609 0.489952 28.6965 0 27.9623 0C27.228 0 26.5287 0.489952 26.3189 1.18988L20.8992 17.4983H1.7381C1.00382 17.4983 0.339476 17.9532 0.0947175 18.6532C-0.150041 19.3531 0.0947175 20.123 0.654166 20.613L15.7943 32.7568L8.83611 53.6848C8.59135 54.4197 8.83611 55.2246 9.50045 55.6796C10.1298 56.1345 10.969 56.0995 11.5984 55.6096L27.9972 42.4859L44.3961 55.6096C44.9905 56.0995 45.8646 56.1345 46.494 55.6796C47.1234 55.2246 47.4031 54.4197 47.1584 53.6848L40.2002 32.7568L55.3403 20.613C55.9347 20.158 56.1445 19.3531 55.8997 18.6532H55.8298Z" fill="#F22840"/>
<path d="M23.3627 23.96H24.7427C24.8427 22.22 26.2027 21.1 27.8427 21.1C29.4227 21.1 30.7627 22.1 30.7627 23.6C30.7627 24.98 29.8427 26.64 26.7827 26.38V27.84C27.5027 27.76 28.3227 27.76 29.1227 28C29.8427 28.2 31.3027 28.94 31.3027 30.86C31.3027 32.98 29.6827 34.1 27.7427 34.1C25.6427 34.1 24.1627 32.84 24.1627 31H22.7427C22.7627 32.32 23.1427 33.38 23.9427 34.2C25.2827 35.58 27.3227 35.56 27.8427 35.56C30.7027 35.56 32.9427 33.62 32.9427 30.82C32.9427 28.76 31.6827 27.44 29.5827 26.96C31.3427 26.36 32.4027 25.22 32.4027 23.54C32.4027 20.9 30.2827 19.68 27.9827 19.68C25.1227 19.68 23.4427 21.32 23.3627 23.96Z" fill="white"/>
</svg>
