<svg width="38" height="38" viewBox="0 0 38 38" fill="none" xmlns="http://www.w3.org/2000/svg">
<path d="M37.8588 12.6489C37.6928 12.1743 37.2423 11.8658 36.7444 11.8658H23.7747L20.0759 0.806873C19.9099 0.332242 19.4594 0 18.9615 0C18.4636 0 17.9894 0.332242 17.8471 0.806873L14.172 11.8658H1.17862C0.680702 11.8658 0.230203 12.1743 0.0642289 12.6489C-0.101745 13.1235 0.0642289 13.6456 0.443597 13.9779L10.7102 22.2127L5.99186 36.4042C5.82588 36.9026 5.99186 37.4484 6.44236 37.7569C6.86915 38.0654 7.4382 38.0417 7.86499 37.7094L18.9852 28.8101L30.1054 37.7094C30.5085 38.0417 31.1013 38.0654 31.5281 37.7569C31.9549 37.4484 32.1446 36.9026 31.9786 36.4042L27.2602 22.2127L37.5268 13.9779C37.9299 13.6694 38.0722 13.1235 37.9062 12.6489H37.8588Z" fill="#F22840"/>
<path d="M16.5409 16.8565H17.2687C17.3214 15.9388 18.0387 15.3481 18.9037 15.3481C19.737 15.3481 20.4438 15.8755 20.4438 16.6666C20.4438 17.3944 19.9585 18.27 18.3446 18.1328V18.9029C18.7244 18.8607 19.1569 18.8607 19.5788 18.9873C19.9585 19.0927 20.7286 19.483 20.7286 20.4957C20.7286 21.6138 19.8742 22.2045 18.851 22.2045C17.7434 22.2045 16.9628 21.54 16.9628 20.5695H16.2139C16.2244 21.2657 16.4248 21.8248 16.8468 22.2573C17.5535 22.9851 18.6294 22.9745 18.9037 22.9745C20.4121 22.9745 21.5935 21.9513 21.5935 20.4746C21.5935 19.3881 20.929 18.6919 19.8214 18.4387C20.7497 18.1223 21.3087 17.521 21.3087 16.635C21.3087 15.2426 20.1906 14.5991 18.9775 14.5991C17.4691 14.5991 16.5831 15.4641 16.5409 16.8565Z" fill="white"/>
</svg>
