<svg width="56" height="56" viewBox="0 0 56 56" fill="none" xmlns="http://www.w3.org/2000/svg">
<path d="M55.8298 18.6532C55.5851 17.9532 54.9207 17.4983 54.1864 17.4983H35.0603L29.6056 1.18988C29.3609 0.489952 28.6965 0 27.9623 0C27.228 0 26.5287 0.489952 26.3189 1.18988L20.8992 17.4983H1.7381C1.00382 17.4983 0.339476 17.9532 0.0947175 18.6532C-0.150041 19.3531 0.0947175 20.123 0.654166 20.613L15.7943 32.7568L8.83611 53.6848C8.59135 54.4197 8.83611 55.2246 9.50045 55.6796C10.1298 56.1345 10.969 56.0995 11.5984 55.6096L27.9972 42.4859L44.3961 55.6096C44.9905 56.0995 45.8646 56.1345 46.494 55.6796C47.1234 55.2246 47.4031 54.4197 47.1584 53.6848L40.2002 32.7568L55.3403 20.613C55.9347 20.158 56.1445 19.3531 55.8997 18.6532H55.8298Z" fill="#F22840"/>
<path d="M23.6063 24.58H25.0263C25.0263 22.66 26.0663 21.14 28.2263 21.14C29.7263 21.14 31.0663 21.9 31.0663 23.48C31.0663 24.98 29.8263 26.32 28.9863 27.36C27.1063 29.68 25.3463 31.86 23.5463 33.96V35.28H33.0063V33.82H25.4463C27.0863 31.98 28.3663 30.42 29.7063 28.8C31.0663 27.16 32.7263 25.52 32.7263 23.44C32.7263 20.88 30.4263 19.68 28.3263 19.68C26.1063 19.68 25.0263 20.68 24.4463 21.4C23.7663 22.28 23.6263 23.3 23.6063 24.58Z" fill="white"/>
</svg>
