<svg width="80" height="80" viewBox="0 0 80 80" fill="none" xmlns="http://www.w3.org/2000/svg">
<path fill-rule="evenodd" clip-rule="evenodd" d="M42.5 12.5C42.5 13.9 41.4 15 40 15C38.6 15 37.5 13.9 37.5 12.5V2.5C37.5 1.1 38.6 0 40 0C41.4 0 42.5 1.1 42.5 2.5V12.5ZM34.3 19.25C33.3 20.25 31.75 20.25 30.75 19.25L23.25 11.75C22.25 10.75 22.25 9.19995 23.25 8.19995C24.25 7.19995 25.8 7.19995 26.8 8.19995L34.3 15.7C35.3 16.7 35.3 18.25 34.3 19.25ZM49.25 19.25L56.75 11.75C57.75 10.75 57.75 9.19995 56.75 8.19995C55.75 7.19995 54.2 7.19995 53.2 8.19995L45.7 15.7C44.7 16.7 44.7 18.25 45.7 19.25C46.7 20.25 48.25 20.25 49.25 19.25ZM70 37.5001C70 39.3501 69.45 41.1001 68.55 42.6001C74.95 43.1501 80 48.4501 80 55.0001V75.0001C80 77.7501 77.75 80.0001 75 80.0001H50V55.8001L40 41.8001L30 55.8001V80.0001H5C2.25 80.0001 0 77.7501 0 75.0001V55.0001C0 48.4501 5.05 43.1501 11.35 42.6001C10.45 41.1001 9.9 39.3501 9.9 37.5001C9.9 32.0001 14.4 27.5001 19.9 27.5001C24.4 27.5001 28.1 30.4501 29.4 34.5001L38.15 25.7501C38.24 25.6601 38.33 25.6241 38.42 25.5881C38.48 25.5641 38.54 25.5401 38.6 25.5001C38.6595 25.4605 38.7111 25.4129 38.7612 25.3669C38.8372 25.2969 38.9095 25.2303 39 25.2001H39.25C39.5 25.1501 39.7 25.1501 39.95 25.1501C40.2 25.1501 40.4 25.1501 40.65 25.2001H40.9C41.0248 25.2314 41.0912 25.3015 41.16 25.3742C41.2014 25.4179 41.2436 25.4626 41.3 25.5001C41.45 25.6001 41.75 25.7501 41.75 25.7501L50.5 34.5001C51.8 30.4501 55.55 27.5001 60 27.5001C65.5 27.5001 70 32.0001 70 37.5001ZM65 37.5001C65 34.7501 62.75 32.5001 60 32.5001C57.25 32.5001 55 34.7501 55 37.5001C55 40.2501 57.25 42.5001 60 42.5001C62.75 42.5001 65 40.2501 65 37.5001ZM25 37.5001C25 34.7501 22.75 32.5001 20 32.5001C17.25 32.5001 15 34.7501 15 37.5001C15 40.2501 17.25 42.5001 20 42.5001C22.75 42.5001 25 40.2501 25 37.5001ZM25.5 53.5501L37.05 37.3501C37.35 36.9501 37.5 36.4001 37.5 35.9001V33.5501L29.25 41.8001C29.1894 41.8607 29.1106 41.9029 29.0244 41.949C28.9683 41.979 28.9092 42.0107 28.85 42.0501C27.2 45.2501 23.9 47.5001 20 47.5001C19.45 47.5001 18.9 47.4501 18.35 47.3501C18.05 47.4501 17.8 47.5001 17.5 47.5001H12.5C8.35 47.5001 5 50.8501 5 55.0001V75.0001H10V55.0001C10 53.6001 11.1 52.5001 12.5 52.5001C13.9 52.5001 15 53.6001 15 55.0001V75.0001H25.1V55.0001V54.7501C25.1 54.6001 25.15 54.4001 25.2 54.2501C25.25 54.1001 25.3 53.9501 25.4 53.8001C25.45 53.7001 25.5 53.5501 25.5 53.5501ZM70 75.0001H75H75.05V55.0001C75.05 50.8501 71.7 47.5001 67.55 47.5001H62.55C62.25 47.5001 61.95 47.4501 61.7 47.3501C61.5167 47.3668 61.3333 47.389 61.15 47.4113C60.7833 47.4557 60.4167 47.5001 60.05 47.5001C56.2 47.5001 52.85 45.3001 51.2 42.0501C51.05 42.0001 50.8 41.8001 50.8 41.8001L42.55 33.5501V35.9001C42.55 36.4001 42.7 36.9501 43 37.3501L54.55 53.5501C54.5634 53.5769 54.5768 53.6002 54.5892 53.6217C54.6232 53.6805 54.65 53.7269 54.65 53.8001C54.75 53.9501 54.8 54.1001 54.85 54.2501C54.95 54.4001 54.95 54.6001 54.95 54.7501C55 54.8501 55 55.0001 55 55.0001V75.0001H65V55.0001C65 53.6001 66.1 52.5001 67.5 52.5001C68.9 52.5001 70 53.6001 70 55.0001V75.0001Z" fill="#F22840"/>
</svg>
