<svg width="287" height="96" viewBox="0 0 287 96" fill="none" xmlns="http://www.w3.org/2000/svg">
<path d="M59.64 4.2H0V95.88H9.48V52.44H52.08V44.64H9.36V12.36H59.64V4.2Z" fill="white"/>
<path d="M90.6731 0H81.0731V95.88H90.6731V0Z" fill="white"/>
<path d="M148.859 25.08H142.619C126.419 25.08 118.259 31.8 118.259 45.24V75.84C118.259 89.16 126.419 95.88 142.619 95.88H148.859C165.059 95.88 173.459 89.16 173.459 75.84V45.24C173.459 31.92 164.939 25.08 148.859 25.08ZM163.859 45.48V75.6C163.859 86.64 157.739 87.72 148.979 87.72H142.619C134.939 87.72 127.859 86.52 127.859 74.64V45.48C127.859 34.32 133.739 33.24 142.499 33.24H149.099C157.859 33.24 163.859 34.32 163.859 45.48Z" fill="white"/>
<path d="M286.374 25.08H276.174L261.534 88.08L247.494 25.08H234.294L220.374 87.84L205.494 25.08H194.934L213.894 95.88H226.734L240.654 33.72L254.934 95.88H267.774L286.374 25.56V25.08Z" fill="white"/>
</svg>
