<svg width="494" height="96" viewBox="0 0 494 96" fill="none" xmlns="http://www.w3.org/2000/svg">
<path d="M59.64 2H0V93.68H9.48V50.24H52.08V42.44H9.36V10.16H59.64V2Z" fill="#EAEFF3"/>
<path d="M109.753 22.88H102.433C89.3531 22.88 78.0731 27.32 78.0731 42.2V72.56C78.0731 89.12 86.2331 93.68 101.713 93.68H129.553V85.52H101.713C94.0331 85.52 90.4331 83.48 88.8731 79.76C88.0331 77.84 87.7931 75.56 87.6731 73.04C87.5531 70.4 87.5531 67.4 87.5531 64.16H109.753C122.593 64.16 134.233 60.8 134.233 45.8V42.2C134.233 27.32 122.713 22.88 109.753 22.88ZM102.313 31.04H109.873C120.673 31.04 124.513 33.08 124.513 44.72C124.513 55.4 119.113 56.96 109.753 56.96H87.7931V43.28C87.7931 32.6 92.9531 31.04 102.313 31.04Z" fill="#EAEFF3"/>
<path d="M186.66 22.88H162.54V30.44H186.3C194.1 30.44 202.5 32.12 202.5 41.36V50C198.06 49.88 193.02 49.76 187.86 49.76C182.7 49.76 177.54 50.24 172.86 51.44C163.5 53.96 156.42 59.84 156.42 73.4C156.42 88.28 166.02 93.8 179.34 93.8C188.58 93.8 196.98 91.4 202.74 84.2L203.22 93.68H211.62V41.24C211.62 26.36 199.38 22.88 186.66 22.88ZM186.54 56.96H202.5V77C197.1 83.12 189.3 86.12 181.26 86.12C172.62 86.12 166.14 83.12 166.14 72.92C166.14 59.36 175.38 56.96 186.54 56.96Z" fill="#EAEFF3"/>
<path d="M275.678 23.12H254.558V5.48001H245.678L245.198 23.12H234.518V30.32H245.078V74.84C245.078 87.8 250.718 93.68 262.838 93.68H275.678L275.438 85.52H263.198C255.998 85.52 254.558 81.32 254.558 74.84V30.32H275.678V23.12Z" fill="#EAEFF3"/>
<path d="M352.503 73.64V22.88H342.903V73.4C342.903 84.44 336.783 85.52 328.023 85.52H321.663C313.983 85.52 306.903 84.32 306.903 72.44V22.88H297.303V73.64C297.303 86.96 305.463 93.68 321.663 93.68H327.903C344.103 93.68 352.503 86.96 352.503 73.64Z" fill="#EAEFF3"/>
<path d="M389.698 39.68L388.618 22.88H380.578V93.68H390.178V48.32C392.458 45.44 394.498 42.92 396.298 40.76C398.098 38.6 399.658 36.8 401.458 35.36C404.938 32.48 408.898 31.04 415.618 31.04H417.538V22.88H415.618C407.698 22.88 402.418 25.4 398.578 28.64C396.658 30.32 395.098 32.24 393.658 34.16L389.698 39.68Z" fill="#EAEFF3"/>
<path d="M468.769 22.88H461.449C448.369 22.88 437.089 27.32 437.089 42.2V72.56C437.089 89.12 445.249 93.68 460.729 93.68H488.569V85.52H460.729C453.049 85.52 449.449 83.48 447.889 79.76C447.049 77.84 446.809 75.56 446.689 73.04C446.569 70.4 446.569 67.4 446.569 64.16H468.769C481.609 64.16 493.249 60.8 493.249 45.8V42.2C493.249 27.32 481.729 22.88 468.769 22.88ZM461.329 31.04H468.889C479.689 31.04 483.529 33.08 483.529 44.72C483.529 55.4 478.129 56.96 468.769 56.96H446.809V43.28C446.809 32.6 451.969 31.04 461.329 31.04Z" fill="#EAEFF3"/>
</svg>
