<svg width="859" height="96" viewBox="0 0 859 96" fill="none" xmlns="http://www.w3.org/2000/svg">
<path d="M10.32 95.88L20.28 66.48H58.08L68.04 95.88H78.36L45.72 4.2H32.4L0 95.88H10.32ZM39.24 10.8L55.32 58.56H23.04L39.24 10.8Z" fill="#EAEFF3"/>
<path d="M123.804 33.24H146.844L146.604 25.2H123.924C107.844 25.2 99.5644 31.8 99.5644 44.52V76.8C99.5644 89.64 107.604 96 123.924 96H146.844L146.604 87.84H123.924C115.044 87.84 109.164 86.76 109.164 75.72V45.6C109.164 34.44 115.044 33.24 123.804 33.24Z" fill="#EAEFF3"/>
<path d="M218.702 96H228.302V45.36C228.302 32.4 220.862 24.6 208.982 24.6C198.662 24.6 189.182 29.88 182.582 36.6V0.240004H173.222V96H182.702V45.6C186.902 39.24 197.822 32.4 206.342 32.4C214.382 32.4 218.702 37.2 218.702 45.48V96Z" fill="#EAEFF3"/>
<path d="M265.879 0H256.519V13.2H265.879V0ZM265.879 25.2H256.519V96H265.879V25.2Z" fill="#EAEFF3"/>
<path d="M324.578 25.2H317.258C304.178 25.2 292.898 29.64 292.898 44.52V74.88C292.898 91.44 301.058 96 316.538 96H344.378V87.84H316.538C308.858 87.84 305.258 85.8 303.698 82.08C302.858 80.16 302.618 77.88 302.498 75.36C302.378 72.72 302.378 69.72 302.378 66.48H324.578C337.418 66.48 349.058 63.12 349.058 48.12V44.52C349.058 29.64 337.538 25.2 324.578 25.2ZM317.138 33.36H324.698C335.498 33.36 339.338 35.4 339.338 47.04C339.338 57.72 333.938 59.28 324.578 59.28H302.618V45.6C302.618 34.92 307.778 33.36 317.138 33.36Z" fill="#EAEFF3"/>
<path d="M407.125 96L432.325 25.2H421.765L401.005 87.84L379.885 25.2H369.205L394.645 96H407.125Z" fill="#EAEFF3"/>
<path d="M484.872 25.2H477.552C464.472 25.2 453.192 29.64 453.192 44.52V74.88C453.192 91.44 461.352 96 476.832 96H504.672V87.84H476.832C469.152 87.84 465.552 85.8 463.992 82.08C463.152 80.16 462.912 77.88 462.792 75.36C462.672 72.72 462.672 69.72 462.672 66.48H484.872C497.712 66.48 509.352 63.12 509.352 48.12V44.52C509.352 29.64 497.832 25.2 484.872 25.2ZM477.432 33.36H484.992C495.792 33.36 499.632 35.4 499.632 47.04C499.632 57.72 494.232 59.28 484.872 59.28H462.912V45.6C462.912 34.92 468.072 33.36 477.432 33.36Z" fill="#EAEFF3"/>
<path d="M617.339 96H627.059V45.24C627.059 32.4 619.499 24.6 608.219 24.6C600.419 24.6 590.819 28.92 584.699 35.76C582.179 28.56 575.819 24.6 567.779 24.6C560.579 24.6 551.819 28.32 545.459 34.92L544.739 26.64H536.819V96H546.299V42.48C550.739 37.56 558.419 32.28 565.019 32.28C572.579 32.28 576.899 37.08 576.899 45.36V96H586.619V45.24L586.379 42.6C591.179 37.68 598.859 32.28 605.579 32.28C613.019 32.28 617.339 37.08 617.339 45.36V96Z" fill="#EAEFF3"/>
<path d="M686.299 25.2H678.979C665.899 25.2 654.619 29.64 654.619 44.52V74.88C654.619 91.44 662.779 96 678.259 96H706.099V87.84H678.259C670.579 87.84 666.979 85.8 665.419 82.08C664.579 80.16 664.339 77.88 664.219 75.36C664.099 72.72 664.099 69.72 664.099 66.48H686.299C699.139 66.48 710.779 63.12 710.779 48.12V44.52C710.779 29.64 699.259 25.2 686.299 25.2ZM678.859 33.36H686.419C697.219 33.36 701.059 35.4 701.059 47.04C701.059 57.72 695.659 59.28 686.299 59.28H664.339V45.6C664.339 34.92 669.499 33.36 678.859 33.36Z" fill="#EAEFF3"/>
<path d="M784.206 96H793.806V45.24C793.806 32.4 786.366 24.6 774.486 24.6C765.246 24.6 754.566 29.04 746.886 37.2L746.166 26.64H738.246V96H747.726V45.48C751.926 39.12 762.846 32.28 771.846 32.28C779.886 32.28 784.206 37.08 784.206 45.36V96Z" fill="#EAEFF3"/>
<path d="M858.201 25.44H837.081V7.80001H828.201L827.721 25.44H817.041V32.64H827.601V77.16C827.601 90.12 833.241 96 845.361 96H858.201L857.961 87.84H845.721C838.521 87.84 837.081 83.64 837.081 77.16V32.64H858.201V25.44Z" fill="#EAEFF3"/>
</svg>
