<svg width="310" height="96" viewBox="0 0 310 96" fill="none" xmlns="http://www.w3.org/2000/svg">
<path d="M40.2 4.32H0V96H9.48V58.56H40.2C50.28 58.56 63 54.72 63 37.08V25.68C63 8.04 50.28 4.32 40.2 4.32ZM53.28 26.16V36.6C53.28 45.12 48.6 50.28 40.32 50.28H9.36V12.48H40.2C48.6 12.48 53.28 17.64 53.28 26.16Z" fill="white"/>
<path d="M96.6497 42L95.5697 25.2H87.5297V96H97.1297V50.64C99.4097 47.76 101.45 45.24 103.25 43.08C105.05 40.92 106.61 39.12 108.41 37.68C111.89 34.8 115.85 33.36 122.57 33.36H124.49V25.2H122.57C114.65 25.2 109.37 27.72 105.53 30.96C103.61 32.64 102.05 34.56 100.61 36.48L96.6497 42Z" fill="white"/>
<path d="M155.8 0H146.44V13.2H155.8V0ZM155.8 25.2H146.44V96H155.8V25.2Z" fill="white"/>
<path d="M206.94 33.24H229.98L229.74 25.2H207.06C190.98 25.2 182.7 31.8 182.7 44.52V76.8C182.7 89.64 190.74 96 207.06 96H229.98L229.74 87.84H207.06C198.18 87.84 192.3 86.76 192.3 75.72V45.6C192.3 34.44 198.18 33.24 206.94 33.24Z" fill="white"/>
<path d="M285.037 25.2H277.717C264.637 25.2 253.357 29.64 253.357 44.52V74.88C253.357 91.44 261.517 96 276.997 96H304.837V87.84H276.997C269.317 87.84 265.718 85.8 264.158 82.08C263.318 80.16 263.077 77.88 262.957 75.36C262.837 72.72 262.837 69.72 262.837 66.48H285.037C297.877 66.48 309.517 63.12 309.517 48.12V44.52C309.517 29.64 297.997 25.2 285.037 25.2ZM277.597 33.36H285.158C295.958 33.36 299.797 35.4 299.797 47.04C299.797 57.72 294.397 59.28 285.037 59.28H263.077V45.6C263.077 34.92 268.237 33.36 277.597 33.36Z" fill="white"/>
</svg>
