<svg width="609" height="96" viewBox="0 0 609 96" fill="none" xmlns="http://www.w3.org/2000/svg">
<path d="M63 72.44V2H53.4V72.44C53.4 85.28 44.76 85.4 40.44 85.4H22.68C18.36 85.4 9.72 85.28 9.72 72.44V2H0V72.44C0 90.8 14.28 93.68 22.68 93.68H40.32C48.72 93.68 63 90.8 63 72.44Z" fill="#EAEFF3"/>
<path d="M115.103 30.92H138.023V22.88H113.063C100.223 22.88 88.8234 26.72 88.8234 41.6C88.8234 56.48 99.9834 59.48 111.143 61.4C113.903 61.88 116.663 62.24 119.303 62.72C121.943 63.32 124.343 63.92 126.503 64.76C130.583 66.44 133.463 69.32 133.463 74.48C133.463 84.56 123.263 85.52 115.583 85.52H90.6234V93.68H116.063C129.863 93.68 142.823 90.92 142.823 74.24C142.823 60.08 131.663 56.96 120.623 54.8C117.863 54.2 114.983 53.72 112.463 53.24C109.823 52.64 107.423 51.92 105.383 51.08C101.183 49.16 98.5434 46.4 98.5434 41.36C98.5434 31.28 107.303 30.92 115.103 30.92Z" fill="#EAEFF3"/>
<path d="M197.177 22.88H189.857C176.777 22.88 165.497 27.32 165.497 42.2V72.56C165.497 89.12 173.657 93.68 189.137 93.68H216.977V85.52H189.137C181.457 85.52 177.857 83.48 176.297 79.76C175.457 77.84 175.217 75.56 175.097 73.04C174.977 70.4 174.977 67.4 174.977 64.16H197.177C210.017 64.16 221.657 60.8 221.657 45.8V42.2C221.657 27.32 210.137 22.88 197.177 22.88ZM189.737 31.04H197.297C208.097 31.04 211.937 33.08 211.937 44.72C211.937 55.4 206.537 56.96 197.177 56.96H175.217V43.28C175.217 32.6 180.377 31.04 189.737 31.04Z" fill="#EAEFF3"/>
<path d="M317.764 22.28V73.52C317.764 89.72 329.044 93.68 343.324 93.68H374.884V85.4H344.884C333.964 85.4 327.364 85.28 327.364 72.2V23.6C327.364 11 334.324 10.16 344.884 10.16H374.884V2H343.324C329.044 2 317.764 5.96 317.764 22.28Z" fill="#EAEFF3"/>
<path d="M425.12 22.88H401V30.44H424.76C432.56 30.44 440.96 32.12 440.96 41.36V50C436.52 49.88 431.48 49.76 426.32 49.76C421.16 49.76 416 50.24 411.32 51.44C401.96 53.96 394.88 59.84 394.88 73.4C394.88 88.28 404.48 93.8 417.8 93.8C427.04 93.8 435.44 91.4 441.2 84.2L441.68 93.68H450.08V41.24C450.08 26.36 437.84 22.88 425.12 22.88ZM425 56.96H440.96V77C435.56 83.12 427.76 86.12 419.72 86.12C411.08 86.12 404.6 83.12 404.6 72.92C404.6 59.36 413.84 56.96 425 56.96Z" fill="#EAEFF3"/>
<path d="M501.658 30.92H524.578V22.88H499.618C486.778 22.88 475.378 26.72 475.378 41.6C475.378 56.48 486.538 59.48 497.698 61.4C500.458 61.88 503.218 62.24 505.858 62.72C508.498 63.32 510.898 63.92 513.058 64.76C517.138 66.44 520.018 69.32 520.018 74.48C520.018 84.56 509.818 85.52 502.138 85.52H477.178V93.68H502.618C516.418 93.68 529.378 90.92 529.378 74.24C529.378 60.08 518.218 56.96 507.178 54.8C504.418 54.2 501.538 53.72 499.018 53.24C496.378 52.64 493.978 51.92 491.938 51.08C487.738 49.16 485.098 46.4 485.098 41.36C485.098 31.28 493.858 30.92 501.658 30.92Z" fill="#EAEFF3"/>
<path d="M583.732 22.88H576.412C563.332 22.88 552.052 27.32 552.052 42.2V72.56C552.052 89.12 560.212 93.68 575.692 93.68H603.532V85.52H575.692C568.012 85.52 564.412 83.48 562.852 79.76C562.012 77.84 561.772 75.56 561.652 73.04C561.532 70.4 561.532 67.4 561.532 64.16H583.732C596.572 64.16 608.212 60.8 608.212 45.8V42.2C608.212 27.32 596.692 22.88 583.732 22.88ZM576.292 31.04H583.852C594.652 31.04 598.492 33.08 598.492 44.72C598.492 55.4 593.092 56.96 583.732 56.96H561.772V43.28C561.772 32.6 566.932 31.04 576.292 31.04Z" fill="#EAEFF3"/>
</svg>
