<svg width="335" height="96" viewBox="0 0 335 96" fill="none" xmlns="http://www.w3.org/2000/svg">
<path d="M64.68 2H54.96V81.92L11.76 2H0V93.68H9.6V16.16L51.72 93.68H64.68V2Z" fill="#EAEFF3"/>
<path d="M124.402 22.88H117.082C104.002 22.88 92.7216 27.32 92.7216 42.2V72.56C92.7216 89.12 100.882 93.68 116.362 93.68H144.202V85.52H116.362C108.682 85.52 105.082 83.48 103.522 79.76C102.682 77.84 102.442 75.56 102.322 73.04C102.202 70.4 102.202 67.4 102.202 64.16H124.402C137.242 64.16 148.882 60.8 148.882 45.8V42.2C148.882 27.32 137.362 22.88 124.402 22.88ZM116.962 31.04H124.522C135.322 31.04 139.162 33.08 139.162 44.72C139.162 55.4 133.762 56.96 124.402 56.96H102.442V43.28C102.442 32.6 107.602 31.04 116.962 31.04Z" fill="#EAEFF3"/>
<path d="M261.188 22.88H250.988L236.348 85.88L222.308 22.88H209.108L195.188 85.64L180.308 22.88H169.748L188.708 93.68H201.548L215.468 31.52L229.748 93.68H242.588L261.188 23.36V22.88Z" fill="#EAEFF3"/>
<path d="M307.261 30.92H330.181V22.88H305.221C292.381 22.88 280.981 26.72 280.981 41.6C280.981 56.48 292.141 59.48 303.301 61.4C306.061 61.88 308.821 62.24 311.461 62.72C314.101 63.32 316.501 63.92 318.661 64.76C322.741 66.44 325.621 69.32 325.621 74.48C325.621 84.56 315.421 85.52 307.741 85.52H282.781V93.68H308.221C322.021 93.68 334.981 90.92 334.981 74.24C334.981 60.08 323.821 56.96 312.781 54.8C310.021 54.2 307.141 53.72 304.621 53.24C301.981 52.64 299.581 51.92 297.541 51.08C293.341 49.16 290.701 46.4 290.701 41.36C290.701 31.28 299.461 30.92 307.261 30.92Z" fill="#EAEFF3"/>
</svg>
