<svg width="471" height="96" viewBox="0 0 471 96" fill="none" xmlns="http://www.w3.org/2000/svg">
<path d="M9.72 31.8V24.48C9.72 15.96 15.84 12.72 23.52 12.72H55.44V4.56001H24.48C11.4 4.56001 0 9.00001 0 23.76V31.92C0 48.12 12.96 51.48 26.04 53.4C29.28 53.88 32.52 54.24 35.64 54.72C38.64 55.2 41.52 55.8 43.92 56.64C48.84 58.32 52.08 61.08 52.08 66.24V75.72C52.08 86.04 44.04 87.84 35.28 87.84H2.76V96H35.4C48 96 61.8 91.44 61.8 76.56V65.76C61.8 51 48.6 48.24 35.64 46.44C32.4 45.96 29.16 45.48 26.04 44.88C23.04 44.4 20.16 43.68 17.76 42.72C12.84 40.8 9.72 37.56 9.72 31.8Z" fill="#EAEFF3"/>
<path d="M116.771 25.2H109.451C96.3712 25.2 85.0912 29.64 85.0912 44.52V74.88C85.0912 91.44 93.2513 96 108.731 96H136.571V87.84H108.731C101.051 87.84 97.4513 85.8 95.8913 82.08C95.0513 80.16 94.8113 77.88 94.6913 75.36C94.5713 72.72 94.5713 69.72 94.5713 66.48H116.771C129.611 66.48 141.251 63.12 141.251 48.12V44.52C141.251 29.64 129.731 25.2 116.771 25.2ZM109.331 33.36H116.891C127.691 33.36 131.531 35.4 131.531 47.04C131.531 57.72 126.131 59.28 116.771 59.28H94.8112V45.6C94.8112 34.92 99.9713 33.36 109.331 33.36Z" fill="#EAEFF3"/>
<path d="M177.838 42L176.758 25.2H168.718V96H178.318V50.64C180.598 47.76 182.638 45.24 184.438 43.08C186.238 40.92 187.798 39.12 189.598 37.68C193.078 34.8 197.038 33.36 203.758 33.36H205.678V25.2H203.758C195.838 25.2 190.558 27.72 186.718 30.96C184.798 32.64 183.238 34.56 181.798 36.48L177.838 42Z" fill="#EAEFF3"/>
<path d="M259.309 96L284.509 25.2H273.949L253.189 87.84L232.069 25.2H221.389L246.829 96H259.309Z" fill="#EAEFF3"/>
<path d="M317.136 0H307.776V13.2H317.136V0ZM317.136 25.2H307.776V96H317.136V25.2Z" fill="#EAEFF3"/>
<path d="M368.275 33.24H391.315L391.075 25.2H368.395C352.315 25.2 344.035 31.8 344.035 44.52V76.8C344.035 89.64 352.075 96 368.395 96H391.315L391.075 87.84H368.395C359.515 87.84 353.635 86.76 353.635 75.72V45.6C353.635 34.44 359.515 33.24 368.275 33.24Z" fill="#EAEFF3"/>
<path d="M446.373 25.2H439.053C425.973 25.2 414.693 29.64 414.693 44.52V74.88C414.693 91.44 422.853 96 438.333 96H466.173V87.84H438.333C430.653 87.84 427.053 85.8 425.493 82.08C424.653 80.16 424.413 77.88 424.293 75.36C424.173 72.72 424.173 69.72 424.173 66.48H446.373C459.213 66.48 470.853 63.12 470.853 48.12V44.52C470.853 29.64 459.333 25.2 446.373 25.2ZM438.933 33.36H446.493C457.293 33.36 461.133 35.4 461.133 47.04C461.133 57.72 455.733 59.28 446.373 59.28H424.413V45.6C424.413 34.92 429.573 33.36 438.933 33.36Z" fill="#EAEFF3"/>
</svg>
