<svg width="48" height="48" viewBox="0 0 48 48" fill="none" xmlns="http://www.w3.org/2000/svg">
<path d="M0 0H40C44.4183 0 48 3.58172 48 8V48L0 0Z" fill="#F22840"/>
<path fill-rule="evenodd" clip-rule="evenodd" d="M30.3901 10.509C29.8328 9.89603 29.878 8.94736 30.491 8.3901C31.104 7.83284 32.0527 7.87802 32.6099 8.491L37.5984 13.9783C37.7105 14.0986 37.7994 14.2333 37.8648 14.3766C37.9501 14.5633 37.9949 14.7635 37.9996 14.964C38.0054 15.2049 37.9536 15.4474 37.843 15.669C37.7805 15.7945 37.6995 15.9129 37.6001 16.0198L32.6099 21.509C32.0527 22.122 31.104 22.1672 30.491 21.6099C29.878 21.0527 29.8329 20.104 30.3901 19.491L34.4728 15L30.3901 10.509Z" fill="white"/>
</svg>
