<svg width="287" height="105" viewBox="0 0 287 105" fill="none" xmlns="http://www.w3.org/2000/svg">
<path d="M12.6099 12.6361L12.4271 12.8192C12.4271 13.0023 14.4374 13.3686 14.6201 13.3686C14.8029 13.3686 14.9856 13.5517 14.9856 13.7349C14.9856 14.2843 14.4374 15.5662 13.8891 15.5662C13.7064 15.5662 13.5236 15.5662 13.3409 15.3831C11.6961 15.0168 9.86858 14.1011 8.58932 13.0023L8.40657 12.8192C8.22382 12.8192 8.22382 13.0023 8.22382 13.0023V13.7349C8.22382 14.4674 8.04107 14.4674 7.67556 14.6505C6.3963 15.0168 3.83778 15.3831 2.37577 15.5662C2.01027 15.5662 2.01027 15.5662 2.01027 15.7493C2.01027 15.9325 2.01026 15.9325 1.64476 15.9325C1.46201 15.9325 1.27926 15.7493 1.27926 15.5662C1.27926 15.1999 0.731002 13.918 0.731002 13.7349C0.731002 13.3686 1.09651 13.3686 1.46201 13.3686C2.74127 13.3686 2.92402 13.1855 2.92402 12.6361V7.32524C2.92402 7.14211 2.92403 6.95898 2.74127 6.95898C2.55852 6.95898 2.19301 7.14211 2.19301 7.32524C2.01026 7.50837 1.64476 7.50837 1.46201 7.50837C0.913757 7.50837 0 6.04331 0 5.67705C0 5.49392 0.18275 5.31078 0.548253 5.31078C2.74127 4.21199 4.93429 2.74693 6.39631 0.732475C6.57906 0.549343 6.57905 0.366211 6.7618 0.366211C7.12731 0.366211 8.77208 0.732476 9.32033 0.915608L9.50308 1.09874C9.50308 1.28187 9.50308 1.28187 9.32033 1.28187C9.32033 1.28187 9.32033 1.28187 9.32033 1.465C9.32033 1.64814 9.68583 2.0144 9.86858 2.19753C11.3306 3.66259 12.9754 4.57825 14.9856 5.31078C15.1684 5.31078 15.1684 5.49392 15.1684 5.67705C15.1684 6.22645 14.4374 7.6915 13.8891 7.6915C13.7064 7.6915 12.7926 7.14211 12.4271 6.95898C12.2444 6.95898 12.2444 6.77584 12.0616 6.77584C11.8789 6.77584 11.8789 6.95898 11.8789 7.14211V8.60717C11.8789 8.97343 11.8789 9.52283 11.8789 9.88909C11.8789 10.0722 11.8789 10.2554 12.0616 10.2554H12.2444C12.4271 10.2554 12.4271 10.2554 12.6099 10.4385C13.1581 10.8048 13.5236 11.171 14.0719 11.5373C14.2546 11.5373 14.4374 11.7204 14.4374 11.9035C14.4374 12.0867 14.4374 12.0867 14.2546 12.0867C14.0719 12.0867 14.0719 12.0867 13.8891 12.0867H13.7064C13.3409 12.2698 12.9754 12.4529 12.6099 12.6361ZM9.50308 7.32524C9.68583 7.32524 9.68583 7.14211 9.68583 7.14211C9.68583 6.95898 9.50308 6.95898 9.50308 6.95898H5.48255C5.2998 6.95898 5.29979 7.14211 5.29979 7.14211V7.32524C5.29979 7.50837 5.2998 7.50837 5.48255 7.50837H9.50308V7.32524ZM5.29979 8.7903C5.11704 8.7903 5.11704 8.97343 5.11704 8.97343V9.15656C5.11704 9.3397 5.11704 9.33969 5.29979 9.33969H9.32033C9.50308 9.33969 9.50308 9.15656 9.50308 9.15656V8.97343C9.50308 8.7903 9.32033 8.7903 9.32033 8.7903H5.29979ZM5.6653 10.9879C5.48255 10.9879 5.11704 11.171 5.11704 11.5373V12.4529C5.11704 12.8192 5.11705 13.0023 5.48255 13.0023C5.6653 13.0023 6.76181 12.8192 7.12731 12.8192C7.31006 12.8192 7.49281 12.6361 7.49281 12.6361C7.49281 12.4529 7.49282 12.4529 7.31007 12.2698C7.12731 12.0867 6.94456 11.7204 6.94456 11.5373C6.76181 11.3542 6.57905 11.3542 6.21355 11.3542H5.6653V10.9879ZM5.84805 5.31078C6.21355 5.31078 6.39631 5.12765 6.39631 4.76139C6.39631 4.57825 6.39631 4.21199 6.39631 4.21199C6.39631 4.02886 6.57905 4.02886 6.7618 4.02886C6.94456 4.02886 7.85832 4.21199 8.22382 4.21199H8.40657C8.40657 4.21199 8.58932 4.21199 8.58932 4.02886C8.58932 4.02886 8.40658 3.84573 8.22382 3.66259L8.04107 3.47946C7.85832 3.29633 7.85831 3.29633 7.67556 3.29633C7.49281 3.29633 7.31006 3.47946 7.12731 3.66259C6.57905 4.21199 6.0308 4.57826 5.48255 5.12765C5.48255 5.12765 5.29979 5.31078 5.29979 5.49392C5.29979 5.67705 5.48255 5.67705 5.6653 5.67705H5.84805V5.31078ZM9.50308 5.31078C9.68583 5.31078 9.86858 5.31078 9.86858 5.12765V4.94452C9.68583 4.94452 9.32033 4.76139 9.13758 4.57825H8.95483C8.77207 4.57825 8.58932 4.76139 8.58932 4.94452C8.58932 5.12765 8.77208 5.31078 9.13758 5.31078H9.50308ZM9.32033 10.9879C9.13758 10.9879 8.95483 10.9879 8.95483 11.171C8.95483 11.3542 9.68584 12.0867 10.0513 12.0867C10.4168 11.9035 11.1478 11.171 11.1478 10.9879C11.1478 10.8048 10.9651 10.8048 10.7823 10.8048C10.4168 10.8048 9.86858 10.8048 9.50308 10.8048H9.32033V10.9879Z" fill="white"/>
<path d="M22.1139 3.84578C22.2966 3.84578 22.4794 3.84578 22.4794 4.02892C22.4794 4.02892 22.4794 4.21205 22.2966 4.21205C22.1139 4.57831 21.9311 4.76145 21.9311 5.12771C21.7484 5.86024 21.7484 6.7759 21.7484 7.50843C21.7484 8.60722 21.9311 9.70602 22.2966 10.8048C22.4794 11.1711 22.6621 11.5373 23.0276 11.5373C23.3931 11.5373 23.7586 10.8048 23.9414 10.6217C24.1241 10.2554 24.3069 10.0723 24.6724 10.0723C25.2206 10.0723 26.4999 10.9879 26.4999 11.3542C26.4999 11.7205 25.7689 12.6361 25.4034 13.0024C24.8551 13.7349 24.3069 14.2843 23.3931 14.2843C22.2966 14.2843 21.3829 13.5518 20.6519 12.6361C19.3726 10.8048 19.3726 8.42409 19.3726 6.40964C19.3726 6.04337 19.3726 4.02892 19.3726 3.84578C19.3726 3.66265 19.5553 3.66265 19.7381 3.66265C19.7381 3.47952 21.7484 3.84578 22.1139 3.84578ZM28.3274 3.29639C28.6929 3.29639 30.1549 4.39518 30.8859 5.49397C31.6169 6.59277 31.9825 7.69156 32.1652 8.97349C32.1652 9.15662 32.1652 9.70602 32.1652 9.88915C32.1652 10.2554 32.1652 10.4385 31.7997 10.4385C31.2514 10.6217 30.7032 10.8048 30.1549 10.8048C29.4239 10.8048 29.4239 10.6217 29.4239 9.88915C29.2412 7.8747 28.5102 6.2265 27.0482 5.12771C26.8654 5.12771 26.8654 4.94458 26.8654 4.76145C26.6827 4.57831 27.7792 3.29639 28.3274 3.29639Z" fill="white"/>
<path d="M40.7506 2.19735C40.9333 2.19735 41.1161 2.38048 41.1161 2.38048C41.1161 2.38048 41.1161 2.56361 40.9333 2.56361C40.7506 2.74674 40.5678 2.92988 40.5678 3.29614C40.2023 5.31059 40.0196 7.50818 40.0196 9.52264C40.0196 10.8046 40.0196 12.2696 41.2988 12.2696C42.3953 12.2696 43.3091 11.7202 44.0401 10.8046C44.5884 10.072 44.9539 9.15637 45.1366 8.42384C45.1366 8.05758 45.3194 7.87445 45.5021 7.87445C45.8676 7.87445 46.4159 8.24071 46.5986 8.60698C46.9641 8.79011 47.3296 9.33951 47.3296 9.70577C47.3296 10.2552 46.7814 11.354 46.5986 11.7202C45.5021 13.7347 43.6746 15.0166 41.2988 15.0166C40.0196 15.0166 38.9231 14.6503 38.0093 13.5515C37.0956 12.4528 37.0956 10.6214 37.0956 9.33951C37.0956 7.32505 37.2783 5.3106 37.4611 3.47927C37.4611 3.11301 37.4611 2.56361 37.4611 2.19735C37.4611 1.83108 37.461 1.64795 37.8266 1.64795C38.3748 1.64795 40.2023 2.01421 40.7506 2.19735Z" fill="white"/>
<path d="M51.9032 12.0861C53.1825 9.52223 54.279 6.95838 55.741 4.57766C56.472 3.47887 57.203 2.38007 57.934 1.28128C57.934 1.09814 58.1167 1.09814 58.1167 1.09814C58.2995 1.09814 59.396 2.01381 59.5788 2.19694L59.7615 2.38007C60.127 2.5632 60.3098 2.74634 60.3098 2.92947C60.3098 3.1126 60.127 3.1126 60.127 3.1126C59.7615 3.1126 59.7615 3.29573 59.396 3.662C58.8477 4.39453 58.1167 5.31019 57.5685 6.04272L57.3857 6.22585C57.5685 6.40898 57.5685 6.40898 57.7512 6.40898H57.934C58.1167 6.40898 58.2995 6.40898 58.4822 6.40898C59.9443 6.40898 60.858 7.14151 60.858 8.60657C60.858 9.3391 60.6753 10.4379 60.4925 11.1704C60.4925 11.3536 60.4925 11.5367 60.4925 11.7198C60.4925 11.903 60.4925 12.0861 60.858 12.0861C61.4063 12.0861 63.051 10.2548 63.4165 9.70537C63.782 9.3391 63.782 9.15597 64.1475 9.15597C64.513 9.15597 65.2441 10.9873 65.2441 11.1704C65.2441 11.5367 64.1475 12.4524 63.782 12.8186C62.6855 13.7343 61.589 14.6499 60.127 14.6499C58.8478 14.6499 58.1167 13.5511 58.1167 12.2692C58.1167 11.5367 58.2995 10.9873 58.2995 10.2548C58.2995 9.8885 58.4822 9.3391 58.4822 8.97284C58.4822 8.60657 58.2995 8.42344 58.1167 8.42344C57.7512 8.42344 57.203 8.60657 56.8375 8.7897C56.1065 9.15597 55.741 9.70537 55.3755 10.2548C54.8272 11.1704 54.0962 12.6355 53.9135 13.7343C53.9135 13.9174 53.7307 14.2837 53.5479 14.2837C53.1824 14.2837 52.0859 13.7343 51.7204 13.5511C51.3549 13.7343 51.1722 13.7343 51.1722 13.5511C51.1722 13.368 51.9032 12.2692 51.9032 12.0861Z" fill="white"/>
<path d="M70.7173 6.7753C70.7173 6.40903 70.5346 6.2259 70.1691 6.2259C69.9863 6.2259 69.8036 6.2259 69.4381 6.2259C69.0726 6.2259 69.0726 6.04277 69.0726 5.67651V4.57771C69.0726 4.02832 69.0726 3.84518 69.4381 3.84518C69.6208 3.84518 69.9863 3.84518 70.1691 3.84518C70.3518 3.84518 70.7173 3.66205 70.7173 3.29579V2.38012C70.7173 1.83073 70.7173 1.0982 70.7173 1.0982C70.7173 0.915066 70.9001 0.915066 71.0828 0.915066C71.2656 0.915066 72.7276 0.915066 73.0931 1.0982C73.2759 1.0982 73.6414 1.0982 73.6414 1.28133C73.6414 1.46446 73.6414 1.46446 73.4586 1.6476C73.2759 1.83073 73.2759 1.83073 73.2759 2.01386V3.66205C73.2759 3.84518 73.4586 4.21145 73.8241 4.21145C74.0069 4.21145 74.1896 4.21145 74.3724 4.21145C74.7379 4.21145 74.7379 4.39458 74.7379 4.94398V5.85964C74.7379 6.40903 74.7379 6.59217 74.3724 6.59217C74.1896 6.59217 74.0069 6.59217 73.8241 6.59217C73.4586 6.59217 73.2759 6.7753 73.2759 7.14156V9.70542C73.2759 9.88855 73.2759 10.2548 73.4586 10.2548C73.6414 10.2548 73.8241 10.0717 74.0069 10.0717C74.1896 10.0717 74.3724 9.88855 74.3724 9.88855C74.7379 9.88855 74.7379 10.8042 74.7379 10.9873C74.7379 11.3536 74.7379 11.903 74.3724 12.0861C74.0069 12.4524 70.9001 13.3681 70.1691 13.7343C69.9863 13.7343 69.8036 13.9175 69.8036 14.1006C69.6208 13.7343 69.6208 13.9175 69.4381 13.9175C69.2553 13.9175 69.2553 13.7343 69.0726 13.3681C69.0726 13.0018 68.5243 11.7199 68.5243 11.5367C68.5243 11.3536 68.7071 11.1705 69.0726 11.1705C70.5346 10.8042 70.7173 10.8042 70.7173 10.2548V6.7753ZM77.4792 2.92952C77.8447 2.92952 78.0274 2.74639 78.0274 2.38012V2.19699C78.0274 1.83073 78.0274 1.46446 78.0274 1.0982V0.915066C78.0274 0.731934 78.2102 0.731934 78.3929 0.731934C78.7584 0.731934 80.0377 0.915066 80.4032 0.915066C80.5859 0.915066 80.9514 0.915066 80.9514 1.0982C80.9514 1.28133 80.7687 1.28133 80.7687 1.46446C80.5859 1.6476 80.5859 1.46446 80.5859 2.38012C80.5859 2.74639 80.7687 2.92952 81.1342 2.92952H82.0479C82.5962 2.92952 83.1444 2.92952 83.6927 2.92952C84.0582 2.92952 84.0582 3.11265 84.0582 3.47892V4.57771C84.0582 5.12711 84.0582 5.31024 83.6927 5.31024C83.3272 5.31024 82.5962 5.31024 82.0479 5.31024H79.8549C79.8549 5.31024 79.6722 5.31024 79.6722 5.49337C79.6722 5.49337 79.6722 5.49337 79.6722 5.67651C79.6722 5.85964 79.4894 5.85964 79.4894 5.85964C79.3067 5.85964 79.3067 6.04277 79.3067 6.40904C79.3067 6.7753 79.3067 7.14156 79.8549 7.14156H81.4997C81.8652 7.14156 82.2307 7.14156 82.5962 7.14156C83.51 7.14156 83.51 7.69096 83.51 8.42349C83.51 9.88855 83.3272 12.6355 83.1445 14.1006C82.7789 15.9319 81.8652 16.2982 79.8549 16.2982C79.1239 16.2982 78.3929 16.2982 78.3929 14.65C78.3929 14.1006 78.3929 13.7343 78.7584 13.7343C78.9412 13.7343 79.4894 13.7343 79.8549 13.7343C80.4032 13.7343 80.7687 13.7343 80.7687 13.3681C80.9514 12.8187 81.1342 10.6211 81.1342 9.88855C81.1342 9.52228 80.9514 9.52228 80.2204 9.52228H79.6722C79.1239 9.52228 78.9412 9.70542 78.9412 10.2548C78.7584 11.5367 78.0274 13.0018 77.4792 14.2837C77.1137 14.8331 75.8344 16.4813 75.2861 16.4813C74.7379 16.4813 73.4586 15.3825 73.4586 15.0163C73.4586 14.8331 73.8241 14.65 74.0069 14.4669C75.4689 13.1849 76.1999 11.903 76.5654 10.0717C76.7481 8.97289 76.9309 7.87409 76.9309 6.7753V5.49337C76.9309 5.31024 76.7481 4.94398 76.3826 4.94398C76.0171 4.94398 75.8344 4.94398 75.4689 4.94398C75.1034 4.94398 75.1034 4.76084 75.1034 4.21145V3.47892C75.1034 2.92952 75.1034 2.74639 75.4689 2.74639C76.0171 2.74639 76.5654 2.74639 77.1136 2.74639H77.4792V2.92952Z" fill="white"/>
<path d="M94.1162 0.915635C94.4817 0.915635 94.8472 1.09877 94.8472 1.2819L94.6645 1.46503C94.4817 1.64816 94.299 1.8313 94.299 2.38069C94.299 2.56383 94.299 2.74696 94.1162 2.93009V3.11322C94.1162 3.29635 94.299 3.47949 94.4817 3.47949C94.6645 3.47949 95.5782 3.11322 95.761 3.11322C95.9437 3.11322 96.1265 2.93009 96.1265 2.93009C96.492 2.93009 96.492 4.57828 96.492 5.12768C96.492 5.31081 96.492 5.49394 96.1265 5.49394C95.3955 5.67707 94.299 6.04334 93.7507 6.04334C93.0197 6.22647 93.0197 6.22647 92.8369 6.77587C92.1059 8.79032 90.6439 12.453 89.5474 14.2843C89.3647 14.4674 89.3647 14.6506 88.9992 14.6506C88.6337 14.6506 86.9889 13.918 86.9889 13.3686C86.9889 13.1855 87.1716 13.0024 87.3544 12.6361C88.4509 10.9879 89.3647 8.97346 90.0957 7.14213C90.0957 6.959 90.2784 6.77587 90.2784 6.77587C90.2784 6.59274 90.0957 6.4096 89.9129 6.4096C89.5474 6.4096 89.1819 6.4096 88.8164 6.4096C88.4509 6.4096 88.2682 6.4096 88.0854 6.04334C88.0854 5.67708 87.9026 4.57828 87.9026 4.21202C87.9026 4.02888 87.9026 3.84575 88.2681 3.84575C88.4509 3.84575 89.1819 3.84575 90.0957 3.84575C91.0094 3.84575 91.1922 3.84575 91.3749 3.47949C91.5577 2.93009 91.7404 1.09877 91.9232 0.366238C91.9232 0.183106 91.9232 0.183105 92.1059 0.183105C92.2887 0.54937 93.9335 0.915635 94.1162 0.915635ZM93.7507 11.5373C94.4817 12.2698 95.761 12.6361 96.6747 12.6361C97.5885 12.6361 98.3195 12.6361 99.2332 12.2698H99.416C99.5988 12.2698 99.7815 12.6361 99.7815 13.1855V13.7349C99.7815 14.6506 99.7815 14.8337 99.416 15.0168C98.8678 15.2 97.223 15.2 96.6747 15.2C95.3955 15.2 93.9334 15.0168 92.8369 14.2843C92.6542 14.1012 92.1059 13.5518 92.1059 13.1855C92.1059 12.8192 92.6542 12.0867 92.8369 11.9036C93.0197 11.7204 93.2024 11.3542 93.3852 11.3542C93.5679 11.171 93.7507 11.3542 93.7507 11.5373ZM95.3955 6.4096C96.8575 6.4096 97.954 6.59274 99.2332 6.959C99.416 6.959 99.5988 7.14213 99.5988 7.32527C99.5988 7.69153 99.2332 8.79032 99.0505 9.15659C99.0505 9.33972 98.8677 9.33972 98.685 9.33972C98.5022 9.33972 98.3195 9.33972 98.3195 9.15659C97.4057 8.79032 96.492 8.79033 95.3955 8.79033H94.8472C94.4817 8.79033 94.299 8.79032 94.299 8.42406C94.299 6.4096 94.6645 6.4096 95.3955 6.4096Z" fill="white"/>
<path d="M111.113 2.19768C111.113 2.38081 111.113 2.38081 110.931 2.38081C110.748 2.74707 110.382 3.29647 110.382 3.4796C110.382 3.66274 110.565 3.66274 110.748 3.66274C111.296 3.66274 112.941 3.11334 113.489 2.93021C113.672 2.93021 113.855 2.74707 114.037 2.74707C114.22 2.74707 114.403 2.93021 114.403 3.4796C114.403 3.84587 114.586 4.39526 114.586 4.94466C114.586 5.31093 114.403 5.31093 113.672 5.49406C112.758 5.67719 111.296 5.86032 110.2 6.04346C110.017 6.04346 109.651 6.04346 109.469 6.40972C109.469 6.59285 109.286 6.95912 109.286 7.14225C109.286 7.32538 109.469 7.32538 109.469 7.32538H109.651C110.382 6.95912 111.113 6.77598 111.844 6.77598C114.037 6.77598 115.499 8.24104 115.499 10.4386C115.499 14.2844 111.479 15.0169 108.372 15.0169C107.641 15.0169 107.641 14.8338 107.458 14.2844C107.458 13.9181 107.276 13.1856 107.276 12.8194C107.276 12.6362 107.458 12.4531 107.641 12.4531C107.824 12.4531 108.372 12.6362 109.286 12.6362C110.748 12.6362 113.124 12.27 113.124 10.4386C113.124 9.52297 112.575 9.15671 111.844 9.15671C110.748 9.15671 109.286 9.88924 108.555 10.6218C108.372 10.8049 108.189 10.988 108.007 11.3543C107.824 11.5374 107.824 11.7206 107.458 11.7206C107.093 11.7206 106.362 11.3543 105.996 11.1712C105.814 10.988 105.448 10.8049 105.448 10.4386C105.448 10.2555 105.631 9.88924 105.631 9.7061C105.814 9.15671 106.545 7.50851 106.545 6.95912C106.545 6.77599 106.362 6.59285 106.179 6.59285C106.179 6.59285 104.9 6.77598 104.352 6.77598C103.986 6.77598 103.803 6.59285 103.803 6.40972C103.621 6.04346 103.438 5.12779 103.438 4.5784C103.438 4.39527 103.438 4.21213 103.803 4.21213C103.986 4.21213 105.083 4.39527 106.362 4.39527C107.093 4.39527 107.276 4.39526 107.458 2.01454C107.458 1.64828 107.458 1.28202 107.824 1.28202C108.92 1.09888 111.113 1.64828 111.113 2.19768Z" fill="white"/>
<path d="M124.449 1.83132C124.449 1.64819 124.449 1.46506 124.631 1.46506C124.814 1.46506 126.642 1.83132 127.007 2.01446C127.19 2.01446 127.373 2.19759 127.373 2.19759C127.373 2.38072 127.19 2.38072 127.19 2.38072C127.007 2.56385 126.824 2.93012 126.824 3.47951V3.66265C126.824 3.84578 126.824 4.02891 126.824 4.02891C126.824 4.39518 127.19 4.39518 127.373 4.39518C127.738 4.39518 128.286 4.57831 128.835 4.76144C130.114 5.49397 130.297 6.40963 130.297 7.69156C130.297 9.15662 129.931 11.5373 129.2 13.0024C128.469 14.2843 127.19 14.8337 125.728 14.8337C125.18 14.8337 124.997 14.8337 124.814 14.2843C124.631 13.9181 124.449 13.0024 124.449 12.6361C124.449 12.453 124.449 12.2699 124.814 12.2699C124.997 12.2699 125.362 12.2699 125.545 12.2699C126.459 12.2699 126.824 12.2699 127.19 11.5373C127.738 10.6217 127.921 8.79035 127.921 7.87469C127.921 7.14216 127.738 6.77589 127.19 6.77589C126.642 6.77589 126.459 6.7759 126.276 7.32529C125.728 9.33975 124.814 11.1711 123.718 13.0024C123.535 13.3687 122.804 14.4675 122.438 14.6506C122.438 14.6506 122.256 14.8337 122.073 14.8337C121.707 14.8337 120.063 13.9181 120.063 13.3687C120.063 13.1855 120.245 13.0024 120.428 12.8193C121.707 11.5373 122.621 10.0723 123.352 8.24095C123.352 8.24095 123.352 8.05782 123.352 7.87469C123.352 7.69156 123.169 7.69156 123.169 7.69156C123.169 7.69156 121.89 8.05782 121.707 8.24095C121.525 8.24095 121.525 8.42409 121.342 8.42409C121.159 8.42409 120.794 7.69156 120.794 7.14216C120.611 6.7759 120.611 6.2265 120.611 6.04337C120.611 5.86023 120.794 5.86023 121.159 5.6771C122.256 5.49397 122.621 5.49397 123.718 5.31084C124.083 5.31084 124.266 5.1277 124.266 4.57831C124.266 3.84578 124.449 2.93012 124.449 2.19759V1.83132ZM131.21 3.47951C131.759 4.02891 132.124 4.57831 132.49 5.1277C132.672 5.49397 133.952 7.14216 133.952 7.50842C133.952 8.05782 132.49 8.97348 131.941 8.97348C131.759 8.97348 131.759 8.79035 131.576 8.60722C131.028 7.32529 130.297 6.04337 129.2 4.76144C129.2 4.76144 129.017 4.57831 129.017 4.39518C129.017 4.02891 130.297 3.11325 130.662 3.11325C130.845 3.11325 131.028 3.29638 131.21 3.47951ZM132.855 2.01446C133.221 2.38072 133.586 2.74698 133.586 2.93012C133.586 3.29638 132.855 3.84578 132.672 3.84578L132.49 3.66265C132.124 3.29638 131.759 2.74698 131.21 2.38072C131.028 2.38072 131.028 2.19759 131.028 2.19759C131.028 2.01446 131.941 1.28193 132.124 1.28193C132.124 1.28193 132.49 1.83132 132.855 2.01446ZM134.134 0.366265C134.317 0.549397 135.414 1.46506 135.414 1.64819C135.414 2.01446 134.683 2.56385 134.5 2.56385C134.317 2.56385 134.317 2.38072 134.317 2.38072C133.952 2.01446 133.586 1.46506 133.038 1.09879L132.855 0.915662C132.855 0.732529 133.769 0 133.952 0C133.769 0.183132 134.134 0.366265 134.134 0.366265Z" fill="white"/>
<path d="M150.039 4.02886C150.039 4.21199 150.222 4.21199 150.222 4.21199C150.587 4.21199 151.135 4.21199 151.501 4.21199C151.866 4.21199 152.415 4.21199 152.415 4.76139C152.415 5.12765 152.415 5.31078 152.415 5.67705V6.22645C152.415 6.59271 152.415 6.95898 152.415 7.14211C152.415 7.50837 152.049 7.50837 151.684 7.50837H151.501C151.318 7.50837 150.953 7.50837 150.953 7.6915C150.953 7.87464 150.953 7.87464 151.135 8.05777C151.135 8.2409 151.318 8.42403 151.318 8.60717C151.318 9.15656 150.222 9.52283 149.856 9.52283C149.673 9.52283 149.673 9.52283 149.491 9.33969C149.308 9.15656 148.76 8.05777 148.577 8.05777C148.394 8.05777 148.394 8.2409 148.394 8.42403C148.029 9.52283 147.846 9.70596 146.749 9.70596H145.47C145.105 9.70596 144.739 10.0722 144.739 10.2554C144.739 10.2554 144.739 10.2554 144.922 10.2554H147.115C147.48 10.2554 148.029 10.2554 148.394 10.2554C148.577 10.2554 148.942 10.2554 149.125 10.4385C149.308 10.6216 149.491 10.8048 149.491 10.9879C149.491 11.3542 148.211 12.4529 148.029 12.6361C147.846 12.8192 147.663 13.0023 147.663 13.1855C147.663 13.5517 148.394 13.5517 148.577 13.5517C149.308 13.5517 150.953 13.7349 151.866 13.7349C152.049 13.7349 152.232 13.7349 152.232 14.1011C152.232 14.4674 152.049 15.0168 151.866 15.3831C151.684 15.7493 151.501 15.9325 151.135 15.9325C150.222 15.9325 148.577 15.7493 147.48 15.5662C146.932 15.3831 146.384 15.3831 145.836 15.1999C145.653 15.1999 145.105 15.0168 144.922 15.0168C144.556 15.0168 144.008 15.1999 143.643 15.3831C142.363 15.9325 140.17 16.2987 138.708 16.2987C138.343 16.2987 138.16 16.1156 137.794 15.5662C137.612 15.3831 137.429 14.8337 137.429 14.6505C137.429 14.4674 137.612 14.4674 137.977 14.4674C138.708 14.4674 142.546 14.2843 142.546 13.7349C142.546 13.5517 141.998 13.0023 141.632 13.0023C141.449 13.0023 141.084 13.1855 140.901 13.1855C140.536 13.3686 139.622 13.918 139.256 13.918C138.891 13.918 137.794 12.8192 137.794 12.4529C137.794 12.2698 137.977 12.0867 138.343 12.0867C139.439 11.7204 140.353 11.171 141.267 10.4385C141.267 10.4385 141.267 10.4385 141.449 10.4385C141.632 10.2554 141.815 10.0722 141.815 9.88909V9.70596C141.815 9.52283 141.632 9.52283 141.632 9.15656C141.632 8.97343 141.632 8.97343 141.632 8.7903C141.632 8.7903 141.632 8.60717 141.449 8.60717C141.267 8.60717 141.267 8.7903 141.084 8.97343C140.901 9.15656 140.17 10.2554 139.987 10.2554C139.622 10.2554 138.525 9.52283 138.525 8.97343C138.525 8.7903 138.708 8.7903 138.708 8.60717C138.891 8.42403 139.074 8.2409 139.074 8.05777C139.074 7.87464 138.708 7.87464 138.525 7.87464H137.977C137.612 7.87464 137.429 7.87464 137.429 7.50837C137.429 7.32524 137.429 7.32524 137.429 7.14211C137.429 6.95898 137.429 6.77584 137.429 6.59271V5.49392C137.429 5.12765 137.429 4.94452 137.429 4.57825C137.429 4.02886 137.977 4.02886 138.343 4.02886C138.708 4.02886 139.256 4.02886 139.805 4.02886C139.987 4.02886 140.17 4.02886 140.17 3.84573C140.17 3.66259 139.987 3.47946 139.805 3.47946C139.622 3.29633 139.439 3.29633 139.256 3.29633C138.708 3.29633 138.708 3.29633 138.525 2.93006C138.343 2.5638 138.16 2.0144 138.16 1.64814C138.16 1.46501 138.343 1.28187 138.525 1.28187C139.074 1.28187 139.622 1.28187 140.353 1.28187C142.729 1.28187 146.749 1.09874 148.942 0.366211C149.125 0.366211 149.125 0.366211 149.308 0.366211C149.491 0.366211 149.673 0.549343 149.673 0.549343C150.039 0.915608 150.404 1.28187 150.77 1.64814C150.953 1.83127 151.135 2.0144 151.135 2.19753C151.135 2.38067 150.953 2.38067 150.953 2.38067H150.77C150.587 2.38067 150.587 2.38067 150.404 2.38067C150.222 2.38067 149.856 2.38067 149.856 2.5638C149.856 2.5638 150.039 2.74693 150.222 2.74693C150.404 2.74693 150.404 2.74693 150.404 2.93006C150.404 3.1132 150.222 3.1132 150.222 3.1132C150.039 3.1132 150.039 3.1132 149.856 3.29633C149.856 3.29633 149.856 3.29633 149.856 3.47946C150.222 3.66259 150.039 3.84573 150.039 4.02886ZM146.932 6.04331C146.749 6.04331 146.749 6.04331 146.749 6.22645C146.749 6.22645 146.932 6.40958 146.932 6.59271C146.932 6.77584 147.115 6.77584 147.115 6.95898C147.115 7.32524 146.018 7.87464 145.653 7.87464C145.47 7.87464 145.47 7.87464 145.47 7.6915C145.287 7.32524 145.105 6.95898 144.922 6.77584V6.59271C144.922 6.40958 145.105 6.40958 145.105 6.22645C145.105 6.04331 144.922 6.04331 144.739 6.04331H140.718C140.536 6.04331 140.536 6.04331 140.536 6.22645C140.536 6.40958 140.536 6.40958 140.718 6.40958C140.901 6.40958 141.449 6.59271 141.632 6.77584C141.815 6.77584 141.815 6.95898 141.998 6.95898C142.18 6.95898 142.18 6.95898 142.18 6.77584V6.59271V6.40958C142.18 6.22645 142.363 6.22645 142.363 6.22645C142.729 6.22645 143.825 6.22645 144.374 6.40958C144.556 6.40958 144.739 6.40958 144.739 6.59271C144.739 6.77584 144.556 6.77584 144.556 6.77584C144.374 6.95898 144.374 6.95898 144.374 7.32524V7.50837C144.374 7.87464 144.374 7.87464 144.922 7.87464H146.201C146.749 7.87464 146.932 7.87464 147.115 7.14211C147.115 6.95898 147.115 6.77584 147.298 6.77584C147.48 6.77584 147.846 6.95898 148.211 6.95898H148.394C148.577 6.95898 148.577 6.95898 148.577 6.77584C148.76 6.40958 149.491 6.04331 149.856 6.04331H150.039C150.039 6.04331 150.222 6.04331 150.222 5.86018C150.222 5.67705 150.039 5.67705 150.039 5.67705H146.932V6.04331ZM144.008 4.21199C144.191 4.21199 144.191 4.21199 144.191 4.02886C144.191 4.02886 144.008 3.29633 143.46 3.29633C143.094 3.29633 142.912 3.29633 142.912 3.47946C142.912 3.47946 142.912 3.66259 143.094 3.66259C143.094 3.66259 143.094 3.66259 143.094 3.84573C143.094 4.02886 143.094 3.84573 143.094 3.84573C143.094 4.02886 143.094 4.02886 143.277 4.02886H144.008V4.21199ZM144.556 11.5373C144.374 11.5373 144.191 11.5373 144.191 11.7204C144.191 11.9035 144.922 12.4529 145.105 12.4529C145.287 12.4529 146.018 12.0867 146.018 11.7204C146.018 11.5373 145.836 11.5373 145.47 11.5373H144.556ZM146.932 4.21199C147.298 4.21199 147.663 3.1132 147.663 3.1132C147.663 2.93006 147.48 2.93006 147.48 2.93006C147.298 2.93006 146.932 2.93006 146.749 2.93006C146.567 2.93006 146.384 2.93006 146.384 3.1132C146.384 3.29633 146.384 3.29633 146.567 3.29633C146.567 3.29633 146.749 3.47946 146.749 3.66259C146.749 3.84573 146.567 3.84573 146.567 4.02886C146.567 4.02886 146.567 4.02886 146.749 4.02886H146.932V4.21199Z" fill="white"/>
<path d="M164.655 1.09867C164.837 1.09867 165.02 1.09867 165.02 1.2818C165.02 1.2818 165.02 1.46493 164.837 1.46493C164.655 1.64806 164.655 1.64806 164.655 2.01433C164.655 2.19746 164.655 2.56373 164.655 2.74686C164.655 3.11312 164.655 3.47939 165.203 3.47939C166.482 3.47939 167.761 3.29626 169.223 3.29626C169.406 3.29626 169.772 3.29626 169.772 4.57818C169.772 4.94445 169.772 5.67698 169.589 5.86011C169.589 6.04324 169.406 6.04324 169.406 6.04324C169.406 6.04324 167.579 5.86011 167.03 5.86011C166.482 5.86011 165.934 5.86011 165.386 5.86011C165.02 5.86011 164.837 6.04324 164.837 6.4095V6.77577C164.837 7.14203 164.837 7.32517 165.02 7.69143C165.386 8.42396 165.386 9.15649 165.386 9.88902C165.386 12.636 163.558 15.9324 162.644 15.9324C162.279 15.9324 161.548 15.5661 161.365 15.5661C160.817 15.383 160.451 15.1999 160.451 15.0167C160.451 14.8336 160.634 14.6505 160.817 14.4673C161.182 14.1011 161.913 13.3685 161.913 13.1854C161.913 13.0023 161.731 13.0023 161.548 13.0023C160.086 13.0023 159.355 11.1709 159.355 9.88902C159.355 8.42396 160.086 6.77577 161.731 6.4095C161.913 6.4095 162.096 6.4095 162.096 6.22637C162.096 6.22637 162.096 6.04324 161.913 6.04324C161.731 6.04324 160.451 6.22637 160.269 6.22637C159.903 6.22637 157.527 6.59264 157.162 6.77577C156.979 6.77577 156.979 6.77577 156.796 6.77577C156.613 6.77577 156.431 6.4095 156.431 5.31071C156.431 4.76131 156.431 4.39505 156.431 4.21192C156.431 4.02878 156.431 3.84565 156.979 3.84565C158.441 3.84565 160.086 3.66252 161.365 3.66252C161.731 3.66252 162.279 3.66252 162.279 3.11312C162.279 2.56373 162.279 1.64806 162.096 1.2818V1.09867C162.096 0.915535 162.096 0.915535 162.279 0.915535C162.279 0.732403 164.289 1.09867 164.655 1.09867ZM161.731 9.52275C161.731 9.88902 161.731 10.6215 162.279 10.6215C162.644 10.6215 162.827 9.70589 162.827 9.52275C162.827 9.15649 162.827 8.42396 162.279 8.42396C161.731 8.42396 161.731 9.15649 161.731 9.52275Z" fill="white"/>
<path d="M182.931 3.47975C182.931 3.66288 182.748 3.66288 182.748 3.66288C182.017 4.02914 181.286 4.76167 180.738 5.31107C180.738 5.31107 180.555 5.4942 180.555 5.67734C180.555 5.86047 180.738 6.0436 180.921 6.0436H181.103C181.286 6.0436 182.017 6.22673 182.2 6.22673C184.027 6.77613 185.124 8.24119 185.124 10.0725C185.124 13.3689 182.383 14.834 179.459 14.834C177.814 14.834 175.804 14.2846 175.804 12.2701C175.804 10.9882 177.083 9.88938 178.362 9.88938C179.276 9.88938 180.007 10.2556 180.555 10.9882C180.738 11.3544 180.921 11.5376 180.921 11.9038C180.921 12.087 181.103 12.2701 181.286 12.2701C181.652 12.2701 182.565 11.3544 182.565 10.2556C182.565 8.79058 181.469 8.24119 180.19 8.24119C178.91 8.24119 177.814 8.79058 176.9 9.52311C176.352 10.0725 175.255 10.9882 174.89 11.7207C174.707 12.087 174.524 12.087 174.524 12.087C174.159 12.087 172.88 10.6219 172.88 10.4388C172.88 10.2556 173.062 10.0725 173.428 9.88938C173.793 9.52311 176.717 6.77613 177.266 6.22673C177.631 5.86047 177.814 5.67734 178.179 5.31107C178.362 5.12794 178.362 5.12794 178.362 4.94481C178.362 4.76167 178.179 4.76167 177.997 4.76167C177.997 4.76167 176.169 5.12794 175.621 5.12794H175.438C175.073 5.12794 174.89 3.29662 174.89 2.93035V2.74722C174.89 2.56409 174.89 2.56409 175.438 2.56409H175.804C176.9 2.56409 179.276 2.38095 180.19 2.01469C180.555 1.83156 180.738 1.83156 180.921 1.83156C181.652 1.46529 182.931 3.11348 182.931 3.47975ZM178.362 12.087C178.179 12.087 177.814 12.2701 177.814 12.4532C177.814 12.8195 178.362 13.1858 178.728 13.1858C178.91 13.1858 179.093 13.0026 179.093 12.8195C179.276 12.4532 179.093 12.087 178.362 12.087Z" fill="white"/>
<path d="M199.198 3.84518C199.381 3.84518 199.564 3.84518 199.746 3.84518H199.929C200.477 3.84518 201.574 5.31024 201.574 5.49337C201.574 5.49337 201.574 5.67651 201.391 6.04277C201.208 6.2259 201.208 6.40903 201.026 6.59217C199.381 9.88855 197.736 12.2693 194.629 14.2837C194.264 14.4669 192.619 15.5657 192.254 15.5657C191.888 15.5657 191.34 15.0163 190.974 14.8331C190.792 14.65 190.426 14.2837 190.426 14.1006C190.426 13.9175 190.792 13.7343 190.974 13.5512C193.716 12.2693 196.274 10.0717 197.736 7.3247C197.919 7.14156 198.102 6.7753 198.102 6.59217C198.102 6.40903 197.919 6.40903 197.736 6.40903H195.36C194.995 6.40903 194.995 6.59217 194.812 6.7753C194.447 7.3247 193.716 8.05723 193.35 8.60662C193.35 8.60662 193.35 8.60662 193.167 8.78975C192.802 9.15602 192.254 9.70542 192.071 9.70542C191.705 9.70542 190.609 8.97289 190.243 8.60662C190.061 8.42349 190.061 8.42349 190.061 8.24036C190.061 8.05723 190.061 8.05723 190.243 8.05723C191.34 7.14156 192.071 6.40904 192.802 5.31024C193.533 4.39458 194.447 2.92952 194.812 1.83073C194.812 1.6476 194.995 1.28133 195.178 1.28133C195.36 1.28133 196.091 1.64759 196.822 2.01386C197.188 2.19699 197.371 2.19699 197.371 2.38012C197.553 2.38012 197.736 2.56326 197.736 2.74639L197.553 2.92952C197.188 3.11265 196.822 3.84518 196.822 3.84518C196.822 4.02831 197.005 4.02832 197.188 4.21145H199.198V3.84518ZM202.853 3.66205C202.853 4.02832 201.939 4.57771 201.757 4.57771C201.757 4.57771 201.574 4.57771 201.574 4.39458C201.026 3.66205 200.843 3.47892 200.477 2.74639L200.295 2.56326C200.295 2.38012 201.208 1.83073 201.391 1.83073C201.574 1.83073 202.853 3.29579 202.853 3.66205ZM204.498 2.38012C204.498 2.74639 203.584 3.29579 203.401 3.29579L203.219 3.11265C202.853 2.56326 202.488 2.01386 201.939 1.6476L201.757 1.46446C201.757 1.28133 202.67 0.731934 202.853 0.731934C203.036 0.731934 204.498 2.19699 204.498 2.38012Z" fill="white"/>
<path d="M211.255 3.11388C211.621 3.11388 211.803 3.11388 211.803 3.29701C211.803 3.29701 211.803 3.48014 211.621 3.48014C211.438 3.66327 211.438 3.84641 211.438 4.02954C211.438 4.21267 211.438 4.3958 211.438 4.57894C211.438 6.04399 211.438 7.50905 211.072 8.79098C210.707 10.4392 209.793 12.2705 208.514 13.3693C208.331 13.5524 207.966 13.9187 207.783 13.9187C207.417 13.9187 206.504 13.3693 206.138 13.1862C205.955 13.003 205.773 13.003 205.773 12.6368C205.773 12.4536 205.955 12.4536 205.955 12.2705C208.331 10.0729 208.697 7.87532 208.697 4.76207C208.697 4.02954 208.697 2.74761 208.697 2.74761C208.697 2.56448 208.697 2.56448 208.879 2.56448C209.428 2.93074 210.89 2.93074 211.255 3.11388ZM215.458 9.15724C215.458 9.88977 215.458 10.0729 215.824 10.0729C216.372 10.0729 219.114 7.50905 219.662 6.95966C219.662 6.95966 219.845 6.77652 220.027 6.77652C220.21 6.77652 220.576 7.32592 220.758 7.69218C220.941 7.87532 221.124 8.42471 221.124 8.79098C221.124 9.15724 220.576 9.52351 220.393 9.70664L220.21 9.88977C219.479 10.6223 218.565 11.1717 217.834 11.9042C217.103 12.4536 216.372 13.003 215.824 13.5524C215.641 13.7355 215.458 13.9187 215.276 13.9187C215.093 13.9187 213.996 13.3693 213.814 13.1862C213.448 13.003 213.083 12.8199 213.083 12.4536C213.083 12.0874 213.083 11.3548 213.083 10.4392V5.12833C213.083 4.76207 213.083 4.21267 213.083 3.66327C213.083 3.29701 213.083 2.93074 213.083 2.74761C213.083 2.74761 213.083 2.74761 213.083 2.56448C213.083 2.38135 213.083 2.38135 213.265 2.38135C213.265 2.38135 213.996 2.38135 214.179 2.38135C214.362 2.38135 215.641 2.56448 215.824 2.56448C216.007 2.56448 216.007 2.56448 216.007 2.74761C216.007 2.93074 216.007 2.93074 215.824 2.93074C215.641 3.11388 215.641 3.29701 215.641 3.48014C215.641 4.02954 215.641 4.57894 215.641 4.9452V9.15724H215.458Z" fill="white"/>
<path d="M234.29 2.92975C234.472 2.92975 234.655 3.11288 234.655 3.29601C234.655 3.47914 234.472 3.47914 234.472 3.47914C234.107 3.66228 234.107 3.84541 234.107 4.21167C233.741 5.12733 233.193 6.77552 232.645 7.69118C232.645 7.87432 232.462 7.87432 232.462 8.05745C232.462 8.24058 232.645 8.42371 232.645 8.42371C232.827 8.60685 233.193 8.78998 233.559 9.15624C233.741 9.33938 233.924 9.52251 233.924 9.52251C233.924 9.88877 232.828 11.537 232.279 11.537C232.096 11.537 231.914 11.3538 231.914 11.3538C231.731 11.1707 231.365 10.9876 231.183 10.8044C231 10.6213 231 10.6213 230.817 10.6213C230.634 10.6213 230.634 10.8044 230.452 10.8044C229.721 11.7201 228.624 12.6358 227.71 13.3683C227.345 13.7346 225.335 14.8333 224.969 14.8333C224.604 14.8333 224.055 14.1008 223.873 13.9177C223.69 13.7346 223.324 13.1852 223.324 13.002C223.324 12.8189 223.69 12.6358 223.873 12.6358C223.873 12.6358 223.873 12.6358 224.055 12.6358C225.7 11.9032 226.979 10.9876 228.259 9.70564C228.441 9.52251 228.441 9.52251 228.441 9.33938C228.441 9.15624 228.441 9.15624 228.259 8.97311C227.893 8.78998 227.162 8.42371 226.614 8.24058C226.431 8.24058 226.248 8.05745 226.248 7.87432C226.248 7.69119 226.431 7.14179 226.614 6.95866C226.797 6.59239 227.162 6.04299 227.528 6.04299C227.893 6.04299 229.355 6.77552 229.538 6.77552C229.721 6.77552 229.721 6.95866 229.903 6.95866C230.269 6.95866 230.269 6.77552 230.452 6.59239C231 5.4936 231.548 4.21167 231.548 2.92975C231.548 2.74661 231.548 2.56348 231.731 2.56348C232.096 2.01408 233.376 2.56348 234.29 2.92975Z" fill="white"/>
<path d="M244.333 13.9181C243.968 14.1013 243.054 15.2001 242.688 15.2001C242.323 15.2001 240.678 13.9181 240.678 13.5519C240.678 13.3687 240.861 13.3687 241.226 13.1856C243.237 11.9037 244.516 10.0724 244.881 7.87478C244.881 7.50851 244.881 7.14225 244.881 6.59285C244.881 6.40972 244.881 6.40972 245.064 6.40972C245.612 6.40972 247.257 6.40972 247.623 6.59285C247.988 6.59285 247.988 6.77598 247.988 6.77598V6.95911C247.988 6.95911 247.988 7.14225 248.171 7.14225C248.171 7.14225 248.171 7.14225 248.354 7.14225C248.536 6.95911 249.633 6.04345 249.633 5.86032C249.633 5.67719 249.633 5.67719 249.45 5.67719H243.237C242.688 5.67719 241.957 5.67719 241.409 5.67719C241.226 5.67719 240.861 5.67719 240.678 5.67719C240.13 5.67719 240.13 5.49406 240.13 4.57839V3.4796C240.13 3.11334 240.13 2.9302 240.678 2.9302C241.592 2.9302 242.323 2.9302 243.237 2.9302H250.547C251.095 2.9302 251.643 2.9302 252.009 2.74707C252.009 2.74707 252.191 2.74707 252.374 2.74707C252.74 2.74707 252.922 2.9302 253.105 3.11334C253.471 3.4796 254.019 4.029 254.019 4.39526C254.019 4.57839 253.836 4.76153 253.653 4.94466L253.471 5.12779C252.557 6.22658 251.46 7.14225 250.547 8.24104L250.364 8.42417C249.998 8.79044 249.816 8.97357 249.633 8.97357C249.45 8.97357 248.536 8.42417 248.354 8.05791H248.171C247.988 8.05791 247.988 8.24104 247.805 8.42417C246.709 10.6218 245.978 12.4531 244.333 13.9181Z" fill="white"/>
<path d="M265.905 2.93009C266.454 2.93009 267.185 2.93009 267.55 2.93009C267.916 2.93009 268.281 3.29635 268.647 3.66262L268.83 3.84575C269.012 4.21202 269.561 4.57828 269.561 4.94455C269.561 5.12768 269.378 5.31081 269.378 5.49394C269.378 5.86021 269.195 6.04334 269.195 6.22647C268.464 9.70599 266.637 12.0867 263.347 13.918C262.799 14.1012 261.337 15.0168 260.788 15.0168C260.423 15.0168 260.057 14.4674 259.875 14.2843C259.692 14.1012 259.326 13.3686 259.326 13.0024C259.326 12.8192 259.509 12.8192 259.692 12.8192C261.337 12.453 263.347 11.171 264.626 10.0723C265.723 8.97346 266.454 7.14213 266.454 6.22647C266.454 5.86021 266.088 5.86021 265.905 5.86021H260.606C259.875 5.86021 259.144 5.86021 258.413 5.86021C257.864 5.86021 257.682 5.86021 257.682 5.12768V3.84575C257.682 3.11322 257.682 3.11322 258.23 3.11322C258.961 3.11322 259.692 3.11322 260.423 3.11322H265.905V2.93009ZM272.119 2.01443C272.119 2.93009 271.388 3.84575 270.292 3.84575C269.378 3.84575 268.464 3.11322 268.464 2.01443C268.464 1.09877 269.195 0.183105 270.292 0.183105C271.388 0.183105 272.119 1.09877 272.119 2.01443ZM269.561 2.01443C269.561 2.56383 269.926 2.93009 270.474 2.93009C271.023 2.93009 271.388 2.56383 271.388 2.01443C271.388 1.46503 271.023 1.09877 270.474 1.09877C269.926 1.09877 269.561 1.46503 269.561 2.01443Z" fill="white"/>
<path d="M279.239 7.87448C279.239 8.42387 279.239 9.1564 279.239 9.7058C279.239 10.4383 279.239 10.4383 278.326 10.4383H277.229C276.681 10.4383 276.498 10.2552 276.498 9.88893C276.498 9.33953 276.498 8.60701 276.498 7.87448V4.39496C276.498 3.84556 276.498 3.29617 276.498 2.74677C276.498 2.56364 276.498 2.38051 276.498 2.19737C276.498 2.01424 276.498 2.01424 276.681 2.01424C276.864 2.01424 278.326 2.19737 278.691 2.19737C278.874 2.19737 278.874 2.19737 278.874 2.19737C279.239 2.19737 279.422 2.19737 279.422 2.38051C279.422 2.56364 279.239 2.38051 279.239 3.29617V7.87448ZM285.453 6.40942C285.453 7.69134 285.453 8.97327 285.27 10.2552C285.087 11.9034 284.539 13.1853 283.26 14.2841C282.894 14.4672 281.615 15.566 281.432 15.566C281.25 15.566 280.519 15.0166 280.336 14.8335C280.153 14.6504 279.422 14.101 279.422 13.9178C279.422 13.7347 279.788 13.5516 279.97 13.5516C281.432 12.819 282.529 11.9034 282.712 10.0721C282.894 8.97327 282.894 7.69134 282.894 6.59255V3.29617C282.894 2.9299 282.894 2.38051 282.894 2.01424C282.894 1.83111 282.894 1.83111 282.894 1.64798C282.894 1.46484 282.894 1.46484 283.077 1.46484C283.625 1.46484 285.087 1.64798 285.636 1.64798C285.818 1.64798 286.001 1.64798 286.001 1.83111C286.001 1.83111 286.001 2.01424 285.818 2.01424C285.636 2.19737 285.636 2.56364 285.636 2.9299V6.40942H285.453Z" fill="white"/>
<path d="M70.683 59.1205C70.0967 58.2392 69.2172 57.6517 68.1912 57.211C67.1651 56.7704 66.1391 56.4766 65.2596 56.4766C64.8199 56.4766 64.2336 56.4766 63.7939 56.6235C63.3541 56.7704 62.7678 56.9172 62.4747 57.0641C62.0349 57.3579 61.7418 57.6517 61.4486 58.0923C61.1555 58.5329 61.0089 58.9736 61.0089 59.5611C61.0089 60.1487 61.1555 60.5893 61.3021 60.8831C61.4486 61.1768 61.8884 61.4706 62.3281 61.7644C62.7678 62.0581 63.2076 62.205 63.7939 62.4988C64.3802 62.6457 64.9665 62.9394 65.6994 63.2332C66.7254 63.527 67.898 63.9676 68.9241 64.4082C70.0967 64.8489 71.1227 65.4364 72.0022 66.024C72.8817 66.7584 73.7611 67.6397 74.3474 68.6678C74.9337 69.696 75.2269 71.018 75.2269 72.4868C75.2269 74.2494 74.9337 75.8651 74.2008 77.0401C73.6145 78.3621 72.7351 79.3903 71.5625 80.2716C70.3898 81.1529 69.2172 81.7404 67.7514 82.181C66.2857 82.6217 64.8199 82.7686 63.3541 82.7686C61.1555 82.7686 58.9568 82.3279 56.9047 81.5935C54.8527 80.8591 53.0937 79.684 51.7745 78.3621L56.6116 73.3681C57.3445 74.2494 58.3705 75.1307 59.5431 75.7182C60.7157 76.3057 62.0349 76.5995 63.2076 76.5995C63.7939 76.5995 64.2336 76.5995 64.8199 76.4526C65.4062 76.3057 65.8459 76.1588 66.1391 75.8651C66.5788 75.5713 66.872 75.2776 67.0186 74.8369C67.3117 74.3963 67.3117 73.8087 67.3117 73.2212C67.3117 72.6337 67.1651 72.193 66.872 71.7524C66.5788 71.3117 66.1391 71.018 65.6994 70.5773C65.1131 70.2836 64.5267 69.9898 63.6473 69.696C62.9144 69.4023 61.8884 69.1085 60.8623 68.8147C59.8363 68.521 58.9568 68.0803 57.9308 67.6397C57.0513 67.199 56.1719 66.6115 55.439 66.024C54.7061 65.2895 54.1198 64.5551 53.68 63.527C53.2403 62.4988 52.9472 61.3237 52.9472 60.0018C52.9472 58.2392 53.2403 56.7704 53.9732 55.5953C54.7061 54.4202 55.5855 53.3921 56.7582 52.5108C57.9308 51.7764 59.1034 51.1888 60.5692 50.7482C62.0349 50.4544 63.5007 50.1606 64.8199 50.1606C66.5788 50.1606 68.3378 50.4544 70.0967 51.1888C71.8556 51.7764 73.468 52.8045 74.9337 53.9796L70.683 59.1205Z" fill="white"/>
<path d="M90.1809 85.265C89.7412 86.44 89.3014 87.4682 88.7151 88.3495C88.1288 89.2308 87.5425 89.9652 86.8096 90.5527C86.0767 91.1403 85.1973 91.5809 84.1712 92.0215C83.1452 92.3153 81.9726 92.4622 80.6534 92.4622C79.9205 92.4622 79.3342 92.4622 78.6013 92.3153C77.8684 92.1684 77.2821 92.1684 76.6958 92.0215L77.4287 85.9994C77.7218 86.1462 78.1616 86.1463 78.6013 86.2931C79.041 86.2931 79.4808 86.44 79.7739 86.44C80.9465 86.44 81.6794 86.1462 82.1192 85.7056C82.5589 85.265 82.9986 84.5305 83.4384 83.5024L84.1712 81.7398L75.0835 60.2949H82.9986L87.8357 74.2488H87.9822L92.233 60.2949H99.855L90.1809 85.265Z" fill="white"/>
<path d="M116.271 81.8868V69.9893C116.271 69.4018 116.271 68.8142 116.124 68.2267C115.978 67.6392 115.831 67.1985 115.685 66.7579C115.391 66.3172 115.098 66.0235 114.659 65.7297C114.219 65.4359 113.633 65.2891 113.046 65.2891C112.46 65.2891 111.874 65.4359 111.434 65.7297C110.994 66.0235 110.554 66.3172 110.261 66.7579C109.968 67.1985 109.675 67.6392 109.528 68.2267C109.382 68.8142 109.235 69.4018 109.235 69.9893V81.7399H102.053V60.1482H108.942V63.2327H109.089C109.382 62.7921 109.675 62.3514 110.115 61.9108C110.554 61.4701 110.994 61.0295 111.58 60.7357C112.167 60.4419 112.753 60.1482 113.486 60.0013C114.219 59.8544 114.805 59.7075 115.685 59.7075C117.15 59.7075 118.323 60.0013 119.349 60.4419C120.375 61.0295 121.255 61.617 121.841 62.4983C122.427 63.3796 122.867 64.2609 123.16 65.2891C123.453 66.3172 123.6 67.4923 123.6 68.5205V82.0337H116.271V81.8868Z" fill="white"/>
<path d="M142.065 67.1983C141.626 66.6107 141.039 66.317 140.453 65.8763C139.72 65.5826 138.987 65.4357 138.254 65.4357C137.521 65.4357 136.789 65.5826 136.202 65.8763C135.616 66.1701 135.03 66.6107 134.59 67.0514C134.15 67.492 133.857 68.0796 133.564 68.814C133.417 69.5484 133.271 70.2828 133.271 71.0172C133.271 71.7516 133.417 72.486 133.564 73.2204C133.857 73.9549 134.15 74.5424 134.59 74.983C135.03 75.4237 135.616 75.8643 136.202 76.1581C136.789 76.4519 137.521 76.5987 138.254 76.5987C138.987 76.5987 139.72 76.4519 140.453 76.1581C141.186 75.8643 141.772 75.4237 142.212 74.983L146.17 79.8302C145.29 80.7115 144.117 81.4459 142.652 81.8865C141.186 82.3272 139.72 82.6209 138.108 82.6209C136.349 82.6209 134.736 82.3272 133.271 81.8865C131.805 81.299 130.486 80.5646 129.46 79.5364C128.434 78.5082 127.554 77.3332 126.821 75.8643C126.235 74.3955 125.942 72.7798 125.942 71.0172C125.942 69.2546 126.235 67.6389 126.821 66.1701C127.408 64.7013 128.287 63.5262 129.46 62.498C130.486 61.4698 131.805 60.7354 133.271 60.1479C134.736 59.5604 136.349 59.2666 137.961 59.2666C138.694 59.2666 139.574 59.2666 140.306 59.4135C141.039 59.5604 141.772 59.7072 142.505 60.001C143.238 60.2948 143.824 60.5885 144.411 60.8823C144.997 61.1761 145.583 61.6167 146.023 62.0574L142.065 67.1983Z" fill="white"/>
<path d="M162.741 81.8866V70.136C162.741 69.5484 162.741 68.9609 162.594 68.3734C162.447 67.7858 162.301 67.3452 162.154 66.9045C161.861 66.4639 161.568 66.1701 161.128 65.8764C160.689 65.5826 160.249 65.4357 159.516 65.4357C158.197 65.4357 157.317 65.8764 156.584 66.7577C155.851 67.6389 155.558 68.814 155.558 69.9891V81.7397H148.376V48.9849H155.558V62.9387H155.705C156.145 62.0574 157.024 61.323 158.05 60.5886C159.076 59.8542 160.395 59.5604 161.861 59.5604C163.327 59.5604 164.646 59.8542 165.526 60.2948C166.552 60.8824 167.284 61.4699 168.017 62.3512C168.604 63.2325 169.043 64.1138 169.337 65.1419C169.63 66.1701 169.776 67.3452 169.776 68.3734V81.8866H162.741Z" fill="white"/>
<path d="M187.652 66.0234C187.359 65.8765 187.066 65.8765 186.773 65.8765C186.48 65.8765 186.187 65.8765 185.893 65.8765C184.867 65.8765 184.135 66.0234 183.402 66.464C182.815 66.7578 182.229 67.1984 181.789 67.786C181.35 68.2266 181.056 68.8141 180.91 69.4017C180.763 69.9892 180.617 70.4299 180.617 70.8705V82.0336H173.434V60.295H180.324V63.3795H180.47C181.056 62.2044 181.789 61.3231 182.815 60.5887C183.841 59.8543 185.014 59.5605 186.333 59.5605C186.626 59.5605 186.92 59.5605 187.213 59.5605C187.506 59.5605 187.652 59.5605 187.946 59.7074L187.652 66.0234Z" fill="white"/>
<path d="M211.99 71.0179C211.99 72.7805 211.697 74.3962 210.964 75.865C210.378 77.3338 209.498 78.5089 208.326 79.5371C207.153 80.5652 205.981 81.2997 204.515 81.8872C203.049 82.4747 201.437 82.7685 199.824 82.7685C198.212 82.7685 196.6 82.4747 195.134 81.8872C193.668 81.2997 192.349 80.5652 191.323 79.5371C190.297 78.5089 189.417 77.3338 188.684 75.865C188.098 74.3962 187.658 72.7805 187.658 71.0179C187.658 69.2553 187.952 67.6396 188.684 66.1707C189.271 64.7019 190.15 63.5269 191.323 62.4987C192.349 61.4705 193.668 60.7361 195.134 60.2954C196.6 59.7079 198.212 59.561 199.824 59.561C201.437 59.561 203.049 59.8548 204.515 60.2954C205.981 60.883 207.3 61.6174 208.326 62.4987C209.498 63.5269 210.231 64.7019 210.964 66.1707C211.697 67.6396 211.99 69.2553 211.99 71.0179ZM205.101 71.0179C205.101 70.2835 204.955 69.6959 204.808 68.9615C204.515 68.2271 204.222 67.6396 203.782 67.1989C203.342 66.7583 202.756 66.3176 202.17 66.0239C201.583 65.7301 200.85 65.5832 199.971 65.5832C199.091 65.5832 198.359 65.7301 197.772 66.0239C197.186 66.3176 196.6 66.7583 196.16 67.1989C195.72 67.6396 195.427 68.2271 195.134 68.9615C194.987 69.6959 194.841 70.2835 194.841 71.0179C194.841 71.7523 194.987 72.3398 195.134 73.0742C195.28 73.8086 195.72 74.3962 196.16 74.8368C196.6 75.4243 197.186 75.865 197.772 76.1588C198.359 76.4525 199.091 76.5994 199.971 76.5994C200.85 76.5994 201.583 76.4525 202.17 76.1588C202.756 75.865 203.342 75.4243 203.782 74.8368C204.222 74.2493 204.515 73.6618 204.808 73.0742C204.955 72.3398 205.101 71.7523 205.101 71.0179Z" fill="white"/>
<path d="M215.065 81.8869V47.957H222.541V75.4241H234.56V81.8869H215.065Z" fill="white"/>
<path d="M244.814 53.2447C244.814 53.8323 244.667 54.2729 244.521 54.8604C244.374 55.3011 244.081 55.7417 243.641 56.0355C243.348 56.3293 242.909 56.623 242.322 56.9168C241.883 57.0637 241.296 57.2106 240.71 57.2106C239.537 57.2106 238.511 56.7699 237.778 56.0355C237.045 55.3011 236.606 54.2729 236.606 53.2447C236.606 52.6572 236.752 52.2165 236.899 51.7759C237.045 51.3353 237.339 50.8946 237.778 50.6008C238.218 50.3071 238.658 50.0133 239.098 49.7195C239.537 49.5727 240.124 49.4258 240.71 49.4258C241.296 49.4258 241.736 49.5727 242.322 49.7195C242.762 49.8664 243.202 50.1602 243.641 50.6008C243.935 50.8946 244.228 51.3353 244.521 51.7759C244.667 52.2165 244.814 52.6572 244.814 53.2447ZM237.192 81.8868V60.1482H244.374V81.8868H237.192Z" fill="white"/>
<path d="M262.85 54.2731C262.557 54.1262 262.263 54.1262 261.97 54.1262C261.677 54.1262 261.237 53.9793 260.944 53.9793C260.211 53.9793 259.772 54.1262 259.332 54.2731C258.892 54.5668 258.599 54.8606 258.306 55.1544C258.013 55.595 257.866 56.0357 257.866 56.4763C257.72 56.917 257.72 57.5045 257.72 57.9451V60.1484H262.557V65.4361H257.72V81.887H250.537V65.583H246.58V60.2953H250.537V58.2389C250.537 56.917 250.684 55.595 250.977 54.42C251.27 53.2449 251.71 52.2167 252.443 51.1885C253.176 50.3072 254.055 49.5728 255.374 48.9853C256.547 48.3978 258.013 48.104 259.918 48.104C260.504 48.104 261.091 48.104 261.677 48.2509C262.263 48.2509 262.85 48.3978 263.289 48.5447L262.85 54.2731Z" fill="white"/>
<path d="M285.573 71.3116C285.573 71.6053 285.573 71.8991 285.573 72.1928C285.573 72.4866 285.573 72.7804 285.573 73.0741H269.889C269.889 73.6617 270.182 74.2492 270.475 74.6898C270.769 75.1305 271.208 75.5711 271.648 76.0118C272.088 76.3056 272.674 76.5993 273.26 76.8931C273.847 77.04 274.433 77.1869 275.166 77.1869C276.339 77.1869 277.218 77.04 278.097 76.5993C278.83 76.1587 279.563 75.5711 280.003 74.9836L284.987 78.0681C283.961 79.537 282.641 80.712 280.882 81.4464C279.27 82.1809 277.218 82.6215 275.019 82.6215C273.407 82.6215 271.795 82.3277 270.329 81.8871C268.863 81.4464 267.544 80.5652 266.518 79.6839C265.492 78.6557 264.612 77.4806 263.879 76.0118C263.293 74.543 263 72.9273 263 71.1647C263 69.4021 263.293 67.7864 263.879 66.3175C264.466 64.8487 265.345 63.6737 266.371 62.6455C267.397 61.6173 268.717 60.8829 270.036 60.2954C271.501 59.7078 272.967 59.4141 274.726 59.4141C276.339 59.4141 277.804 59.7078 279.124 60.2954C280.443 60.8829 281.615 61.6173 282.641 62.6455C283.667 63.6737 284.4 64.8487 284.84 66.3175C285.28 67.7864 285.573 69.549 285.573 71.3116ZM278.977 68.5208C278.977 67.3457 278.684 66.4644 277.951 65.5831C277.218 64.7018 276.192 64.4081 274.726 64.4081C273.993 64.4081 273.407 64.555 272.821 64.7018C272.234 64.8487 271.795 65.2894 271.355 65.5831C270.915 66.0238 270.622 66.4644 270.329 66.9051C270.036 67.3457 269.889 67.9332 269.889 68.5208H278.977Z" fill="white"/>
<path fill-rule="evenodd" clip-rule="evenodd" d="M15.2799 36.5107C20.8499 36.5107 25.1006 39.5953 27.0061 44.4424C28.3253 48.1145 32.576 52.3741 37.4131 53.9898C37.7062 54.1366 37.7062 54.4304 37.5597 54.5773C36.8268 55.4586 36.0939 56.7805 35.6542 57.9556C35.5076 58.2494 35.2144 58.2494 35.0678 58.1025C31.9897 55.6055 29.3513 54.5773 25.8335 54.2835C24.3677 54.1366 23.3417 54.1366 21.8759 54.4304C21.7293 54.4304 21.5827 54.7242 21.5827 54.8711C21.8759 56.7805 23.4882 58.69 26.1266 59.7182C29.3513 60.8932 35.5076 64.7122 35.5076 72.7907C35.5076 79.5473 31.2568 83.5132 27.1527 85.4226C21.2896 87.9196 18.0649 89.3885 14.2539 92.9136C12.9347 94.2356 12.2018 95.5575 12.2018 97.0264C12.2018 98.6421 13.8142 101.286 16.5991 101.286C18.0649 101.286 19.5307 100.698 20.5567 99.8171C21.2896 99.2296 22.1691 99.2296 22.9019 99.6702C23.7814 100.258 23.7814 101.58 23.0485 102.314C21.8759 103.636 19.9704 104.664 17.332 104.664C10.0031 104.664 5.89898 98.0545 5.89898 93.3543C5.75241 87.9196 9.56341 84.2476 12.3484 81.7506C16.4525 77.6379 15.4265 72.9376 14.1073 70.4406C13.2278 68.8249 11.1758 67.6498 8.68395 68.3843C6.63187 69.1187 5.45925 71.175 5.60583 72.9376C5.60583 73.2314 5.45925 73.2314 5.45925 73.2314C1.06194 70.2937 -1.72303 63.2434 1.20851 56.9274C1.35509 56.7805 1.50167 56.6337 1.64825 56.7805C2.52771 57.2212 3.99348 57.6618 5.31268 57.6618C6.04556 57.6618 7.21818 57.6618 8.3908 57.2212C8.68395 57.0743 8.68395 56.7805 8.53737 56.6336C7.36476 55.6055 7.21818 55.0179 6.48529 53.5491C5.75241 51.9334 5.75241 49.2895 6.19214 47.8207C6.19214 47.8207 6.19214 47.6738 6.04556 47.6738C5.1661 47.6738 3.99348 48.2613 3.26059 48.702C3.26059 48.702 3.11402 48.702 3.11402 48.5551C3.70033 45.1768 6.48529 42.2392 10.1497 41.5047C10.1497 41.5047 10.2963 41.3579 10.1497 41.3579C9.41684 40.7703 8.09764 40.1828 6.77845 40.0359C6.77845 40.0359 9.70999 36.5107 15.2799 36.5107Z" fill="white"/>
</svg>
