<svg width="235" height="86" viewBox="0 0 235 86" fill="none" xmlns="http://www.w3.org/2000/svg">
<path d="M10.3612 10.3826L10.211 10.5331C10.211 10.6836 11.8628 10.9845 12.013 10.9845C12.1632 10.9845 12.3133 11.135 12.3133 11.2855C12.3133 11.7369 11.8628 12.7902 11.4123 12.7902C11.2622 12.7902 11.112 12.7902 10.9619 12.6397C9.61039 12.3388 8.10876 11.5864 7.05763 10.6836L6.90747 10.5331C6.7573 10.5331 6.75731 10.6836 6.75731 10.6836V11.2855C6.75731 11.8874 6.60714 11.8874 6.30681 12.0378C5.25568 12.3388 3.15341 12.6397 1.95211 12.7902C1.65178 12.7902 1.65178 12.7902 1.65178 12.9407C1.65178 13.0912 1.65178 13.0912 1.35146 13.0912C1.2013 13.0912 1.05113 12.9407 1.05113 12.7902C1.05113 12.4893 0.600646 11.4359 0.600646 11.2855C0.600646 10.9845 0.900973 10.9845 1.2013 10.9845C2.25243 10.9845 2.4026 10.834 2.4026 10.3826V6.01884C2.4026 5.86836 2.4026 5.71789 2.25244 5.71789C2.10227 5.71789 1.80194 5.86836 1.80194 6.01884C1.65178 6.16931 1.35146 6.16931 1.2013 6.16931C0.750811 6.16931 0 4.96551 0 4.66456C0 4.51409 0.150161 4.36361 0.450486 4.36361C2.25243 3.46076 4.05438 2.25696 5.25568 0.601732C5.40584 0.451256 5.40584 0.300781 5.556 0.300781C5.85633 0.300781 7.20779 0.601732 7.65828 0.752207L7.80844 0.902682C7.80844 1.05316 7.80844 1.05316 7.65828 1.05316C7.65828 1.05316 7.65828 1.05316 7.65828 1.20363C7.65828 1.35411 7.9586 1.65506 8.10876 1.80553C9.31006 3.00933 10.6615 3.76171 12.3133 4.36361C12.4635 4.36361 12.4635 4.51409 12.4635 4.66456C12.4635 5.11599 11.8628 6.31979 11.4123 6.31979C11.2622 6.31979 10.5114 5.86836 10.211 5.71789C10.0609 5.71789 10.0609 5.56741 9.91071 5.56741C9.76055 5.56741 9.76055 5.71789 9.76055 5.86836V7.07216C9.76055 7.37311 9.76055 7.82454 9.76055 8.12549C9.76055 8.27597 9.76055 8.42644 9.91071 8.42644H10.0609C10.211 8.42644 10.211 8.42644 10.3612 8.57692C10.8117 8.87787 11.112 9.17882 11.5625 9.47977C11.7127 9.47977 11.8628 9.63024 11.8628 9.78072C11.8628 9.93119 11.8628 9.93119 11.7127 9.93119C11.5625 9.93119 11.5625 9.93119 11.4123 9.93119H11.2622C10.9619 10.0817 10.6615 10.2321 10.3612 10.3826ZM7.80844 6.01884C7.9586 6.01884 7.9586 5.86836 7.9586 5.86836C7.9586 5.71789 7.80844 5.71789 7.80844 5.71789H4.50487C4.35471 5.71789 4.3547 5.86836 4.3547 5.86836V6.01884C4.3547 6.16931 4.35471 6.16931 4.50487 6.16931H7.80844V6.01884ZM4.3547 7.22264C4.20454 7.22264 4.20454 7.37311 4.20454 7.37311V7.52359C4.20454 7.67407 4.20454 7.67406 4.3547 7.67406H7.65828C7.80844 7.67406 7.80844 7.52359 7.80844 7.52359V7.37311C7.80844 7.22264 7.65828 7.22264 7.65828 7.22264H4.3547V7.22264ZM4.65503 9.02834C4.50487 9.02834 4.20454 9.17882 4.20454 9.47977V10.2321C4.20454 10.5331 4.20455 10.6836 4.50487 10.6836C4.65503 10.6836 5.556 10.5331 5.85633 10.5331C6.00649 10.5331 6.15665 10.3826 6.15665 10.3826C6.15665 10.2321 6.15666 10.2321 6.00649 10.0817C5.85633 9.93119 5.70617 9.63024 5.70617 9.47977C5.55601 9.32929 5.40584 9.32929 5.10552 9.32929H4.65503V9.02834ZM4.80519 4.36361C5.10552 4.36361 5.25568 4.21314 5.25568 3.91219C5.25568 3.76171 5.25568 3.46076 5.25568 3.46076C5.25568 3.31028 5.40584 3.31028 5.556 3.31028C5.70616 3.31028 6.45698 3.46076 6.75731 3.46076H6.90747C6.90747 3.46076 7.05763 3.46076 7.05763 3.31028C7.05763 3.31028 6.90747 3.15981 6.75731 3.00933L6.60714 2.85886C6.45698 2.70838 6.45698 2.70838 6.30681 2.70838C6.15665 2.70838 6.00649 2.85886 5.85633 3.00933C5.40584 3.46076 4.95536 3.76171 4.50487 4.21314C4.50487 4.21314 4.3547 4.36361 4.3547 4.51409C4.3547 4.66456 4.50487 4.66456 4.65503 4.66456H4.80519V4.36361ZM7.80844 4.36361C7.9586 4.36361 8.10876 4.36361 8.10876 4.21314V4.06266C7.9586 4.06266 7.65828 3.91219 7.50812 3.76171H7.35795C7.20779 3.76171 7.05763 3.91219 7.05763 4.06266C7.05763 4.21314 7.20779 4.36361 7.50812 4.36361H7.80844ZM7.65828 9.02834C7.50812 9.02834 7.35795 9.02834 7.35795 9.17882C7.35795 9.32929 7.9586 9.93119 8.25893 9.93119C8.55925 9.78072 9.1599 9.17882 9.1599 9.02834C9.1599 8.87787 9.00974 8.87787 8.85958 8.87787C8.55925 8.87787 8.10876 8.87787 7.80844 8.87787H7.65828V9.02834Z" fill="#F22840"/>
<path d="M18.1716 3.15992C18.3218 3.15992 18.472 3.15992 18.472 3.3104C18.472 3.3104 18.4719 3.46087 18.3218 3.46087C18.1716 3.76182 18.0215 3.9123 18.0215 4.21325C17.8713 4.81515 17.8713 5.56752 17.8713 6.16943C17.8713 7.07228 18.0215 7.97513 18.3218 8.87798C18.4719 9.17893 18.6221 9.47988 18.9224 9.47988C19.2228 9.47988 19.5231 8.87798 19.6732 8.7275C19.8234 8.42655 19.9736 8.27608 20.2739 8.27608C20.7244 8.27608 21.7755 9.02845 21.7755 9.3294C21.7755 9.63035 21.1749 10.3827 20.8745 10.6837C20.4241 11.2856 19.9736 11.737 19.2228 11.737C18.3218 11.737 17.571 11.1351 16.9703 10.3827C15.9192 8.87798 15.9192 6.9218 15.9192 5.26657C15.9192 4.96562 15.9192 3.3104 15.9192 3.15992C15.9192 3.00945 16.0694 3.00945 16.2195 3.00945C16.2195 2.85897 17.8713 3.15992 18.1716 3.15992ZM23.2771 2.7085C23.5775 2.7085 24.7788 3.61135 25.3794 4.5142C25.9801 5.41705 26.2804 6.3199 26.4306 7.37323C26.4306 7.5237 26.4306 7.97513 26.4306 8.1256C26.4306 8.42655 26.4306 8.57703 26.1302 8.57703C25.6797 8.7275 25.2293 8.87798 24.7788 8.87798C24.1781 8.87798 24.1781 8.7275 24.1781 8.1256C24.028 6.47038 23.4273 5.1161 22.226 4.21325C22.0758 4.21325 22.0758 4.06277 22.0758 3.9123C21.9257 3.76182 22.8267 2.7085 23.2771 2.7085Z" fill="#F22840"/>
<path d="M33.4838 1.80543C33.6339 1.80543 33.7841 1.9559 33.7841 1.9559C33.7841 1.9559 33.7841 2.10638 33.6339 2.10638C33.4838 2.25685 33.3336 2.40733 33.3336 2.70828C33.0333 4.36351 32.8831 6.16921 32.8831 7.82443C32.8831 8.87776 32.8831 10.0816 33.9343 10.0816C34.8352 10.0816 35.586 9.63014 36.1867 8.87776C36.6372 8.27586 36.9375 7.52348 37.0877 6.92158C37.0877 6.62063 37.2378 6.47016 37.388 6.47016C37.6883 6.47016 38.1388 6.77111 38.289 7.07206C38.5893 7.22253 38.8896 7.67396 38.8896 7.97491C38.8896 8.42634 38.4391 9.32919 38.289 9.63014C37.388 11.2854 35.8864 12.3387 33.9343 12.3387C32.8831 12.3387 31.9822 12.0377 31.2313 11.1349C30.4805 10.232 30.4805 8.72729 30.4805 7.67396C30.4805 6.01873 30.6307 4.36351 30.7809 2.85876C30.7809 2.55781 30.7809 2.10638 30.7809 1.80543C30.7809 1.50448 30.7809 1.354 31.0812 1.354C31.5317 1.354 33.0333 1.65495 33.4838 1.80543Z" fill="#F22840"/>
<path d="M42.6476 9.93086C43.6987 7.8242 44.5997 5.71755 45.801 3.76137C46.4016 2.85852 47.0023 1.95567 47.6029 1.05282C47.6029 0.902344 47.7531 0.902344 47.7531 0.902344C47.9033 0.902344 48.8042 1.65472 48.9544 1.8052L49.1046 1.95567C49.4049 2.10615 49.5551 2.25662 49.5551 2.4071C49.5551 2.55757 49.4049 2.55757 49.4049 2.55757C49.1046 2.55757 49.1046 2.70805 48.8042 3.009C48.3538 3.6109 47.7531 4.36327 47.3026 4.96517L47.1525 5.11565C47.3026 5.26612 47.3026 5.26612 47.4528 5.26612H47.6029C47.7531 5.26612 47.9033 5.26612 48.0534 5.26612C49.2547 5.26612 50.0055 5.86802 50.0055 7.07183C50.0055 7.67373 49.8554 8.57658 49.7052 9.17848C49.7052 9.32895 49.7052 9.47943 49.7052 9.62991C49.7052 9.78038 49.7052 9.93086 50.0055 9.93086C50.456 9.93086 51.8075 8.4261 52.1078 7.97468C52.4081 7.67373 52.4081 7.52325 52.7085 7.52325C53.0088 7.52325 53.6094 9.028 53.6094 9.17848C53.6094 9.47943 52.7085 10.2318 52.4081 10.5328C51.5072 11.2851 50.6062 12.0375 49.4049 12.0375C48.3538 12.0375 47.7531 11.1347 47.7531 10.0813C47.7531 9.47943 47.9033 9.028 47.9033 8.4261C47.9033 8.12515 48.0534 7.67373 48.0534 7.37278C48.0534 7.07183 47.9033 6.92135 47.7531 6.92135C47.4528 6.92135 47.0023 7.07183 46.702 7.2223C46.1013 7.52325 45.801 7.97468 45.5007 8.4261C45.0502 9.17848 44.4495 10.3823 44.2994 11.2851C44.2994 11.4356 44.1492 11.7366 43.999 11.7366C43.6987 11.7366 42.7977 11.2851 42.4974 11.1347C42.1971 11.2851 42.0469 11.2851 42.0469 11.1347C42.0469 10.9842 42.6476 10.0813 42.6476 9.93086Z" fill="#F22840"/>
<path d="M58.108 5.56724C58.108 5.26629 57.9579 5.11582 57.6576 5.11582C57.5074 5.11582 57.3572 5.11582 57.0569 5.11582C56.7566 5.11582 56.7566 4.96534 56.7566 4.66439V3.76154C56.7566 3.31012 56.7566 3.15964 57.0569 3.15964C57.2071 3.15964 57.5074 3.15964 57.6576 3.15964C57.8077 3.15964 58.108 3.00917 58.108 2.70821V1.95584C58.108 1.50441 58.108 0.902513 58.108 0.902513C58.108 0.752038 58.2582 0.752038 58.4084 0.752038C58.5585 0.752038 59.7598 0.752038 60.0602 0.902513C60.2103 0.902513 60.5106 0.902513 60.5106 1.05299C60.5106 1.20346 60.5106 1.20346 60.3605 1.35394C60.2103 1.50441 60.2103 1.50441 60.2103 1.65489V3.00917C60.2103 3.15964 60.3605 3.46059 60.6608 3.46059C60.811 3.46059 60.9611 3.46059 61.1113 3.46059C61.4116 3.46059 61.4116 3.61107 61.4116 4.06249V4.81487C61.4116 5.26629 61.4116 5.41677 61.1113 5.41677C60.9611 5.41677 60.811 5.41677 60.6608 5.41677C60.3605 5.41677 60.2103 5.56724 60.2103 5.86819V7.97485C60.2103 8.12532 60.2103 8.42627 60.3605 8.42627C60.5106 8.42627 60.6608 8.2758 60.811 8.2758C60.9611 8.2758 61.1113 8.12532 61.1113 8.12532C61.4116 8.12532 61.4116 8.8777 61.4116 9.02817C61.4116 9.32912 61.4116 9.78055 61.1113 9.93102C60.811 10.232 58.2582 10.9843 57.6576 11.2853C57.5074 11.2853 57.3572 11.4358 57.3572 11.5862C57.2071 11.2853 57.2071 11.4358 57.0569 11.4358C56.9067 11.4358 56.9067 11.2853 56.7566 10.9843C56.7566 10.6834 56.3061 9.63007 56.3061 9.4796C56.3061 9.32912 56.4562 9.17865 56.7566 9.17865C57.9579 8.8777 58.108 8.8777 58.108 8.42627V5.56724V5.56724ZM63.664 2.40726C63.9644 2.40726 64.1145 2.25679 64.1145 1.95584V1.80536C64.1145 1.50441 64.1145 1.20346 64.1145 0.902513V0.752038C64.1145 0.601563 64.2647 0.601562 64.4149 0.601562C64.7152 0.601562 65.7663 0.752038 66.0666 0.752038C66.2168 0.752038 66.5171 0.752038 66.5171 0.902513C66.5171 1.05299 66.367 1.05299 66.367 1.20346C66.2168 1.35394 66.2168 1.20346 66.2168 1.95584C66.2168 2.25679 66.367 2.40726 66.6673 2.40726H67.4181C67.8686 2.40726 68.3191 2.40726 68.7696 2.40726C69.0699 2.40726 69.0699 2.55774 69.0699 2.85869V3.76154C69.0699 4.21297 69.0699 4.36344 68.7696 4.36344C68.4692 4.36344 67.8686 4.36344 67.4181 4.36344H65.6162C65.6162 4.36344 65.466 4.36344 65.466 4.51392C65.466 4.51392 65.466 4.51392 65.466 4.66439C65.466 4.81487 65.3158 4.81487 65.3158 4.81487C65.1657 4.81487 65.1657 4.96534 65.1657 5.26629C65.1657 5.56724 65.1657 5.86819 65.6162 5.86819H66.9676C67.2679 5.86819 67.5683 5.86819 67.8686 5.86819C68.6194 5.86819 68.6194 6.31962 68.6194 6.92152C68.6194 8.12532 68.4692 10.3824 68.3191 11.5862C68.0188 13.091 67.2679 13.392 65.6162 13.392C65.0155 13.392 64.4149 13.392 64.4149 12.0377C64.4149 11.5862 64.4149 11.2853 64.7152 11.2853C64.8653 11.2853 65.3158 11.2853 65.6162 11.2853C66.0666 11.2853 66.367 11.2853 66.367 10.9843C66.5171 10.5329 66.6673 8.72722 66.6673 8.12532C66.6673 7.82437 66.5171 7.82437 65.9165 7.82437H65.466C65.0155 7.82437 64.8653 7.97485 64.8653 8.42627C64.7152 9.4796 64.1145 10.6834 63.664 11.7367C63.3637 12.1882 62.3126 13.5424 61.8621 13.5424C61.4116 13.5424 60.3605 12.6396 60.3605 12.3386C60.3605 12.1882 60.6608 12.0377 60.811 11.8872C62.0123 10.8339 62.6129 9.78055 62.9132 8.2758C63.0634 7.37294 63.2136 6.47009 63.2136 5.56724V4.51392C63.2136 4.36344 63.0634 4.06249 62.7631 4.06249C62.4627 4.06249 62.3126 4.06249 62.0123 4.06249C61.7119 4.06249 61.7119 3.91202 61.7119 3.46059V2.85869C61.7119 2.40726 61.7119 2.25679 62.0123 2.25679C62.4627 2.25679 62.9132 2.25679 63.3637 2.25679H63.664V2.40726Z" fill="#F22840"/>
<path d="M77.3319 0.752291C77.6322 0.752291 77.9326 0.902766 77.9326 1.05324L77.7824 1.20372C77.6322 1.35419 77.4821 1.50467 77.4821 1.95609C77.4821 2.10657 77.4821 2.25704 77.3319 2.40752V2.55799C77.3319 2.70847 77.4821 2.85894 77.6322 2.85894C77.7824 2.85894 78.5332 2.55799 78.6834 2.55799C78.8335 2.55799 78.9837 2.40752 78.9837 2.40752C79.284 2.40752 79.284 3.76179 79.284 4.21322C79.284 4.3637 79.284 4.51417 78.9837 4.51417C78.3831 4.66465 77.4821 4.9656 77.0316 4.9656C76.4309 5.11607 76.4309 5.11607 76.2808 5.5675C75.6801 7.22272 74.4788 10.2322 73.5779 11.737C73.4277 11.8875 73.4277 12.0379 73.1274 12.0379C72.827 12.0379 71.4756 11.436 71.4756 10.9846C71.4756 10.8341 71.6257 10.6837 71.7759 10.3827C72.6769 9.02842 73.4277 7.3732 74.0283 5.86845C74.0283 5.71797 74.1785 5.5675 74.1785 5.5675C74.1785 5.41702 74.0283 5.26655 73.8782 5.26655C73.5779 5.26655 73.2775 5.26655 72.9772 5.26655C72.6769 5.26655 72.5267 5.26655 72.3766 4.9656C72.3766 4.66465 72.2264 3.76179 72.2264 3.46084C72.2264 3.31037 72.2264 3.15989 72.5267 3.15989C72.6769 3.15989 73.2775 3.15989 74.0283 3.15989C74.7792 3.15989 74.9293 3.15989 75.0795 2.85894C75.2296 2.40752 75.3798 0.902766 75.53 0.300866C75.53 0.150391 75.53 0.150391 75.6801 0.150391C75.8303 0.451341 77.1818 0.752291 77.3319 0.752291ZM77.0316 9.47985C77.6322 10.0818 78.6834 10.3827 79.4342 10.3827C80.185 10.3827 80.7856 10.3827 81.5365 10.0818H81.6866C81.8368 10.0818 81.9869 10.3827 81.9869 10.8341V11.2856C81.9869 12.0379 81.987 12.1884 81.6866 12.3389C81.2361 12.4894 79.8847 12.4894 79.4342 12.4894C78.3831 12.4894 77.1818 12.3389 76.2808 11.737C76.1306 11.5865 75.6801 11.1351 75.6801 10.8341C75.6801 10.5332 76.1306 9.93128 76.2808 9.7808C76.4309 9.63033 76.5811 9.32938 76.7313 9.32938C76.8814 9.1789 77.0316 9.32938 77.0316 9.47985ZM78.3831 5.26655C79.5843 5.26655 80.4853 5.41702 81.5365 5.71797C81.6866 5.71797 81.8368 5.86845 81.8368 6.01892C81.8368 6.31987 81.5365 7.22272 81.3863 7.52367C81.3863 7.67415 81.2361 7.67415 81.086 7.67415C80.9358 7.67415 80.7856 7.67415 80.7856 7.52367C80.0348 7.22272 79.284 7.22272 78.3831 7.22272H77.9326C77.6322 7.22272 77.4821 7.22272 77.4821 6.92177C77.4821 5.26655 77.7824 5.26655 78.3831 5.26655Z" fill="#F22840"/>
<path d="M91.2996 1.80582C91.2996 1.95629 91.2996 1.95629 91.1494 1.95629C90.9992 2.25724 90.6989 2.70867 90.6989 2.85914C90.6989 3.00962 90.8491 3.00962 90.9992 3.00962C91.4497 3.00962 92.8012 2.55819 93.2517 2.40772C93.4018 2.40772 93.552 2.25724 93.7022 2.25724C93.8523 2.25724 94.0025 2.40772 94.0025 2.85914C94.0025 3.16009 94.1526 3.61152 94.1526 4.06294C94.1526 4.3639 94.0025 4.3639 93.4018 4.51437C92.651 4.66485 91.4497 4.81532 90.5487 4.9658C90.3986 4.9658 90.0983 4.9658 89.9481 5.26675C89.9481 5.41722 89.7979 5.71817 89.7979 5.86865C89.7979 6.01912 89.9481 6.01912 89.9481 6.01912H90.0983C90.6989 5.71817 91.2996 5.5677 91.9002 5.5677C93.7022 5.5677 94.9034 6.7715 94.9034 8.5772C94.9034 11.7372 91.5999 12.3391 89.0471 12.3391C88.4465 12.3391 88.4465 12.1886 88.2963 11.7372C88.2963 11.4362 88.1461 10.8343 88.1461 10.5334C88.1461 10.3829 88.2963 10.2324 88.4465 10.2324C88.5966 10.2324 89.0471 10.3829 89.7979 10.3829C90.9992 10.3829 92.9513 10.082 92.9513 8.5772C92.9513 7.82482 92.5009 7.52387 91.9002 7.52387C90.9992 7.52387 89.7979 8.12578 89.1973 8.72768C89.0471 8.87815 88.897 9.02863 88.7468 9.32958C88.5966 9.48005 88.5966 9.63053 88.2963 9.63053C87.996 9.63053 87.3953 9.32958 87.095 9.1791C86.9448 9.02863 86.6445 8.87815 86.6445 8.5772C86.6445 8.42673 86.7947 8.12578 86.7947 7.9753C86.9448 7.52388 87.5455 6.1696 87.5455 5.71817C87.5455 5.5677 87.3953 5.41722 87.2452 5.41722C87.2452 5.41722 86.194 5.5677 85.7435 5.5677C85.4432 5.5677 85.2931 5.41722 85.2931 5.26675C85.1429 4.9658 84.9927 4.21342 84.9927 3.762C84.9927 3.61152 84.9927 3.46104 85.2931 3.46104C85.4432 3.46104 86.3442 3.61152 87.3953 3.61152C87.996 3.61152 88.1461 3.61152 88.2963 1.65534C88.2963 1.35439 88.2963 1.05344 88.5966 1.05344C89.4976 0.902967 91.2996 1.35439 91.2996 1.80582Z" fill="#F22840"/>
<path d="M102.255 1.50475C102.255 1.35428 102.255 1.2038 102.405 1.2038C102.556 1.2038 104.057 1.50475 104.358 1.65523C104.508 1.65523 104.658 1.8057 104.658 1.8057C104.658 1.95618 104.508 1.95618 104.508 1.95618C104.358 2.10665 104.207 2.4076 104.207 2.85903V3.0095C104.207 3.15998 104.207 3.31045 104.207 3.31045C104.207 3.6114 104.508 3.6114 104.658 3.6114C104.958 3.6114 105.409 3.76188 105.859 3.91235C106.91 4.51425 107.061 5.26663 107.061 6.31996C107.061 7.52376 106.76 9.47994 106.16 10.6837C105.559 11.7371 104.508 12.1885 103.306 12.1885C102.856 12.1885 102.706 12.1885 102.556 11.7371C102.405 11.4361 102.255 10.6837 102.255 10.3828C102.255 10.2323 102.255 10.0818 102.556 10.0818C102.706 10.0818 103.006 10.0818 103.156 10.0818C103.907 10.0818 104.207 10.0818 104.508 9.47994C104.958 8.72756 105.108 7.22281 105.108 6.47043C105.108 5.86853 104.958 5.56758 104.508 5.56758C104.057 5.56758 103.907 5.56758 103.757 6.01901C103.306 7.67423 102.556 9.17899 101.655 10.6837C101.505 10.9847 100.904 11.8875 100.604 12.038C100.604 12.038 100.453 12.1885 100.303 12.1885C100.003 12.1885 98.6514 11.4361 98.6514 10.9847C98.6514 10.8342 98.8016 10.6837 98.9518 10.5333C100.003 9.47993 100.754 8.27613 101.354 6.77138C101.354 6.77138 101.354 6.62091 101.354 6.47043C101.354 6.31996 101.204 6.31996 101.204 6.31996C101.204 6.31996 100.153 6.62091 100.003 6.77138C99.8527 6.77138 99.8527 6.92186 99.7026 6.92186C99.5524 6.92186 99.2521 6.31996 99.2521 5.86853C99.1019 5.56758 99.1019 5.11616 99.1019 4.96568C99.1019 4.81521 99.2521 4.8152 99.5524 4.66473C100.453 4.51425 100.754 4.51425 101.655 4.36378C101.955 4.36378 102.105 4.2133 102.105 3.76188C102.105 3.15998 102.255 2.4076 102.255 1.8057V1.50475ZM107.811 2.85903C108.262 3.31045 108.562 3.76188 108.862 4.2133C109.013 4.51425 110.064 5.86853 110.064 6.16948C110.064 6.62091 108.862 7.37328 108.412 7.37328C108.262 7.37328 108.262 7.22281 108.112 7.07233C107.661 6.01901 107.061 4.96568 106.16 3.91235C106.16 3.91235 106.009 3.76188 106.009 3.6114C106.009 3.31045 107.061 2.55808 107.361 2.55808C107.511 2.55808 107.661 2.70855 107.811 2.85903ZM109.163 1.65523C109.463 1.95618 109.763 2.25713 109.763 2.4076C109.763 2.70855 109.163 3.15998 109.013 3.15998L108.862 3.0095C108.562 2.70855 108.262 2.25713 107.811 1.95618C107.661 1.95618 107.661 1.8057 107.661 1.8057C107.661 1.65523 108.412 1.05333 108.562 1.05333C108.562 1.05333 108.862 1.50475 109.163 1.65523ZM110.214 0.30095C110.364 0.451426 111.265 1.2038 111.265 1.35428C111.265 1.65523 110.664 2.10665 110.514 2.10665C110.364 2.10665 110.364 1.95618 110.364 1.95618C110.064 1.65523 109.763 1.2038 109.313 0.902851L109.163 0.752376C109.163 0.601901 109.914 0 110.064 0C109.914 0.150475 110.214 0.30095 110.214 0.30095Z" fill="#F22840"/>
<path d="M123.283 3.31029C123.283 3.46076 123.433 3.46076 123.433 3.46076C123.734 3.46076 124.184 3.46076 124.485 3.46076C124.785 3.46076 125.235 3.46076 125.235 3.91219C125.235 4.21314 125.235 4.36361 125.235 4.66456V5.11599C125.235 5.41694 125.235 5.71789 125.235 5.86836C125.235 6.16931 124.935 6.16931 124.635 6.16931H124.485C124.334 6.16931 124.034 6.16931 124.034 6.31979C124.034 6.47026 124.034 6.47026 124.184 6.62074C124.184 6.77121 124.334 6.92169 124.334 7.07216C124.334 7.52359 123.433 7.82454 123.133 7.82454C122.983 7.82454 122.983 7.82454 122.833 7.67407C122.683 7.52359 122.232 6.62074 122.082 6.62074C121.932 6.62074 121.932 6.77121 121.932 6.92169C121.631 7.82454 121.481 7.97502 120.58 7.97502H119.529C119.229 7.97502 118.929 8.27597 118.929 8.42644C118.929 8.42644 118.929 8.42644 119.079 8.42644H120.881C121.181 8.42644 121.631 8.42644 121.932 8.42644C122.082 8.42644 122.382 8.42644 122.532 8.57692C122.683 8.72739 122.833 8.87787 122.833 9.02834C122.833 9.32929 121.782 10.2321 121.631 10.3826C121.481 10.5331 121.331 10.6836 121.331 10.834C121.331 11.135 121.932 11.135 122.082 11.135C122.683 11.135 124.034 11.2855 124.785 11.2855C124.935 11.2855 125.085 11.2855 125.085 11.5864C125.085 11.8874 124.935 12.3388 124.785 12.6397C124.635 12.9407 124.485 13.0912 124.184 13.0912C123.433 13.0912 122.082 12.9407 121.181 12.7902C120.731 12.6397 120.28 12.6397 119.83 12.4893C119.679 12.4893 119.229 12.3388 119.079 12.3388C118.778 12.3388 118.328 12.4893 118.028 12.6397C116.976 13.0912 115.175 13.3921 113.973 13.3921C113.673 13.3921 113.523 13.2416 113.222 12.7902C113.072 12.6397 112.922 12.1883 112.922 12.0378C112.922 11.8874 113.072 11.8874 113.373 11.8874C113.973 11.8874 117.127 11.7369 117.127 11.2855C117.127 11.135 116.676 10.6836 116.376 10.6836C116.226 10.6836 115.925 10.834 115.775 10.834C115.475 10.9845 114.724 11.4359 114.424 11.4359C114.123 11.4359 113.222 10.5331 113.222 10.2321C113.222 10.0817 113.373 9.93119 113.673 9.93119C114.574 9.63024 115.325 9.17882 116.075 8.57692C116.075 8.57692 116.075 8.57692 116.226 8.57692C116.376 8.42644 116.526 8.27597 116.526 8.12549V7.97502C116.526 7.82454 116.376 7.82454 116.376 7.52359C116.376 7.37312 116.376 7.37312 116.376 7.22264C116.376 7.22264 116.376 7.07216 116.226 7.07216C116.075 7.07216 116.075 7.22264 115.925 7.37311C115.775 7.52359 115.174 8.42644 115.024 8.42644C114.724 8.42644 113.823 7.82454 113.823 7.37311C113.823 7.22264 113.973 7.22264 113.973 7.07216C114.123 6.92169 114.274 6.77121 114.274 6.62074C114.274 6.47026 113.973 6.47026 113.823 6.47026H113.373C113.072 6.47026 112.922 6.47026 112.922 6.16931C112.922 6.01884 112.922 6.01884 112.922 5.86836C112.922 5.71789 112.922 5.56741 112.922 5.41694V4.51409C112.922 4.21314 112.922 4.06266 112.922 3.76171C112.922 3.31029 113.373 3.31029 113.673 3.31029C113.973 3.31029 114.424 3.31029 114.874 3.31029C115.024 3.31029 115.174 3.31028 115.174 3.15981C115.174 3.00933 115.024 2.85886 114.874 2.85886C114.724 2.70838 114.574 2.70838 114.424 2.70838C113.973 2.70838 113.973 2.70838 113.823 2.40743C113.673 2.10648 113.523 1.65506 113.523 1.35411C113.523 1.20363 113.673 1.05316 113.823 1.05316C114.274 1.05316 114.724 1.05316 115.325 1.05316C117.277 1.05316 120.58 0.902682 122.382 0.300781C122.532 0.300781 122.532 0.300781 122.683 0.300781C122.833 0.300781 122.983 0.451256 122.983 0.451256C123.283 0.752207 123.584 1.05316 123.884 1.35411C124.034 1.50458 124.184 1.65506 124.184 1.80553C124.184 1.95601 124.034 1.95601 124.034 1.95601H123.884C123.734 1.95601 123.734 1.95601 123.584 1.95601C123.433 1.95601 123.133 1.95601 123.133 2.10648C123.133 2.10648 123.283 2.25696 123.433 2.25696C123.584 2.25696 123.584 2.25696 123.584 2.40743C123.584 2.55791 123.433 2.55791 123.433 2.55791C123.283 2.55791 123.283 2.55791 123.133 2.70838C123.133 2.70838 123.133 2.70838 123.133 2.85886C123.433 3.00933 123.283 3.15981 123.283 3.31029ZM120.731 4.96551C120.58 4.96551 120.58 4.96551 120.58 5.11599C120.58 5.11599 120.731 5.26646 120.731 5.41694C120.731 5.56741 120.881 5.56741 120.881 5.71789C120.881 6.01884 119.98 6.47026 119.679 6.47026C119.529 6.47026 119.529 6.47026 119.529 6.31979C119.379 6.01884 119.229 5.71789 119.079 5.56741V5.41694C119.079 5.26646 119.229 5.26646 119.229 5.11599C119.229 4.96551 119.079 4.96551 118.929 4.96551H115.625C115.475 4.96551 115.475 4.96551 115.475 5.11599C115.475 5.26646 115.475 5.26646 115.625 5.26646C115.775 5.26646 116.226 5.41694 116.376 5.56741C116.526 5.56741 116.526 5.71789 116.676 5.71789C116.826 5.71789 116.826 5.71789 116.826 5.56741V5.41694V5.26646C116.826 5.11599 116.976 5.11599 116.976 5.11599C117.277 5.11599 118.178 5.11599 118.628 5.26646C118.778 5.26646 118.929 5.26646 118.929 5.41694C118.929 5.56741 118.778 5.56741 118.778 5.56741C118.628 5.71789 118.628 5.71789 118.628 6.01884V6.16931C118.628 6.47026 118.628 6.47026 119.079 6.47026H120.13C120.58 6.47026 120.731 6.47026 120.881 5.86836C120.881 5.71789 120.881 5.56741 121.031 5.56741C121.181 5.56741 121.481 5.71789 121.782 5.71789H121.932C122.082 5.71789 122.082 5.71789 122.082 5.56741C122.232 5.26646 122.833 4.96551 123.133 4.96551H123.283C123.283 4.96551 123.433 4.96551 123.433 4.81504C123.433 4.66456 123.283 4.66456 123.283 4.66456H120.731V4.96551ZM118.328 3.46076C118.478 3.46076 118.478 3.46076 118.478 3.31029C118.478 3.31029 118.328 2.70838 117.877 2.70838C117.577 2.70838 117.427 2.70838 117.427 2.85886C117.427 2.85886 117.427 3.00933 117.577 3.00933C117.577 3.00933 117.577 3.00933 117.577 3.15981C117.577 3.31028 117.577 3.15981 117.577 3.15981C117.577 3.31028 117.577 3.31029 117.727 3.31029H118.328V3.46076ZM118.778 9.47977C118.628 9.47977 118.478 9.47977 118.478 9.63024C118.478 9.78072 119.079 10.2321 119.229 10.2321C119.379 10.2321 119.98 9.93119 119.98 9.63024C119.98 9.47977 119.83 9.47977 119.529 9.47977H118.778V9.47977ZM120.731 3.46076C121.031 3.46076 121.331 2.55791 121.331 2.55791C121.331 2.40743 121.181 2.40743 121.181 2.40743C121.031 2.40743 120.73 2.40743 120.58 2.40743C120.43 2.40743 120.28 2.40743 120.28 2.55791C120.28 2.70838 120.28 2.70838 120.43 2.70838C120.43 2.70838 120.58 2.85886 120.58 3.00933C120.58 3.15981 120.43 3.15981 120.43 3.31029C120.43 3.31029 120.43 3.31029 120.58 3.31029H120.731V3.46076Z" fill="#F22840"/>
<path d="M135.293 0.902569C135.443 0.902569 135.593 0.902569 135.593 1.05304C135.593 1.05304 135.593 1.20352 135.443 1.20352C135.293 1.35399 135.293 1.35399 135.293 1.65494C135.293 1.80542 135.293 2.10637 135.293 2.25685C135.293 2.5578 135.293 2.85875 135.743 2.85875C136.794 2.85875 137.845 2.70827 139.047 2.70827C139.197 2.70827 139.497 2.70827 139.497 3.7616C139.497 4.06255 139.497 4.66445 139.347 4.81492C139.347 4.9654 139.197 4.9654 139.197 4.9654C139.197 4.9654 137.695 4.81492 137.245 4.81492C136.794 4.81492 136.344 4.81492 135.893 4.81492C135.593 4.81492 135.443 4.9654 135.443 5.26635V5.5673C135.443 5.86825 135.443 6.01872 135.593 6.31968C135.893 6.92158 135.893 7.52348 135.893 8.12538C135.893 10.3825 134.392 13.0911 133.641 13.0911C133.34 13.0911 132.74 12.7901 132.59 12.7901C132.139 12.6396 131.839 12.4892 131.839 12.3387C131.839 12.1882 131.989 12.0377 132.139 11.8873C132.439 11.5863 133.04 10.9844 133.04 10.8339C133.04 10.6835 132.89 10.6835 132.74 10.6835C131.538 10.6835 130.938 9.1787 130.938 8.12538C130.938 6.92158 131.538 5.5673 132.89 5.26635C133.04 5.26635 133.19 5.26635 133.19 5.11587C133.19 5.11587 133.19 4.9654 133.04 4.9654C132.89 4.9654 131.839 5.11587 131.689 5.11587C131.388 5.11587 129.436 5.41682 129.136 5.5673C128.986 5.5673 128.986 5.5673 128.836 5.5673C128.685 5.5673 128.535 5.26635 128.535 4.3635C128.535 3.91207 128.535 3.61112 128.535 3.46065C128.535 3.31017 128.535 3.1597 128.986 3.1597C130.187 3.1597 131.538 3.00922 132.59 3.00922C132.89 3.00922 133.34 3.00922 133.34 2.5578C133.34 2.10637 133.34 1.35399 133.19 1.05304V0.902569C133.19 0.752094 133.19 0.752094 133.34 0.752094C133.34 0.601619 134.992 0.902569 135.293 0.902569ZM132.89 7.82443C132.89 8.12538 132.89 8.72728 133.34 8.72728C133.641 8.72728 133.791 7.9749 133.791 7.82443C133.791 7.52348 133.791 6.92158 133.34 6.92158C132.89 6.92158 132.89 7.52348 132.89 7.82443Z" fill="#F22840"/>
<path d="M150.311 2.85904C150.311 3.00952 150.161 3.00952 150.161 3.00952C149.56 3.31047 148.96 3.91237 148.509 4.3638C148.509 4.3638 148.359 4.51427 148.359 4.66475C148.359 4.81522 148.509 4.9657 148.66 4.9657H148.81C148.96 4.9657 149.56 5.11617 149.711 5.11617C151.212 5.5676 152.113 6.7714 152.113 8.27615C152.113 10.9847 149.861 12.1885 147.458 12.1885C146.107 12.1885 144.455 11.7371 144.455 10.0819C144.455 9.02853 145.506 8.12567 146.557 8.12567C147.308 8.12567 147.909 8.42662 148.359 9.02853C148.509 9.32948 148.66 9.47995 148.66 9.7809C148.66 9.93138 148.81 10.0819 148.96 10.0819C149.26 10.0819 150.011 9.32948 150.011 8.42662C150.011 7.22282 149.11 6.7714 148.059 6.7714C147.008 6.7714 146.107 7.22282 145.356 7.82472C144.905 8.27615 144.004 9.02853 143.704 9.63043C143.554 9.93138 143.404 9.93138 143.404 9.93138C143.103 9.93138 142.052 8.72757 142.052 8.5771C142.052 8.42662 142.203 8.27615 142.503 8.12567C142.803 7.82472 145.206 5.5676 145.656 5.11617C145.957 4.81522 146.107 4.66475 146.407 4.3638C146.557 4.21332 146.557 4.21332 146.557 4.06284C146.557 3.91237 146.407 3.91237 146.257 3.91237C146.257 3.91237 144.755 4.21332 144.305 4.21332H144.155C143.854 4.21332 143.704 2.70857 143.704 2.40762V2.25714C143.704 2.10667 143.704 2.10667 144.155 2.10667H144.455C145.356 2.10667 147.308 1.95619 148.059 1.65524C148.359 1.50477 148.509 1.50477 148.66 1.50477C149.26 1.20382 150.311 2.55809 150.311 2.85904ZM146.557 9.93138C146.407 9.93138 146.107 10.0819 146.107 10.2323C146.107 10.5333 146.557 10.8342 146.858 10.8342C147.008 10.8342 147.158 10.6838 147.158 10.5333C147.308 10.2323 147.158 9.93138 146.557 9.93138Z" fill="#F22840"/>
<path d="M163.674 3.15964C163.824 3.15964 163.975 3.15964 164.125 3.15964H164.275C164.725 3.15964 165.626 4.36344 165.626 4.51392C165.626 4.51392 165.626 4.66439 165.476 4.96534C165.326 5.11582 165.326 5.26629 165.176 5.41677C163.824 8.12532 162.473 10.0815 159.92 11.7367C159.62 11.8872 158.268 12.7901 157.968 12.7901C157.668 12.7901 157.217 12.3386 156.917 12.1881C156.767 12.0377 156.467 11.7367 156.467 11.5862C156.467 11.4358 156.767 11.2853 156.917 11.1348C159.169 10.0815 161.272 8.2758 162.473 6.01867C162.623 5.86819 162.773 5.56724 162.773 5.41677C162.773 5.26629 162.623 5.26629 162.473 5.26629H160.521C160.221 5.26629 160.221 5.41677 160.07 5.56724C159.77 6.01867 159.169 6.62057 158.869 7.07199C158.869 7.07199 158.869 7.07199 158.719 7.22247C158.419 7.52342 157.968 7.97485 157.818 7.97485C157.518 7.97485 156.617 7.37294 156.316 7.07199C156.166 6.92152 156.166 6.92152 156.166 6.77104C156.166 6.62057 156.166 6.62057 156.316 6.62057C157.217 5.86819 157.818 5.26629 158.419 4.36344C159.019 3.61107 159.77 2.40726 160.07 1.50441C160.07 1.35394 160.221 1.05299 160.371 1.05299C160.521 1.05299 161.122 1.35394 161.722 1.65489C162.023 1.80536 162.173 1.80536 162.173 1.95584C162.323 1.95584 162.473 2.10631 162.473 2.25679L162.323 2.40726C162.023 2.55774 161.722 3.15964 161.722 3.15964C161.722 3.31012 161.872 3.31012 162.023 3.46059H163.674V3.15964ZM166.678 3.00917C166.678 3.31012 165.927 3.76154 165.777 3.76154C165.777 3.76154 165.626 3.76154 165.626 3.61107C165.176 3.00916 165.026 2.85869 164.725 2.25679L164.575 2.10631C164.575 1.95584 165.326 1.50441 165.476 1.50441C165.626 1.50441 166.678 2.70821 166.678 3.00917ZM168.029 1.95584C168.029 2.25679 167.278 2.70821 167.128 2.70821L166.978 2.55774C166.678 2.10631 166.377 1.65489 165.927 1.35394L165.777 1.20346C165.777 1.05299 166.527 0.601562 166.678 0.601562C166.828 0.601562 168.029 1.80536 168.029 1.95584Z" fill="#F22840"/>
<path d="M173.584 2.55844C173.884 2.55844 174.034 2.55844 174.034 2.70892C174.034 2.70892 174.034 2.85939 173.884 2.85939C173.734 3.00987 173.734 3.16034 173.734 3.31082C173.734 3.46129 173.734 3.61177 173.734 3.76225C173.734 4.96605 173.734 6.16985 173.434 7.22317C173.133 8.57745 172.383 10.0822 171.331 10.9851C171.181 11.1355 170.881 11.4365 170.731 11.4365C170.43 11.4365 169.68 10.9851 169.379 10.8346C169.229 10.6841 169.079 10.6841 169.079 10.3832C169.079 10.2327 169.229 10.2327 169.229 10.0822C171.181 8.2765 171.482 6.4708 171.482 3.91272C171.482 3.31082 171.482 2.25749 171.482 2.25749C171.482 2.10702 171.482 2.10702 171.632 2.10702C172.082 2.40797 173.284 2.40797 173.584 2.55844ZM177.038 7.52412C177.038 8.12602 177.038 8.2765 177.338 8.2765C177.788 8.2765 180.041 6.16985 180.491 5.71842C180.491 5.71842 180.642 5.56795 180.792 5.56795C180.942 5.56795 181.242 6.01937 181.392 6.32032C181.542 6.4708 181.693 6.92222 181.693 7.22317C181.693 7.52412 181.242 7.82507 181.092 7.97555L180.942 8.12603C180.341 8.72793 179.59 9.17935 178.99 9.78125C178.389 10.2327 177.788 10.6841 177.338 11.1355C177.188 11.286 177.038 11.4365 176.887 11.4365C176.737 11.4365 175.836 10.9851 175.686 10.8346C175.386 10.6841 175.086 10.5336 175.086 10.2327C175.086 9.93173 175.086 9.32983 175.086 8.57745V4.21367C175.086 3.91272 175.086 3.46129 175.086 3.00987C175.086 2.70892 175.086 2.40797 175.086 2.25749C175.086 2.25749 175.086 2.25749 175.086 2.10702C175.086 1.95654 175.086 1.95654 175.236 1.95654C175.236 1.95654 175.836 1.95654 175.986 1.95654C176.137 1.95654 177.188 2.10702 177.338 2.10702C177.488 2.10702 177.488 2.10702 177.488 2.25749C177.488 2.40797 177.488 2.40797 177.338 2.40797C177.188 2.55844 177.188 2.70892 177.188 2.85939C177.188 3.31082 177.188 3.76224 177.188 4.0632V7.52412H177.038Z" fill="#F22840"/>
<path d="M192.509 2.40746C192.659 2.40746 192.809 2.55793 192.809 2.70841C192.809 2.85888 192.659 2.85888 192.659 2.85888C192.358 3.00936 192.358 3.15983 192.358 3.46078C192.058 4.21316 191.608 5.56743 191.157 6.31981C191.157 6.47029 191.007 6.47029 191.007 6.62076C191.007 6.77124 191.157 6.92171 191.157 6.92171C191.307 7.07219 191.608 7.22266 191.908 7.52361C192.058 7.67409 192.208 7.82456 192.208 7.82456C192.208 8.12551 191.307 9.47979 190.857 9.47979C190.707 9.47979 190.556 9.32931 190.556 9.32931C190.406 9.17884 190.106 9.02836 189.956 8.87789C189.806 8.72741 189.806 8.72741 189.655 8.72741C189.505 8.72741 189.505 8.87789 189.355 8.87789C188.754 9.63026 187.854 10.3826 187.103 10.9845C186.802 11.2855 185.151 12.1883 184.85 12.1883C184.55 12.1883 184.099 11.5864 183.949 11.436C183.799 11.2855 183.499 10.8341 183.499 10.6836C183.499 10.5331 183.799 10.3826 183.949 10.3826C183.949 10.3826 183.949 10.3826 184.099 10.3826C185.451 9.78074 186.502 9.02836 187.553 7.97504C187.703 7.82456 187.703 7.82456 187.703 7.67409C187.703 7.52361 187.703 7.52361 187.553 7.37314C187.253 7.22266 186.652 6.92171 186.202 6.77124C186.052 6.77124 185.901 6.62076 185.901 6.47029C185.901 6.31981 186.052 5.86839 186.202 5.71791C186.352 5.41696 186.652 4.96553 186.953 4.96553C187.253 4.96553 188.454 5.56743 188.604 5.56743C188.754 5.56743 188.754 5.71791 188.905 5.71791C189.205 5.71791 189.205 5.56743 189.355 5.41696C189.806 4.51411 190.256 3.46078 190.256 2.40746C190.256 2.25698 190.256 2.10651 190.406 2.10651C190.707 1.65508 191.758 2.10651 192.509 2.40746Z" fill="#F22840"/>
<path d="M200.764 11.4363C200.464 11.5868 199.713 12.4896 199.413 12.4896C199.112 12.4896 197.761 11.4363 197.761 11.1354C197.761 10.9849 197.911 10.9849 198.211 10.8344C199.863 9.78108 200.914 8.27633 201.215 6.47063C201.215 6.16968 201.215 5.86873 201.215 5.4173C201.215 5.26683 201.215 5.26683 201.365 5.26683C201.815 5.26683 203.167 5.26683 203.467 5.4173C203.767 5.4173 203.767 5.56778 203.767 5.56778V5.71825C203.767 5.71825 203.767 5.86873 203.918 5.86873C203.918 5.86873 203.918 5.86873 204.068 5.86873C204.218 5.71825 205.119 4.96588 205.119 4.8154C205.119 4.66493 205.119 4.66493 204.969 4.66493H199.863C199.413 4.66493 198.812 4.66493 198.362 4.66493C198.211 4.66493 197.911 4.66493 197.761 4.66493C197.31 4.66493 197.31 4.51445 197.31 3.76208V2.85922C197.31 2.55827 197.31 2.4078 197.761 2.4078C198.512 2.4078 199.112 2.4078 199.863 2.4078H205.87C206.32 2.4078 206.771 2.4078 207.071 2.25732C207.071 2.25732 207.221 2.25732 207.371 2.25732C207.672 2.25732 207.822 2.4078 207.972 2.55827C208.272 2.85922 208.723 3.31065 208.723 3.6116C208.723 3.76208 208.573 3.91255 208.422 4.06303L208.272 4.2135C207.522 5.11635 206.621 5.86873 205.87 6.77158L205.72 6.92205C205.419 7.223 205.269 7.37348 205.119 7.37348C204.969 7.37348 204.218 6.92205 204.068 6.6211H203.918C203.767 6.6211 203.767 6.77158 203.617 6.92205C202.716 8.72776 202.116 10.2325 200.764 11.4363Z" fill="#F22840"/>
<path d="M218.488 2.40752C218.938 2.40752 219.539 2.40752 219.839 2.40752C220.139 2.40752 220.44 2.70847 220.74 3.00942L220.89 3.15989C221.04 3.46084 221.491 3.76179 221.491 4.06274C221.491 4.21322 221.341 4.3637 221.341 4.51417C221.341 4.81512 221.191 4.9656 221.191 5.11607C220.59 7.9751 219.088 9.93128 216.385 11.436C215.935 11.5865 214.734 12.3389 214.283 12.3389C213.983 12.3389 213.682 11.8875 213.532 11.737C213.382 11.5865 213.082 10.9846 213.082 10.6837C213.082 10.5332 213.232 10.5332 213.382 10.5332C214.734 10.2322 216.385 9.1789 217.436 8.27605C218.337 7.3732 218.938 5.86845 218.938 5.11607C218.938 4.81512 218.638 4.81512 218.488 4.81512H214.133C213.532 4.81512 212.932 4.81512 212.331 4.81512C211.88 4.81512 211.73 4.81512 211.73 4.21322V3.15989C211.73 2.55799 211.73 2.55799 212.181 2.55799C212.781 2.55799 213.382 2.55799 213.983 2.55799H218.488V2.40752ZM223.593 1.65514C223.593 2.40752 222.992 3.15989 222.091 3.15989C221.341 3.15989 220.59 2.55799 220.59 1.65514C220.59 0.902766 221.191 0.150391 222.091 0.150391C222.992 0.150391 223.593 0.902766 223.593 1.65514ZM221.491 1.65514C221.491 2.10657 221.791 2.40752 222.242 2.40752C222.692 2.40752 222.992 2.10657 222.992 1.65514C222.992 1.20372 222.692 0.902766 222.242 0.902766C221.791 0.902766 221.491 1.20372 221.491 1.65514Z" fill="#F22840"/>
<path d="M229.443 6.47024C229.443 6.92167 229.443 7.52357 229.443 7.975C229.443 8.5769 229.443 8.5769 228.692 8.5769H227.791C227.341 8.5769 227.19 8.42642 227.19 8.12547C227.19 7.67405 227.19 7.07215 227.19 6.47024V3.61122C227.19 3.15979 227.19 2.70837 227.19 2.25694C227.19 2.10646 227.19 1.95599 227.19 1.80551C227.19 1.65504 227.19 1.65504 227.341 1.65504C227.491 1.65504 228.692 1.80551 228.992 1.80551C229.143 1.80551 229.143 1.80551 229.143 1.80551C229.443 1.80551 229.593 1.80551 229.593 1.95599C229.593 2.10646 229.443 1.95599 229.443 2.70836V6.47024ZM234.548 5.26644C234.548 6.31977 234.548 7.3731 234.398 8.42642C234.248 9.7807 233.798 10.834 232.746 11.7369C232.446 11.8874 231.395 12.7902 231.245 12.7902C231.095 12.7902 230.494 12.3388 230.344 12.1883C230.194 12.0378 229.593 11.5864 229.593 11.4359C229.593 11.2854 229.893 11.135 230.044 11.135C231.245 10.5331 232.146 9.7807 232.296 8.27595C232.446 7.37309 232.446 6.31977 232.446 5.41692V2.70836C232.446 2.40741 232.446 1.95599 232.446 1.65504C232.446 1.50456 232.446 1.50456 232.446 1.35409C232.446 1.20361 232.446 1.20361 232.596 1.20361C233.047 1.20361 234.248 1.35409 234.699 1.35409C234.849 1.35409 234.999 1.35409 234.999 1.50456C234.999 1.50456 234.999 1.65504 234.849 1.65504C234.699 1.80551 234.699 2.10646 234.699 2.40741V5.26644H234.548Z" fill="#F22840"/>
<path d="M58.0801 48.5779C57.5983 47.8537 56.8757 47.371 56.0326 47.0089C55.1895 46.6469 54.3465 46.4055 53.6238 46.4055C53.2625 46.4055 52.7807 46.4055 52.4194 46.5262C52.0581 46.6469 51.5764 46.7675 51.3355 46.8882C50.9742 47.1296 50.7333 47.371 50.4924 47.7331C50.2515 48.0951 50.1311 48.4572 50.1311 48.94C50.1311 49.4227 50.2515 49.7848 50.372 50.0262C50.4924 50.2675 50.8537 50.5089 51.215 50.7503C51.5764 50.9917 51.9377 51.1124 52.4194 51.3538C52.9012 51.4744 53.3829 51.7158 53.9851 51.9572C54.8282 52.1986 55.7917 52.5606 56.6348 52.9227C57.5983 53.2848 58.4414 53.7675 59.164 54.2503C59.8866 54.8537 60.6093 55.5779 61.091 56.4227C61.5728 57.2675 61.8137 58.3537 61.8137 59.5606C61.8137 61.0089 61.5728 62.3365 60.9706 63.302C60.4888 64.3882 59.7662 65.2331 58.8027 65.9572C57.8392 66.6813 56.8757 67.1641 55.6713 67.5262C54.4669 67.8882 53.2625 68.0089 52.0581 68.0089C50.2515 68.0089 48.445 67.6468 46.7588 67.0434C45.0727 66.44 43.6274 65.4744 42.5435 64.3882L46.5179 60.2848C47.1201 61.0089 47.9632 61.7331 48.9267 62.2158C49.8902 62.6986 50.9742 62.94 51.9377 62.94C52.4194 62.94 52.7807 62.94 53.2625 62.8193C53.7443 62.6986 54.1056 62.5779 54.3465 62.3365C54.7078 62.0951 54.9486 61.8537 55.0691 61.4917C55.31 61.1296 55.31 60.6468 55.31 60.1641C55.31 59.6813 55.1895 59.3193 54.9486 58.9572C54.7078 58.5951 54.3465 58.3537 53.9851 57.9917C53.5034 57.7503 53.0216 57.5089 52.299 57.2675C51.6968 57.0262 50.8537 56.7848 50.0107 56.5434C49.1676 56.302 48.445 55.94 47.6019 55.5779C46.8792 55.2158 46.1566 54.7331 45.5544 54.2503C44.9522 53.6469 44.4705 53.0434 44.1092 52.1986C43.7478 51.3537 43.507 50.3882 43.507 49.302C43.507 47.8538 43.7478 46.6469 44.35 45.6813C44.9522 44.7158 45.6749 43.871 46.6384 43.1469C47.6019 42.5434 48.5654 42.0606 49.7698 41.6986C50.9742 41.4572 52.1786 41.2158 53.2625 41.2158C54.7078 41.2158 56.153 41.4572 57.5983 42.0606C59.0436 42.5434 60.3684 43.3882 61.5728 44.3538L58.0801 48.5779Z" fill="#F22840"/>
<path d="M74.1016 70.0602C73.7403 71.0257 73.379 71.8706 72.8972 72.5947C72.4155 73.3188 71.9337 73.9223 71.3315 74.405C70.7293 74.8878 70.0067 75.2499 69.1636 75.6119C68.3205 75.8533 67.357 75.974 66.2731 75.974C65.6709 75.974 65.1891 75.974 64.5869 75.8533C63.9847 75.7326 63.503 75.7326 63.0212 75.6119L63.6234 70.6637C63.8643 70.7843 64.2256 70.7843 64.5869 70.905C64.9483 70.905 65.3096 71.0257 65.5505 71.0257C66.514 71.0257 67.1162 70.7843 67.4775 70.4223C67.8388 70.0602 68.2001 69.4568 68.5614 68.6119L69.1636 67.1637L61.6964 49.543H68.2001L72.1746 61.0085H72.295L75.7877 49.543H82.0506L74.1016 70.0602Z" fill="#F22840"/>
<path d="M95.5376 67.2847V57.5088C95.5376 57.0261 95.5376 56.5433 95.4172 56.0605C95.2967 55.5778 95.1763 55.2157 95.0558 54.8537C94.815 54.4916 94.5741 54.2502 94.2128 54.0088C93.8515 53.7674 93.3697 53.6468 92.8879 53.6468C92.4062 53.6468 91.9244 53.7674 91.5631 54.0088C91.2018 54.2502 90.8405 54.4916 90.5996 54.8537C90.3587 55.2157 90.1179 55.5778 89.9974 56.0605C89.877 56.5433 89.7565 57.0261 89.7565 57.5088V67.164H83.855V49.4226H89.5157V51.9571H89.6361C89.877 51.595 90.1179 51.233 90.4792 50.8709C90.8405 50.5088 91.2018 50.1468 91.6836 49.9054C92.1653 49.664 92.6471 49.4226 93.2493 49.3019C93.8515 49.1812 94.3332 49.0605 95.0558 49.0605C96.2602 49.0605 97.2237 49.3019 98.0668 49.664C98.9099 50.1468 99.6325 50.6295 100.114 51.3537C100.596 52.0778 100.957 52.8019 101.198 53.6468C101.439 54.4916 101.56 55.4571 101.56 56.3019V67.4054H95.5376V67.2847Z" fill="#F22840"/>
<path d="M116.734 55.2155C116.372 54.7327 115.891 54.4913 115.409 54.1293C114.807 53.8879 114.204 53.7672 113.602 53.7672C113 53.7672 112.398 53.8879 111.916 54.1293C111.434 54.3707 110.953 54.7327 110.591 55.0948C110.23 55.4569 109.989 55.9396 109.748 56.5431C109.628 57.1465 109.507 57.75 109.507 58.3534C109.507 58.9569 109.628 59.5603 109.748 60.1638C109.989 60.7672 110.23 61.25 110.591 61.612C110.953 61.9741 111.434 62.3362 111.916 62.5776C112.398 62.8189 113 62.9396 113.602 62.9396C114.204 62.9396 114.807 62.8189 115.409 62.5776C116.011 62.3362 116.493 61.9741 116.854 61.612L120.106 65.5948C119.383 66.3189 118.42 66.9224 117.215 67.2844C116.011 67.6465 114.807 67.8879 113.482 67.8879C112.037 67.8879 110.712 67.6465 109.507 67.2844C108.303 66.8017 107.219 66.1982 106.376 65.3534C105.533 64.5086 104.81 63.5431 104.208 62.3362C103.726 61.1293 103.485 59.8017 103.485 58.3534C103.485 56.9051 103.726 55.5776 104.208 54.3707C104.69 53.1638 105.412 52.1982 106.376 51.3534C107.219 50.5086 108.303 49.9051 109.507 49.4224C110.712 48.9396 112.037 48.6982 113.361 48.6982C113.964 48.6982 114.686 48.6982 115.288 48.8189C115.891 48.9396 116.493 49.0603 117.095 49.3017C117.697 49.5431 118.179 49.7844 118.661 50.0258C119.142 50.2672 119.624 50.6293 119.986 50.9913L116.734 55.2155Z" fill="#F22840"/>
<path d="M133.721 67.2845V57.6293C133.721 57.1465 133.721 56.6638 133.601 56.181C133.481 55.6983 133.36 55.3362 133.24 54.9741C132.999 54.6121 132.758 54.3707 132.397 54.1293C132.035 53.8879 131.674 53.7672 131.072 53.7672C129.988 53.7672 129.265 54.1293 128.663 54.8534C128.061 55.5776 127.82 56.5431 127.82 57.5086V67.1638H121.918V40.25H127.82V51.7155H127.94C128.302 50.9914 129.024 50.3879 129.867 49.7845C130.71 49.181 131.794 48.9397 132.999 48.9397C134.203 48.9397 135.287 49.181 136.01 49.5431C136.853 50.0259 137.455 50.5086 138.057 51.2328C138.539 51.9569 138.9 52.681 139.141 53.5259C139.382 54.3707 139.503 55.3362 139.503 56.181V67.2845H133.721V67.2845Z" fill="#F22840"/>
<path d="M154.191 54.2498C153.95 54.1291 153.709 54.1291 153.468 54.1291C153.227 54.1291 152.986 54.1291 152.746 54.1291C151.903 54.1291 151.3 54.2498 150.698 54.6119C150.216 54.8532 149.735 55.2153 149.373 55.6981C149.012 56.0601 148.771 56.5429 148.651 57.0257C148.53 57.5084 148.41 57.8705 148.41 58.2326V67.405H142.508V49.5429H148.169V52.0774H148.289C148.771 51.1119 149.373 50.3877 150.216 49.7843C151.059 49.1808 152.023 48.9395 153.107 48.9395C153.348 48.9395 153.589 48.9395 153.83 48.9395C154.07 48.9395 154.191 48.9395 154.432 49.0601L154.191 54.2498Z" fill="#F22840"/>
<path d="M174.189 58.3537C174.189 59.802 173.948 61.1296 173.346 62.3365C172.864 63.5434 172.141 64.5089 171.178 65.3537C170.214 66.1986 169.251 66.802 168.046 67.2848C166.842 67.7675 165.517 68.0089 164.192 68.0089C162.867 68.0089 161.543 67.7675 160.338 67.2848C159.134 66.802 158.05 66.1986 157.207 65.3537C156.364 64.5089 155.641 63.5434 155.039 62.3365C154.557 61.1296 154.196 59.802 154.196 58.3537C154.196 56.9055 154.437 55.5779 155.039 54.371C155.521 53.1641 156.243 52.1986 157.207 51.3537C158.05 50.5089 159.134 49.9055 160.338 49.5434C161.543 49.0606 162.867 48.9399 164.192 48.9399C165.517 48.9399 166.842 49.1813 168.046 49.5434C169.251 50.0261 170.335 50.6296 171.178 51.3537C172.141 52.1986 172.743 53.1641 173.346 54.371C173.948 55.5779 174.189 56.9055 174.189 58.3537ZM168.528 58.3537C168.528 57.7503 168.408 57.2675 168.287 56.6641C168.046 56.0606 167.805 55.5779 167.444 55.2158C167.083 54.8537 166.601 54.4917 166.119 54.2503C165.638 54.0089 165.035 53.8882 164.313 53.8882C163.59 53.8882 162.988 54.0089 162.506 54.2503C162.024 54.4917 161.543 54.8537 161.181 55.2158C160.82 55.5779 160.579 56.0606 160.338 56.6641C160.218 57.2675 160.097 57.7503 160.097 58.3537C160.097 58.9572 160.218 59.4399 160.338 60.0434C160.459 60.6468 160.82 61.1296 161.181 61.4917C161.543 61.9744 162.024 62.3365 162.506 62.5779C162.988 62.8193 163.59 62.9399 164.313 62.9399C165.035 62.9399 165.638 62.8193 166.119 62.5779C166.601 62.3365 167.083 61.9744 167.444 61.4917C167.805 61.0089 168.046 60.5261 168.287 60.0434C168.408 59.4399 168.528 58.9572 168.528 58.3537Z" fill="#F22840"/>
<path d="M176.715 67.2846V39.4053H182.858V61.9742H192.734V67.2846H176.715Z" fill="#F22840"/>
<path d="M201.16 43.7502C201.16 44.233 201.039 44.5951 200.919 45.0778C200.798 45.4399 200.558 45.802 200.196 46.0433C199.955 46.2847 199.594 46.5261 199.112 46.7675C198.751 46.8882 198.269 47.0089 197.788 47.0089C196.824 47.0089 195.981 46.6468 195.379 46.0433C194.777 45.4399 194.415 44.5951 194.415 43.7502C194.415 43.2675 194.536 42.9054 194.656 42.5433C194.777 42.1813 195.017 41.8192 195.379 41.5778C195.74 41.3364 196.101 41.0951 196.463 40.8537C196.824 40.733 197.306 40.6123 197.788 40.6123C198.269 40.6123 198.631 40.733 199.112 40.8537C199.474 40.9744 199.835 41.2158 200.196 41.5778C200.437 41.8192 200.678 42.1813 200.919 42.5433C201.039 42.9054 201.16 43.2675 201.16 43.7502ZM194.897 67.2847V49.4227H200.798V67.2847H194.897V67.2847Z" fill="#F22840"/>
<path d="M215.979 44.5948C215.738 44.4742 215.497 44.4742 215.256 44.4742C215.015 44.4742 214.654 44.3535 214.413 44.3535C213.811 44.3535 213.449 44.4742 213.088 44.5948C212.727 44.8362 212.486 45.0776 212.245 45.319C212.004 45.6811 211.884 46.0431 211.884 46.4052C211.763 46.7673 211.763 47.25 211.763 47.6121V49.4224H215.738V53.7673H211.763V67.2845H205.862V53.8879H202.61V49.5431H205.862V47.8535C205.862 46.7673 205.982 45.6811 206.223 44.7155C206.464 43.75 206.825 42.9052 207.427 42.0604C208.03 41.3362 208.752 40.7328 209.836 40.25C210.8 39.7673 212.004 39.5259 213.57 39.5259C214.052 39.5259 214.533 39.5259 215.015 39.6466C215.497 39.6466 215.979 39.7673 216.34 39.8879L215.979 44.5948Z" fill="#F22840"/>
<path d="M234.65 58.5952C234.65 58.8366 234.65 59.078 234.65 59.3193C234.65 59.5607 234.65 59.8021 234.65 60.0435H221.763C221.763 60.5262 222.004 61.009 222.244 61.3711C222.485 61.7331 222.847 62.0952 223.208 62.4573C223.569 62.6986 224.051 62.94 224.533 63.1814C225.015 63.3021 225.496 63.4228 226.098 63.4228C227.062 63.4228 227.785 63.3021 228.507 62.94C229.109 62.578 229.712 62.0952 230.073 61.6124L234.168 64.1469C233.325 65.3538 232.241 66.3193 230.796 66.9228C229.471 67.5262 227.785 67.8883 225.978 67.8883C224.653 67.8883 223.328 67.6469 222.124 67.2849C220.92 66.9228 219.836 66.1986 218.993 65.4745C218.15 64.6297 217.427 63.6642 216.825 62.4573C216.343 61.2504 216.102 59.9228 216.102 58.4745C216.102 57.0262 216.343 55.6986 216.825 54.4917C217.306 53.2849 218.029 52.3193 218.872 51.4745C219.715 50.6297 220.799 50.0262 221.883 49.5435C223.088 49.0607 224.292 48.8193 225.737 48.8193C227.062 48.8193 228.266 49.0607 229.35 49.5435C230.434 50.0262 231.398 50.6297 232.241 51.4745C233.084 52.3193 233.686 53.2849 234.047 54.4917C234.409 55.6986 234.65 57.1469 234.65 58.5952ZM229.23 56.3021C229.23 55.3366 228.989 54.6124 228.387 53.8883C227.785 53.1642 226.942 52.9228 225.737 52.9228C225.135 52.9228 224.653 53.0435 224.171 53.1642C223.69 53.2849 223.328 53.6469 222.967 53.8883C222.606 54.2504 222.365 54.6124 222.124 54.9745C221.883 55.3366 221.763 55.8193 221.763 56.3021H229.23Z" fill="#F22840"/>
<path fill-rule="evenodd" clip-rule="evenodd" d="M12.5551 30C17.1318 30 20.6245 32.5345 22.1902 36.5172C23.2742 39.5345 26.7669 43.0345 30.7414 44.3621C30.9823 44.4828 30.9823 44.7241 30.8618 44.8448C30.2596 45.569 29.6574 46.6552 29.2961 47.6207C29.1757 47.8621 28.9348 47.8621 28.8144 47.7414C26.2851 45.6897 24.1172 44.8448 21.2267 44.6034C20.0223 44.4828 19.1793 44.4828 17.9749 44.7241C17.8544 44.7241 17.734 44.9655 17.734 45.0862C17.9749 46.6552 19.2997 48.2241 21.4676 49.069C24.1172 50.0345 29.1757 53.1724 29.1757 59.8103C29.1757 65.3621 25.6829 68.6207 22.3107 70.1897C17.4931 72.2414 14.8435 73.4483 11.7121 76.3448C10.6281 77.431 10.0259 78.5172 10.0259 79.7241C10.0259 81.0517 11.3507 83.2241 13.6391 83.2241C14.8435 83.2241 16.0478 82.7414 16.8909 82.0172C17.4931 81.5345 18.2157 81.5345 18.8179 81.8966C19.5406 82.3793 19.5406 83.4655 18.9384 84.069C17.9749 85.1552 16.4092 86 14.2413 86C8.21933 86 4.84705 80.569 4.84705 76.7069C4.72661 72.2414 7.85801 69.2241 10.1463 67.1724C13.5186 63.7931 12.6756 59.931 11.5916 57.8793C10.869 56.5517 9.18284 55.5862 7.13538 56.1897C5.44924 56.7931 4.48573 58.4828 4.60617 59.931C4.60617 60.1724 4.48573 60.1724 4.48573 60.1724C0.872566 57.7586 -1.41577 51.9655 0.993005 46.7759C1.11344 46.6552 1.23388 46.5345 1.35432 46.6552C2.07695 47.0172 3.28134 47.3793 4.36529 47.3793C4.96748 47.3793 5.93099 47.3793 6.8945 47.0172C7.13538 46.8966 7.13538 46.6552 7.01494 46.5345C6.05143 45.6897 5.93099 45.2069 5.3288 44C4.72661 42.6724 4.72661 40.5 5.08792 39.2931C5.08792 39.2931 5.08792 39.1724 4.96748 39.1724C4.24485 39.1724 3.28134 39.6552 2.67915 40.0172C2.67915 40.0172 2.55871 40.0172 2.55871 39.8966C3.04046 37.1207 5.3288 34.7069 8.33977 34.1034C8.33977 34.1034 8.46021 33.9828 8.33977 33.9828C7.73757 33.5 6.65363 33.0172 5.56968 32.8966C5.56968 32.8966 7.97845 30 12.5551 30Z" fill="#F22840"/>
</svg>
