<svg width="197" height="60" viewBox="0 0 197 60" fill="none" xmlns="http://www.w3.org/2000/svg">
<path d="M53.2757 25.7272C52.8731 25.2172 52.3463 24.81 51.6997 24.5058C51.0487 24.2058 50.4234 24.0515 49.8196 24.0515C49.507 24.0515 49.1943 24.0772 48.8731 24.1329C48.5519 24.1886 48.265 24.2915 48.008 24.45C47.7511 24.6043 47.537 24.8058 47.3614 25.0543C47.1858 25.3029 47.1001 25.6158 47.1001 26.0015C47.1001 26.3315 47.1686 26.6058 47.3057 26.8243C47.4427 27.0429 47.644 27.2358 47.9095 27.3986C48.1751 27.5615 48.4877 27.7158 48.856 27.8529C49.22 27.99 49.6311 28.1315 50.0894 28.2772C50.7489 28.4958 51.4341 28.74 52.145 29.0058C52.856 29.2715 53.5069 29.6229 54.0936 30.06C54.6803 30.4972 55.1643 31.0415 55.5454 31.6929C55.9309 32.34 56.1193 33.15 56.1193 34.1186C56.1193 35.2329 55.9137 36.1972 55.5026 37.0115C55.0915 37.8258 54.539 38.4986 53.8452 39.0258C53.1515 39.5572 52.3549 39.9472 51.4598 40.2043C50.5648 40.4615 49.6397 40.59 48.689 40.59C47.3014 40.59 45.9567 40.3458 44.659 39.8615C43.3614 39.3772 42.2822 38.6872 41.4214 37.7915L44.492 34.6672C44.9674 35.2543 45.5926 35.7429 46.3721 36.1329C47.1472 36.5272 47.9224 36.7243 48.689 36.7243C49.0359 36.7243 49.3742 36.6858 49.704 36.6129C50.0337 36.54 50.3207 36.42 50.569 36.2572C50.8174 36.0943 51.0101 35.8715 51.16 35.5972C51.3056 35.3229 51.3785 34.9929 51.3785 34.6115C51.3785 34.2472 51.2885 33.9343 51.1044 33.6772C50.9202 33.42 50.659 33.1886 50.3249 32.9786C49.9866 32.7686 49.5669 32.5758 49.0616 32.4043C48.5605 32.2286 47.9866 32.0443 47.3485 31.8429C46.7275 31.6415 46.1194 31.4058 45.5241 31.1315C44.9288 30.8572 44.3978 30.5058 43.9353 30.0772C43.4685 29.6486 43.0959 29.1258 42.809 28.5129C42.5263 27.9 42.385 27.1543 42.385 26.28C42.385 25.2 42.6034 24.2786 43.0445 23.5115C43.4813 22.7443 44.0595 22.1143 44.7704 21.6215C45.4813 21.1286 46.2864 20.7686 47.1815 20.5372C48.0766 20.31 48.9802 20.1943 49.8967 20.1943C50.993 20.1943 52.1151 20.3958 53.2542 20.7986C54.3977 21.2015 55.3955 21.7929 56.2563 22.5815L53.2757 25.7272Z" fill="white"/>
<path d="M65.541 42.15C65.2669 42.8614 64.9586 43.4957 64.6203 44.0572C64.2819 44.6143 63.8794 45.09 63.4126 45.4843C62.9458 45.8786 62.3976 46.1743 61.7681 46.3757C61.1385 46.5772 60.3933 46.6757 59.5325 46.6757C59.1128 46.6757 58.676 46.65 58.2306 46.5943C57.781 46.5386 57.3955 46.4657 57.0658 46.3757L57.5583 42.5914C57.7767 42.6643 58.0208 42.7243 58.2863 42.7714C58.5518 42.8186 58.7916 42.84 59.0143 42.84C59.7081 42.84 60.2135 42.6814 60.5218 42.36C60.8345 42.0386 61.0957 41.5886 61.3184 41.0014L61.7552 39.8786L56.0508 26.4429H61.04L64.0849 35.2157H64.1663L66.8815 26.4429H71.6523L65.541 42.15Z" fill="white"/>
<path d="M81.9691 40.093V32.6358C81.9691 32.2501 81.9349 31.8858 81.8749 31.5387C81.8107 31.1915 81.7036 30.8873 81.558 30.6215C81.4124 30.3558 81.2068 30.1458 80.9413 29.9915C80.6758 29.8373 80.3417 29.7601 79.9392 29.7601C79.5366 29.7601 79.1854 29.8373 78.8814 29.9915C78.5816 30.1458 78.3289 30.3601 78.1276 30.6344C77.9264 30.9087 77.7765 31.2258 77.6737 31.5815C77.5709 31.9373 77.5238 32.3101 77.5238 32.6915V40.093H72.9971V26.4387H77.3568V28.3287H77.4124C77.5752 28.0373 77.7936 27.7501 78.0548 27.4673C78.3204 27.1844 78.633 26.9401 78.9884 26.7387C79.3439 26.5373 79.7336 26.3744 80.1533 26.2458C80.573 26.1173 81.0227 26.053 81.4981 26.053C82.4102 26.053 83.1897 26.2158 83.8278 26.5458C84.4659 26.8758 84.9841 27.3001 85.3781 27.8187C85.7721 28.3416 86.0547 28.9373 86.226 29.6144C86.4016 30.2915 86.4873 30.9687 86.4873 31.6415V40.0844H81.9691V40.093Z" fill="white"/>
<path d="M98.1872 30.8528C97.9302 30.5228 97.5833 30.2571 97.1465 30.0556C96.7097 29.8542 96.26 29.7556 95.8017 29.7556C95.3264 29.7556 94.8981 29.8499 94.5127 30.0428C94.1272 30.2356 93.8018 30.4928 93.5277 30.8099C93.2536 31.1314 93.0395 31.4999 92.8853 31.9199C92.7311 32.3399 92.654 32.7899 92.654 33.2614C92.654 33.7371 92.7268 34.1828 92.8724 34.6028C93.0181 35.0228 93.2322 35.3956 93.5148 35.7128C93.7975 36.0342 94.1358 36.2828 94.5298 36.4671C94.9238 36.6514 95.3649 36.7414 95.8617 36.7414C96.3199 36.7414 96.7696 36.6556 97.2193 36.4799C97.669 36.3042 98.0287 36.0556 98.3028 35.7256L100.8 38.7685C100.234 39.3171 99.5019 39.7456 98.6069 40.0585C97.7118 40.3671 96.761 40.5256 95.7546 40.5256C94.6754 40.5256 93.669 40.3628 92.7354 40.0328C91.8018 39.7028 90.9881 39.2228 90.2986 38.5928C89.6091 37.9628 89.0652 37.1999 88.6712 36.3042C88.2772 35.4085 88.0759 34.3928 88.0759 33.2614C88.0759 32.1471 88.2729 31.1399 88.6712 30.2442C89.0652 29.3485 89.6091 28.5856 90.2986 27.9556C90.9881 27.3256 91.8018 26.8414 92.7354 26.5028C93.669 26.1642 94.6669 25.9971 95.7289 25.9971C96.2214 25.9971 96.7097 26.0442 97.1979 26.1342C97.6818 26.2242 98.1486 26.3485 98.5983 26.5028C99.048 26.6571 99.4591 26.8499 99.8317 27.0771C100.204 27.3042 100.53 27.5571 100.804 27.8314L98.1872 30.8528Z" fill="white"/>
<path d="M111.159 40.0928V32.6871C111.159 32.3014 111.134 31.9371 111.078 31.5899C111.022 31.2428 110.919 30.9385 110.761 30.6728C110.607 30.4071 110.401 30.1971 110.144 30.0428C109.887 29.8885 109.558 29.8114 109.159 29.8114C108.371 29.8114 107.772 30.0899 107.348 30.6471C106.928 31.2042 106.718 31.8942 106.718 32.7171V40.0928H102.221V19.3628H106.718V28.1656H106.774C107.086 27.6171 107.579 27.1285 108.256 26.6999C108.932 26.2714 109.746 26.0571 110.697 26.0571C111.63 26.0571 112.41 26.2199 113.044 26.5499C113.673 26.8799 114.187 27.3042 114.581 27.8228C114.975 28.3456 115.258 28.9414 115.429 29.6185C115.605 30.2956 115.69 30.9728 115.69 31.6456V40.0885H111.159V40.0928Z" fill="white"/>
<path d="M126.799 30.1414C126.598 30.0857 126.401 30.0514 126.208 30.03C126.016 30.0128 125.827 30.0043 125.647 30.0043C125.043 30.0043 124.538 30.1157 124.127 30.3343C123.716 30.5528 123.386 30.8186 123.138 31.1271C122.889 31.4357 122.714 31.7743 122.602 32.1386C122.491 32.5028 122.44 32.82 122.44 33.0943V40.0929H117.943V26.4557H122.277V28.4314H122.333C122.679 27.7328 123.172 27.1628 123.814 26.7214C124.452 26.28 125.193 26.0571 126.037 26.0571C126.221 26.0571 126.397 26.0657 126.572 26.0828C126.748 26.1 126.889 26.13 126.996 26.1643L126.799 30.1414Z" fill="white"/>
<path d="M142.14 33.2099C142.14 34.3242 141.938 35.3356 141.536 36.2399C141.133 37.1442 140.585 37.9114 139.891 38.5414C139.198 39.1714 138.392 39.6599 137.48 40.0071C136.568 40.3542 135.587 40.5256 134.547 40.5256C133.523 40.5256 132.551 40.3499 131.626 40.0071C130.701 39.6599 129.9 39.1714 129.215 38.5414C128.53 37.9114 127.986 37.1442 127.583 36.2399C127.181 35.3356 126.979 34.3242 126.979 33.2099C126.979 32.0956 127.181 31.0885 127.583 30.1928C127.986 29.2971 128.53 28.5385 129.215 27.9171C129.9 27.2956 130.705 26.8199 131.626 26.4899C132.551 26.1599 133.523 25.9971 134.547 25.9971C135.587 25.9971 136.568 26.1599 137.48 26.4899C138.392 26.8199 139.198 27.2956 139.891 27.9171C140.585 28.5385 141.133 29.2971 141.536 30.1928C141.938 31.0885 142.14 32.0956 142.14 33.2099ZM137.806 33.2099C137.806 32.7728 137.733 32.3399 137.587 31.9199C137.442 31.4999 137.232 31.1314 136.958 30.8099C136.684 30.4885 136.345 30.2314 135.943 30.0299C135.54 29.8285 135.073 29.7299 134.542 29.7299C134.011 29.7299 133.544 29.8285 133.142 30.0299C132.739 30.2314 132.405 30.4928 132.14 30.8099C131.874 31.1314 131.673 31.4999 131.536 31.9199C131.399 32.3399 131.33 32.7685 131.33 33.2099C131.33 33.6471 131.399 34.0799 131.536 34.4999C131.673 34.9199 131.879 35.3014 132.153 35.6356C132.427 35.9742 132.765 36.2442 133.168 36.4456C133.57 36.6471 134.037 36.7456 134.568 36.7456C135.099 36.7456 135.566 36.6471 135.968 36.4456C136.371 36.2442 136.709 35.9742 136.983 35.6356C137.258 35.2971 137.463 34.9199 137.6 34.4999C137.737 34.0799 137.806 33.6471 137.806 33.2099Z" fill="white"/>
<path d="M144.093 40.0928V18.7756H148.808V36.0042H156.324V40.0885H144.093V40.0928Z" fill="white"/>
<path d="M162.769 22.0801C162.769 22.4273 162.701 22.753 162.563 23.053C162.426 23.353 162.242 23.6144 162.015 23.833C161.784 24.0516 161.51 24.2273 161.193 24.3559C160.872 24.4844 160.538 24.5487 160.191 24.5487C159.459 24.5487 158.846 24.3087 158.354 23.8201C157.861 23.3359 157.613 22.7573 157.613 22.0801C157.613 21.7501 157.677 21.4373 157.806 21.133C157.934 20.833 158.118 20.5716 158.354 20.353C158.589 20.1344 158.863 19.9544 159.176 19.8173C159.489 19.6801 159.823 19.6116 160.191 19.6116C160.538 19.6116 160.872 19.6759 161.193 19.8044C161.514 19.933 161.788 20.1044 162.015 20.3273C162.242 20.5459 162.426 20.8073 162.563 21.1073C162.701 21.4073 162.769 21.733 162.769 22.0801ZM157.943 40.093V26.4387H162.439V40.093H157.943Z" fill="white"/>
<path d="M174.101 22.6799C173.938 22.6242 173.745 22.5814 173.523 22.5428C173.304 22.5042 173.086 22.4871 172.863 22.4871C172.443 22.4871 172.105 22.56 171.848 22.7057C171.591 22.8514 171.39 23.0485 171.244 23.2971C171.099 23.5457 170.996 23.8242 170.945 24.1328C170.889 24.4457 170.863 24.7542 170.863 25.0628V26.4342H173.908V29.7771H170.863V40.0842H166.366V29.7814H163.87V26.4385H166.366V25.1228C166.366 24.2828 166.456 23.4814 166.64 22.7228C166.825 21.9642 167.137 21.2957 167.587 20.7214C168.037 20.1471 168.636 19.6885 169.398 19.35C170.156 19.0114 171.103 18.8442 172.238 18.8442C172.623 18.8442 173 18.8657 173.377 18.9128C173.75 18.96 174.092 19.0285 174.405 19.1185L174.101 22.6799Z" fill="white"/>
<path d="M188.392 33.4287C188.392 33.613 188.392 33.793 188.392 33.9773C188.392 34.1616 188.383 34.333 188.366 34.5001H178.465C178.503 34.8859 178.615 35.233 178.808 35.5416C179 35.8544 179.244 36.1201 179.548 36.3516C179.848 36.5787 180.187 36.7587 180.563 36.8873C180.936 37.0159 181.326 37.0801 181.728 37.0801C182.439 37.0801 183.043 36.9473 183.54 36.6816C184.032 36.4159 184.435 36.073 184.747 35.653L187.874 37.6287C187.236 38.5587 186.388 39.2787 185.338 39.7801C184.285 40.2816 183.069 40.5344 181.677 40.5344C180.653 40.5344 179.685 40.3759 178.769 40.0544C177.852 39.733 177.056 39.2701 176.371 38.6573C175.685 38.0444 175.146 37.2901 174.752 36.3944C174.358 35.4987 174.161 34.4744 174.161 33.3259C174.161 32.2116 174.354 31.2001 174.739 30.2959C175.124 29.3916 175.643 28.6244 176.302 27.9944C176.962 27.3644 177.737 26.8759 178.632 26.5287C179.527 26.1816 180.495 26.0059 181.54 26.0059C182.546 26.0059 183.467 26.173 184.311 26.5116C185.15 26.8501 185.874 27.3387 186.478 27.9773C187.082 28.6159 187.553 29.3959 187.891 30.3087C188.225 31.2173 188.392 32.2587 188.392 33.4287ZM184.251 31.7016C184.251 30.9901 184.028 30.3773 183.578 29.863C183.129 29.353 182.456 29.0959 181.561 29.0959C181.124 29.0959 180.722 29.1644 180.354 29.3016C179.99 29.4387 179.668 29.6273 179.394 29.863C179.12 30.0987 178.902 30.3816 178.735 30.6987C178.572 31.0201 178.478 31.3544 178.461 31.6973H184.251V31.7016Z" fill="white"/>
<path fill-rule="evenodd" clip-rule="evenodd" d="M18.4494 8.67432C21.9226 8.67432 24.6078 10.5643 25.7812 13.6843C26.6335 16.02 29.2459 18.6857 32.355 19.6457C32.5178 19.6972 32.5777 19.8857 32.4749 20.0143C32.051 20.55 31.5627 21.4243 31.2929 22.0886C31.233 22.2386 31.0403 22.2815 30.9161 22.1743C28.9975 20.5672 27.3615 20.0015 25.1303 19.8043C24.1281 19.7229 23.4772 19.7486 22.5693 19.8986C22.4365 19.92 22.338 20.0443 22.3637 20.1772C22.5821 21.3729 23.5457 22.6072 25.2502 23.22C27.2973 24 31.0959 26.3829 31.0959 31.4143C31.0959 35.6143 28.4493 38.1086 25.8712 39.36C22.1881 40.9586 20.1196 41.8929 17.7299 44.0272C16.8905 44.85 16.458 45.6857 16.458 46.6029C16.458 47.5972 17.4387 49.2472 19.2288 49.2472C20.1624 49.2472 21.0832 48.8443 21.687 48.3129C22.1067 47.9443 22.7192 47.9143 23.1603 48.2486C23.687 48.6472 23.7427 49.41 23.293 49.8943C22.5222 50.7215 21.3359 51.33 19.6828 51.33C15.0276 51.33 12.5223 47.19 12.4752 44.2072C12.4238 40.8215 14.7792 38.46 16.565 36.9C19.1089 34.3243 18.4708 31.3672 17.6271 29.7815C17.1646 28.9757 15.8627 28.2386 14.3124 28.7057C13.0319 29.1386 12.2525 30.4886 12.3424 31.5986C12.3467 31.6672 12.2782 31.7143 12.2182 31.6757C9.4345 29.8157 7.67863 25.4143 9.50731 21.4672C9.56298 21.3472 9.70431 21.2957 9.81994 21.3515C10.351 21.6129 11.3189 21.8615 12.0897 21.8615C12.5308 21.8615 13.2888 21.8615 13.9912 21.5829C14.1497 21.5186 14.1925 21.3086 14.0683 21.1886C13.3574 20.5072 13.216 20.2029 12.7964 19.26C12.351 18.21 12.3424 16.5815 12.655 15.6343C12.6679 15.6 12.6379 15.5657 12.6036 15.5743C12.0597 15.6857 11.3231 16.0029 10.8649 16.3286C10.8306 16.3543 10.7835 16.3243 10.7921 16.2815C11.1947 14.1257 12.8777 12.2657 15.2332 11.8115C15.276 11.8029 15.2888 11.7515 15.2546 11.7257C14.7192 11.3572 13.9569 10.9843 13.1004 10.8643C13.1004 10.8643 14.9505 8.67432 18.4494 8.67432Z" fill="white"/>
</svg>
