<svg width="167" height="64" viewBox="0 0 167 64" fill="none" xmlns="http://www.w3.org/2000/svg">
<path d="M95.5384 40.4231C95.4666 40.3982 95.3804 40.3805 95.2835 40.3627C95.1865 40.3485 95.0895 40.3378 94.9926 40.3378C94.8058 40.3378 94.6586 40.3698 94.5472 40.4338C94.4323 40.4978 94.3461 40.5831 94.2815 40.6898C94.2168 40.7965 94.1737 40.9209 94.1486 41.056C94.1234 41.1911 94.1127 41.3262 94.1127 41.4613V42.0587H95.4523V43.5165H94.1127V48.0142H92.1302V43.52H91.0312V42.0622H92.1302V41.4898C92.1302 41.1236 92.1697 40.7751 92.2523 40.4445C92.3313 40.1138 92.4714 39.8222 92.6689 39.5698C92.8665 39.3173 93.1322 39.1182 93.4662 38.9725C93.8002 38.8267 94.2168 38.752 94.716 38.752C94.8848 38.752 95.0536 38.7627 95.2188 38.7805C95.384 38.8018 95.5349 38.8302 95.6713 38.8693L95.5384 40.4231Z" fill="#212226"/>
<path d="M102.179 45.0169C102.179 45.504 102.089 45.9449 101.913 46.3396C101.737 46.7342 101.493 47.0685 101.188 47.3458C100.883 47.6196 100.527 47.8329 100.125 47.9858C99.7225 48.1387 99.2915 48.2134 98.8318 48.2134C98.3793 48.2134 97.9519 48.1387 97.5461 47.9858C97.1403 47.8329 96.7847 47.6196 96.4831 47.3458C96.1814 47.072 95.9408 46.7378 95.7648 46.3396C95.5888 45.9449 95.499 45.504 95.499 45.0169C95.499 44.5298 95.5888 44.0925 95.7648 43.7014C95.9408 43.3102 96.1814 42.9796 96.4831 42.7094C96.7847 42.4391 97.1403 42.2329 97.5461 42.0871C97.9519 41.9449 98.3829 41.8702 98.8318 41.8702C99.2915 41.8702 99.7225 41.9414 100.125 42.0871C100.527 42.2294 100.883 42.4391 101.188 42.7094C101.493 42.9796 101.737 43.3102 101.913 43.7014C102.093 44.0925 102.179 44.5298 102.179 45.0169ZM100.272 45.0169C100.272 44.8249 100.24 44.64 100.175 44.4551C100.11 44.2738 100.017 44.1102 99.8985 43.9716C99.7764 43.8329 99.6291 43.7191 99.4532 43.6302C99.2772 43.5413 99.0689 43.4987 98.8354 43.4987C98.602 43.4987 98.3973 43.5413 98.2177 43.6302C98.0417 43.7191 97.8945 43.8329 97.776 43.9716C97.6575 44.1102 97.5713 44.2738 97.5102 44.4551C97.4492 44.64 97.4204 44.8249 97.4204 45.0169C97.4204 45.2089 97.4492 45.3974 97.5102 45.5787C97.5713 45.7636 97.661 45.9271 97.7831 46.0765C97.9053 46.2258 98.0525 46.3431 98.2321 46.4285C98.408 46.5174 98.6128 46.56 98.8498 46.56C99.0832 46.56 99.288 46.5174 99.4639 46.4285C99.6399 46.3396 99.7907 46.2222 99.9129 46.0765C100.035 45.9307 100.125 45.7636 100.186 45.5787C100.24 45.3938 100.272 45.2089 100.272 45.0169Z" fill="#212226"/>
<path d="M106.535 43.6765C106.445 43.6516 106.359 43.6374 106.277 43.6303C106.19 43.6231 106.108 43.6196 106.029 43.6196C105.763 43.6196 105.54 43.6658 105.357 43.7618C105.178 43.8578 105.03 43.9716 104.923 44.1067C104.815 44.2418 104.736 44.3876 104.686 44.5476C104.639 44.7076 104.614 44.8463 104.614 44.9636V48.0178H102.631V42.0694H104.542V42.9298H104.567C104.722 42.624 104.937 42.3751 105.221 42.1831C105.504 41.9911 105.828 41.8951 106.198 41.8951C106.277 41.8951 106.356 41.8987 106.435 41.9058C106.51 41.9129 106.575 41.9271 106.621 41.9414L106.535 43.6765Z" fill="#212226"/>
<path d="M116.81 45.5538C116.81 46.016 116.717 46.4036 116.534 46.72C116.347 47.0365 116.103 47.2889 115.798 47.4809C115.492 47.6729 115.144 47.808 114.752 47.8933C114.361 47.9787 113.962 48.0178 113.549 48.0178H110.141V39.5485H113.549C113.88 39.5485 114.217 39.584 114.566 39.6516C114.91 39.7191 115.227 39.8365 115.507 40C115.79 40.1636 116.017 40.384 116.196 40.6649C116.372 40.9458 116.462 41.2978 116.462 41.728C116.462 42.1973 116.333 42.5885 116.074 42.8942C115.816 43.2 115.478 43.424 115.058 43.5591V43.584C115.298 43.6231 115.528 43.6978 115.74 43.8045C115.952 43.9111 116.139 44.0498 116.297 44.2169C116.455 44.384 116.58 44.5796 116.67 44.8036C116.764 45.024 116.81 45.2765 116.81 45.5538ZM114.469 42.0018C114.469 41.7138 114.357 41.504 114.138 41.3725C113.916 41.2409 113.589 41.1734 113.154 41.1734H112.138V42.9191H113.251C113.639 42.9191 113.937 42.8409 114.153 42.6845C114.361 42.5351 114.469 42.304 114.469 42.0018ZM114.745 45.3618C114.745 45.0098 114.612 44.768 114.347 44.6329C114.081 44.4978 113.725 44.4302 113.284 44.4302H112.134V46.368H113.294C113.456 46.368 113.621 46.3538 113.797 46.3253C113.97 46.2969 114.128 46.2471 114.268 46.176C114.408 46.1049 114.523 46.0018 114.612 45.8702C114.702 45.7387 114.745 45.5716 114.745 45.3618Z" fill="#212226"/>
<path d="M121.63 48.0178V47.1929H121.605C121.533 47.328 121.436 47.456 121.321 47.5769C121.202 47.6978 121.066 47.8009 120.912 47.8898C120.754 47.9787 120.581 48.0498 120.391 48.1067C120.2 48.1636 120.003 48.192 119.795 48.192C119.392 48.192 119.051 48.1209 118.775 47.9751C118.498 47.8329 118.272 47.6445 118.1 47.4205C117.927 47.1929 117.801 46.9334 117.726 46.6418C117.651 46.3502 117.611 46.0551 117.611 45.7494V42.0623H119.604V45.2907C119.604 45.4578 119.615 45.6178 119.64 45.7707C119.665 45.9236 119.712 46.0587 119.78 46.176C119.849 46.2969 119.938 46.3894 120.053 46.4569C120.165 46.5245 120.315 46.56 120.502 46.56C120.847 46.56 121.113 46.432 121.292 46.176C121.472 45.92 121.565 45.6214 121.565 45.28V42.0623H123.548V48.0178H121.63V48.0178Z" fill="#212226"/>
<path d="M128.22 43.8187C128.058 43.6658 127.868 43.5413 127.653 43.4347C127.434 43.3316 127.207 43.2782 126.963 43.2782C126.776 43.2782 126.608 43.3138 126.449 43.3849C126.291 43.456 126.212 43.5804 126.212 43.7547C126.212 43.9218 126.299 44.0427 126.471 44.1138C126.643 44.1849 126.924 44.2667 127.311 44.352C127.538 44.3982 127.764 44.4693 127.994 44.5547C128.224 44.6436 128.432 44.7573 128.615 44.9031C128.802 45.0453 128.949 45.2231 129.06 45.4293C129.172 45.6356 129.229 45.8844 129.229 46.1724C129.229 46.5458 129.154 46.8658 128.999 47.1218C128.845 47.3813 128.647 47.5911 128.4 47.7511C128.155 47.9111 127.879 48.0249 127.574 48.0996C127.268 48.1707 126.959 48.2062 126.654 48.2062C126.162 48.2062 125.681 48.128 125.21 47.9716C124.74 47.8151 124.349 47.5876 124.032 47.2853L125.142 46.1262C125.318 46.3182 125.537 46.4782 125.796 46.6062C126.054 46.7342 126.327 46.7982 126.618 46.7982C126.78 46.7982 126.938 46.7591 127.096 46.6844C127.254 46.6098 127.333 46.4747 127.333 46.2827C127.333 46.0978 127.236 45.9627 127.042 45.8773C126.848 45.7884 126.546 45.6996 126.137 45.6036C125.929 45.5573 125.717 45.4933 125.509 45.4116C125.3 45.3333 125.11 45.2231 124.948 45.088C124.783 44.9529 124.647 44.7858 124.542 44.5867C124.438 44.3876 124.384 44.1493 124.384 43.8684C124.384 43.5093 124.46 43.2036 124.614 42.9547C124.769 42.7058 124.966 42.4996 125.207 42.3396C125.447 42.1796 125.717 42.0622 126.011 41.9876C126.306 41.9129 126.597 41.8738 126.888 41.8738C127.34 41.8738 127.778 41.9449 128.209 42.0836C128.64 42.2222 129.003 42.432 129.301 42.7129L128.22 43.8187Z" fill="#212226"/>
<path d="M132.131 40.16C132.131 40.3129 132.102 40.4516 132.041 40.5831C131.98 40.7147 131.901 40.8285 131.801 40.9245C131.7 41.0205 131.578 41.0951 131.438 41.152C131.298 41.2089 131.151 41.2374 130.996 41.2374C130.673 41.2374 130.404 41.1307 130.188 40.9209C129.969 40.7111 129.861 40.4551 129.861 40.16C129.861 40.0178 129.89 39.8791 129.948 39.7476C130.005 39.616 130.084 39.5023 130.188 39.4063C130.292 39.3103 130.414 39.232 130.551 39.1716C130.687 39.1111 130.838 39.0827 131 39.0827C131.151 39.0827 131.298 39.1111 131.442 39.168C131.582 39.2249 131.704 39.2996 131.804 39.3956C131.905 39.4916 131.984 39.6054 132.045 39.7369C132.102 39.8649 132.131 40.0071 132.131 40.16ZM130.005 48.0178V42.0623H131.987V48.0178H130.005Z" fill="#212226"/>
<path d="M137.105 48.0178V44.7644C137.105 44.5973 137.091 44.4373 137.062 44.2844C137.033 44.1351 136.987 44 136.922 43.8827C136.857 43.7689 136.768 43.6764 136.649 43.6089C136.531 43.5413 136.383 43.5058 136.207 43.5058C136.031 43.5058 135.873 43.5413 135.744 43.6089C135.611 43.6764 135.5 43.7689 135.41 43.8898C135.32 44.0107 135.256 44.1458 135.209 44.3022C135.166 44.4587 135.141 44.6187 135.141 44.7858V48.0142H133.147V42.0622H135.069V42.8871H135.094C135.166 42.7591 135.263 42.6347 135.378 42.5102C135.496 42.3858 135.633 42.2827 135.787 42.1938C135.945 42.1049 136.114 42.0338 136.301 41.9769C136.487 41.92 136.681 41.8915 136.893 41.8915C137.296 41.8915 137.637 41.9627 137.92 42.1084C138.204 42.2507 138.43 42.4391 138.603 42.6631C138.775 42.8907 138.901 43.1502 138.976 43.4453C139.052 43.7404 139.091 44.0355 139.091 44.3307V48.0142H137.105V48.0178Z" fill="#212226"/>
<path d="M146.163 45.1129C146.163 45.1911 146.163 45.2729 146.163 45.3511C146.163 45.4294 146.159 45.5076 146.152 45.5787H141.788C141.803 45.7458 141.857 45.8987 141.939 46.0338C142.025 46.1689 142.133 46.2863 142.266 46.3858C142.399 46.4854 142.546 46.5636 142.711 46.6205C142.877 46.6774 143.049 46.7058 143.225 46.7058C143.541 46.7058 143.803 46.6489 144.022 46.5316C144.241 46.4178 144.417 46.2685 144.554 46.0836L145.933 46.944C145.649 47.3494 145.279 47.6622 144.816 47.8827C144.353 48.1031 143.814 48.2134 143.203 48.2134C142.751 48.2134 142.327 48.1422 141.921 48.0036C141.515 47.8649 141.167 47.6622 140.865 47.392C140.564 47.1254 140.327 46.7947 140.154 46.4036C139.982 46.0125 139.896 45.5645 139.896 45.0631C139.896 44.576 139.982 44.1351 140.151 43.7405C140.32 43.3458 140.549 43.0116 140.84 42.7343C141.131 42.4605 141.472 42.2471 141.867 42.0943C142.262 41.9414 142.69 41.8667 143.15 41.8667C143.591 41.8667 144.001 41.9414 144.371 42.0871C144.741 42.2365 145.06 42.4498 145.326 42.7271C145.592 43.008 145.8 43.3458 145.947 43.744C146.095 44.1423 146.163 44.6009 146.163 45.1129ZM144.338 44.3591C144.338 44.0463 144.241 43.7796 144.044 43.5591C143.846 43.3351 143.552 43.2249 143.157 43.2249C142.963 43.2249 142.787 43.2534 142.625 43.3138C142.464 43.3743 142.324 43.456 142.201 43.5591C142.079 43.6623 141.982 43.7831 141.911 43.9254C141.839 44.064 141.799 44.2098 141.788 44.3627H144.338V44.3591Z" fill="#212226"/>
<path d="M150.534 43.8187C150.372 43.6658 150.182 43.5413 149.966 43.4347C149.747 43.3316 149.521 43.2782 149.277 43.2782C149.09 43.2782 148.921 43.3138 148.763 43.3849C148.605 43.456 148.526 43.5804 148.526 43.7547C148.526 43.9218 148.612 44.0427 148.785 44.1138C148.957 44.1849 149.237 44.2667 149.625 44.352C149.851 44.3982 150.077 44.4693 150.307 44.5547C150.537 44.6436 150.745 44.7573 150.929 44.9031C151.115 45.0453 151.263 45.2231 151.374 45.4293C151.485 45.6356 151.543 45.8844 151.543 46.1724C151.543 46.5458 151.467 46.8658 151.313 47.1218C151.158 47.3813 150.961 47.5911 150.713 47.7511C150.469 47.9111 150.192 48.0249 149.887 48.0996C149.582 48.1707 149.273 48.2062 148.968 48.2062C148.476 48.2062 147.994 48.128 147.524 47.9716C147.053 47.8151 146.662 47.5876 146.346 47.2853L147.456 46.1262C147.632 46.3182 147.851 46.4782 148.109 46.6062C148.368 46.7342 148.641 46.7982 148.932 46.7982C149.093 46.7982 149.251 46.7591 149.409 46.6844C149.567 46.6098 149.646 46.4747 149.646 46.2827C149.646 46.0978 149.549 45.9627 149.356 45.8773C149.162 45.7884 148.86 45.6996 148.451 45.6036C148.242 45.5573 148.03 45.4933 147.822 45.4116C147.614 45.3333 147.423 45.2231 147.262 45.088C147.097 44.9529 146.96 44.7858 146.856 44.5867C146.752 44.3876 146.698 44.1493 146.698 43.8684C146.698 43.5093 146.773 43.2036 146.928 42.9547C147.082 42.7022 147.28 42.4996 147.52 42.3396C147.761 42.1796 148.03 42.0622 148.325 41.9876C148.619 41.9129 148.91 41.8738 149.201 41.8738C149.654 41.8738 150.092 41.9449 150.523 42.0836C150.954 42.2222 151.316 42.432 151.615 42.7129L150.534 43.8187Z" fill="#212226"/>
<path d="M155.834 43.8187C155.673 43.6658 155.482 43.5413 155.267 43.4347C155.048 43.3316 154.822 43.2782 154.577 43.2782C154.391 43.2782 154.222 43.3138 154.064 43.3849C153.906 43.456 153.827 43.5804 153.827 43.7547C153.827 43.9218 153.913 44.0427 154.085 44.1138C154.258 44.1849 154.538 44.2667 154.926 44.352C155.152 44.3982 155.378 44.4693 155.608 44.5547C155.838 44.6436 156.046 44.7573 156.229 44.9031C156.416 45.0453 156.563 45.2231 156.675 45.4293C156.786 45.6356 156.843 45.8844 156.843 46.1724C156.843 46.5458 156.768 46.8658 156.614 47.1218C156.459 47.3813 156.262 47.5911 156.014 47.7511C155.77 47.9111 155.493 48.0249 155.188 48.0996C154.883 48.1707 154.574 48.2062 154.268 48.2062C153.776 48.2062 153.295 48.128 152.825 47.9716C152.354 47.8151 151.963 47.5876 151.647 47.2853L152.756 46.1262C152.932 46.3182 153.152 46.4782 153.41 46.6062C153.669 46.7342 153.942 46.7982 154.233 46.7982C154.394 46.7982 154.552 46.7591 154.71 46.6844C154.868 46.6098 154.947 46.4747 154.947 46.2827C154.947 46.0978 154.85 45.9627 154.656 45.8773C154.462 45.7884 154.161 45.6996 153.751 45.6036C153.543 45.5573 153.331 45.4933 153.123 45.4116C152.914 45.3333 152.724 45.2231 152.563 45.088C152.397 44.9529 152.261 44.7858 152.157 44.5867C152.053 44.3876 151.999 44.1493 151.999 43.8684C151.999 43.5093 152.074 43.2036 152.229 42.9547C152.383 42.7058 152.58 42.4996 152.821 42.3396C153.062 42.1796 153.331 42.0622 153.626 41.9876C153.92 41.9129 154.211 41.8738 154.502 41.8738C154.954 41.8738 155.393 41.9449 155.824 42.0836C156.254 42.2222 156.617 42.432 156.915 42.7129L155.834 43.8187Z" fill="#212226"/>
<path d="M53.7417 22.8231C53.4329 22.4356 53.0306 22.1262 52.5314 21.8951C52.0322 21.6675 51.551 21.5502 51.0877 21.5502C50.847 21.5502 50.6064 21.5715 50.3622 21.6142C50.118 21.6569 49.8953 21.7351 49.6978 21.8524C49.5003 21.9698 49.3351 22.1227 49.2022 22.3111C49.0693 22.4995 49.0011 22.7378 49.0011 23.0293C49.0011 23.2782 49.0549 23.488 49.1591 23.6551C49.2632 23.8222 49.4177 23.968 49.6224 24.0924C49.8271 24.2169 50.0677 24.3307 50.3478 24.4373C50.628 24.5404 50.944 24.6507 51.296 24.7609C51.8024 24.928 52.3267 25.1129 52.8762 25.312C53.4221 25.5147 53.9213 25.7813 54.3702 26.1155C54.8191 26.4498 55.1926 26.8622 55.4871 27.3564C55.7816 27.8507 55.9289 28.4658 55.9289 29.2018C55.9289 30.048 55.7709 30.784 55.4548 31.3991C55.1388 32.0178 54.715 32.5298 54.1799 32.9316C53.6447 33.3333 53.0342 33.632 52.3482 33.8276C51.6623 34.0231 50.9512 34.1191 50.2221 34.1191C49.1555 34.1191 48.1248 33.9342 47.1264 33.568C46.128 33.1982 45.3019 32.6756 44.6411 31.9929L47.0007 29.6178C47.367 30.0622 47.8446 30.4356 48.4444 30.7342C49.0406 31.0329 49.6332 31.1822 50.2221 31.1822C50.4879 31.1822 50.7501 31.1538 51.0015 31.1004C51.2529 31.0436 51.4755 30.9547 51.6659 30.8302C51.8562 30.7058 52.0071 30.5387 52.1184 30.3289C52.2297 30.1191 52.2872 29.8702 52.2872 29.5787C52.2872 29.3013 52.2154 29.0631 52.0753 28.8711C51.9352 28.6755 51.7341 28.4978 51.4755 28.3413C51.217 28.1813 50.8937 28.0356 50.5059 27.904C50.118 27.7724 49.6798 27.6302 49.1914 27.4773C48.7138 27.3244 48.2469 27.1431 47.7908 26.9369C47.3347 26.7271 46.9288 26.4604 46.5697 26.1333C46.2106 25.8062 45.9232 25.4116 45.7078 24.9458C45.4887 24.48 45.3809 23.9147 45.3809 23.2462C45.3809 22.4249 45.5497 21.7244 45.8873 21.1413C46.2249 20.5582 46.6667 20.0782 47.2126 19.7013C47.7584 19.3244 48.3762 19.0507 49.0657 18.8764C49.7517 18.7022 50.4484 18.6169 51.1487 18.6169C51.9927 18.6169 52.851 18.7698 53.7274 19.0755C54.6037 19.3813 55.3722 19.8329 56.033 20.4302L53.7417 22.8231Z" fill="#F32840"/>
<path d="M63.162 35.3067C62.9501 35.8471 62.7167 36.3307 62.4581 36.7538C62.1995 37.1769 61.8907 37.5395 61.5315 37.8382C61.1724 38.1369 60.7522 38.3644 60.2674 38.5173C59.7825 38.6702 59.2115 38.7449 58.5507 38.7449C58.2274 38.7449 57.8934 38.7235 57.5523 38.6809C57.2075 38.6382 56.9094 38.5849 56.658 38.5138L57.0387 35.6373C57.2075 35.6942 57.3942 35.7369 57.5953 35.7724C57.8001 35.808 57.9832 35.8258 58.152 35.8258C58.6835 35.8258 59.0714 35.7049 59.3084 35.4595C59.5455 35.2178 59.7502 34.8729 59.919 34.4284L60.2566 33.5751L55.8787 23.36H59.7107L62.0487 30.0302H62.1133L64.1963 23.36H67.8596L63.162 35.3067Z" fill="#F32840"/>
<path d="M75.7748 33.7458V28.0746C75.7748 27.7831 75.7497 27.5058 75.6994 27.2391C75.6491 26.976 75.5701 26.7413 75.4588 26.5422C75.3475 26.3395 75.1894 26.1795 74.9847 26.0622C74.78 25.9449 74.525 25.8844 74.2162 25.8844C73.9073 25.8844 73.638 25.9449 73.4045 26.0622C73.1747 26.1795 72.9807 26.3431 72.8263 26.5529C72.6719 26.7626 72.557 27.0009 72.4779 27.2711C72.3989 27.5413 72.363 27.8222 72.363 28.1138V33.7422H68.8901V23.36H72.2373V24.8H72.2804C72.4061 24.5795 72.5713 24.3591 72.776 24.1422C72.9807 23.9253 73.2178 23.744 73.4907 23.5911C73.7637 23.4382 74.0617 23.3138 74.385 23.2142C74.7082 23.1182 75.053 23.0684 75.4157 23.0684C76.116 23.0684 76.7122 23.1929 77.2042 23.4453C77.6962 23.6942 78.0913 24.0178 78.393 24.416C78.6946 24.8106 78.9137 25.2658 79.0466 25.7813C79.1795 26.2969 79.2477 26.8089 79.2477 27.3244V33.7458H75.7748V33.7458Z" fill="#F32840"/>
<path d="M88.2263 26.72C88.0288 26.4711 87.763 26.2684 87.4254 26.1155C87.0878 25.9626 86.7431 25.888 86.3947 25.888C86.0284 25.888 85.7016 25.9626 85.4035 26.1084C85.109 26.2542 84.8576 26.4498 84.6457 26.6915C84.4338 26.9333 84.2686 27.2178 84.1501 27.5342C84.0316 27.8542 83.9705 28.1955 83.9705 28.5546C83.9705 28.9173 84.028 29.2551 84.1393 29.5751C84.2506 29.8951 84.4158 30.176 84.6349 30.4178C84.854 30.6595 85.1126 30.8515 85.4142 30.9902C85.7159 31.1289 86.0571 31.2 86.4342 31.2C86.7862 31.2 87.1309 31.136 87.4757 31.0009C87.8205 30.8693 88.097 30.6773 88.3089 30.4284L90.2231 32.7431C89.7886 33.1591 89.2247 33.4862 88.5388 33.7244C87.8492 33.9591 87.1202 34.08 86.348 34.08C85.5184 34.08 84.7462 33.9555 84.028 33.7031C83.3097 33.4542 82.6848 33.088 82.1568 32.608C81.6253 32.128 81.2123 31.5484 80.907 30.8658C80.6018 30.1866 80.4509 29.4151 80.4509 28.5511C80.4509 27.7049 80.6018 26.9404 80.907 26.2578C81.2123 25.5786 81.6253 24.9955 82.1568 24.5155C82.6848 24.0355 83.3097 23.6693 84.028 23.4098C84.7462 23.1538 85.5112 23.0258 86.3265 23.0258C86.7071 23.0258 87.0807 23.0613 87.4542 23.1289C87.8277 23.2 88.1832 23.2924 88.528 23.4098C88.8728 23.5271 89.1888 23.6729 89.4761 23.8471C89.7634 24.0213 90.0112 24.2133 90.2231 24.4195L88.2263 26.72Z" fill="#F32840"/>
<path d="M98.1852 33.7458V28.1173C98.1852 27.8258 98.1636 27.5484 98.1205 27.2818C98.0774 27.0187 97.9984 26.784 97.8799 26.5849C97.7614 26.3822 97.6034 26.2222 97.4059 26.1049C97.2083 25.9876 96.9569 25.9271 96.6481 25.9271C96.0447 25.9271 95.5814 26.1404 95.2582 26.5636C94.935 26.9867 94.7734 27.5129 94.7734 28.1387V33.7458H91.322V17.984H94.7734V24.6756H94.8165C95.0535 24.2596 95.4342 23.8862 95.9549 23.5591C96.4757 23.232 97.1006 23.0684 97.8296 23.0684C98.5443 23.0684 99.1441 23.1929 99.6289 23.4453C100.114 23.6942 100.505 24.0178 100.807 24.416C101.109 24.8107 101.324 25.2658 101.461 25.7813C101.593 26.2969 101.662 26.8089 101.662 27.3244V33.7458H98.1852V33.7458Z" fill="#F32840"/>
<path d="M110.195 26.1796C110.04 26.1369 109.89 26.112 109.742 26.0978C109.595 26.0836 109.451 26.0765 109.311 26.0765C108.848 26.0765 108.46 26.1582 108.144 26.3254C107.828 26.4925 107.577 26.6916 107.386 26.9298C107.196 27.1645 107.06 27.4205 106.977 27.6978C106.894 27.9751 106.851 28.2169 106.851 28.4267V33.7494H103.4V23.3778H106.726V24.8782H106.769C107.034 24.3485 107.415 23.9111 107.907 23.5769C108.399 23.2427 108.967 23.072 109.613 23.072C109.753 23.072 109.89 23.0791 110.022 23.0934C110.155 23.1076 110.263 23.1289 110.349 23.1574L110.195 26.1796Z" fill="#F32840"/>
<path d="M121.971 28.512C121.971 29.3582 121.817 30.1262 121.508 30.816C121.199 31.5022 120.779 32.0889 120.243 32.5653C119.708 33.0453 119.091 33.4151 118.39 33.6818C117.69 33.9449 116.936 34.0764 116.139 34.0764C115.352 34.0764 114.605 33.9449 113.897 33.6818C113.19 33.4186 112.572 33.0453 112.044 32.5653C111.516 32.0853 111.1 31.5022 110.791 30.816C110.482 30.1298 110.328 29.3618 110.328 28.512C110.328 27.6658 110.482 26.9013 110.791 26.2186C111.1 25.5395 111.516 24.96 112.044 24.4871C112.572 24.0142 113.19 23.6515 113.897 23.4026C114.605 23.1538 115.352 23.0258 116.139 23.0258C116.939 23.0258 117.69 23.1502 118.39 23.4026C119.091 23.6515 119.708 24.0142 120.243 24.4871C120.779 24.96 121.199 25.536 121.508 26.2186C121.817 26.9013 121.971 27.6658 121.971 28.512ZM118.645 28.512C118.645 28.1778 118.588 27.8506 118.477 27.5306C118.365 27.2106 118.204 26.9298 117.992 26.688C117.78 26.4462 117.521 26.2471 117.212 26.0942C116.903 25.9413 116.544 25.8666 116.139 25.8666C115.733 25.8666 115.374 25.9449 115.065 26.0942C114.756 26.2471 114.501 26.4462 114.296 26.688C114.091 26.9298 113.937 27.2142 113.833 27.5306C113.729 27.8506 113.675 28.1778 113.675 28.512C113.675 28.8462 113.729 29.1733 113.833 29.4933C113.937 29.8133 114.095 30.1013 114.307 30.3573C114.519 30.6133 114.777 30.8195 115.086 30.9724C115.395 31.1253 115.754 31.2 116.16 31.2C116.566 31.2 116.925 31.1253 117.234 30.9724C117.543 30.8195 117.801 30.6133 118.013 30.3573C118.225 30.1013 118.383 29.8133 118.487 29.4933C118.591 29.1733 118.645 28.8462 118.645 28.512Z" fill="#F32840"/>
<path d="M123.472 33.7458V17.5396H127.092V30.6382H132.86V33.7458H123.472Z" fill="#F32840"/>
<path d="M137.816 20.0498C137.816 20.3129 137.762 20.5618 137.658 20.7894C137.554 21.0169 137.414 21.216 137.238 21.3831C137.062 21.5502 136.85 21.6818 136.606 21.7778C136.362 21.8738 136.103 21.9236 135.838 21.9236C135.277 21.9236 134.807 21.7387 134.426 21.3725C134.045 21.0027 133.859 20.5618 133.859 20.0498C133.859 19.8009 133.909 19.5591 134.006 19.3316C134.103 19.104 134.243 18.9049 134.426 18.7378C134.609 18.5707 134.818 18.4356 135.058 18.3325C135.295 18.2294 135.557 18.176 135.838 18.176C136.103 18.176 136.362 18.2258 136.606 18.3218C136.85 18.4178 137.062 18.5494 137.238 18.7165C137.414 18.8836 137.554 19.0827 137.658 19.3102C137.762 19.5378 137.816 19.7867 137.816 20.0498ZM134.11 33.7458V23.3636H137.561V33.7458H134.11Z" fill="#F32840"/>
<path d="M146.515 20.5085C146.389 20.4658 146.242 20.4338 146.073 20.4053C145.904 20.3769 145.735 20.3627 145.566 20.3627C145.243 20.3627 144.985 20.4196 144.787 20.5298C144.59 20.64 144.435 20.7893 144.324 20.9778C144.212 21.1662 144.133 21.376 144.094 21.6142C144.051 21.8489 144.029 22.0871 144.029 22.3218V23.3636H146.367V25.9058H144.029V33.7422H140.574V25.9058H138.66V23.3636H140.574V22.3645C140.574 21.7245 140.646 21.1165 140.786 20.5405C140.926 19.9645 141.167 19.456 141.512 19.0187C141.857 18.5813 142.32 18.2329 142.902 17.9769C143.483 17.7209 144.209 17.5929 145.082 17.5929C145.376 17.5929 145.667 17.6107 145.954 17.6462C146.242 17.6818 146.504 17.7316 146.744 17.8027L146.515 20.5085Z" fill="#F32840"/>
<path d="M157.486 28.6791C157.486 28.8178 157.486 28.9564 157.486 29.0951C157.486 29.2338 157.479 29.3653 157.465 29.4898H149.865C149.894 29.7813 149.98 30.0444 150.127 30.2827C150.275 30.5209 150.465 30.7235 150.695 30.8978C150.925 31.072 151.187 31.2071 151.474 31.3031C151.762 31.3991 152.06 31.4489 152.369 31.4489C152.914 31.4489 153.378 31.3493 153.758 31.1467C154.139 30.944 154.444 30.6844 154.685 30.3644L157.084 31.8649C156.592 32.5724 155.942 33.12 155.137 33.5004C154.329 33.8844 153.392 34.0729 152.325 34.0729C151.539 34.0729 150.795 33.952 150.095 33.7067C149.391 33.4649 148.781 33.1093 148.253 32.6435C147.725 32.1778 147.312 31.6053 147.01 30.9227C146.708 30.2435 146.558 29.4649 146.558 28.5867C146.558 27.7404 146.705 26.9724 146.999 26.2827C147.294 25.5964 147.693 25.0098 148.199 24.5333C148.705 24.0533 149.301 23.6835 149.987 23.4169C150.673 23.1538 151.42 23.0222 152.218 23.0222C152.99 23.0222 153.697 23.1502 154.344 23.4062C154.99 23.6622 155.543 24.0355 156.007 24.5227C156.47 25.0098 156.833 25.6 157.091 26.2933C157.357 26.9973 157.486 27.7902 157.486 28.6791ZM154.308 27.3671C154.308 26.8267 154.135 26.3609 153.791 25.9698C153.446 25.5822 152.932 25.3867 152.243 25.3867C151.905 25.3867 151.596 25.44 151.316 25.5431C151.036 25.6462 150.788 25.7884 150.58 25.9698C150.368 26.1511 150.199 26.3609 150.074 26.6062C149.948 26.848 149.876 27.104 149.862 27.3671H154.308Z" fill="#F32840"/>
<path fill-rule="evenodd" clip-rule="evenodd" d="M19.8856 9.24445C23.6278 9.24445 26.5189 11.264 27.7867 14.592C28.7061 17.0844 31.5181 19.9289 34.8689 20.9529C35.0449 21.0062 35.1095 21.2053 34.9982 21.3476C34.5421 21.92 34.0141 22.8516 33.7232 23.5627C33.6586 23.7262 33.4503 23.7689 33.3174 23.6551C31.2452 21.9413 29.4854 21.3333 27.0756 21.1236C25.9945 21.0382 25.2942 21.0667 24.3138 21.2231C24.1737 21.2444 24.066 21.3796 24.0911 21.5182C24.3281 22.7947 25.3661 24.1138 27.2013 24.768C29.4136 25.5964 33.5113 28.1387 33.5113 33.5076C33.5113 37.9876 30.6562 40.6507 27.88 41.9876C23.9079 43.6942 21.6813 44.6933 19.1062 46.9653C18.2048 47.8436 17.7343 48.7325 17.7343 49.7138C17.7343 50.7769 18.7938 52.5369 20.7188 52.5369C21.7244 52.5369 22.7192 52.1067 23.3692 51.5413C23.8182 51.1502 24.479 51.1147 24.9602 51.4702C25.5277 51.8969 25.5887 52.7111 25.1003 53.2267C24.2671 54.1084 22.9885 54.7591 21.2072 54.7556C16.19 54.7556 13.4893 50.3396 13.4426 47.1538C13.3887 43.5413 15.9279 41.0205 17.8493 39.3564C20.5895 36.608 19.9035 33.4542 18.9913 31.7618C18.4957 30.9049 17.0879 30.1156 15.4179 30.6169C14.0352 31.0791 13.1984 32.5191 13.2954 33.7067C13.3025 33.7813 13.2235 33.8311 13.1625 33.7884C10.1637 31.8044 8.27099 27.1076 10.2391 22.8942C10.2965 22.7662 10.451 22.7129 10.5767 22.7733C11.1513 23.0507 12.1928 23.3173 13.0224 23.3173C13.4965 23.3173 14.3153 23.3173 15.0731 23.0187C15.2455 22.9511 15.2886 22.7271 15.1557 22.5991C14.3907 21.8738 14.2363 21.5467 13.7838 20.5404C13.3061 19.4169 13.2954 17.6853 13.633 16.672C13.6437 16.6329 13.615 16.6009 13.5755 16.608C12.9865 16.7253 12.1928 17.0631 11.7008 17.4151C11.6649 17.4436 11.611 17.408 11.6218 17.3653C12.0563 15.0649 13.87 13.0773 16.4055 12.5938C16.4522 12.5867 16.4666 12.5298 16.4307 12.5013C15.8524 12.1102 15.0336 11.7084 14.1106 11.5804C14.1214 11.5804 16.111 9.24445 19.8856 9.24445Z" fill="#F32840"/>
</svg>
