<svg width="250" height="78" viewBox="0 0 250 78" fill="none" xmlns="http://www.w3.org/2000/svg">
<path d="M145.395 53.1786C145.274 53.1362 145.129 53.1059 144.965 53.0755C144.801 53.0513 144.637 53.0331 144.474 53.0331C144.158 53.0331 143.91 53.0877 143.722 53.1968C143.528 53.306 143.382 53.4515 143.273 53.6335C143.164 53.8154 143.091 54.0276 143.049 54.2581C143.006 54.4885 142.988 54.719 142.988 54.9494V55.9682H145.25V58.4546H142.988V66.1261H139.64V58.4607H137.785V55.9743H139.64V54.9979C139.64 54.3733 139.707 53.779 139.847 53.215C139.98 52.651 140.216 52.1537 140.55 51.7232C140.884 51.2926 141.332 50.953 141.896 50.7044C142.46 50.4557 143.164 50.3284 144.007 50.3284C144.292 50.3284 144.577 50.3466 144.856 50.3769C145.135 50.4133 145.389 50.4618 145.62 50.5285L145.395 53.1786Z" fill="#212226"/>
<path d="M156.609 61.0137C156.609 61.8445 156.457 62.5965 156.16 63.2697C155.863 63.9428 155.451 64.5128 154.935 64.9859C154.42 65.4528 153.819 65.8167 153.14 66.0775C152.461 66.3382 151.733 66.4656 150.957 66.4656C150.193 66.4656 149.471 66.3382 148.786 66.0775C148.101 65.8167 147.5 65.4528 146.991 64.9859C146.481 64.5189 146.075 63.9489 145.778 63.2697C145.481 62.5965 145.329 61.8445 145.329 61.0137C145.329 60.1829 145.481 59.437 145.778 58.7699C146.075 58.1028 146.481 57.5388 146.991 57.0779C147.5 56.617 148.101 56.2653 148.786 56.0167C149.471 55.7741 150.199 55.6467 150.957 55.6467C151.733 55.6467 152.461 55.768 153.14 56.0167C153.819 56.2592 154.42 56.617 154.935 57.0779C155.451 57.5388 155.863 58.1028 156.16 58.7699C156.463 59.437 156.609 60.1829 156.609 61.0137ZM153.389 61.0137C153.389 60.6862 153.334 60.3709 153.225 60.0555C153.116 59.7462 152.958 59.4673 152.758 59.2308C152.552 58.9943 152.303 58.8002 152.006 58.6486C151.709 58.497 151.357 58.4242 150.963 58.4242C150.569 58.4242 150.223 58.497 149.92 58.6486C149.623 58.8002 149.374 58.9943 149.174 59.2308C148.974 59.4673 148.828 59.7462 148.725 60.0555C148.622 60.3709 148.574 60.6862 148.574 61.0137C148.574 61.3412 148.622 61.6626 148.725 61.9719C148.828 62.2872 148.98 62.5662 149.186 62.8209C149.392 63.0756 149.641 63.2757 149.944 63.4213C150.241 63.5729 150.587 63.6456 150.987 63.6456C151.381 63.6456 151.727 63.5729 152.024 63.4213C152.321 63.2697 152.576 63.0695 152.782 62.8209C152.988 62.5722 153.14 62.2872 153.243 61.9719C153.334 61.6565 153.389 61.3412 153.389 61.0137Z" fill="#212226"/>
<path d="M163.965 58.7275C163.813 58.685 163.668 58.6608 163.528 58.6486C163.383 58.6365 163.243 58.6304 163.11 58.6304C162.661 58.6304 162.285 58.7093 161.976 58.873C161.673 59.0367 161.424 59.2308 161.242 59.4613C161.06 59.6917 160.927 59.9403 160.842 60.2132C160.763 60.4861 160.721 60.7226 160.721 60.9228V66.1321H157.373V55.9864H160.599V57.4539H160.642C160.903 56.9324 161.266 56.5079 161.745 56.1804C162.225 55.8529 162.77 55.6892 163.395 55.6892C163.528 55.6892 163.662 55.6953 163.795 55.7074C163.923 55.7195 164.032 55.7438 164.111 55.768L163.965 58.7275Z" fill="#212226"/>
<path d="M181.315 61.9293C181.315 62.7176 181.158 63.3786 180.848 63.9184C180.533 64.4581 180.121 64.8887 179.605 65.2161C179.09 65.5436 178.501 65.7741 177.84 65.9196C177.179 66.0652 176.506 66.1319 175.809 66.1319H170.054V51.6865H175.809C176.367 51.6865 176.937 51.7472 177.525 51.8624C178.107 51.9776 178.641 52.1777 179.114 52.4567C179.593 52.7357 179.975 53.1117 180.278 53.5907C180.575 54.0698 180.727 54.6702 180.727 55.404C180.727 56.2045 180.509 56.8716 180.072 57.3931C179.635 57.9146 179.065 58.2967 178.356 58.5271V58.5696C178.762 58.6363 179.15 58.7636 179.508 58.9456C179.866 59.1275 180.181 59.364 180.448 59.649C180.715 59.9341 180.927 60.2676 181.079 60.6497C181.236 61.0257 181.315 61.4562 181.315 61.9293ZM177.361 55.8709C177.361 55.3797 177.173 55.0219 176.803 54.7975C176.427 54.5732 175.876 54.4579 175.142 54.4579H173.426V57.4356H175.305C175.96 57.4356 176.464 57.3021 176.828 57.0353C177.179 56.7806 177.361 56.3864 177.361 55.8709ZM177.828 61.6018C177.828 61.0014 177.604 60.589 177.155 60.3586C176.706 60.1281 176.106 60.0129 175.36 60.0129H173.419V63.318H175.378C175.651 63.318 175.93 63.2937 176.227 63.2452C176.518 63.1967 176.785 63.1118 177.022 62.9905C177.258 62.8692 177.452 62.6934 177.604 62.469C177.755 62.2446 177.828 61.9596 177.828 61.6018Z" fill="#212226"/>
<path d="M189.454 66.132V64.725H189.411C189.29 64.9555 189.126 65.1738 188.932 65.38C188.732 65.5862 188.501 65.762 188.241 65.9136C187.974 66.0652 187.683 66.1865 187.361 66.2836C187.04 66.3806 186.706 66.4291 186.355 66.4291C185.675 66.4291 185.099 66.3078 184.632 66.0592C184.165 65.8166 183.783 65.4952 183.492 65.1131C183.201 64.725 182.989 64.2823 182.862 63.785C182.734 63.2878 182.667 62.7844 182.667 62.2629V55.9741H186.033V61.4806C186.033 61.7656 186.051 62.0385 186.094 62.2993C186.136 62.56 186.215 62.7905 186.33 62.9906C186.446 63.1968 186.597 63.3545 186.791 63.4697C186.979 63.5849 187.234 63.6456 187.549 63.6456C188.131 63.6456 188.58 63.4272 188.883 62.9906C189.187 62.554 189.344 62.0446 189.344 61.4624V55.9741H192.692V66.132H189.454V66.132Z" fill="#212226"/>
<path d="M200.582 58.9698C200.309 58.709 199.988 58.4968 199.624 58.3149C199.254 58.139 198.872 58.048 198.459 58.048C198.144 58.048 197.859 58.1087 197.592 58.2299C197.325 58.3512 197.192 58.5635 197.192 58.8606C197.192 59.1457 197.337 59.3519 197.628 59.4731C197.92 59.5944 198.393 59.7339 199.048 59.8795C199.43 59.9583 199.812 60.0796 200.2 60.2251C200.588 60.3767 200.94 60.5708 201.249 60.8194C201.564 61.062 201.813 61.3652 202.001 61.717C202.189 62.0687 202.286 62.4932 202.286 62.9844C202.286 63.6212 202.159 64.167 201.898 64.6036C201.637 65.0463 201.303 65.4041 200.885 65.677C200.473 65.9499 200.006 66.144 199.49 66.2713C198.975 66.3926 198.453 66.4532 197.938 66.4532C197.107 66.4532 196.294 66.3198 195.5 66.053C194.705 65.7862 194.044 65.398 193.511 64.8826L195.385 62.9056C195.682 63.2331 196.052 63.506 196.488 63.7243C196.925 63.9426 197.386 64.0517 197.877 64.0517C198.15 64.0517 198.417 63.985 198.684 63.8577C198.951 63.7303 199.084 63.4999 199.084 63.1724C199.084 62.8571 198.92 62.6266 198.593 62.4811C198.265 62.3295 197.756 62.1779 197.064 62.0141C196.713 61.9353 196.355 61.8261 196.003 61.6866C195.651 61.5532 195.33 61.3652 195.057 61.1348C194.778 60.9043 194.548 60.6193 194.372 60.2797C194.196 59.9401 194.105 59.5338 194.105 59.0547C194.105 58.4422 194.232 57.9207 194.493 57.4962C194.754 57.0717 195.087 56.7199 195.494 56.447C195.9 56.1741 196.355 55.974 196.852 55.8466C197.349 55.7193 197.841 55.6526 198.332 55.6526C199.096 55.6526 199.836 55.7739 200.564 56.0104C201.291 56.2469 201.904 56.6047 202.407 57.0838L200.582 58.9698Z" fill="#212226"/>
<path d="M207.186 52.7296C207.186 52.9904 207.137 53.2269 207.034 53.4513C206.931 53.6756 206.798 53.8697 206.628 54.0334C206.458 54.1972 206.252 54.3245 206.015 54.4216C205.779 54.5186 205.53 54.5671 205.269 54.5671C204.724 54.5671 204.269 54.3852 203.905 54.0274C203.535 53.6696 203.353 53.2329 203.353 52.7296C203.353 52.487 203.402 52.2505 203.499 52.0261C203.596 51.8017 203.729 51.6077 203.905 51.444C204.081 51.2802 204.287 51.1468 204.517 51.0437C204.748 50.9406 205.003 50.8921 205.275 50.8921C205.53 50.8921 205.779 50.9406 206.021 51.0376C206.258 51.1347 206.464 51.262 206.634 51.4258C206.804 51.5895 206.937 51.7836 207.04 52.0079C207.137 52.2263 207.186 52.4688 207.186 52.7296ZM203.596 66.1319V55.974H206.943V66.1319H203.596Z" fill="#212226"/>
<path d="M215.585 66.132V60.5831C215.585 60.2981 215.561 60.0252 215.512 59.7644C215.464 59.5097 215.385 59.2793 215.276 59.0792C215.166 58.8851 215.015 58.7274 214.815 58.6122C214.614 58.497 214.366 58.4363 214.069 58.4363C213.772 58.4363 213.505 58.497 213.286 58.6122C213.062 58.7274 212.874 58.8851 212.722 59.0913C212.571 59.2975 212.462 59.5279 212.383 59.7948C212.31 60.0616 212.268 60.3345 212.268 60.6195V66.126H208.902V55.9742H212.146V57.3811H212.189C212.31 57.1628 212.474 56.9506 212.668 56.7383C212.868 56.5261 213.098 56.3502 213.359 56.1986C213.626 56.047 213.911 55.9257 214.226 55.8286C214.542 55.7316 214.869 55.6831 215.227 55.6831C215.906 55.6831 216.482 55.8044 216.961 56.053C217.441 56.2956 217.823 56.617 218.114 56.9991C218.405 57.3872 218.617 57.8299 218.744 58.3332C218.872 58.8366 218.938 59.3399 218.938 59.8433V66.126H215.585V66.132Z" fill="#212226"/>
<path d="M230.879 61.1774C230.879 61.3108 230.879 61.4503 230.879 61.5837C230.879 61.7171 230.873 61.8505 230.861 61.9718H223.493C223.517 62.2569 223.608 62.5176 223.748 62.7481C223.893 62.9785 224.075 63.1786 224.299 63.3485C224.524 63.5183 224.772 63.6517 225.051 63.7487C225.33 63.8457 225.621 63.8942 225.919 63.8942C226.452 63.8942 226.895 63.7972 227.265 63.5971C227.635 63.403 227.932 63.1483 228.162 62.833L230.491 64.3006C230.012 64.9919 229.387 65.5256 228.605 65.9015C227.823 66.2775 226.913 66.4655 225.882 66.4655C225.118 66.4655 224.402 66.3442 223.717 66.1077C223.032 65.8712 222.444 65.5256 221.934 65.0647C221.425 64.6098 221.025 64.0458 220.734 63.3788C220.442 62.7117 220.297 61.9476 220.297 61.0925C220.297 60.2617 220.442 59.5097 220.727 58.8365C221.012 58.1634 221.401 57.5934 221.892 57.1203C222.383 56.6534 222.959 56.2895 223.626 56.0287C224.293 55.768 225.015 55.6406 225.791 55.6406C226.537 55.6406 227.228 55.768 227.853 56.0166C228.478 56.2713 229.017 56.6352 229.466 57.1082C229.915 57.5873 230.267 58.1634 230.515 58.8426C230.764 59.5218 230.879 60.3041 230.879 61.1774ZM227.799 59.8918C227.799 59.3581 227.635 58.9033 227.301 58.5273C226.968 58.1452 226.47 57.9572 225.803 57.9572C225.476 57.9572 225.179 58.0057 224.906 58.1088C224.633 58.2119 224.396 58.3514 224.19 58.5273C223.984 58.7031 223.82 58.9093 223.699 59.1519C223.578 59.3884 223.511 59.637 223.493 59.8978H227.799V59.8918Z" fill="#212226"/>
<path d="M238.26 58.9698C237.987 58.709 237.665 58.4968 237.301 58.3149C236.931 58.139 236.549 58.048 236.137 58.048C235.822 58.048 235.537 58.1087 235.27 58.2299C235.003 58.3512 234.87 58.5635 234.87 58.8606C234.87 59.1457 235.015 59.3519 235.306 59.4731C235.597 59.5944 236.07 59.7339 236.725 59.8795C237.107 59.9583 237.489 60.0796 237.877 60.2251C238.266 60.3767 238.617 60.5708 238.927 60.8194C239.242 61.062 239.491 61.3652 239.679 61.717C239.867 62.0687 239.964 62.4932 239.964 62.9844C239.964 63.6212 239.836 64.167 239.576 64.6036C239.315 65.0463 238.981 65.4041 238.563 65.677C238.15 65.9499 237.683 66.144 237.168 66.2713C236.652 66.3926 236.131 66.4532 235.615 66.4532C234.785 66.4532 233.972 66.3198 233.178 66.053C232.383 65.7862 231.722 65.398 231.188 64.8826L233.062 62.9056C233.36 63.2331 233.729 63.506 234.166 63.7243C234.603 63.9426 235.064 64.0517 235.555 64.0517C235.828 64.0517 236.095 63.985 236.361 63.8577C236.628 63.7303 236.762 63.4999 236.762 63.1724C236.762 62.8571 236.598 62.6266 236.27 62.4811C235.943 62.3295 235.434 62.1779 234.742 62.0141C234.39 61.9353 234.033 61.8261 233.681 61.6866C233.329 61.5532 233.008 61.3652 232.735 61.1348C232.456 60.9043 232.225 60.6193 232.05 60.2797C231.874 59.9401 231.783 59.5338 231.783 59.0547C231.783 58.4422 231.91 57.9207 232.171 57.4962C232.432 57.0656 232.765 56.7199 233.172 56.447C233.578 56.1741 234.033 55.974 234.53 55.8466C235.027 55.7193 235.518 55.6526 236.01 55.6526C236.774 55.6526 237.514 55.7739 238.241 56.0104C238.969 56.2469 239.582 56.6047 240.085 57.0838L238.26 58.9698Z" fill="#212226"/>
<path d="M247.211 58.9698C246.938 58.709 246.616 58.4968 246.253 58.3149C245.883 58.139 245.501 58.048 245.088 58.048C244.773 58.048 244.488 58.1087 244.221 58.2299C243.954 58.3512 243.821 58.5635 243.821 58.8606C243.821 59.1457 243.966 59.3519 244.257 59.4731C244.548 59.5944 245.021 59.7339 245.676 59.8795C246.058 59.9583 246.441 60.0796 246.829 60.2251C247.217 60.3767 247.569 60.5708 247.878 60.8194C248.193 61.062 248.442 61.3652 248.63 61.717C248.818 62.0687 248.915 62.4932 248.915 62.9844C248.915 63.6212 248.787 64.167 248.527 64.6036C248.266 65.0463 247.932 65.4041 247.514 65.677C247.102 65.9499 246.635 66.144 246.119 66.2713C245.604 66.3926 245.082 66.4532 244.567 66.4532C243.736 66.4532 242.923 66.3198 242.129 66.053C241.334 65.7862 240.673 65.398 240.14 64.8826L242.014 62.9056C242.311 63.2331 242.681 63.506 243.117 63.7243C243.554 63.9426 244.015 64.0517 244.506 64.0517C244.779 64.0517 245.046 63.985 245.313 63.8577C245.579 63.7303 245.713 63.4999 245.713 63.1724C245.713 62.8571 245.549 62.6266 245.222 62.4811C244.894 62.3295 244.385 62.1779 243.693 62.0141C243.342 61.9353 242.984 61.8261 242.632 61.6866C242.28 61.5532 241.959 61.3652 241.686 61.1348C241.407 60.9043 241.177 60.6193 241.001 60.2797C240.825 59.9401 240.734 59.5338 240.734 59.0547C240.734 58.4422 240.861 57.9207 241.122 57.4962C241.383 57.0717 241.716 56.7199 242.123 56.447C242.529 56.1741 242.984 55.974 243.481 55.8466C243.978 55.7193 244.47 55.6526 244.961 55.6526C245.725 55.6526 246.465 55.7739 247.193 56.0104C247.92 56.2469 248.533 56.6047 249.036 57.0838L247.211 58.9698Z" fill="#212226"/>
<path d="M74.8183 23.16C74.2968 22.499 73.6176 21.9714 72.7746 21.5772C71.9317 21.1891 71.119 20.989 70.3367 20.989C69.9304 20.989 69.5241 21.0253 69.1117 21.0981C68.6993 21.1709 68.3234 21.3043 67.9898 21.5044C67.6563 21.7045 67.3773 21.9653 67.1529 22.2867C66.9285 22.6081 66.8133 23.0145 66.8133 23.5117C66.8133 23.9362 66.9043 24.294 67.0802 24.5791C67.256 24.8641 67.5168 25.1127 67.8625 25.325C68.2081 25.5372 68.6144 25.7313 69.0875 25.9132C69.5605 26.0891 70.0942 26.2771 70.6885 26.4651C71.5435 26.7501 72.4289 27.0655 73.3568 27.4051C74.2786 27.7507 75.1215 28.2056 75.8796 28.7756C76.6376 29.3457 77.2683 30.0491 77.7656 30.8921C78.2629 31.735 78.5115 32.7842 78.5115 34.0395C78.5115 35.4828 78.2447 36.7381 77.711 37.7873C77.1773 38.8425 76.4617 39.7158 75.5582 40.401C74.6546 41.0863 73.6236 41.5957 72.4653 41.9292C71.307 42.2628 70.1063 42.4265 68.8752 42.4265C67.0741 42.4265 65.3336 42.1112 63.6477 41.4865C61.9618 40.8559 60.567 39.9644 59.4512 38.8L63.4355 34.749C64.054 35.5071 64.8606 36.1438 65.8733 36.6532C66.88 37.1626 67.8807 37.4173 68.8752 37.4173C69.324 37.4173 69.7667 37.3688 70.1912 37.2779C70.6157 37.1808 70.9917 37.0292 71.3131 36.817C71.6345 36.6047 71.8892 36.3197 72.0772 35.9619C72.2652 35.6041 72.3622 35.1796 72.3622 34.6823C72.3622 34.2093 72.2409 33.803 72.0044 33.4755C71.7679 33.142 71.4283 32.8387 70.9917 32.5719C70.555 32.299 70.0093 32.0504 69.3543 31.826C68.6993 31.6016 67.9595 31.359 67.1347 31.0983C66.3282 30.8375 65.5398 30.5282 64.7696 30.1765C63.9995 29.8187 63.3142 29.3639 62.7077 28.8059C62.1013 28.248 61.6162 27.5749 61.2523 26.7804C60.8824 25.986 60.7004 25.0218 60.7004 23.8817C60.7004 22.4808 60.9855 21.2861 61.5555 20.2915C62.1256 19.297 62.8715 18.4783 63.7933 17.8355C64.7151 17.1927 65.7581 16.7257 66.9225 16.4285C68.0808 16.1314 69.2573 15.9858 70.4398 15.9858C71.8649 15.9858 73.3143 16.2466 74.794 16.7681C76.2738 17.2897 77.5715 18.0599 78.6874 19.0787L74.8183 23.16Z" fill="#F32840"/>
<path d="M90.7253 44.4518C90.3675 45.3735 89.9733 46.1983 89.5367 46.92C89.1001 47.6416 88.5785 48.2602 87.9721 48.7696C87.3657 49.279 86.6561 49.6671 85.8374 49.9279C85.0187 50.1887 84.0545 50.316 82.9387 50.316C82.3929 50.316 81.8289 50.2796 81.2528 50.2068C80.6706 50.1341 80.1672 50.0431 79.7427 49.9218L80.3856 45.0157C80.6706 45.1128 80.9859 45.1855 81.3255 45.2462C81.6712 45.3068 81.9805 45.3371 82.2655 45.3371C83.163 45.3371 83.818 45.131 84.2182 44.7125C84.6185 44.3001 84.9642 43.7119 85.2492 42.9538L85.8192 41.4984L78.4268 24.0754H84.8974L88.8454 35.4522H88.9545L92.4719 24.0754H98.6575L90.7253 44.4518Z" fill="#F32840"/>
<path d="M112.023 41.7895V32.1168C112.023 31.6195 111.981 31.1465 111.896 30.6916C111.811 30.2429 111.678 29.8426 111.49 29.503C111.302 29.1574 111.035 28.8845 110.689 28.6843C110.344 28.4842 109.913 28.3811 109.391 28.3811C108.87 28.3811 108.415 28.4842 108.021 28.6843C107.633 28.8845 107.305 29.1634 107.045 29.5212C106.784 29.879 106.59 30.2853 106.456 30.7462C106.323 31.2071 106.262 31.6862 106.262 32.1835V41.7834H100.398V24.0754H106.05V26.5315H106.123C106.335 26.1555 106.614 25.7795 106.96 25.4096C107.305 25.0396 107.706 24.7304 108.166 24.4696C108.627 24.2088 109.131 23.9966 109.676 23.8268C110.222 23.663 110.804 23.5781 111.417 23.5781C112.599 23.5781 113.606 23.7904 114.437 24.221C115.268 24.6455 115.935 25.1973 116.444 25.8765C116.954 26.5497 117.324 27.3259 117.548 28.2052C117.772 29.0846 117.888 29.9579 117.888 30.8372V41.7895H112.023V41.7895Z" fill="#F32840"/>
<path d="M133.049 29.8065C132.715 29.382 132.267 29.0363 131.696 28.7756C131.126 28.5148 130.544 28.3874 129.956 28.3874C129.337 28.3874 128.786 28.5148 128.282 28.7634C127.785 29.0121 127.36 29.3456 127.003 29.758C126.645 30.1704 126.366 30.6555 126.166 31.1952C125.966 31.741 125.863 32.3232 125.863 32.9357C125.863 33.5543 125.96 34.1304 126.148 34.6762C126.336 35.222 126.615 35.7011 126.984 36.1135C127.354 36.5258 127.791 36.8533 128.3 37.0898C128.81 37.3263 129.386 37.4476 130.023 37.4476C130.617 37.4476 131.199 37.3385 131.781 37.108C132.364 36.8836 132.83 36.5562 133.188 36.1316L136.421 40.0796C135.687 40.7891 134.735 41.347 133.576 41.7533C132.412 42.1536 131.181 42.3598 129.877 42.3598C128.476 42.3598 127.172 42.1475 125.96 41.7169C124.747 41.2924 123.691 40.6678 122.8 39.8491C121.902 39.0304 121.205 38.0419 120.69 36.8776C120.174 35.7193 119.919 34.4033 119.919 32.9297C119.919 31.4863 120.174 30.1825 120.69 29.0181C121.205 27.8598 121.902 26.8653 122.8 26.0466C123.691 25.2279 124.747 24.6033 125.96 24.1606C127.172 23.7239 128.464 23.5056 129.841 23.5056C130.484 23.5056 131.114 23.5663 131.745 23.6815C132.376 23.8028 132.976 23.9604 133.558 24.1606C134.14 24.3607 134.674 24.6093 135.159 24.9065C135.644 25.2036 136.063 25.5311 136.421 25.8828L133.049 29.8065Z" fill="#F32840"/>
<path d="M149.865 41.7896V32.1897C149.865 31.6924 149.829 31.2194 149.756 30.7646C149.683 30.3158 149.55 29.9156 149.349 29.576C149.149 29.2303 148.882 28.9574 148.549 28.7573C148.215 28.5572 147.791 28.4541 147.269 28.4541C146.251 28.4541 145.468 28.8179 144.922 29.5396C144.377 30.2613 144.104 31.1588 144.104 32.2261V41.7896H138.276V14.9062H144.104V26.3194H144.177C144.577 25.6099 145.22 24.9731 146.099 24.4152C146.978 23.8573 148.033 23.5783 149.265 23.5783C150.471 23.5783 151.484 23.7906 152.303 24.2211C153.121 24.6456 153.782 25.1975 154.292 25.8767C154.801 26.5499 155.165 27.3261 155.396 28.2054C155.62 29.0848 155.735 29.958 155.735 30.8374V41.7896H149.865V41.7896Z" fill="#F32840"/>
<path d="M170.144 28.8845C169.883 28.8117 169.629 28.7693 169.38 28.745C169.131 28.7208 168.889 28.7086 168.652 28.7086C167.87 28.7086 167.215 28.8481 166.681 29.1331C166.148 29.4182 165.723 29.7578 165.402 30.1641C165.08 30.5643 164.85 31.001 164.711 31.474C164.571 31.947 164.498 32.3594 164.498 32.7172V41.7956H158.67V24.1058H164.286V26.6649H164.359C164.808 25.7613 165.45 25.0154 166.281 24.4454C167.112 23.8753 168.07 23.5842 169.162 23.5842C169.398 23.5842 169.629 23.5964 169.853 23.6206C170.078 23.6449 170.259 23.6813 170.405 23.7298L170.144 28.8845Z" fill="#F32840"/>
<path d="M190.029 32.8629C190.029 34.3063 189.769 35.6162 189.247 36.7927C188.726 37.9631 188.016 38.9637 187.112 39.7763C186.209 40.595 185.166 41.2257 183.983 41.6806C182.801 42.1293 181.527 42.3537 180.181 42.3537C178.853 42.3537 177.591 42.1293 176.397 41.6806C175.202 41.2318 174.159 40.595 173.267 39.7763C172.376 38.9576 171.672 37.9631 171.151 36.7927C170.629 35.6222 170.369 34.3123 170.369 32.8629C170.369 31.4196 170.629 30.1158 171.151 28.9514C171.672 27.7931 172.376 26.8046 173.267 25.9981C174.159 25.1915 175.202 24.5729 176.397 24.1484C177.591 23.7239 178.853 23.5056 180.181 23.5056C181.533 23.5056 182.801 23.7179 183.983 24.1484C185.166 24.5729 186.209 25.1915 187.112 25.9981C188.016 26.8046 188.726 27.7871 189.247 28.9514C189.769 30.1158 190.029 31.4196 190.029 32.8629ZM184.414 32.8629C184.414 32.2929 184.317 31.735 184.129 31.1892C183.941 30.6434 183.668 30.1643 183.31 29.7519C182.952 29.3395 182.516 28.9999 181.994 28.7392C181.473 28.4784 180.866 28.3511 180.181 28.3511C179.496 28.3511 178.889 28.4845 178.368 28.7392C177.846 28.9999 177.415 29.3395 177.07 29.7519C176.724 30.1643 176.463 30.6495 176.287 31.1892C176.112 31.735 176.021 32.2929 176.021 32.8629C176.021 33.433 176.112 33.9909 176.287 34.5367C176.463 35.0825 176.73 35.5737 177.088 36.0104C177.446 36.447 177.882 36.7987 178.404 37.0595C178.925 37.3203 179.532 37.4476 180.217 37.4476C180.902 37.4476 181.509 37.3203 182.03 37.0595C182.552 36.7987 182.989 36.447 183.346 36.0104C183.704 35.5737 183.971 35.0825 184.147 34.5367C184.323 33.9909 184.414 33.433 184.414 32.8629Z" fill="#F32840"/>
<path d="M192.564 41.7896V14.1482H198.677V36.4894H208.417V41.7896H192.564Z" fill="#F32840"/>
<path d="M216.785 18.4298C216.785 18.8786 216.695 19.3031 216.519 19.6912C216.343 20.0793 216.106 20.4189 215.809 20.704C215.512 20.989 215.154 21.2134 214.742 21.3771C214.329 21.5408 213.893 21.6257 213.444 21.6257C212.498 21.6257 211.704 21.3104 211.061 20.6858C210.418 20.0551 210.103 19.3031 210.103 18.4298C210.103 18.0053 210.187 17.5929 210.351 17.2048C210.515 16.8167 210.751 16.4771 211.061 16.1921C211.37 15.907 211.722 15.6766 212.128 15.5007C212.528 15.3249 212.971 15.2339 213.444 15.2339C213.893 15.2339 214.329 15.3188 214.742 15.4825C215.154 15.6463 215.512 15.8706 215.809 16.1557C216.106 16.4407 216.343 16.7803 216.519 17.1684C216.695 17.5565 216.785 17.981 216.785 18.4298ZM210.527 41.7898V24.0818H216.355V41.7898H210.527Z" fill="#F32840"/>
<path d="M231.473 19.212C231.261 19.1393 231.012 19.0847 230.727 19.0362C230.442 18.9877 230.157 18.9634 229.872 18.9634C229.326 18.9634 228.89 19.0604 228.556 19.2484C228.223 19.4364 227.962 19.6911 227.774 20.0125C227.586 20.334 227.453 20.6918 227.386 21.0981C227.313 21.4983 227.277 21.9046 227.277 22.3049V24.0817H231.225V28.4178H227.277V41.7837H221.443V28.4178H218.21V24.0817H221.443V22.3777C221.443 21.2861 221.564 20.2491 221.801 19.2666C222.037 18.2842 222.443 17.417 223.026 16.6711C223.608 15.9252 224.39 15.3308 225.372 14.8942C226.355 14.4576 227.58 14.2393 229.054 14.2393C229.551 14.2393 230.042 14.2696 230.527 14.3302C231.012 14.3909 231.455 14.4758 231.861 14.5971L231.473 19.212Z" fill="#F32840"/>
<path d="M250 33.1479C250 33.3844 250 33.621 250 33.8575C250 34.094 249.988 34.3184 249.963 34.5306H237.131C237.18 35.0279 237.325 35.4767 237.574 35.883C237.823 36.2893 238.144 36.635 238.532 36.9321C238.92 37.2293 239.363 37.4597 239.848 37.6234C240.333 37.7872 240.837 37.8721 241.358 37.8721C242.28 37.8721 243.062 37.7023 243.705 37.3566C244.348 37.0109 244.863 36.5682 245.27 36.0225L249.321 38.5816C248.49 39.7884 247.392 40.7223 246.034 41.3712C244.669 42.0262 243.086 42.3476 241.285 42.3476C239.957 42.3476 238.702 42.1414 237.519 41.723C236.331 41.3106 235.3 40.7041 234.408 39.9097C233.517 39.1153 232.819 38.1389 232.31 36.9746C231.801 35.8163 231.546 34.4882 231.546 32.9903C231.546 31.5469 231.795 30.237 232.292 29.0605C232.789 27.8901 233.462 26.8895 234.317 26.0769C235.172 25.2582 236.179 24.6275 237.337 24.1727C238.496 23.7239 239.757 23.4995 241.103 23.4995C242.407 23.4995 243.602 23.7178 244.693 24.1545C245.785 24.5911 246.719 25.2279 247.501 26.0587C248.284 26.8895 248.896 27.8962 249.333 29.0787C249.781 30.2795 250 31.6318 250 33.1479ZM244.633 30.9102C244.633 29.9884 244.342 29.194 243.76 28.5269C243.177 27.8659 242.31 27.5323 241.146 27.5323C240.576 27.5323 240.054 27.6233 239.581 27.7992C239.108 27.975 238.69 28.2176 238.338 28.5269C237.98 28.8362 237.695 29.194 237.483 29.6124C237.271 30.0248 237.149 30.4614 237.125 30.9102H244.633Z" fill="#F32840"/>
<path fill-rule="evenodd" clip-rule="evenodd" d="M17.6495 0C23.9685 0 28.8504 3.44457 30.9911 9.12082C32.5436 13.372 37.292 18.2235 42.95 19.97C43.2472 20.061 43.3563 20.4006 43.1684 20.6431C42.3982 21.6195 41.5067 23.2084 41.0155 24.4212C40.9063 24.7002 40.5546 24.773 40.3302 24.5789C36.8311 21.6559 33.8595 20.6189 29.7903 20.2611C27.965 20.1155 26.7824 20.1641 25.1268 20.4309C24.8903 20.4673 24.7084 20.6977 24.7508 20.9342C25.1511 23.1113 26.9037 25.3612 30.0026 26.4771C33.7383 27.8901 40.6577 32.2261 40.6577 41.3833C40.6577 49.0244 35.8365 53.5666 31.1488 55.8468C24.4416 58.7577 20.6816 60.4618 16.3335 64.337C14.8113 65.8349 14.0169 67.351 14.0169 69.0247C14.0169 70.838 15.8059 73.8398 19.0564 73.8398C20.7544 73.8398 22.4343 73.1061 23.5319 72.1418C24.29 71.4747 25.4058 71.4141 26.2184 72.0205C27.1766 72.7483 27.2797 74.137 26.4549 75.0163C25.048 76.5203 22.8891 77.6301 19.8812 77.624C11.4092 77.624 6.8488 70.0921 6.76997 64.6584C6.679 58.497 10.9665 54.1973 14.211 51.3592C18.8381 46.6714 17.6798 41.2923 16.1394 38.4057C15.3025 36.9442 12.9253 35.5979 10.1054 36.453C7.77059 37.2413 6.35759 39.6974 6.52133 41.7229C6.53346 41.8503 6.40004 41.9352 6.29695 41.8624C1.23319 38.4785 -1.96274 30.4674 1.36054 23.2811C1.45757 23.0628 1.71834 22.9719 1.93059 23.075C2.90089 23.548 4.65956 24.0028 6.06043 24.0028C6.86093 24.0028 8.24361 24.0028 9.52319 23.4934C9.81428 23.3782 9.88706 22.9961 9.66267 22.7778C8.37096 21.5407 8.11019 20.9827 7.34608 19.2665C6.53952 17.3502 6.52133 14.3968 7.09138 12.6685C7.10957 12.6018 7.06106 12.5472 6.99435 12.5593C5.99979 12.7594 4.65956 13.3356 3.82875 13.9359C3.7681 13.9845 3.67713 13.9238 3.69533 13.851C4.42912 9.92739 7.49163 6.5374 11.7731 5.71264C11.8519 5.70051 11.8762 5.60348 11.8155 5.55497C10.8392 4.88789 9.45649 4.20261 7.89794 3.9843C7.91613 3.9843 11.2758 0 17.6495 0Z" fill="#F32840"/>
</svg>
