<svg width="251" height="91" viewBox="0 0 251 91" fill="none" xmlns="http://www.w3.org/2000/svg">
<path d="M21.838 0.235942C26.799 -0.320058 30.793 3.32394 30.793 3.32394C32.8287 5.12529 34.4388 7.35636 35.507 9.85594C36.475 15.1559 38.898 17.5069 38.898 17.5069C43.132 21.5759 47.043 23.9239 50.329 24.1979C50.665 24.2259 50.871 24.2039 50.809 24.4859C50.693 24.9939 49.965 25.3159 49.478 26.1739C48.9529 26.9645 48.7176 27.9125 48.812 28.8569C48.544 29.5359 48.091 28.8569 48.091 28.8569C46.8232 27.3659 45.135 26.2921 43.247 25.7759C41.7601 25.2017 40.3077 24.5419 38.897 23.7999C38.2279 23.4265 37.4806 23.2149 36.715 23.182L33.696 22.9349C32.481 23.0589 32.728 23.677 32.728 23.677C32.24 24.295 31.514 23.677 31.514 23.677C31.4546 23.5078 31.337 23.3652 31.1823 23.2747C31.0275 23.1842 30.8456 23.1517 30.669 23.1829L30.069 23.677C29.7572 23.6082 29.4693 23.4574 29.2353 23.2401C29.0013 23.0228 28.8296 22.7469 28.738 22.441C27.771 21.207 27.771 22.0709 27.771 22.0709C27.171 24.6649 29.219 27.4989 29.219 27.4989C29.8112 28.7882 30.7833 29.8657 32.005 30.587C34.1822 31.6679 36.1483 33.1299 37.81 34.9039C48.21 45.9649 38.66 57.3549 35.888 58.7139C33.096 61.1779 23.296 65.9269 23.296 65.9269C21.7404 66.9333 20.0766 67.7618 18.336 68.3969C9.31901 71.5389 11.014 78.5729 11.014 78.5729C12.407 87.2119 21.414 84.4949 21.414 84.4949C25.531 83.3829 24.44 78.82 24.44 78.82C24.2751 77.8918 23.9283 77.0053 23.4196 76.2116C22.911 75.4179 22.2504 74.7326 21.476 74.195C20.9347 73.8504 20.3296 73.6181 19.6968 73.5119C19.0639 73.4058 18.4162 73.4279 17.792 73.5769C16.817 73.9479 16.461 75.492 16.461 75.492C16.4538 75.6324 16.4746 75.7728 16.5223 75.9051C16.5699 76.0374 16.6435 76.1589 16.7386 76.2624C16.8338 76.366 16.9486 76.4495 17.0765 76.5081C17.2043 76.5668 17.3425 76.5993 17.483 76.604C17.6681 76.4871 17.8173 76.3215 17.9144 76.1253C18.0114 75.9291 18.0525 75.71 18.033 75.492C18.1324 75.316 18.2873 75.1781 18.4736 75.0999C18.6599 75.0217 18.8669 75.0077 19.062 75.0599C19.3962 75.1695 19.7007 75.3546 19.9518 75.6009C20.2029 75.8472 20.3939 76.1479 20.51 76.4799C20.572 77.8939 19.968 78.3259 19.968 78.3259C19.5455 79.1301 18.9449 79.8271 18.212 80.3639C16.819 80.6729 15.735 79.191 15.735 79.191C13.677 77.522 14.404 74.566 14.404 74.566C14.5334 73.5013 14.9998 72.5058 15.735 71.725C16.9029 70.9829 18.2962 70.6792 19.667 70.8679C22.0067 71.0439 24.2265 71.9729 25.994 73.5159C27.8373 75.2977 29.037 77.6409 29.405 80.178C29.4653 82.4137 28.6898 84.5915 27.23 86.286C24.203 89.922 18.817 90.1699 18.817 90.1699C16.3492 90.3277 13.8786 89.9082 11.6011 88.9446C9.32374 87.9811 7.30224 86.5 5.69704 84.6189C1.76504 78.8819 3.63902 71.479 3.63902 71.479C5.93902 65.742 11.564 61.9199 11.564 61.9199C18.7 57.6039 19.364 52.9199 19.364 52.9199C20.03 45.8199 16.276 42.3119 16.276 42.3119C14.162 39.1619 11.864 40.2739 11.864 40.2739C10.046 41.1379 9.90802 42.674 9.26402 43.4739C8.97149 43.729 8.61633 43.9016 8.23503 43.9739C6.62203 44.2819 5.20903 41.449 5.20903 41.449C5.07862 41.1931 5.00049 40.9138 4.9792 40.6274C4.95791 40.341 4.99389 40.0533 5.08504 39.781C5.33104 38.299 4.54301 38.423 4.54301 38.423C4.07636 38.5304 3.59035 38.5207 3.12837 38.3946C2.6664 38.2685 2.24284 38.0299 1.89552 37.7002C1.54821 37.3705 1.28793 36.96 1.13795 36.5052C0.987975 36.0504 0.952964 35.5656 1.03603 35.0939C1.21403 33.1179 2.42903 33.1799 2.42903 33.1799C2.99588 32.8522 3.6479 32.7017 4.30104 32.7479C4.66504 32.5619 4.24004 32.2539 4.24004 32.2539C2.54004 32.1299 2.30504 31.0249 2.30504 31.0249C2.04057 29.7544 2.10178 28.4375 2.48302 27.1969C2.64432 26.4504 3.05009 25.7789 3.63603 25.2889C4.48003 25.0429 4.72603 25.5969 4.72603 25.5969C4.99251 26.9084 5.64514 28.1103 6.60002 29.048C7.32802 29.604 9.13902 29.048 9.13902 29.048C9.56502 28.616 9.13902 28.4309 9.13902 28.4309C7.86902 27.0099 8.41103 22.7559 8.41103 22.7559C8.55797 21.8094 8.80192 20.8805 9.13902 19.984C8.83902 19.613 8.10902 20.354 8.10902 20.354C7.94728 20.3901 7.77823 20.3737 7.62645 20.3071C7.47466 20.2406 7.34806 20.1274 7.26503 19.984C6.56339 19.5973 5.76361 19.4251 4.96501 19.4889C4.29901 19.4889 4.47902 18.811 4.47902 18.811C4.96502 16.834 7.32701 15.229 7.32701 15.229C8.26523 14.7215 9.28784 14.3888 10.345 14.247C10.531 13.691 9.80302 13.6289 9.80302 13.6289C9.4097 13.6044 9.02821 13.4848 8.69133 13.2803C8.35445 13.0758 8.07228 12.7926 7.86903 12.4549C7.44303 10.6029 9.20003 9.00294 9.20003 9.00294C9.59353 8.66238 10.058 8.41385 10.5597 8.27546C11.0613 8.13707 11.5876 8.11231 12.1 8.20295C12.8954 8.29394 13.701 8.20927 14.46 7.95494C14.639 7.52294 14.097 7.39894 14.097 7.39894C12.464 6.96694 12.642 6.47294 12.642 6.47294C12.1 5.11494 12.526 4.92894 12.526 4.92894C12.841 4.44395 13.2484 4.02583 13.7251 3.69844C14.2018 3.37105 14.7383 3.14083 15.304 3.02095C17.304 2.71295 20.079 4.31095 20.079 4.31095C20.869 4.74395 20.505 4.12495 20.505 4.12495C20.2588 3.78237 20.0926 3.38884 20.0189 2.97343C19.9452 2.55802 19.9657 2.13134 20.079 1.72494C20.213 1.34362 20.4466 1.00511 20.7556 0.744517C21.0645 0.483922 21.4376 0.310738 21.836 0.242945" fill="#C0331C"/>
<path d="M79.023 45.7249C79.023 47.9356 77.925 49.0409 75.729 49.0409H64.805C62.623 49.0409 61.5323 47.9356 61.533 45.7249V37.0719H66.958V44.4719H73.592V37.3459L62.714 27.0459C62.3243 26.6726 62.0175 26.2214 61.8136 25.7218C61.6096 25.2222 61.513 24.6853 61.53 24.1459V16.0739C61.53 13.8472 62.6207 12.7336 64.802 12.7329H75.726C77.922 12.7329 79.02 13.8329 79.02 16.0329V24.1499H73.593V17.3079H66.958V23.8719L77.836 34.1249C78.2312 34.5037 78.5411 34.9624 78.7451 35.4704C78.9491 35.9784 79.0425 36.524 79.019 37.0709L79.023 45.7249Z" fill="#C0331C"/>
<path d="M98.925 25.6138L93.056 48.7388L90.807 57.6008H85.379L87.815 48.8538L81.877 25.6118H87.328L90.413 41.0118L93.498 25.6118L98.925 25.6138Z" fill="#C0331C"/>
<path d="M117.18 49.041H111.844V30.041L106.858 30.134V49.034H101.547V25.614H106.858V26.472C108.095 26.272 109.324 26.079 110.545 25.893C111.778 25.6724 113.027 25.5483 114.28 25.522C116.213 25.522 117.18 26.4733 117.18 28.376V49.041Z" fill="#C0331C"/>
<path d="M136.13 46.1418C136.13 48.0751 135.148 49.0418 133.185 49.0418H123.975C121.981 49.0418 120.983 48.0751 120.982 46.1418V28.5128C120.982 26.5795 121.98 25.6128 123.975 25.6128H133.185C135.147 25.6128 136.129 26.5795 136.13 28.5128V34.0798H130.958V30.0448H126.204V44.6338H130.958V40.1538H136.13V46.1418Z" fill="#C0331C"/>
<path d="M155.569 49.0458H150.233V30.0458L145.246 30.1388V49.0458H139.935V12.7458H145.246V26.4778C146.483 26.2925 147.72 26.0995 148.957 25.8988C150.183 25.6832 151.424 25.5592 152.669 25.5278C154.602 25.5278 155.569 26.4792 155.569 28.3818V49.0458Z" fill="#C0331C"/>
<path d="M174.15 35.403H168.883V30.048L164.683 30.141V49.041H159.371V25.614H164.683V26.472C165.781 26.272 166.871 26.0719 167.952 25.8719C169.038 25.662 170.141 25.5452 171.247 25.5229C173.18 25.5229 174.147 26.4743 174.147 28.377L174.15 35.403Z" fill="#C0331C"/>
<path d="M192.588 46.1418C192.588 48.0751 191.606 49.0418 189.643 49.0418H180.131C178.138 49.0418 177.14 48.0751 177.139 46.1418V28.5128C177.139 26.5795 178.136 25.6128 180.131 25.6128H189.643C191.606 25.6128 192.588 26.5795 192.588 28.5128V46.1418ZM187.393 30.0418H182.358V44.6338H187.393V30.0418Z" fill="#C0331C"/>
<path d="M211.247 49.0458H196.981V12.7458H202.41V44.1989H211.247V49.0458Z" fill="#C0331C"/>
<path d="M219.598 22.2498H214.287V16.7769H219.598V22.2498ZM219.552 49.0409H214.332V25.6129H219.552V49.0409Z" fill="#C0331C"/>
<path d="M233.793 17.3558H229.893V25.6138H233.28V30.1378H229.893V49.0458H224.627V30.1458H222.218V25.6218H224.63V15.6478C224.63 13.7145 225.612 12.7478 227.577 12.7478H233.793V17.3558Z" fill="#C0331C"/>
<path d="M250.886 46.1418C250.886 48.0751 249.889 49.0418 247.894 49.0418H238.731C236.738 49.0418 235.74 48.0751 235.739 46.1418V28.5128C235.739 26.5795 236.736 25.6128 238.731 25.6128H247.894C249.889 25.6128 250.887 26.5795 250.886 28.5128V37.1188L249.425 38.5818H240.825V45.1448H245.812V41.2448H250.886V46.1418ZM245.807 29.5118H240.82V35.1248H245.807V29.5118Z" fill="#C0331C"/>
<path d="M65.519 74.8649V84.8148H62.575V74.8649H61.533V72.1288H62.575V67.2289C62.4638 66.0386 62.7573 64.8456 63.408 63.8429C63.821 63.3729 64.3363 63.004 64.9144 62.7646C65.4924 62.5251 66.1177 62.4216 66.742 62.4619C67.4195 62.4966 68.0856 62.6513 68.709 62.9189V65.9138L68.409 65.7569C67.9304 65.482 67.3964 65.3176 66.846 65.2758C66.6341 65.2524 66.4201 65.2934 66.2319 65.3935C66.0437 65.4936 65.8901 65.6481 65.791 65.8369C65.5608 66.5144 65.468 67.231 65.518 67.9449V72.1259H68.709V74.8649H65.519Z" fill="#9FB6BB"/>
<path d="M69.989 78.3769C69.975 77.5042 70.1426 76.638 70.481 75.8334C70.8194 75.0288 71.3214 74.3033 71.955 73.7029C73.2488 72.4637 74.9718 71.7729 76.7634 71.7752C78.555 71.7774 80.2763 72.4725 81.567 73.7149C82.821 74.9881 83.5229 76.7041 83.5204 78.4911C83.518 80.2781 82.8115 81.9922 81.554 83.2619C80.9128 83.8892 80.1526 84.3818 79.3181 84.7106C78.4836 85.0395 77.5917 85.1981 76.695 85.1769C75.8065 85.1983 74.9232 85.0356 74.1006 84.6991C73.278 84.3627 72.5339 83.8598 71.915 83.2219C71.2802 82.5886 70.7819 81.832 70.4507 80.9987C70.1194 80.1655 69.9623 79.2732 69.989 78.3769ZM72.984 78.4289C72.9244 79.5251 73.2881 80.6022 74 81.4379C74.735 82.1549 75.7205 82.5573 76.7474 82.5597C77.7742 82.5622 78.7615 82.1644 79.5 81.4509C80.166 80.6094 80.5284 79.5677 80.5284 78.4945C80.5284 77.4212 80.166 76.3795 79.5 75.5379C78.7705 74.8203 77.7883 74.4182 76.765 74.4182C75.7417 74.4182 74.7594 74.8203 74.03 75.5379C73.319 76.3288 72.9455 77.3663 72.989 78.4289H72.984Z" fill="#9FB6BB"/>
<path d="M86.633 72.1258H89.564V73.2588C89.9739 72.7955 90.4582 72.4038 90.997 72.0998C91.4676 71.8728 91.9857 71.7614 92.508 71.7748C93.3689 71.8011 94.2063 72.0618 94.93 72.5288L93.588 75.2127C93.1231 74.8451 92.5533 74.635 91.961 74.6128C90.361 74.6128 89.561 75.8201 89.561 78.2347V84.8108H86.633V72.1258Z" fill="#9FB6BB"/>
<path d="M105.401 84.8119V64.7049H108.423C109.504 64.6776 110.584 64.7828 111.639 65.0179C112.395 65.1999 113.097 65.5614 113.684 66.0719C114.263 66.6064 114.721 67.2596 115.025 67.9869C115.357 68.7244 115.53 69.5233 115.534 70.3319C115.542 71.0257 115.398 71.7127 115.112 72.3449C114.826 72.977 114.405 73.5388 113.879 73.9909C114.913 74.328 115.804 75.0019 116.41 75.9049C117.13 76.9962 117.451 78.303 117.318 79.6039C117.186 80.9048 116.607 82.1197 115.681 83.0429C115.055 83.6848 114.282 84.1632 113.428 84.4359C112.308 84.7122 111.156 84.8393 110.002 84.8139L105.401 84.8119ZM108.434 73.3379H109.386C110.278 73.4142 111.166 73.1462 111.867 72.5889C112.144 72.2955 112.358 71.9476 112.493 71.5673C112.629 71.187 112.684 70.7826 112.655 70.3799C112.683 69.9838 112.625 69.5863 112.486 69.2145C112.346 68.8427 112.128 68.5052 111.847 68.2249C111.186 67.6935 110.348 67.4307 109.502 67.4889H108.434V73.3379ZM108.434 81.9589H110.31C111.38 82.0462 112.448 81.7611 113.332 81.1519C113.658 80.8835 113.918 80.5448 114.094 80.1611C114.27 79.7775 114.357 79.3589 114.348 78.9369C114.355 78.523 114.271 78.1127 114.103 77.7347C113.934 77.3567 113.685 77.0202 113.372 76.7489C112.379 76.0623 111.173 75.753 109.972 75.8769H108.435L108.434 81.9589Z" fill="#9FB6BB"/>
<path d="M123.49 72.1258V79.4058C123.49 81.5078 124.319 82.5587 125.977 82.5587C127.635 82.5587 128.464 81.5078 128.465 79.4058V72.1258H131.395V79.4708C131.413 80.3625 131.286 81.2512 131.017 82.1017C130.752 82.7925 130.317 83.4058 129.754 83.8857C128.675 84.7219 127.349 85.1757 125.984 85.1757C124.619 85.1757 123.293 84.7219 122.214 83.8857C121.643 83.4074 121.199 82.7943 120.924 82.1017C120.641 81.2547 120.518 80.3628 120.559 79.4708V72.1248L123.49 72.1258Z" fill="#9FB6BB"/>
<path d="M142.286 74.2879L139.863 75.5779C139.481 74.7973 139.008 74.4063 138.443 74.4049C138.187 74.4004 137.94 74.4966 137.754 74.6729C137.66 74.7595 137.585 74.8653 137.536 74.9831C137.486 75.101 137.463 75.2281 137.467 75.3559C137.467 75.8426 138.031 76.3246 139.16 76.8019C140.31 77.2236 141.373 77.8504 142.299 78.6519C142.86 79.2746 143.15 80.0942 143.107 80.9309C143.118 81.5109 143.002 82.0863 142.768 82.6171C142.534 83.1479 142.187 83.6215 141.752 84.0049C141.162 84.5126 140.458 84.8709 139.701 85.0497C138.943 85.2285 138.153 85.2224 137.398 85.0322C136.644 84.8419 135.945 84.4729 135.363 83.9563C134.781 83.4397 134.331 82.7907 134.052 82.0639L136.552 80.9049C136.766 81.3239 137.032 81.7135 137.346 82.0639C137.69 82.3892 138.148 82.5669 138.622 82.5589C139.612 82.5589 140.107 82.1076 140.107 81.2049C140.107 80.6843 139.725 80.1979 138.961 79.7459C138.666 79.5979 138.37 79.4543 138.075 79.3149C137.78 79.1756 137.48 79.0322 137.175 78.8849C136.497 78.5934 135.885 78.1683 135.375 77.6349C134.915 77.0556 134.679 76.33 134.71 75.5909C134.695 75.0809 134.789 74.5735 134.984 74.1021C135.18 73.6307 135.473 73.2061 135.844 72.8559C136.603 72.1398 137.613 71.7515 138.656 71.7749C139.446 71.7693 140.219 72.0076 140.868 72.4574C141.518 72.9071 142.013 73.5464 142.286 74.2879Z" fill="#9FB6BB"/>
<path d="M145.399 66.8519C145.406 66.3511 145.609 65.8729 145.964 65.5198C146.319 65.1667 146.798 64.9668 147.299 64.9629C147.551 64.9588 147.802 65.0064 148.035 65.1029C148.268 65.1994 148.479 65.3427 148.654 65.5239C148.835 65.6961 148.979 65.9042 149.075 66.1349C149.172 66.3656 149.219 66.6139 149.214 66.8639C149.218 67.116 149.17 67.3663 149.074 67.5993C148.978 67.8323 148.835 68.0432 148.654 68.2189C148.482 68.4001 148.273 68.5435 148.042 68.6397C147.812 68.736 147.563 68.783 147.313 68.7779C147.06 68.7784 146.81 68.7289 146.577 68.6321C146.343 68.5353 146.132 68.3932 145.953 68.214C145.775 68.0348 145.635 67.822 145.539 67.588C145.444 67.3541 145.396 67.1035 145.398 66.8509L145.399 66.8519ZM148.773 72.1269V84.8119H145.842V72.1219L148.773 72.1269Z" fill="#9FB6BB"/>
<path d="M152.551 72.1259H155.495V73.2989C155.939 72.8233 156.475 72.4431 157.07 72.1811C157.666 71.9191 158.308 71.7809 158.959 71.7749C159.601 71.739 160.244 71.8452 160.84 72.086C161.437 72.3268 161.973 72.6962 162.41 73.1679C163.223 74.2857 163.602 75.6604 163.478 77.0369V84.8119H160.534V77.7269C160.615 76.8303 160.434 75.9297 160.013 75.1339C159.789 74.8691 159.503 74.664 159.18 74.5368C158.858 74.4096 158.508 74.3643 158.164 74.4049C157.764 74.3675 157.361 74.4371 156.997 74.6067C156.633 74.7763 156.321 75.0397 156.092 75.3699C155.609 76.4063 155.402 77.55 155.492 78.6899V84.8119H152.548L152.551 72.1259Z" fill="#9FB6BB"/>
<path d="M178.749 79.1588H169.658C169.688 80.0827 170.048 80.9653 170.674 81.6458C170.975 81.9483 171.335 82.1855 171.732 82.3424C172.129 82.4993 172.554 82.5726 172.98 82.5578C173.624 82.5831 174.259 82.4004 174.791 82.0368C175.429 81.4892 175.971 80.8373 176.391 80.1088L178.865 81.4888C178.522 82.0882 178.116 82.6497 177.654 83.1638C177.253 83.6072 176.793 83.9929 176.286 84.3098C175.798 84.6092 175.267 84.8308 174.711 84.9668C174.109 85.1099 173.493 85.1801 172.874 85.1758C172.028 85.2123 171.185 85.0686 170.399 84.7544C169.613 84.4401 168.903 83.9623 168.316 83.3528C167.127 82.0163 166.51 80.2672 166.596 78.4808C166.516 76.7045 167.112 74.9639 168.264 73.6098C169.444 72.4426 171.035 71.7838 172.694 71.774C174.354 71.7643 175.952 72.4045 177.146 73.5578C178.289 74.929 178.867 76.6845 178.761 78.4668L178.749 79.1588ZM175.74 76.7588C175.627 76.0707 175.261 75.4494 174.714 75.0161C174.168 74.5828 173.48 74.3684 172.784 74.4148C172.444 74.4123 172.106 74.467 171.784 74.5768C171.475 74.6836 171.187 74.8418 170.931 75.0448C170.672 75.2519 170.45 75.5011 170.274 75.7818C170.085 76.0833 169.944 76.4127 169.857 76.7578L175.74 76.7588Z" fill="#9FB6BB"/>
<path d="M189.299 74.2879L186.877 75.5779C186.495 74.7972 186.022 74.4062 185.458 74.4049C185.201 74.3999 184.952 74.4961 184.766 74.6729C184.673 74.76 184.599 74.8659 184.549 74.9836C184.5 75.1014 184.477 75.2283 184.48 75.3559C184.48 75.8426 185.044 76.3246 186.173 76.8019C187.323 77.2232 188.386 77.8501 189.312 78.6519C189.872 79.2749 190.163 80.0943 190.12 80.9309C190.131 81.5109 190.015 82.0862 189.781 82.617C189.547 83.1478 189.2 83.6214 188.765 84.0049C188.175 84.5126 187.471 84.8709 186.714 85.0497C185.956 85.2284 185.166 85.2224 184.411 85.0321C183.657 84.8418 182.958 84.4728 182.376 83.9563C181.794 83.4397 181.344 82.7907 181.065 82.0639L183.565 80.9049C183.78 81.3235 184.047 81.713 184.36 82.0639C184.705 82.3893 185.163 82.567 185.637 82.5589C186.626 82.5589 187.121 82.1076 187.121 81.2049C187.121 80.6842 186.739 80.1979 185.975 79.7459C185.68 79.5979 185.385 79.4542 185.09 79.3149C184.795 79.1756 184.495 79.0322 184.19 78.8849C183.512 78.5936 182.9 78.1684 182.39 77.6349C181.93 77.0555 181.695 76.3299 181.726 75.5909C181.711 75.081 181.804 74.5736 181.999 74.1023C182.194 73.6309 182.487 73.2061 182.858 72.8559C183.618 72.1401 184.628 71.7518 185.672 71.7749C186.462 71.7698 187.234 72.0083 187.883 72.4581C188.532 72.9078 189.026 73.5468 189.299 74.2879Z" fill="#9FB6BB"/>
<path d="M200.338 74.2879L197.916 75.5779C197.533 74.7973 197.06 74.4063 196.497 74.4049C196.24 74.4002 195.992 74.4964 195.806 74.6729C195.712 74.7596 195.638 74.8655 195.589 74.9833C195.539 75.1011 195.516 75.2282 195.52 75.3559C195.52 75.8426 196.084 76.3246 197.212 76.8019C198.362 77.2233 199.426 77.8502 200.352 78.6519C200.912 79.2749 201.203 80.0943 201.16 80.9309C201.171 81.5109 201.055 82.0863 200.821 82.6171C200.587 83.1479 200.24 83.6215 199.805 84.0049C199.215 84.5124 198.511 84.8705 197.753 85.0491C196.996 85.2278 196.206 85.2217 195.452 85.0314C194.697 84.8412 193.999 84.4723 193.416 83.9558C192.834 83.4394 192.384 82.7905 192.105 82.0639L194.605 80.9049C194.819 81.324 195.086 81.7136 195.4 82.0639C195.744 82.3892 196.202 82.5669 196.676 82.5589C197.666 82.5589 198.161 82.1076 198.161 81.2049C198.161 80.6843 197.779 80.1979 197.015 79.7459C196.715 79.5979 196.424 79.4539 196.13 79.3149C195.836 79.1759 195.53 79.0329 195.23 78.8849C194.552 78.5932 193.94 78.1681 193.43 77.6349C192.97 77.0555 192.735 76.3299 192.766 75.5909C192.751 75.0809 192.845 74.5736 193.04 74.1022C193.235 73.6308 193.528 73.2061 193.899 72.8559C194.658 72.1398 195.669 71.7515 196.713 71.7749C197.502 71.7701 198.274 72.0088 198.923 72.4585C199.571 72.9082 200.066 73.5471 200.338 74.2879Z" fill="#9FB6BB"/>
</svg>
