<svg xmlns="http://www.w3.org/2000/svg" width="74.628" height="100" viewBox="0 0 74.628 100">
  <g id="グループ_80" data-name="グループ 80" transform="translate(-245.602 -159.083)">
    <g id="グループ_46" data-name="グループ 46" transform="translate(286.046 223.581)">
      <g id="グループ_45" data-name="グループ 45" transform="translate(0 0)">
        <g id="グループ_44" data-name="グループ 44" transform="translate(0)">
          <g id="グループ_43" data-name="グループ 43">
            <ellipse id="楕円形_1" data-name="楕円形 1" cx="2.747" cy="2.747" rx="2.747" ry="2.747" transform="matrix(0.924, -0.383, 0.383, 0.924, 0, 2.103)" fill="#f32840"/>
          </g>
        </g>
      </g>
    </g>
    <g id="グループ_47" data-name="グループ 47" transform="translate(245.602 168.942)">
      <path id="パス_74" data-name="パス 74" d="M502.825,672.4a1.238,1.238,0,0,0-1.7.425c-3.354,5.59-8.529,7.721-12.687,9.433a25.98,25.98,0,0,0-5.176,2.562,1.239,1.239,0,1,0,1.451,2.009,24.133,24.133,0,0,1,4.669-2.279c4.5-1.852,10.092-4.156,13.868-10.449A1.239,1.239,0,0,0,502.825,672.4Z" transform="translate(-447.964 -606.82)" fill="#f32840"/>
      <path id="パス_75" data-name="パス 75" d="M689.672,228.773a5.334,5.334,0,0,0-7.345-1.64c-2.217,1.407-2.783,1.569-2.783,2.447,0,10.333-.236,10.274.643,10.757a1.239,1.239,0,0,0,1.261-.04l6.584-4.18a5.333,5.333,0,0,0,1.64-7.345Zm-1.723,3.471a2.821,2.821,0,0,1-1.246,1.781L682.023,237v-6.735l1.633-1.036a2.838,2.838,0,0,1,4.293,3.018Z" transform="translate(-615.872 -226.307)" fill="#f32840"/>
      <path id="パス_76" data-name="パス 76" d="M257.358,328.854c.139-3.732-1.76-9.7-2.943-13.408-.212-.664-.4-1.241-.533-1.7-1.877-6.258,7.137-16.7,7.271-30.074.037-3.73,4.5-4.393,5.063.141a1.239,1.239,0,0,0,2.459-.307c-.958-7.651-9.934-6.612-10,.141-.132,13.138-9.447,23.21-7.167,30.811.8,2.653,3.383,10.006,3.387,13.927l-8.878,7.887a1.239,1.239,0,0,0,1.646,1.853l8.059-7.16.057.014a1.235,1.235,0,0,0,.189.021l22.478,24.258-3.556,3.295a1.239,1.239,0,1,0,1.685,1.818l4.465-4.137a1.239,1.239,0,0,0,.067-1.751Z" transform="translate(-245.602 -270.561)" fill="#f32840"/>
      <path id="パス_77" data-name="パス 77" d="M296.419,685a2.1,2.1,0,0,0,2.172,3.6A2.1,2.1,0,0,0,296.419,685Z" transform="translate(-288.086 -617.446)" fill="#f32840"/>
    </g>
    <path id="パス_89" data-name="パス 89" d="M423.865,159.083H393.846a7.773,7.773,0,0,0-7.764,7.764v61.122a7.773,7.773,0,0,0,7.764,7.763h30.018a7.773,7.773,0,0,0,7.764-7.763V216.2a1.239,1.239,0,0,0-2.479,0v3.421H388.561V168.829H429.15v18.788a1.239,1.239,0,0,0,2.479,0v-20.77A7.773,7.773,0,0,0,423.865,159.083Zm-30.018,2.478h30.018a5.292,5.292,0,0,1,5.261,4.789H388.585A5.292,5.292,0,0,1,393.846,161.561Zm35.3,60.537v5.871a5.291,5.291,0,0,1-5.285,5.285H393.846a5.291,5.291,0,0,1-5.286-5.285V222.1Z" transform="translate(-119.876)" fill="#f32840"/>
    <path id="パス_73" data-name="パス 73" d="M652.172,351.317a5.2,5.2,0,0,0-3.505-3.425l2.667-1.693a5.23,5.23,0,0,0-5.607-8.83l-4.375,2.778a5.24,5.24,0,0,0,.339,9.028l-1.043.329a5.195,5.195,0,0,0,.2,9.967,5.08,5.08,0,0,0,3.568,8.806c2.032-.045,3.8.136,5.478-1.614a5.1,5.1,0,0,0-2.366-8.429l1.256-.4A5.2,5.2,0,0,0,652.172,351.317Zm-10.7-7.354c.32-1.434.984-1.583,5.581-4.5a2.751,2.751,0,0,1,2.95,4.645c-4.586,2.911-5.014,3.458-6.449,3.135A2.732,2.732,0,0,1,641.475,343.963Zm7.35,19.131a2.616,2.616,0,0,1-2.548,2.663l-1.92.043a2.606,2.606,0,0,1-1.937-4.4c.92-.962,1.833-.807,3.742-.85a2.619,2.619,0,0,1,2.663,2.547Zm-7.866-6.226a2.7,2.7,0,0,1-1.155-3.66c.669-1.286,1.306-1.251,6.593-2.92a2.719,2.719,0,0,1,1.638,5.186C642.781,357.132,642.251,357.54,640.959,356.868Z" transform="translate(-334.002 -151.444)" fill="#f32840"/>
    <path id="Group" d="M7.431.065A5.154,5.154,0,0,1,12.458,3.5a7.4,7.4,0,0,0,4.506,4.088.159.159,0,0,1,.081.253,6.669,6.669,0,0,0-.811,1.423.164.164,0,0,1-.259.061A6.452,6.452,0,0,0,12.007,7.7a6.536,6.536,0,0,0-1.757.064.168.168,0,0,0-.141.189,2.888,2.888,0,0,0,1.981,2.089,5.936,5.936,0,0,1,.431,11.066,18.292,18.292,0,0,0-5.584,3.2,2.467,2.467,0,0,0-.874,1.766,1.949,1.949,0,0,0,1.9,1.813,2.66,2.66,0,0,0,1.687-.641.8.8,0,0,1,1.011-.044.76.76,0,0,1,.09,1.129,3.277,3.277,0,0,1-2.476.984,5.043,5.043,0,0,1-4.941-4.884c-.035-2.322,1.58-3.941,2.8-5.011a4.032,4.032,0,0,0,.727-4.881A1.967,1.967,0,0,0,4.591,13.8,2.037,2.037,0,0,0,3.242,15.79a.055.055,0,0,1-.084.053,5.736,5.736,0,0,1-1.859-7,.163.163,0,0,1,.217-.079,4.076,4.076,0,0,0,1.557.349,3.543,3.543,0,0,0,1.305-.191.164.164,0,0,0,.053-.27,3.178,3.178,0,0,1-.872-1.323,4.093,4.093,0,0,1-.1-2.487A.032.032,0,0,0,3.426,4.8a3.482,3.482,0,0,0-1.191.518.033.033,0,0,1-.051-.033A3.843,3.843,0,0,1,5.226,2.218a.033.033,0,0,0,.015-.059,3.593,3.593,0,0,0-1.478-.593A4.983,4.983,0,0,1,7.431.065Z" transform="translate(280.603 179.767)" fill="#f32840" fill-rule="evenodd"/>
  </g>
</svg>
